<svg xmlns="http://www.w3.org/2000/svg" width="75.189" height="67.081" viewBox="0 0 75.189 67.081">
  <defs>
    <style>
      .cls-1, .cls-2 {
        fill: none;
        stroke: #000;
        stroke-linecap: round;
        stroke-linejoin: round;
      }

      .cls-1 {
        stroke-width: 2.8px;
      }

      .cls-2 {
        stroke-width: 1.4px;
      }
    </style>
  </defs>
  <g id="火箭气体" transform="translate(-220.736 -483.298)">
    <path id="路径_2920" data-name="路径 2920" class="cls-1" d="M1975.888-3839.788l26.11-26.951a5.651,5.651,0,0,1,8.062,0l.7.71a5.314,5.314,0,0,1,0,7.451h0a3.688,3.688,0,0,1-5.26,0h0a3.8,3.8,0,0,1,0-5.322l.526-.532" transform="translate(-1717.762 4388.188)"/>
    <path id="路径_2921" data-name="路径 2921" class="cls-1" d="M1978.688-3850.988l13.593-15.493a4.04,4.04,0,0,0-.558-5.638l-.534-.442a3.587,3.587,0,0,0-5.088.516h0a2.635,2.635,0,0,0,.364,3.678h0a2.561,2.561,0,0,0,3.634-.368l.327-.4" transform="translate(-1717.762 4388.188)"/>
    <path id="路径_2922" data-name="路径 2922" class="cls-2" d="M1939.487-3887.388l12.052-13.475a2.47,2.47,0,0,1,3.721,0l.324.355a2.817,2.817,0,0,1,0,3.725h0a1.613,1.613,0,0,1-2.428,0h0a2.013,2.013,0,0,1,0-2.661l.243-.266" transform="translate(-1717.762 4388.188)"/>
    <path id="路径_2923" data-name="路径 2923" class="cls-2" d="M1940.78-3892.988l6.274-7.746a2.138,2.138,0,0,0-.258-2.819l-.246-.221a1.571,1.571,0,0,0-2.349.258h0a1.4,1.4,0,0,0,.168,1.839h0a1.123,1.123,0,0,0,1.678-.184l.151-.2" transform="translate(-1717.762 4388.188)"/>
  </g>
</svg>
