<svg xmlns="http://www.w3.org/2000/svg" xmlns:xlink="http://www.w3.org/1999/xlink" width="75.003" height="82.724" viewBox="0 0 75.003 82.724">
  <defs>
    <style>
      .cls-1, .cls-10, .cls-4, .cls-5 {
        fill: none;
      }

      .cls-2, .cls-9 {
        fill: #fff;
      }

      .cls-10, .cls-2, .cls-4, .cls-5, .cls-6, .cls-7, .cls-9 {
        stroke: #000;
      }

      .cls-2, .cls-4, .cls-5 {
        stroke-linecap: round;
        stroke-linejoin: round;
      }

      .cls-2, .cls-6, .cls-7 {
        stroke-width: 2.8px;
      }

      .cls-3 {
        clip-path: url(#clip-path);
      }

      .cls-10, .cls-4, .cls-5, .cls-9 {
        stroke-width: 1.4px;
      }

      .cls-5 {
        stroke-dasharray: 0.714 2.856;
      }

      .cls-6 {
        fill: #ef4851;
      }

      .cls-10, .cls-6, .cls-7, .cls-9 {
        stroke-miterlimit: 10;
      }

      .cls-7 {
        fill: #2fa6e1;
      }

      .cls-8 {
        fill: rgba(0,0,0,0.2);
      }
    </style>
    <clipPath id="clip-path">
      <path id="路径_2928" data-name="路径 2928" class="cls-1" d="M2022.374-3919.81l0,0c.141-.189.281-.387.419-.589.043-.062.084-.126.127-.189q.148-.225.3-.459l.129-.207q.174-.285.343-.583c.019-.033.038-.064.056-.1.128-.229.254-.464.378-.7.04-.078.08-.159.12-.238.086-.168.17-.339.253-.512.045-.092.089-.185.132-.278.086-.183.169-.368.252-.555.034-.077.069-.153.1-.23.108-.249.212-.5.315-.757.043-.109.085-.22.128-.329.062-.161.124-.322.184-.485.048-.128.094-.256.14-.385q.081-.227.159-.458c.045-.132.091-.263.134-.4q.123-.375.238-.755c.048-.159.093-.319.139-.478.035-.124.071-.247.1-.372.047-.171.093-.342.137-.514.028-.108.055-.215.081-.323.161-.644.3-1.3.428-1.949.011-.061.023-.122.034-.183.04-.214.076-.429.112-.643.009-.061.019-.121.028-.181.155-.978.263-1.956.321-2.92l0-.079a24.3,24.3,0,0,0,0-2.908l0-.033a18.261,18.261,0,0,0-.373-2.728l-.011-.049a9.645,9.645,0,0,0-3.387-5.826h0c-6.724-5.043-20.828,2.407-25.87,9.13l-11.414,15.218h0a3.985,3.985,0,0,0-.367-.244c-.039-.023-.079-.044-.119-.066-.092-.051-.185-.1-.281-.143-.044-.021-.088-.042-.133-.061-.113-.048-.228-.091-.345-.13-.025-.009-.05-.02-.075-.028-.137-.043-.278-.08-.421-.113-.057-.013-.114-.023-.172-.034-.094-.019-.188-.035-.284-.049-.064-.01-.128-.019-.192-.026-.1-.012-.208-.021-.314-.028l-.161-.012h0c-4.666-.209-11.318,4-13.873,7.4l-7.735,10.312a2.323,2.323,0,0,0-.279.492,2.169,2.169,0,0,0-.1.277,2.24,2.24,0,0,0-.063.287,2.329,2.329,0,0,0,.723,2.05c.058.053.119.1.183.152l5.747,4.311,1.015.761-1.269,3.8h0l-.926,2.78c-.019.057-.033.113-.047.169a1.707,1.707,0,0,0-.04.681c0,.024.01.047.015.07a1.086,1.086,0,0,0,.112.3.859.859,0,0,0,.229.262l17.04,12.779a.889.889,0,0,0,.495.173,1.446,1.446,0,0,0,.689-.152,2.029,2.029,0,0,0,.314-.177l5.109-3.537.6-.414,1.015.761,5.747,4.31a2.327,2.327,0,0,0,3.1-.282,2.229,2.229,0,0,0,.153-.183l7.734-10.313c.091-.121.181-.249.271-.38.029-.042.057-.086.086-.129.061-.093.122-.186.183-.283.032-.052.065-.1.1-.159.057-.093.114-.189.17-.286l.1-.167c.059-.106.118-.215.176-.325.027-.05.054-.1.08-.149q.123-.237.243-.483c.023-.048.045-.1.068-.146.057-.12.113-.241.169-.364l.1-.226c.044-.1.087-.2.13-.3q.053-.126.1-.255c.038-.1.077-.193.114-.29s.071-.18.1-.271.07-.19.1-.286q.123-.341.239-.69c.012-.038.025-.075.038-.113.039-.122.077-.246.114-.369.022-.069.043-.138.064-.207.037-.126.073-.253.109-.381l.054-.193c.036-.134.072-.268.106-.4l.039-.154c.17-.684.311-1.377.419-2.067l.006-.037q.039-.257.072-.512l.007-.052a13.421,13.421,0,0,0-.278-5.5l0-.006c-.044-.142-.091-.282-.143-.418h0a4.957,4.957,0,0,0-1.618-2.277h0Z"/>
    </clipPath>
  </defs>
  <g id="火箭" transform="translate(-237.398 -431.208)">
    <path id="路径_2918" data-name="路径 2918" class="cls-2" d="M2023.424-3920.16l0,0c.141-.189.281-.387.419-.589.043-.062.084-.126.127-.189q.148-.225.3-.459l.129-.207q.174-.285.343-.583c.019-.033.038-.064.056-.1.128-.229.254-.464.378-.7.04-.078.08-.159.12-.238q.129-.252.253-.512c.045-.092.089-.185.132-.278.086-.183.169-.368.252-.555.034-.077.069-.153.1-.23.108-.249.212-.5.315-.757.043-.109.085-.22.128-.329.062-.161.124-.322.184-.485.048-.128.094-.256.14-.385.054-.151.107-.3.159-.458.045-.132.091-.263.134-.4q.123-.375.238-.755c.048-.159.093-.319.139-.478.035-.124.071-.247.1-.372q.07-.256.137-.514c.028-.108.055-.215.081-.323q.242-.966.428-1.949c.011-.061.023-.122.034-.183.04-.214.076-.429.112-.643.009-.061.019-.121.028-.181.155-.978.263-1.956.321-2.92l0-.079a24.322,24.322,0,0,0,0-2.908l0-.033a18.26,18.26,0,0,0-.373-2.728l-.011-.049a9.645,9.645,0,0,0-3.387-5.826h0c-6.724-5.043-20.828,2.407-25.87,9.13l-11.414,15.218h0a4.037,4.037,0,0,0-.367-.244c-.039-.023-.079-.044-.119-.066-.092-.051-.185-.1-.281-.143-.044-.021-.088-.042-.133-.061-.113-.048-.228-.091-.345-.13-.025-.009-.05-.02-.075-.028-.137-.043-.278-.08-.421-.113-.057-.013-.114-.023-.172-.034-.094-.019-.188-.035-.284-.049-.064-.01-.128-.019-.192-.026-.1-.012-.208-.021-.314-.028-.054,0-.107-.009-.161-.012h0c-4.666-.209-11.318,3.995-13.873,7.4l-7.735,10.312a2.313,2.313,0,0,0-.279.492,2.153,2.153,0,0,0-.1.277,2.214,2.214,0,0,0-.063.287,2.328,2.328,0,0,0,.723,2.05q.087.08.183.152l5.747,4.311,1.015.761-1.269,3.8h0l-.926,2.78c-.019.057-.033.113-.047.169a1.708,1.708,0,0,0-.04.681c0,.024.01.047.015.07a1.076,1.076,0,0,0,.112.3.857.857,0,0,0,.229.262l17.04,12.779a.889.889,0,0,0,.495.173,1.447,1.447,0,0,0,.689-.152,2.014,2.014,0,0,0,.314-.177l5.109-3.537.6-.414,1.015.761,5.747,4.31a2.327,2.327,0,0,0,3.105-.282,2.275,2.275,0,0,0,.153-.183l7.734-10.313c.091-.121.181-.249.271-.38.029-.042.057-.086.086-.129.061-.093.122-.186.183-.283.032-.052.065-.1.1-.159.057-.093.114-.189.17-.286l.1-.167c.059-.106.118-.215.176-.325.027-.05.054-.1.08-.149q.123-.237.243-.483c.023-.048.045-.1.068-.146.057-.12.113-.241.169-.364l.1-.226c.044-.1.087-.2.13-.3q.052-.126.1-.255c.038-.1.077-.193.114-.29s.071-.18.1-.271.07-.19.1-.286q.123-.341.239-.69c.012-.038.025-.075.038-.113.039-.122.077-.246.114-.369.022-.069.043-.138.064-.207.037-.126.073-.253.109-.381l.054-.193c.036-.134.072-.268.106-.4l.039-.154c.17-.684.311-1.377.419-2.067l.006-.037c.026-.171.05-.342.072-.512l.007-.052a13.421,13.421,0,0,0-.278-5.5l0-.006c-.044-.142-.091-.282-.143-.418h0a4.957,4.957,0,0,0-1.618-2.277h0Z" transform="translate(-1717.762 4388.188)"/>
    <g id="组_2311" data-name="组 2311" transform="translate(-1717.762 4388.188)">
      <g id="组_2310" data-name="组 2310" class="cls-3">
        <g id="组_2309" data-name="组 2309">
          <g id="组_2282" data-name="组 2282">
            <line id="直线_1669" data-name="直线 1669" class="cls-4" x2="0.064" y2="0.344" transform="translate(1962.208 -3934.667)"/>
            <line id="直线_1670" data-name="直线 1670" class="cls-5" x2="11.505" y2="61.764" transform="translate(1962.795 -3931.515)"/>
            <line id="直线_1671" data-name="直线 1671" class="cls-4" x2="0.064" y2="0.344" transform="translate(1974.561 -3868.347)"/>
          </g>
          <g id="组_2283" data-name="组 2283">
            <line id="直线_1672" data-name="直线 1672" class="cls-4" x2="0.064" y2="0.344" transform="translate(1964.94 -3935.176)"/>
            <line id="直线_1673" data-name="直线 1673" class="cls-5" x2="11.505" y2="61.764" transform="translate(1965.527 -3932.024)"/>
            <line id="直线_1674" data-name="直线 1674" class="cls-4" x2="0.064" y2="0.344" transform="translate(1977.294 -3868.856)"/>
          </g>
          <g id="组_2284" data-name="组 2284">
            <line id="直线_1675" data-name="直线 1675" class="cls-4" x2="0.064" y2="0.344" transform="translate(1967.673 -3935.685)"/>
            <line id="直线_1676" data-name="直线 1676" class="cls-5" x2="11.505" y2="61.764" transform="translate(1968.26 -3932.533)"/>
            <line id="直线_1677" data-name="直线 1677" class="cls-4" x2="0.064" y2="0.344" transform="translate(1980.026 -3869.365)"/>
          </g>
          <g id="组_2285" data-name="组 2285">
            <line id="直线_1678" data-name="直线 1678" class="cls-4" x2="0.064" y2="0.344" transform="translate(1970.406 -3936.194)"/>
            <line id="直线_1679" data-name="直线 1679" class="cls-5" x2="11.505" y2="61.764" transform="translate(1970.993 -3933.042)"/>
            <line id="直线_1680" data-name="直线 1680" class="cls-4" x2="0.064" y2="0.344" transform="translate(1982.759 -3869.875)"/>
          </g>
          <g id="组_2286" data-name="组 2286">
            <line id="直线_1681" data-name="直线 1681" class="cls-4" x2="0.064" y2="0.344" transform="translate(1973.139 -3936.703)"/>
            <line id="直线_1682" data-name="直线 1682" class="cls-5" x2="11.505" y2="61.764" transform="translate(1973.726 -3933.551)"/>
            <line id="直线_1683" data-name="直线 1683" class="cls-4" x2="0.064" y2="0.344" transform="translate(1985.492 -3870.384)"/>
          </g>
          <g id="组_2287" data-name="组 2287">
            <line id="直线_1684" data-name="直线 1684" class="cls-4" x2="0.064" y2="0.344" transform="translate(1975.871 -3937.212)"/>
            <line id="直线_1685" data-name="直线 1685" class="cls-5" x2="11.505" y2="61.764" transform="translate(1976.458 -3934.06)"/>
            <line id="直线_1686" data-name="直线 1686" class="cls-4" x2="0.064" y2="0.344" transform="translate(1988.225 -3870.893)"/>
          </g>
          <g id="组_2288" data-name="组 2288">
            <line id="直线_1687" data-name="直线 1687" class="cls-4" x2="0.064" y2="0.344" transform="translate(1978.604 -3937.721)"/>
            <line id="直线_1688" data-name="直线 1688" class="cls-5" x2="11.505" y2="61.764" transform="translate(1979.191 -3934.569)"/>
            <line id="直线_1689" data-name="直线 1689" class="cls-4" x2="0.064" y2="0.344" transform="translate(1990.957 -3871.402)"/>
          </g>
          <g id="组_2289" data-name="组 2289">
            <line id="直线_1690" data-name="直线 1690" class="cls-4" x2="0.064" y2="0.344" transform="translate(1981.337 -3938.23)"/>
            <line id="直线_1691" data-name="直线 1691" class="cls-5" x2="11.505" y2="61.764" transform="translate(1981.924 -3935.078)"/>
            <line id="直线_1692" data-name="直线 1692" class="cls-4" x2="0.064" y2="0.344" transform="translate(1993.69 -3871.911)"/>
          </g>
          <g id="组_2290" data-name="组 2290">
            <line id="直线_1693" data-name="直线 1693" class="cls-4" x2="0.064" y2="0.344" transform="translate(1984.069 -3938.739)"/>
            <line id="直线_1694" data-name="直线 1694" class="cls-5" x2="11.505" y2="61.764" transform="translate(1984.656 -3935.587)"/>
            <line id="直线_1695" data-name="直线 1695" class="cls-4" x2="0.064" y2="0.344" transform="translate(1996.423 -3872.42)"/>
          </g>
          <g id="组_2291" data-name="组 2291">
            <line id="直线_1696" data-name="直线 1696" class="cls-4" x2="0.064" y2="0.344" transform="translate(1986.802 -3939.248)"/>
            <line id="直线_1697" data-name="直线 1697" class="cls-5" x2="11.505" y2="61.764" transform="translate(1987.389 -3936.096)"/>
            <line id="直线_1698" data-name="直线 1698" class="cls-4" x2="0.064" y2="0.344" transform="translate(1999.156 -3872.929)"/>
          </g>
          <g id="组_2292" data-name="组 2292">
            <line id="直线_1699" data-name="直线 1699" class="cls-4" x2="0.064" y2="0.344" transform="translate(1989.535 -3939.757)"/>
            <line id="直线_1700" data-name="直线 1700" class="cls-5" x2="11.505" y2="61.764" transform="translate(1990.122 -3936.605)"/>
            <line id="直线_1701" data-name="直线 1701" class="cls-4" x2="0.064" y2="0.344" transform="translate(2001.888 -3873.438)"/>
          </g>
          <g id="组_2293" data-name="组 2293">
            <line id="直线_1702" data-name="直线 1702" class="cls-4" x2="0.064" y2="0.344" transform="translate(1992.268 -3940.266)"/>
            <line id="直线_1703" data-name="直线 1703" class="cls-5" x2="11.505" y2="61.764" transform="translate(1992.855 -3937.114)"/>
            <line id="直线_1704" data-name="直线 1704" class="cls-4" x2="0.064" y2="0.344" transform="translate(2004.621 -3873.947)"/>
          </g>
          <g id="组_2294" data-name="组 2294">
            <line id="直线_1705" data-name="直线 1705" class="cls-4" x2="0.064" y2="0.344" transform="translate(1995 -3940.775)"/>
            <line id="直线_1706" data-name="直线 1706" class="cls-5" x2="11.505" y2="61.764" transform="translate(1995.587 -3937.623)"/>
            <line id="直线_1707" data-name="直线 1707" class="cls-4" x2="0.064" y2="0.344" transform="translate(2007.354 -3874.456)"/>
          </g>
          <g id="组_2295" data-name="组 2295">
            <line id="直线_1708" data-name="直线 1708" class="cls-4" x2="0.064" y2="0.344" transform="translate(1997.733 -3941.284)"/>
            <line id="直线_1709" data-name="直线 1709" class="cls-5" x2="11.505" y2="61.764" transform="translate(1998.32 -3938.132)"/>
            <line id="直线_1710" data-name="直线 1710" class="cls-4" x2="0.064" y2="0.344" transform="translate(2010.086 -3874.965)"/>
          </g>
          <g id="组_2296" data-name="组 2296">
            <line id="直线_1711" data-name="直线 1711" class="cls-4" x2="0.064" y2="0.344" transform="translate(2000.466 -3941.793)"/>
            <line id="直线_1712" data-name="直线 1712" class="cls-5" x2="11.505" y2="61.764" transform="translate(2001.053 -3938.641)"/>
            <line id="直线_1713" data-name="直线 1713" class="cls-4" x2="0.064" y2="0.344" transform="translate(2012.819 -3875.474)"/>
          </g>
          <g id="组_2297" data-name="组 2297">
            <line id="直线_1714" data-name="直线 1714" class="cls-4" x2="0.064" y2="0.344" transform="translate(2003.198 -3942.302)"/>
            <line id="直线_1715" data-name="直线 1715" class="cls-5" x2="11.505" y2="61.764" transform="translate(2003.786 -3939.15)"/>
            <line id="直线_1716" data-name="直线 1716" class="cls-4" x2="0.064" y2="0.344" transform="translate(2015.552 -3875.983)"/>
          </g>
          <g id="组_2298" data-name="组 2298">
            <line id="直线_1717" data-name="直线 1717" class="cls-4" x2="0.064" y2="0.344" transform="translate(2005.931 -3942.811)"/>
            <line id="直线_1718" data-name="直线 1718" class="cls-5" x2="11.505" y2="61.764" transform="translate(2006.518 -3939.659)"/>
            <line id="直线_1719" data-name="直线 1719" class="cls-4" x2="0.064" y2="0.344" transform="translate(2018.285 -3876.492)"/>
          </g>
          <g id="组_2299" data-name="组 2299">
            <line id="直线_1720" data-name="直线 1720" class="cls-4" x2="0.064" y2="0.344" transform="translate(2008.664 -3943.32)"/>
            <line id="直线_1721" data-name="直线 1721" class="cls-5" x2="11.505" y2="61.764" transform="translate(2009.251 -3940.168)"/>
            <line id="直线_1722" data-name="直线 1722" class="cls-4" x2="0.064" y2="0.344" transform="translate(2021.017 -3877.001)"/>
          </g>
          <g id="组_2300" data-name="组 2300">
            <line id="直线_1723" data-name="直线 1723" class="cls-4" x2="0.064" y2="0.344" transform="translate(2011.397 -3943.829)"/>
            <line id="直线_1724" data-name="直线 1724" class="cls-5" x2="11.505" y2="61.764" transform="translate(2011.984 -3940.677)"/>
            <line id="直线_1725" data-name="直线 1725" class="cls-4" x2="0.064" y2="0.344" transform="translate(2023.75 -3877.51)"/>
          </g>
          <g id="组_2301" data-name="组 2301">
            <line id="直线_1726" data-name="直线 1726" class="cls-4" x2="0.064" y2="0.344" transform="translate(2014.129 -3944.338)"/>
            <line id="直线_1727" data-name="直线 1727" class="cls-5" x2="11.505" y2="61.764" transform="translate(2014.716 -3941.187)"/>
            <line id="直线_1728" data-name="直线 1728" class="cls-4" x2="0.064" y2="0.344" transform="translate(2026.483 -3878.019)"/>
          </g>
          <g id="组_2302" data-name="组 2302">
            <line id="直线_1729" data-name="直线 1729" class="cls-4" x2="0.064" y2="0.344" transform="translate(2016.862 -3944.847)"/>
            <line id="直线_1730" data-name="直线 1730" class="cls-5" x2="11.505" y2="61.764" transform="translate(2017.449 -3941.696)"/>
            <line id="直线_1731" data-name="直线 1731" class="cls-4" x2="0.064" y2="0.344" transform="translate(2029.215 -3878.528)"/>
          </g>
          <g id="组_2303" data-name="组 2303">
            <line id="直线_1732" data-name="直线 1732" class="cls-4" x2="0.064" y2="0.344" transform="translate(2019.595 -3945.356)"/>
            <line id="直线_1733" data-name="直线 1733" class="cls-5" x2="11.505" y2="61.764" transform="translate(2020.182 -3942.205)"/>
            <line id="直线_1734" data-name="直线 1734" class="cls-4" x2="0.064" y2="0.344" transform="translate(2031.948 -3879.037)"/>
          </g>
          <g id="组_2304" data-name="组 2304">
            <line id="直线_1735" data-name="直线 1735" class="cls-4" x2="0.064" y2="0.344" transform="translate(2022.328 -3945.865)"/>
            <line id="直线_1736" data-name="直线 1736" class="cls-5" x2="11.505" y2="61.764" transform="translate(2022.915 -3942.714)"/>
            <line id="直线_1737" data-name="直线 1737" class="cls-4" x2="0.064" y2="0.344" transform="translate(2034.681 -3879.546)"/>
          </g>
          <g id="组_2305" data-name="组 2305">
            <line id="直线_1738" data-name="直线 1738" class="cls-4" x2="0.064" y2="0.344" transform="translate(2025.06 -3946.374)"/>
            <line id="直线_1739" data-name="直线 1739" class="cls-5" x2="11.505" y2="61.764" transform="translate(2025.647 -3943.223)"/>
            <line id="直线_1740" data-name="直线 1740" class="cls-4" x2="0.064" y2="0.344" transform="translate(2037.414 -3880.055)"/>
          </g>
          <g id="组_2306" data-name="组 2306">
            <line id="直线_1741" data-name="直线 1741" class="cls-4" x2="0.064" y2="0.344" transform="translate(2027.793 -3946.883)"/>
            <line id="直线_1742" data-name="直线 1742" class="cls-5" x2="11.505" y2="61.764" transform="translate(2028.38 -3943.732)"/>
            <line id="直线_1743" data-name="直线 1743" class="cls-4" x2="0.064" y2="0.344" transform="translate(2040.146 -3880.564)"/>
          </g>
          <g id="组_2307" data-name="组 2307">
            <line id="直线_1744" data-name="直线 1744" class="cls-4" x2="0.064" y2="0.344" transform="translate(2030.526 -3947.392)"/>
            <line id="直线_1745" data-name="直线 1745" class="cls-5" x2="11.505" y2="61.764" transform="translate(2031.113 -3944.24)"/>
            <line id="直线_1746" data-name="直线 1746" class="cls-4" x2="0.064" y2="0.344" transform="translate(2042.879 -3881.073)"/>
          </g>
          <g id="组_2308" data-name="组 2308">
            <line id="直线_1747" data-name="直线 1747" class="cls-4" x2="0.064" y2="0.344" transform="translate(2033.258 -3947.901)"/>
            <line id="直线_1748" data-name="直线 1748" class="cls-5" x2="11.505" y2="61.764" transform="translate(2033.845 -3944.75)"/>
            <line id="直线_1749" data-name="直线 1749" class="cls-4" x2="0.064" y2="0.344" transform="translate(2045.612 -3881.582)"/>
          </g>
        </g>
      </g>
    </g>
    <g id="组_2312" data-name="组 2312" transform="translate(-1717.762 4388.188)">
      <path id="路径_2929" data-name="路径 2929" class="cls-6" d="M1987.8-3886.894l-24.349-18.261,29.675-39.567c5.042-6.723,19.146-14.173,25.87-9.13h0c6.723,5.042,3.521,20.668-1.522,27.392Z"/>
      <path id="路径_2930" data-name="路径 2930" class="cls-7" d="M1979.58-3883.548l-17.04-12.779a1.3,1.3,0,0,1-.269-1.483l2.569-7.708c.411-1.231,1.758-2.033,2.493-1.482l21.15,15.863c.735.551.343,2.069-.725,2.808l-6.68,4.625A1.293,1.293,0,0,1,1979.58-3883.548Z"/>
      <path id="路径_2931" data-name="路径 2931" class="cls-8" d="M1988.483-3891.137l-1.7-1.273-5.707,3.95a1.294,1.294,0,0,1-1.5.157L1963.2-3900.59l-.926,2.78a1.3,1.3,0,0,0,.269,1.483l17.04,12.779a1.3,1.3,0,0,0,1.5-.156l6.68-4.625C1988.826-3889.068,1989.218-3890.586,1988.483-3891.137Z"/>
      <path id="路径_2932" data-name="路径 2932" class="cls-7" d="M1963.451-3905.155l-5.747-4.311a2.328,2.328,0,0,1-.466-3.258l7.735-10.312c3.151-4.2,12.537-9.619,16.739-6.468h0Z"/>
      <path id="路径_2933" data-name="路径 2933" class="cls-7" d="M1987.8-3886.894l5.747,4.31a2.327,2.327,0,0,0,3.258-.465l7.734-10.313c3.152-4.2,5.724-14.729,1.522-17.881h0Z"/>
      <circle id="椭圆_513" data-name="椭圆 513" class="cls-9" cx="7.609" cy="7.609" r="7.609" transform="translate(1997.691 -3943.2)"/>
      <path id="路径_2934" data-name="路径 2934" class="cls-8" d="M2011.96-3939.26a7.58,7.58,0,0,1-1.334,2.908,7.609,7.609,0,0,1-10.652,1.522,7.56,7.56,0,0,1-2.095-2.418,7.6,7.6,0,0,0,2.855,7.744,7.609,7.609,0,0,0,10.653-1.522A7.6,7.6,0,0,0,2011.96-3939.26Z"/>
      <line id="直线_1750" data-name="直线 1750" class="cls-10" x2="9.131" y2="6.848" transform="translate(1958.886 -3918.09)"/>
      <line id="直线_1751" data-name="直线 1751" class="cls-10" x2="6.087" y2="4.565" transform="translate(1992.365 -3892.981)"/>
      <line id="直线_1752" data-name="直线 1752" class="cls-10" x2="24.348" y2="18.261" transform="translate(1972.582 -3917.33)"/>
      <line id="直线_1753" data-name="直线 1753" class="cls-4" x1="4.565" y2="6.087" transform="translate(2014.43 -3953.852)"/>
      <path id="路径_2935" data-name="路径 2935" class="cls-8" d="M2022.229-3948.657a27.513,27.513,0,0,1-3.994,8.5l-29.675,39.566-18.261-13.7-6.848,9.131,24.349,18.261,29.674-39.566C2021.306-3931.57,2024.071-3941.817,2022.229-3948.657Z"/>
      <path id="路径_2936" data-name="路径 2936" class="cls-8" d="M1978.846-3930.438l-15.966,21.288-5.326-4-.316.421a2.328,2.328,0,0,0,.466,3.258l5.747,4.311,18.261-24.349A5.066,5.066,0,0,0,1978.846-3930.438Z"/>
      <path id="路径_2937" data-name="路径 2937" class="cls-8" d="M2007.679-3908.966a22.6,22.6,0,0,1-3.711,11.61l-7.734,10.312a2.328,2.328,0,0,1-3.258.466l-3.464-2.6-1.712,2.283,5.747,4.31a2.327,2.327,0,0,0,3.258-.465l7.734-10.313C2007.136-3896.825,2009.336-3904.58,2007.679-3908.966Z"/>
    </g>
  </g>
</svg>
