<svg xmlns="http://www.w3.org/2000/svg" width="38.972" height="40.07" viewBox="0 0 38.972 40.07">
  <defs>
    <style>
      .cls-1, .cls-2 {
        fill: #81ffe3;
        stroke-miterlimit: 10;
      }

      .cls-1, .cls-2, .cls-3, .cls-4, .cls-5, .cls-6 {
        stroke: #000;
        stroke-width: 1.4px;
      }

      .cls-1, .cls-3, .cls-4, .cls-5, .cls-6 {
        stroke-linecap: round;
      }

      .cls-3 {
        fill: none;
      }

      .cls-3, .cls-4, .cls-5, .cls-6 {
        stroke-linejoin: round;
      }

      .cls-4 {
        fill: #7affb4;
      }

      .cls-5 {
        fill: #e5493b;
      }

      .cls-6 {
        fill: #ac3b57;
      }
    </style>
  </defs>
  <g id="星球绿" transform="translate(-1736.808 4044.355)">
    <path id="路径_2866" data-name="路径 2866" class="cls-1" d="M1740.037-4028.724a16.754,16.754,0,0,1,4.171-7.322,16.845,16.845,0,0,1,21.215-2.428,16.923,16.923,0,0,1,2.6,2.068c.556.54-4.243,6.389-10.72,13.064s-12.177,11.649-12.734,11.109a16.912,16.912,0,0,1-2.145-2.534,16.813,16.813,0,0,1-2.949-10.353"/>
    <path id="路径_2867" data-name="路径 2867" class="cls-2" d="M1770.167-4033.871a16.844,16.844,0,0,1-1.787,21.278,16.845,16.845,0,0,1-21.215,2.428,137.722,137.722,0,0,0,12.151-11.223A137.956,137.956,0,0,0,1770.167-4033.871Z"/>
    <path id="路径_2868" data-name="路径 2868" class="cls-3" d="M1742.946-4020.638a17.289,17.289,0,0,0,4.583,7.368"/>
    <path id="路径_2869" data-name="路径 2869" class="cls-3" d="M1742.4-4024.109a12.525,12.525,0,0,0,.168,1.842"/>
    <circle id="椭圆_505" data-name="椭圆 505" class="cls-4" cx="1.403" cy="1.403" r="1.403" transform="translate(1755.718 -4036.652)"/>
    <circle id="椭圆_506" data-name="椭圆 506" class="cls-4" cx="0.702" cy="0.702" r="0.702" transform="translate(1751.489 -4033.891)"/>
    <circle id="椭圆_507" data-name="椭圆 507" class="cls-4" cx="0.702" cy="0.702" r="0.702" transform="translate(1759.486 -4030.042)"/>
    <line id="直线_1638" data-name="直线 1638" class="cls-3" x2="2.014" y2="1.954" transform="translate(1756.384 -4018.366)"/>
    <line id="直线_1639" data-name="直线 1639" class="cls-3" x2="4.029" y2="3.909" transform="translate(1759.316 -4021.388)"/>
    <path id="路径_2870" data-name="路径 2870" class="cls-5" d="M1744.15-4007.872c-3.308,2.353-5.673,3.417-6.423,2.689-.962-.933.943-4.611,4.695-9.584a16.912,16.912,0,0,0,2.145,2.534c.557.54,6.258-4.434,12.734-11.109s11.276-12.524,10.72-13.064a16.923,16.923,0,0,0-2.6-2.068c4.857-3.9,8.476-5.915,9.438-4.982s-.943,4.612-4.694,9.585a137.956,137.956,0,0,1-10.851,12.483c-1.847,1.9-3.675,3.7-5.44,5.355"/>
    <path id="路径_2871" data-name="路径 2871" class="cls-6" d="M1750.757-4013.194c-1.253,1.1-2.456,2.118-3.592,3.029"/>
  </g>
</svg>
