<svg xmlns="http://www.w3.org/2000/svg" width="37.548" height="26.516" viewBox="0 0 37.548 26.516">
  <defs>
    <style>
      .cls-1, .cls-2 {
        fill: #fa81ff;
        stroke-miterlimit: 10;
      }

      .cls-1, .cls-2, .cls-3, .cls-4, .cls-5, .cls-6 {
        stroke: #000;
        stroke-width: 1.4px;
      }

      .cls-1, .cls-3, .cls-4, .cls-5, .cls-6 {
        stroke-linecap: round;
      }

      .cls-3 {
        fill: none;
      }

      .cls-3, .cls-4, .cls-5, .cls-6 {
        stroke-linejoin: round;
      }

      .cls-4 {
        fill: #ce7aff;
      }

      .cls-5 {
        fill: #dae53b;
      }

      .cls-6 {
        fill: #aca03b;
      }
    </style>
  </defs>
  <g id="星球粉" transform="translate(-2038.306 4237.977)">
    <path id="路径_2872" data-name="路径 2872" class="cls-1" d="M2046.986-4232.154a12.48,12.48,0,0,1,4.866-3.957,12.537,12.537,0,0,1,15.374,4.029,12.67,12.67,0,0,1,1.246,2.135c.24.524-4.665,3.29-10.956,6.177s-11.587,4.8-11.828,4.279a12.626,12.626,0,0,1-.806-2.337,12.515,12.515,0,0,1,.742-7.977"/>
    <path id="路径_2873" data-name="路径 2873" class="cls-2" d="M2069.278-4227.611a12.536,12.536,0,0,1-6.97,14.283,12.536,12.536,0,0,1-15.374-4.028,102.75,102.75,0,0,0,11.453-4.515A102.641,102.641,0,0,0,2069.278-4227.611Z"/>
    <path id="路径_2874" data-name="路径 2874" class="cls-3" d="M2046.827-4225.76a12.861,12.861,0,0,0,1.2,6.347"/>
    <path id="路径_2875" data-name="路径 2875" class="cls-3" d="M2047.385-4228.315a9.413,9.413,0,0,0-.38,1.324"/>
    <circle id="椭圆_508" data-name="椭圆 508" class="cls-4" cx="1.045" cy="1.045" r="1.045" transform="translate(2059.553 -4233.124)"/>
    <circle id="椭圆_509" data-name="椭圆 509" class="cls-4" cx="0.522" cy="0.522" r="0.522" transform="translate(2056.099 -4232.501)"/>
    <circle id="椭圆_510" data-name="椭圆 510" class="cls-4" cx="0.522" cy="0.522" r="0.522" transform="translate(2060.612 -4227.677)"/>
    <line id="直线_1640" data-name="直线 1640" class="cls-3" x2="0.871" y2="1.899" transform="translate(2055.539 -4220.564)"/>
    <line id="直线_1641" data-name="直线 1641" class="cls-3" x2="1.743" y2="3.797" transform="translate(2058.387 -4221.871)"/>
    <path id="路径_2876" data-name="路径 2876" class="cls-5" d="M2044.224-4216.578c-2.929.742-4.856.843-5.181.136-.416-.906,1.9-2.946,5.839-5.386a12.626,12.626,0,0,0,.806,2.337c.241.524,5.536-1.392,11.828-4.279s11.2-5.653,10.956-6.177a12.67,12.67,0,0,0-1.246-2.135c4.421-1.4,7.475-1.821,7.891-.915s-1.9,2.946-5.839,5.386a102.641,102.641,0,0,1-10.891,5.74c-1.794.823-3.546,1.577-5.216,2.25"/>
    <path id="路径_2877" data-name="路径 2877" class="cls-6" d="M2050.241-4218.491c-1.166.428-2.274.808-3.307,1.135"/>
  </g>
</svg>
