<svg xmlns="http://www.w3.org/2000/svg" width="352.887" height="280.654" viewBox="0 0 352.887 280.654">
  <defs>
    <style>
      .cls-1, .cls-4 {
        fill: #fff;
      }

      .cls-1, .cls-2, .cls-3, .cls-4, .cls-5 {
        stroke: #191919;
      }

      .cls-1, .cls-4, .cls-5 {
        stroke-miterlimit: 10;
      }

      .cls-1, .cls-2, .cls-3 {
        stroke-width: 1.4px;
      }

      .cls-2, .cls-5 {
        fill: #ffda34;
      }

      .cls-2, .cls-3 {
        stroke-linecap: round;
        stroke-linejoin: round;
      }

      .cls-3 {
        fill: #8bff65;
      }

      .cls-4, .cls-5 {
        stroke-width: 2.8px;
      }
    </style>
  </defs>
  <g id="低层装饰-加减等" transform="translate(-19.366 -246.968)">
    <g id="组_619" data-name="组 619" transform="translate(-2126.486 -4706.44)">
      <path id="路径_631" data-name="路径 631" class="cls-1" d="M2494.218,5039.022l-11.762-2.823a.378.378,0,0,1-.279-.456l2.822-11.762a.376.376,0,0,0-.279-.455l-8.086-1.941a.378.378,0,0,0-.456.279l-2.823,11.762a.379.379,0,0,1-.456.28l-11.762-2.823a.378.378,0,0,0-.456.279l-1.94,8.086a.377.377,0,0,0,.279.456l11.762,2.823a.378.378,0,0,1,.279.456l-2.822,11.762a.378.378,0,0,0,.279.456l8.086,1.94a.378.378,0,0,0,.456-.279l2.823-11.762a.378.378,0,0,1,.456-.279l11.762,2.822a.376.376,0,0,0,.455-.279l1.941-8.086A.378.378,0,0,0,2494.218,5039.022Z"/>
      <path id="路径_632" data-name="路径 632" class="cls-2" d="M2491.983,5035.376l-11.762-2.823a.379.379,0,0,1-.279-.456l2.823-11.762a.379.379,0,0,0-.28-.456l-8.086-1.94a.378.378,0,0,0-.456.279l-2.823,11.762a.377.377,0,0,1-.456.279l-11.762-2.823a.378.378,0,0,0-.455.28l-1.941,8.086a.378.378,0,0,0,.279.456l11.762,2.823a.379.379,0,0,1,.28.456L2466,5051.3a.377.377,0,0,0,.279.455l8.086,1.941a.377.377,0,0,0,.456-.279l2.823-11.762a.38.38,0,0,1,.456-.28l11.762,2.823a.377.377,0,0,0,.456-.279l1.94-8.086A.377.377,0,0,0,2491.983,5035.376Z"/>
    </g>
    <g id="组_620" data-name="组 620" transform="translate(-2126.486 -4706.44)">
      <rect id="矩形_21208" data-name="矩形 21208" class="cls-1" width="9.072" height="34.776" rx="0.378" transform="translate(2149.28 4966.55) rotate(-83.321)"/>
      <rect id="矩形_21209" data-name="矩形 21209" class="cls-3" width="9.072" height="34.776" rx="0.378" transform="translate(2146.628 4963.195) rotate(-83.321)"/>
    </g>
    <g id="组_616" data-name="组 616" transform="translate(-2135.486 -4706.44)">
      <path id="路径_629" data-name="路径 629" class="cls-4" d="M2476.085,5213.335,2456.83,5199.4c-.016-.012-.03-.023-.045-.036-.183-.168-1.513-1.4-1.847-1.834h0c-4.281-5.563,6.045-13.155,17.025-23.888,10.683-10.444,25.437-27.242,26.213-28.128a.549.549,0,0,1,.073-.068,1.263,1.263,0,0,1,1.935.276.371.371,0,0,1,.029.046c2.824,5.138,3.371,15.3,2.513,18.017-.534,1.7-9.4,9.946-16.024,15.944a.5.5,0,0,0,.625.767c5.46-3.983,12.157-8.931,14.5-10.926,3.893-3.313,4-.425,4,.015a.434.434,0,0,0,.013.114c1.4,5.825-.492,14-3.889,16.218a127.733,127.733,0,0,1-11.509,5.652.5.5,0,0,0,.345.926l.759-.226c3.934-1.174,8.917-2.7,10.349-2.789,3.372-.208.379,6.4.379,6.4-4.128,9.508-8.793,9.508-9.249,9.484a.5.5,0,0,0-.076,0c-2.918.327-5.4.691-7.514,1.07a.5.5,0,0,0-.3.791l6.478,8.38a.5.5,0,0,1-.189.755l-6.2,2.793a.494.494,0,0,0-.185.759l9.405,11.888a.5.5,0,0,1-.628.742l-25.506-14.024a.5.5,0,0,1,.035-.887l7.654-3.447A.5.5,0,0,0,2476.085,5213.335Zm-21.147-15.807"/>
      <path id="路径_630" data-name="路径 630" class="cls-5" d="M2469.718,5211.129l-19.255-13.936a.477.477,0,0,1-.045-.037c-.183-.168-1.513-1.394-1.847-1.833h0c-4.281-5.564,6.045-13.155,17.025-23.888,10.683-10.445,25.437-27.243,26.213-28.128a.473.473,0,0,1,.073-.068,1.263,1.263,0,0,1,1.935.276.4.4,0,0,1,.029.046c2.823,5.138,3.371,15.305,2.513,18.017-.535,1.7-9.395,9.946-16.024,15.943a.5.5,0,0,0,.625.768c5.46-3.983,12.157-8.932,14.5-10.927,3.893-3.312,4.005-.424,4,.016a.44.44,0,0,0,.013.114c1.4,5.825-.492,14-3.89,16.218a127.006,127.006,0,0,1-11.508,5.651.5.5,0,0,0,.345.927l.759-.226c3.934-1.174,8.917-2.7,10.349-2.789,3.372-.209.379,6.4.379,6.4-4.128,9.508-8.793,9.508-9.249,9.484a.494.494,0,0,0-.076,0c-2.918.327-5.4.691-7.514,1.069a.5.5,0,0,0-.3.792l6.478,8.379a.5.5,0,0,1-.189.756l-6.2,2.792a.5.5,0,0,0-.185.76l9.405,11.888a.5.5,0,0,1-.628.742l-25.506-14.025a.5.5,0,0,1,.035-.886l7.654-3.447A.5.5,0,0,0,2469.718,5211.129Zm-21.147-15.806"/>
    </g>
  </g>
</svg>
