<svg xmlns="http://www.w3.org/2000/svg" xmlns:xlink="http://www.w3.org/1999/xlink" width="90.73" height="102.967" viewBox="0 0 90.73 102.967">
  <defs>
    <style>
      .cls-1, .cls-28, .cls-30 {
        fill: none;
      }

      .cls-2 {
        isolation: isolate;
      }

      .cls-3 {
        clip-path: url(#clip-path);
      }

      .cls-4 {
        fill: #121212;
      }

      .cls-5 {
        fill: #131313;
      }

      .cls-6 {
        fill: #141414;
      }

      .cls-7 {
        fill: #151414;
      }

      .cls-8 {
        fill: #151515;
      }

      .cls-23, .cls-9 {
        fill: #161616;
      }

      .cls-10 {
        fill: #171717;
      }

      .cls-11 {
        fill: #1c1c1c;
      }

      .cls-12 {
        fill: #212121;
      }

      .cls-13 {
        fill: #262626;
      }

      .cls-14 {
        fill: #2b2b2b;
      }

      .cls-15 {
        fill: #303030;
      }

      .cls-16 {
        fill: #353535;
      }

      .cls-17 {
        fill: #3a3a3a;
      }

      .cls-18 {
        clip-path: url(#clip-path-2);
      }

      .cls-19 {
        fill: #111;
      }

      .cls-20 {
        fill: #101010;
      }

      .cls-21 {
        fill: #181818;
      }

      .cls-21, .cls-23, .cls-28 {
        stroke: #000;
        stroke-miterlimit: 10;
        stroke-width: 2.8px;
      }

      .cls-22 {
        fill: #454545;
      }

      .cls-24 {
        clip-path: url(#clip-path-3);
      }

      .cls-25 {
        fill: #3f3f3f;
      }

      .cls-26 {
        fill: #444;
      }

      .cls-27 {
        fill: #4a4a4a;
      }

      .cls-29 {
        fill: #ffda34;
      }

      .cls-29, .cls-30 {
        stroke: #bc5b2a;
        stroke-linecap: round;
        stroke-linejoin: round;
        stroke-width: 0.7px;
      }
    </style>
    <clipPath id="clip-path">
      <path id="路径_1177" data-name="路径 1177" class="cls-1" d="M2440.342,5178.337l-1.513,2.131c-.134.189-.587.152-1.335-.156l1.512-2.132C2439.754,5178.489,2440.207,5178.526,2440.342,5178.337Z"/>
    </clipPath>
    <clipPath id="clip-path-2">
      <path id="路径_1181" data-name="路径 1181" class="cls-1" d="M2355.278,5121.813l1.512-2.131c-.143.2.078.661.693,1.323l-1.513,2.131C2355.355,5122.474,2355.135,5122.015,2355.278,5121.813Z"/>
    </clipPath>
    <clipPath id="clip-path-3">
      <path id="路径_1206" data-name="路径 1206" class="cls-1" d="M2395.769,5160.344l-1.512,2.131a16.858,16.858,0,0,1-4.96-3.479l1.512-2.131A16.889,16.889,0,0,0,2395.769,5160.344Z"/>
    </clipPath>
  </defs>
  <g id="学士帽" transform="translate(-2351.053 -5118.162)">
    <g id="组_683" data-name="组 683" class="cls-2">
      <g id="组_682" data-name="组 682" class="cls-3">
        <path id="路径_1163" data-name="路径 1163" class="cls-4" d="M2440.342,5178.337l-1.512,2.131-.009.011,1.512-2.131.009-.012"/>
        <path id="路径_1164" data-name="路径 1164" class="cls-5" d="M2440.333,5178.348l-1.512,2.132a.228.228,0,0,1-.046.041l1.513-2.131a.245.245,0,0,0,.045-.042"/>
        <path id="路径_1165" data-name="路径 1165" class="cls-6" d="M2440.288,5178.39l-1.513,2.131a.24.24,0,0,1-.055.03l1.512-2.132a.3.3,0,0,0,.056-.029"/>
        <path id="路径_1166" data-name="路径 1166" class="cls-7" d="M2440.232,5178.419l-1.512,2.132a.362.362,0,0,1-.064.019l1.512-2.131a.378.378,0,0,0,.064-.02"/>
        <path id="路径_1167" data-name="路径 1167" class="cls-8" d="M2440.168,5178.439l-1.512,2.131a.476.476,0,0,1-.073.011l1.513-2.131c.025,0,.05-.006.072-.011"/>
        <path id="路径_1168" data-name="路径 1168" class="cls-9" d="M2440.1,5178.45l-1.513,2.131c-.025,0-.052,0-.081,0l1.512-2.132a.747.747,0,0,0,.082,0"/>
        <path id="路径_1169" data-name="路径 1169" class="cls-10" d="M2440.014,5178.452l-1.512,2.132c-.029,0-.059,0-.091,0l1.513-2.132a.838.838,0,0,0,.09.005"/>
        <path id="路径_1170" data-name="路径 1170" class="cls-11" d="M2439.924,5178.447l-1.513,2.132c-.031,0-.065-.008-.1-.013l1.512-2.132c.035.006.069.01.1.013"/>
        <path id="路径_1171" data-name="路径 1171" class="cls-12" d="M2439.823,5178.434l-1.512,2.132c-.036-.006-.074-.013-.113-.022l1.512-2.131c.04.008.077.016.113.021"/>
        <path id="路径_1172" data-name="路径 1172" class="cls-13" d="M2439.71,5178.413l-1.512,2.131-.126-.031,1.512-2.131c.044.012.086.022.126.031"/>
        <path id="路径_1173" data-name="路径 1173" class="cls-14" d="M2439.584,5178.382l-1.512,2.131c-.046-.012-.094-.026-.144-.042l1.513-2.131c.049.016.1.03.143.042"/>
        <path id="路径_1174" data-name="路径 1174" class="cls-15" d="M2439.441,5178.34l-1.513,2.131c-.054-.017-.111-.036-.17-.057l1.512-2.131c.059.021.116.04.171.057"/>
        <path id="路径_1175" data-name="路径 1175" class="cls-16" d="M2439.27,5178.283l-1.512,2.131-.205-.078,1.513-2.131.2.078"/>
        <path id="路径_1176" data-name="路径 1176" class="cls-17" d="M2439.066,5178.205l-1.513,2.131-.059-.024,1.512-2.132.06.025"/>
      </g>
    </g>
    <g id="组_685" data-name="组 685" class="cls-2">
      <g id="组_684" data-name="组 684" class="cls-18">
        <path id="路径_1178" data-name="路径 1178" class="cls-4" d="M2357.483,5121l-1.512,2.131-.007-.007,1.512-2.131.007.008"/>
        <path id="路径_1179" data-name="路径 1179" class="cls-19" d="M2357.476,5121l-1.513,2.131c-.075-.081-.145-.16-.209-.235l1.512-2.132c.064.076.134.154.21.236"/>
        <path id="路径_1180" data-name="路径 1180" class="cls-20" d="M2357.266,5120.761l-1.512,2.132c-.449-.532-.6-.9-.476-1.08l1.512-2.131c-.125.176.027.548.476,1.079"/>
      </g>
    </g>
    <rect id="矩形_21223" data-name="矩形 21223" class="cls-21" width="60.522" height="43.849" rx="11.661" transform="translate(2377.784 5125.802) rotate(34.418)"/>
    <rect id="矩形_21224" data-name="矩形 21224" class="cls-5" width="15.532" height="41.748" transform="matrix(0.825, 0.565, -0.565, 0.825, 2387.817, 5132.677)"/>
    <rect id="矩形_21225" data-name="矩形 21225" class="cls-12" width="8.569" height="41.748" transform="matrix(0.825, 0.565, -0.565, 0.825, 2412.118, 5149.327)"/>
    <rect id="矩形_21226" data-name="矩形 21226" class="cls-22" width="3.214" height="41.748" transform="matrix(0.825, 0.565, -0.565, 0.825, 2415.211, 5151.446)"/>
    <path id="路径_1182" data-name="路径 1182" class="cls-23" d="M2399.849,5139.884a16.893,16.893,0,0,1,4.959,3.478l33.326,35.86c1.193,1.283.905,1.806-.642,1.167l-43.236-17.836a16.88,16.88,0,0,1-4.96-3.479l-33.327-35.86c-1.191-1.282-.9-1.8.643-1.166Z"/>
    <path id="路径_1183" data-name="路径 1183" class="cls-5" d="M2390.809,5156.865,2389.3,5159l-33.326-35.86,1.512-2.131Z"/>
    <path id="路径_1184" data-name="路径 1184" class="cls-22" d="M2439.006,5178.18l-1.512,2.131-43.237-17.837,1.512-2.131Z"/>
    <g id="组_687" data-name="组 687" class="cls-2">
      <g id="组_686" data-name="组 686" class="cls-24">
        <path id="路径_1185" data-name="路径 1185" class="cls-17" d="M2395.769,5160.344l-1.512,2.131c-.064-.026-.128-.054-.194-.084l1.512-2.131.194.084"/>
        <path id="路径_1186" data-name="路径 1186" class="cls-25" d="M2395.575,5160.26l-1.512,2.131c-.1-.045-.208-.1-.316-.147l1.512-2.132c.108.053.213.1.316.148"/>
        <path id="路径_1187" data-name="路径 1187" class="cls-26" d="M2395.259,5160.112l-1.512,2.132c-.123-.061-.249-.126-.377-.194l1.512-2.131c.128.068.254.133.377.193"/>
        <path id="路径_1188" data-name="路径 1188" class="cls-27" d="M2394.882,5159.919l-1.512,2.131c-.367-.2-.75-.425-1.134-.673l1.513-2.132c.383.249.766.477,1.133.674"/>
        <path id="路径_1189" data-name="路径 1189" class="cls-26" d="M2393.749,5159.245l-1.513,2.132-.224-.148,1.513-2.131c.074.05.149.1.224.147"/>
        <path id="路径_1190" data-name="路径 1190" class="cls-25" d="M2393.525,5159.1l-1.513,2.131-.188-.127,1.512-2.131.189.127"/>
        <path id="路径_1191" data-name="路径 1191" class="cls-17" d="M2393.336,5158.971l-1.512,2.131-.172-.119,1.512-2.131.172.119"/>
        <path id="路径_1192" data-name="路径 1192" class="cls-16" d="M2393.164,5158.852l-1.512,2.131-.165-.117,1.512-2.131.165.117"/>
        <path id="路径_1193" data-name="路径 1193" class="cls-15" d="M2393,5158.735l-1.512,2.131-.166-.12,1.513-2.131.165.12"/>
        <path id="路径_1194" data-name="路径 1194" class="cls-14" d="M2392.834,5158.615l-1.513,2.131-.167-.124,1.513-2.131c.055.042.111.083.167.124"/>
        <path id="路径_1195" data-name="路径 1195" class="cls-13" d="M2392.667,5158.491l-1.513,2.131q-.086-.063-.17-.129l1.512-2.131c.056.043.113.086.171.129"/>
        <path id="路径_1196" data-name="路径 1196" class="cls-12" d="M2392.5,5158.362l-1.512,2.131-.171-.132,1.512-2.132.171.133"/>
        <path id="路径_1197" data-name="路径 1197" class="cls-11" d="M2392.325,5158.229l-1.512,2.132-.172-.137,1.512-2.131c.057.046.114.091.172.136"/>
        <path id="路径_1198" data-name="路径 1198" class="cls-10" d="M2392.153,5158.093l-1.512,2.131-.17-.138,1.512-2.131.17.138"/>
        <path id="路径_1199" data-name="路径 1199" class="cls-9" d="M2391.983,5157.955l-1.512,2.131-.167-.14,1.512-2.132.167.141"/>
        <path id="路径_1200" data-name="路径 1200" class="cls-8" d="M2391.816,5157.814l-1.512,2.132-.165-.142,1.512-2.131q.081.071.165.141"/>
        <path id="路径_1201" data-name="路径 1201" class="cls-7" d="M2391.651,5157.673l-1.512,2.131c-.056-.049-.111-.1-.165-.146l1.513-2.131c.053.048.108.1.164.146"/>
        <path id="路径_1202" data-name="路径 1202" class="cls-6" d="M2391.487,5157.527l-1.513,2.131c-.056-.05-.11-.1-.164-.151l1.512-2.131.165.151"/>
        <path id="路径_1203" data-name="路径 1203" class="cls-5" d="M2391.322,5157.376l-1.512,2.131c-.057-.053-.112-.1-.166-.157l1.512-2.132c.054.053.109.105.166.158"/>
        <path id="路径_1204" data-name="路径 1204" class="cls-4" d="M2391.156,5157.218l-1.512,2.132c-.059-.057-.115-.114-.171-.17l1.513-2.131c.055.056.112.113.17.169"/>
        <path id="路径_1205" data-name="路径 1205" class="cls-4" d="M2390.986,5157.049l-1.513,2.131c-.061-.062-.119-.123-.176-.184l1.512-2.131q.085.091.177.184"/>
      </g>
    </g>
    <path id="路径_1207" data-name="路径 1207" class="cls-23" d="M2401.362,5137.675a16.862,16.862,0,0,1,4.959,3.478l33.327,35.86c1.192,1.283.905,1.806-.642,1.167l-43.237-17.836a16.889,16.889,0,0,1-4.96-3.479L2357.483,5121c-1.192-1.282-.9-1.8.643-1.167Z"/>
    <rect id="矩形_21227" data-name="矩形 21227" width="3.214" height="3.214" rx="1.314" transform="translate(2398.79 5146.038) rotate(34.418)"/>
    <path id="路径_1208" data-name="路径 1208" class="cls-28" d="M2399.207,5148.272,2433.4,5175.6l-2.348,27.594"/>
    <path id="路径_1209" data-name="路径 1209" class="cls-29" d="M2427.188,5220.6a.4.4,0,0,1-.391-.413l.411-14.991a3.626,3.626,0,0,1,3.713-3.514h0a3.625,3.625,0,0,1,3.515,3.712l-.411,14.991a.4.4,0,0,1-.412.391"/>
    <path id="路径_1210" data-name="路径 1210" class="cls-30" d="M2427.188,5220.6a.4.4,0,0,1-.391-.413l.411-14.991a3.626,3.626,0,0,1,3.713-3.514h0a3.625,3.625,0,0,1,3.515,3.712l-.411,14.991a.4.4,0,0,1-.412.391"/>
    <path id="路径_1211" data-name="路径 1211" class="cls-30" d="M2428.393,5220.636l.465-17a2.008,2.008,0,0,1,2.063-1.952h0a2.008,2.008,0,0,1,1.953,2.062l-.466,17"/>
    <path id="路径_1212" data-name="路径 1212" class="cls-30" d="M2429.731,5220.672l.5-18.337a.668.668,0,0,1,.687-.65h0a.668.668,0,0,1,.651.687l-.5,18.337"/>
  </g>
</svg>
