<svg xmlns="http://www.w3.org/2000/svg" width="82.14" height="87.505" viewBox="0 0 82.14 87.505">
  <defs>
    <style>
      .cls-1 {
        fill: #002e82;
      }

      .cls-1, .cls-2, .cls-3, .cls-6, .cls-7, .cls-8, .cls-9 {
        stroke: #000;
        stroke-miterlimit: 10;
        stroke-width: 1.4px;
      }

      .cls-2 {
        fill: #f9b233;
      }

      .cls-3 {
        fill: #ffc76c;
      }

      .cls-4, .cls-6 {
        fill: #ffe497;
      }

      .cls-5, .cls-7 {
        mix-blend-mode: multiply;
        isolation: isolate;
      }

      .cls-7 {
        fill: #76aadb;
      }

      .cls-8 {
        fill: #1d71b8;
      }

      .cls-9 {
        fill: #fff;
      }
    </style>
  </defs>
  <g id="底层装饰-金牌" transform="translate(1155.723 2450.059)">
    <path id="路径_2505" data-name="路径 2505" class="cls-1" d="M-1143.421-2424.73l-.26.208-10.775,8.617,22.782,12.176c2.182,1.167,4.254,2.52,6.339,3.852a5.247,5.247,0,0,0,2.241.792l7.444.829a2.643,2.643,0,0,0,1.943-.563l3.982-3.184.26-.208,3.981-3.184a2.644,2.644,0,0,0,.976-1.772l.456-7.372a5.211,5.211,0,0,0-.743-3.922l-27.851-14.886Z"/>
    <circle id="椭圆_474" data-name="椭圆 474" class="cls-2" cx="15.414" cy="15.414" r="15.414" transform="translate(-1118.092 -2384.008) rotate(-48.404)"/>
    <g id="组_2049" data-name="组 2049">
      <g id="组_2047" data-name="组 2047">
        <path id="路径_2506" data-name="路径 2506" class="cls-2" d="M-1106.559-2397.272l9.366-7.49a.749.749,0,0,0,.117-1.053l-3.689-4.614a.75.75,0,0,0-1.053-.117l-3.755,3a.749.749,0,0,0-.117,1.053.748.748,0,0,0,1.052.117l3.17-2.535,2.754,3.444-8.781,7.022a.749.749,0,0,0-.117,1.053A.75.75,0,0,0-1106.559-2397.272Z"/>
      </g>
      <g id="组_2048" data-name="组 2048">
        <path id="路径_2507" data-name="路径 2507" class="cls-2" d="M-1115.05-2390.482l9.367-7.491a.748.748,0,0,0,.117-1.052.749.749,0,0,0-1.053-.118l-8.781,7.023-2.754-3.444,3.17-2.535a.75.75,0,0,0,.117-1.053.75.75,0,0,0-1.053-.117l-3.755,3a.75.75,0,0,0-.117,1.053l3.69,4.613A.749.749,0,0,0-1115.05-2390.482Z"/>
      </g>
    </g>
    <circle id="椭圆_475" data-name="椭圆 475" class="cls-3" cx="1.997" cy="1.997" r="1.997" transform="translate(-1108.119 -2399.62)"/>
    <g id="组_2050" data-name="组 2050">
      <path id="路径_2508" data-name="路径 2508" class="cls-4" d="M-1106.353-2393.977a.915.915,0,0,0,.111,1.288.914.914,0,0,0,1.288-.111.914.914,0,0,0-.111-1.288A.914.914,0,0,0-1106.353-2393.977Z"/>
      <path id="路径_2509" data-name="路径 2509" class="cls-4" d="M-1108.405-2390.7a.913.913,0,0,0,.481,1.2.914.914,0,0,0,1.2-.481.915.915,0,0,0-.481-1.2A.914.914,0,0,0-1108.405-2390.7Z"/>
      <path id="路径_2510" data-name="路径 2510" class="cls-4" d="M-1109.416-2386.969a.914.914,0,0,0,.809,1.008.914.914,0,0,0,1.008-.809.914.914,0,0,0-.809-1.008A.914.914,0,0,0-1109.416-2386.969Z"/>
      <path id="路径_2511" data-name="路径 2511" class="cls-4" d="M-1109.3-2383.1a.916.916,0,0,0,1.068.73.915.915,0,0,0,.729-1.068.914.914,0,0,0-1.067-.729A.915.915,0,0,0-1109.3-2383.1Z"/>
      <path id="路径_2512" data-name="路径 2512" class="cls-4" d="M-1108.062-2379.442a.914.914,0,0,0,1.233.388.914.914,0,0,0,.388-1.233.914.914,0,0,0-1.234-.388A.914.914,0,0,0-1108.062-2379.442Z"/>
      <path id="路径_2513" data-name="路径 2513" class="cls-4" d="M-1105.814-2376.3a.915.915,0,0,0,1.293.012.915.915,0,0,0,.012-1.293.914.914,0,0,0-1.293-.012A.915.915,0,0,0-1105.814-2376.3Z"/>
      <path id="路径_2514" data-name="路径 2514" class="cls-4" d="M-1102.748-2373.941a.914.914,0,0,0,1.24-.364.914.914,0,0,0-.364-1.24.915.915,0,0,0-1.241.364A.913.913,0,0,0-1102.748-2373.941Z"/>
      <path id="路径_2515" data-name="路径 2515" class="cls-4" d="M-1099.13-2372.578a.915.915,0,0,0,1.081-.71.913.913,0,0,0-.71-1.08.913.913,0,0,0-1.081.709A.915.915,0,0,0-1099.13-2372.578Z"/>
      <path id="路径_2516" data-name="路径 2516" class="cls-4" d="M-1095.272-2372.327a.915.915,0,0,0,.828-.993.915.915,0,0,0-.993-.828.914.914,0,0,0-.828.993A.914.914,0,0,0-1095.272-2372.327Z"/>
      <path id="路径_2517" data-name="路径 2517" class="cls-4" d="M-1091.508-2373.208a.914.914,0,0,0,.5-1.191.913.913,0,0,0-1.19-.5.913.913,0,0,0-.5,1.19A.914.914,0,0,0-1091.508-2373.208Z"/>
      <path id="路径_2518" data-name="路径 2518" class="cls-4" d="M-1088.163-2375.146a.915.915,0,0,0,.136-1.286.914.914,0,0,0-1.286-.135.914.914,0,0,0-.135,1.286A.913.913,0,0,0-1088.163-2375.146Z"/>
      <path id="路径_2519" data-name="路径 2519" class="cls-4" d="M-1085.525-2377.973a.913.913,0,0,0-.244-1.269.914.914,0,0,0-1.27.244.914.914,0,0,0,.244,1.269A.915.915,0,0,0-1085.525-2377.973Z"/>
      <path id="路径_2520" data-name="路径 2520" class="cls-4" d="M-1083.824-2381.445a.913.913,0,0,0-.6-1.143.913.913,0,0,0-1.143.6.912.912,0,0,0,.6,1.143A.912.912,0,0,0-1083.824-2381.445Z"/>
      <path id="路径_2521" data-name="路径 2521" class="cls-4" d="M-1083.2-2385.261a.915.915,0,0,0-.91-.919.915.915,0,0,0-.919.91.914.914,0,0,0,.91.918A.915.915,0,0,0-1083.2-2385.261Z"/>
      <path id="路径_2522" data-name="路径 2522" class="cls-4" d="M-1083.724-2389.092a.914.914,0,0,0-1.137-.615.914.914,0,0,0-.615,1.137.915.915,0,0,0,1.138.615A.913.913,0,0,0-1083.724-2389.092Z"/>
      <path id="路径_2523" data-name="路径 2523" class="cls-4" d="M-1085.333-2392.607a.915.915,0,0,0-1.267-.258.914.914,0,0,0-.258,1.267.915.915,0,0,0,1.267.258A.915.915,0,0,0-1085.333-2392.607Z"/>
      <path id="路径_2524" data-name="路径 2524" class="cls-4" d="M-1087.9-2395.5a.914.914,0,0,0-1.287.122.914.914,0,0,0,.122,1.287.914.914,0,0,0,1.287-.122A.914.914,0,0,0-1087.9-2395.5Z"/>
      <path id="路径_2525" data-name="路径 2525" class="cls-4" d="M-1091.189-2397.527a.914.914,0,0,0-1.2.491.914.914,0,0,0,.491,1.2.914.914,0,0,0,1.2-.491A.916.916,0,0,0-1091.189-2397.527Z"/>
      <path id="路径_2526" data-name="路径 2526" class="cls-4" d="M-1094.929-2398.507a.916.916,0,0,0-1,.818.913.913,0,0,0,.818,1,.913.913,0,0,0,1-.817A.914.914,0,0,0-1094.929-2398.507Z"/>
      <path id="路径_2527" data-name="路径 2527" class="cls-4" d="M-1098.793-2398.356a.913.913,0,0,0-.72,1.073.913.913,0,0,0,1.073.72.914.914,0,0,0,.721-1.073A.914.914,0,0,0-1098.793-2398.356Z"/>
      <path id="路径_2528" data-name="路径 2528" class="cls-4" d="M-1102.445-2397.089a.913.913,0,0,0-.377,1.236.913.913,0,0,0,1.236.377.912.912,0,0,0,.377-1.236A.913.913,0,0,0-1102.445-2397.089Z"/>
    </g>
    <g id="组_2053" data-name="组 2053">
      <g id="组_2051" data-name="组 2051" class="cls-5">
        <path id="路径_2529" data-name="路径 2529" class="cls-6" d="M-1095.543-2373.763a.8.8,0,0,1-1.3-.145l-1.937-2.422a.8.8,0,0,1,.144-1.3l1.922-1.536-7.861-9.829a.8.8,0,0,1,.145-1.3l5.805-4.643a.8.8,0,0,1,1.3.144l1.937,2.423a.8.8,0,0,1-.144,1.3l-1.842,1.472,5.347,6.686,2.242-1.792a.8.8,0,0,1,1.3.144l1.937,2.422a.8.8,0,0,1-.144,1.3Z"/>
      </g>
      <g id="组_2052" data-name="组 2052">
        <path id="路径_2530" data-name="路径 2530" class="cls-6" d="M-1095.041-2374.874a.8.8,0,0,1-1.3-.145l-1.937-2.422a.8.8,0,0,1,.145-1.3l1.921-1.536-7.86-9.829a.8.8,0,0,1,.144-1.3l5.806-4.643a.8.8,0,0,1,1.3.144l1.937,2.423a.8.8,0,0,1-.145,1.3l-1.841,1.472,5.347,6.686,2.241-1.792a.8.8,0,0,1,1.3.144l1.937,2.422a.8.8,0,0,1-.144,1.3Z"/>
      </g>
    </g>
    <path id="路径_2531" data-name="路径 2531" class="cls-7" d="M-1137.421-2429.528l6.691,26.337,4.135,2.508-8.477-30.724Z"/>
    <path id="路径_2532" data-name="路径 2532" class="cls-8" d="M-1124.3-2440.024l.261-.208,10.775-8.617,6.87,24.9c.658,2.385,1.522,4.7,2.363,7.031a5.223,5.223,0,0,1,.28,2.36l-.828,7.444a2.644,2.644,0,0,1-.977,1.772l-3.981,3.184-.26.208-3.981,3.184a2.643,2.643,0,0,1-1.943.562l-7.444-.828a4.757,4.757,0,0,1-3.433-1.653l-8.477-30.724Z"/>
    <g id="组_2054" data-name="组 2054">
      <path id="路径_2533" data-name="路径 2533" class="cls-9" d="M-1124.8-2436.9l.073,2.741-2.585.917,2.63.778.073,2.741,1.552-2.261,2.63.778-1.671-2.175,1.552-2.261-2.585.917Z"/>
      <path id="路径_2534" data-name="路径 2534" class="cls-9" d="M-1120.9-2425.914l.073,2.741-2.585.917,2.63.778.073,2.741,1.552-2.261,2.63.778-1.671-2.175,1.552-2.261-2.585.917Z"/>
      <path id="路径_2535" data-name="路径 2535" class="cls-9" d="M-1117.006-2414.924l.073,2.742-2.585.917,2.63.778.073,2.741,1.552-2.261,2.63.778-1.671-2.175,1.552-2.261-2.585.917Z"/>
    </g>
  </g>
</svg>
