<svg xmlns="http://www.w3.org/2000/svg" width="82.14" height="87.505" viewBox="0 0 82.14 87.505">
  <defs>
    <style>
      .cls-1 {
        fill: #002e82;
      }

      .cls-1, .cls-2, .cls-3, .cls-6, .cls-7, .cls-8, .cls-9 {
        stroke: #000;
        stroke-miterlimit: 10;
        stroke-width: 1.4px;
      }

      .cls-2 {
        fill: #f9b233;
      }

      .cls-3 {
        fill: #ffc76c;
      }

      .cls-4, .cls-6 {
        fill: #ffe497;
      }

      .cls-5, .cls-7 {
        mix-blend-mode: multiply;
        isolation: isolate;
      }

      .cls-7 {
        fill: #76aadb;
      }

      .cls-8 {
        fill: #1d71b8;
      }

      .cls-9 {
        fill: #fff;
      }
    </style>
  </defs>
  <g id="金牌" transform="translate(1442.47 2367.95)">
    <path id="路径_2474" data-name="路径 2474" class="cls-1" d="M-1372.632-2342.621l.26.208,10.775,8.617-22.782,12.177c-2.182,1.166-4.254,2.519-6.339,3.851a5.231,5.231,0,0,1-2.241.792l-7.444.829a2.644,2.644,0,0,1-1.943-.563l-3.981-3.184-.26-.208-3.982-3.183a2.649,2.649,0,0,1-.976-1.772l-.456-7.373a5.217,5.217,0,0,1,.743-3.922l27.851-14.886Z"/>
    <circle id="椭圆_472" data-name="椭圆 472" class="cls-2" cx="15.414" cy="15.414" r="15.414" transform="matrix(0.748, -0.664, 0.664, 0.748, -1441.482, -2304.488)"/>
    <g id="组_2040" data-name="组 2040">
      <g id="组_2038" data-name="组 2038">
        <path id="路径_2475" data-name="路径 2475" class="cls-2" d="M-1409.493-2315.163l-9.367-7.49a.75.75,0,0,1-.117-1.053l3.69-4.614a.748.748,0,0,1,1.052-.117l3.755,3a.749.749,0,0,1,.118,1.053.75.75,0,0,1-1.053.117l-3.17-2.535-2.754,3.444,8.781,7.022a.749.749,0,0,1,.117,1.053A.747.747,0,0,1-1409.493-2315.163Z"/>
      </g>
      <g id="组_2039" data-name="组 2039">
        <path id="路径_2476" data-name="路径 2476" class="cls-2" d="M-1401-2308.373l-9.367-7.491a.749.749,0,0,1-.117-1.052.75.75,0,0,1,1.053-.118l8.781,7.023,2.755-3.444-3.17-2.535a.749.749,0,0,1-.118-1.053.75.75,0,0,1,1.053-.117l3.755,3a.749.749,0,0,1,.117,1.053l-3.689,4.614A.75.75,0,0,1-1401-2308.373Z"/>
      </g>
    </g>
    <circle id="椭圆_473" data-name="椭圆 473" class="cls-3" cx="1.997" cy="1.997" r="1.997" transform="translate(-1411.929 -2317.51)"/>
    <g id="组_2041" data-name="组 2041">
      <path id="路径_2477" data-name="路径 2477" class="cls-4" d="M-1409.7-2311.868a.914.914,0,0,1-.111,1.288.914.914,0,0,1-1.288-.111.915.915,0,0,1,.111-1.288A.915.915,0,0,1-1409.7-2311.868Z"/>
      <path id="路径_2478" data-name="路径 2478" class="cls-4" d="M-1407.647-2308.592a.914.914,0,0,1-.481,1.2.913.913,0,0,1-1.2-.481.913.913,0,0,1,.481-1.2A.915.915,0,0,1-1407.647-2308.592Z"/>
      <path id="路径_2479" data-name="路径 2479" class="cls-4" d="M-1406.636-2304.86a.914.914,0,0,1-.809,1.008.914.914,0,0,1-1.009-.809.914.914,0,0,1,.809-1.008A.914.914,0,0,1-1406.636-2304.86Z"/>
      <path id="路径_2480" data-name="路径 2480" class="cls-4" d="M-1406.754-2301a.914.914,0,0,1-1.067.73.915.915,0,0,1-.73-1.068.914.914,0,0,1,1.067-.729A.914.914,0,0,1-1406.754-2301Z"/>
      <path id="路径_2481" data-name="路径 2481" class="cls-4" d="M-1407.99-2297.333a.914.914,0,0,1-1.234.388.914.914,0,0,1-.387-1.233.914.914,0,0,1,1.233-.388A.914.914,0,0,1-1407.99-2297.333Z"/>
      <path id="路径_2482" data-name="路径 2482" class="cls-4" d="M-1410.239-2294.187a.913.913,0,0,1-1.292.012.914.914,0,0,1-.013-1.293.915.915,0,0,1,1.293-.012A.914.914,0,0,1-1410.239-2294.187Z"/>
      <path id="路径_2483" data-name="路径 2483" class="cls-4" d="M-1413.3-2291.832a.915.915,0,0,1-1.241-.364.913.913,0,0,1,.365-1.24.914.914,0,0,1,1.24.364A.914.914,0,0,1-1413.3-2291.832Z"/>
      <path id="路径_2484" data-name="路径 2484" class="cls-4" d="M-1416.922-2290.469a.914.914,0,0,1-1.081-.709.914.914,0,0,1,.709-1.081.914.914,0,0,1,1.081.709A.915.915,0,0,1-1416.922-2290.469Z"/>
      <path id="路径_2485" data-name="路径 2485" class="cls-4" d="M-1420.78-2290.218a.913.913,0,0,1-.828-.993.915.915,0,0,1,.993-.828.916.916,0,0,1,.828.993A.915.915,0,0,1-1420.78-2290.218Z"/>
      <path id="路径_2486" data-name="路径 2486" class="cls-4" d="M-1424.545-2291.1a.914.914,0,0,1-.5-1.191.914.914,0,0,1,1.191-.5.915.915,0,0,1,.5,1.191A.915.915,0,0,1-1424.545-2291.1Z"/>
      <path id="路径_2487" data-name="路径 2487" class="cls-4" d="M-1427.89-2293.037a.915.915,0,0,1-.136-1.286.915.915,0,0,1,1.286-.135.914.914,0,0,1,.135,1.286A.913.913,0,0,1-1427.89-2293.037Z"/>
      <path id="路径_2488" data-name="路径 2488" class="cls-4" d="M-1430.528-2295.864a.914.914,0,0,1,.245-1.269.914.914,0,0,1,1.269.244.915.915,0,0,1-.244,1.27A.915.915,0,0,1-1430.528-2295.864Z"/>
      <path id="路径_2489" data-name="路径 2489" class="cls-4" d="M-1432.229-2299.335a.915.915,0,0,1,.6-1.144.916.916,0,0,1,1.144.6.914.914,0,0,1-.6,1.143A.914.914,0,0,1-1432.229-2299.335Z"/>
      <path id="路径_2490" data-name="路径 2490" class="cls-4" d="M-1432.847-2303.152a.914.914,0,0,1,.909-.919.915.915,0,0,1,.919.91.915.915,0,0,1-.909.919A.915.915,0,0,1-1432.847-2303.152Z"/>
      <path id="路径_2491" data-name="路径 2491" class="cls-4" d="M-1432.329-2306.983a.914.914,0,0,1,1.137-.615.914.914,0,0,1,.615,1.137.914.914,0,0,1-1.137.615A.914.914,0,0,1-1432.329-2306.983Z"/>
      <path id="路径_2492" data-name="路径 2492" class="cls-4" d="M-1430.719-2310.5a.915.915,0,0,1,1.267-.258.914.914,0,0,1,.257,1.267.914.914,0,0,1-1.267.258A.914.914,0,0,1-1430.719-2310.5Z"/>
      <path id="路径_2493" data-name="路径 2493" class="cls-4" d="M-1428.157-2313.393a.914.914,0,0,1,1.287.122.914.914,0,0,1-.122,1.287.914.914,0,0,1-1.287-.122A.914.914,0,0,1-1428.157-2313.393Z"/>
      <path id="路径_2494" data-name="路径 2494" class="cls-4" d="M-1424.863-2315.418a.914.914,0,0,1,1.2.491.916.916,0,0,1-.491,1.2.914.914,0,0,1-1.2-.491A.914.914,0,0,1-1424.863-2315.418Z"/>
      <path id="路径_2495" data-name="路径 2495" class="cls-4" d="M-1421.123-2316.4a.915.915,0,0,1,1,.818.913.913,0,0,1-.817,1,.914.914,0,0,1-1-.817A.915.915,0,0,1-1421.123-2316.4Z"/>
      <path id="路径_2496" data-name="路径 2496" class="cls-4" d="M-1417.26-2316.247a.913.913,0,0,1,.72,1.073.914.914,0,0,1-1.073.721.916.916,0,0,1-.721-1.074A.915.915,0,0,1-1417.26-2316.247Z"/>
      <path id="路径_2497" data-name="路径 2497" class="cls-4" d="M-1413.608-2314.98a.914.914,0,0,1,.378,1.236.915.915,0,0,1-1.237.378.915.915,0,0,1-.377-1.237A.913.913,0,0,1-1413.608-2314.98Z"/>
    </g>
    <g id="组_2044" data-name="组 2044">
      <g id="组_2042" data-name="组 2042" class="cls-5">
        <path id="路径_2498" data-name="路径 2498" class="cls-6" d="M-1429.357-2298.73a.8.8,0,0,1-.145-1.3l1.937-2.422a.8.8,0,0,1,1.3-.144l2.242,1.792,5.347-6.686-1.842-1.472a.8.8,0,0,1-.144-1.3l1.937-2.423a.8.8,0,0,1,1.3-.144l5.805,4.643a.8.8,0,0,1,.145,1.3l-7.86,9.829,1.921,1.536a.8.8,0,0,1,.145,1.3l-1.937,2.422a.8.8,0,0,1-1.3.145Z"/>
      </g>
      <g id="组_2043" data-name="组 2043">
        <path id="路径_2499" data-name="路径 2499" class="cls-6" d="M-1429.86-2299.841a.8.8,0,0,1-.144-1.3l1.937-2.422a.8.8,0,0,1,1.3-.144l2.242,1.793,5.346-6.686-1.841-1.473a.8.8,0,0,1-.145-1.3l1.938-2.422a.8.8,0,0,1,1.3-.145l5.806,4.643a.8.8,0,0,1,.144,1.3l-7.86,9.829,1.922,1.536a.8.8,0,0,1,.144,1.3l-1.937,2.423a.8.8,0,0,1-1.3.144Z"/>
      </g>
    </g>
    <path id="路径_2500" data-name="路径 2500" class="cls-7" d="M-1378.631-2347.419l-6.691,26.337-4.135,2.508,8.477-30.724Z"/>
    <path id="路径_2501" data-name="路径 2501" class="cls-8" d="M-1391.756-2357.915l-.26-.208-10.776-8.617-6.869,24.9c-.658,2.386-1.523,4.7-2.364,7.031a5.237,5.237,0,0,0-.28,2.36l.829,7.444a2.638,2.638,0,0,0,.976,1.772l3.981,3.184.26.208,3.981,3.184a2.64,2.64,0,0,0,1.943.562l7.444-.828a4.756,4.756,0,0,0,3.433-1.653l8.477-30.724Z"/>
    <g id="组_2045" data-name="组 2045">
      <path id="路径_2502" data-name="路径 2502" class="cls-9" d="M-1391.253-2354.8l-.073,2.741,2.585.917-2.63.778-.073,2.742-1.552-2.261-2.63.778,1.671-2.175-1.552-2.261,2.585.917Z"/>
      <path id="路径_2503" data-name="路径 2503" class="cls-9" d="M-1395.15-2343.8l-.073,2.742,2.585.917-2.63.778-.073,2.741-1.552-2.261-2.63.778,1.671-2.175-1.552-2.261,2.585.917Z"/>
      <path id="路径_2504" data-name="路径 2504" class="cls-9" d="M-1399.047-2332.814l-.073,2.742,2.585.917-2.63.778-.073,2.742-1.552-2.261-2.63.778,1.671-2.175-1.552-2.261,2.585.917Z"/>
    </g>
  </g>
</svg>
