<svg xmlns="http://www.w3.org/2000/svg" xmlns:xlink="http://www.w3.org/1999/xlink" width="356.958" height="427.643" viewBox="0 0 356.958 427.643">
  <defs>
    <style>
      .cls-1, .cls-14, .cls-2, .cls-29, .cls-5, .cls-7 {
        fill: none;
      }

      .cls-11, .cls-12, .cls-15, .cls-18, .cls-19, .cls-2, .cls-20, .cls-21, .cls-26, .cls-28, .cls-29, .cls-30, .cls-32, .cls-33, .cls-34, .cls-5, .cls-6 {
        stroke: #000;
      }

      .cls-11, .cls-12, .cls-15, .cls-18, .cls-19, .cls-2, .cls-20, .cls-21, .cls-26, .cls-28, .cls-29, .cls-30, .cls-32, .cls-33, .cls-34, .cls-6 {
        stroke-miterlimit: 10;
      }

      .cls-11, .cls-12, .cls-14, .cls-15, .cls-2, .cls-20, .cls-21, .cls-26, .cls-30, .cls-32, .cls-33, .cls-34, .cls-5, .cls-6, .cls-7 {
        stroke-width: 2.8px;
      }

      .cls-3 {
        fill: #59d4f0;
      }

      .cls-4 {
        fill: #a5d8e9;
      }

      .cls-14, .cls-5, .cls-7 {
        stroke-linecap: round;
        stroke-linejoin: round;
      }

      .cls-37, .cls-6 {
        fill: #fde001;
      }

      .cls-7 {
        stroke: #ddd;
      }

      .cls-8 {
        clip-path: url(#clip-path);
      }

      .cls-34, .cls-9 {
        fill: #e34541;
      }

      .cls-10 {
        fill: rgba(0,0,0,0.2);
      }

      .cls-11 {
        fill: #e8e8e8;
      }

      .cls-12 {
        fill: #e13232;
      }

      .cls-13 {
        clip-path: url(#clip-path-2);
      }

      .cls-14 {
        stroke: #fff;
      }

      .cls-15, .cls-19 {
        fill: #878787;
      }

      .cls-16, .cls-18, .cls-28, .cls-35 {
        fill: #fff;
      }

      .cls-17, .cls-26 {
        fill: #e5e5e5;
      }

      .cls-18 {
        stroke-width: 1.136px;
      }

      .cls-19, .cls-28, .cls-29 {
        stroke-width: 1.4px;
      }

      .cls-20, .cls-22 {
        fill: #eba01e;
      }

      .cls-21 {
        fill: #f0720a;
      }

      .cls-23 {
        fill: rgba(255,255,255,0.8);
      }

      .cls-24 {
        fill: #efe7d9;
      }

      .cls-25, .cls-33 {
        fill: #e22b2b;
      }

      .cls-27 {
        fill: #96afc9;
      }

      .cls-30 {
        fill: #294e9e;
      }

      .cls-31 {
        fill: #2663ae;
      }

      .cls-32 {
        fill: #e23737;
      }

      .cls-35 {
        font-size: 25.982px;
        font-family: AlibabaPuHuiTi-Bold, Alibaba PuHuiTi;
        font-weight: 700;
      }

      .cls-36 {
        fill: #fdb71d;
      }

      .cls-38 {
        fill: #f93030;
      }

      .cls-39 {
        fill: #ff5454;
      }

      .cls-40 {
        fill: #fd7726;
      }

      .cls-40, .cls-41, .cls-42, .cls-43 {
        opacity: 0.9;
      }

      .cls-41 {
        fill: #b070fd;
      }

      .cls-42 {
        fill: #6655fd;
      }

      .cls-43 {
        fill: #63a9fd;
      }
    </style>
    <clipPath id="clip-path">
      <path id="路径_2554" data-name="路径 2554" class="cls-1" d="M-1230.059-2080.5c0-36.75,13.3-62.65,19.25-71.75h-82.95c5.95,9.1,19.25,35,19.25,71.75Z"/>
    </clipPath>
    <clipPath id="clip-path-2">
      <path id="路径_2563" data-name="路径 2563" class="cls-2" d="M-1192.559-2055.6h40.851a5.181,5.181,0,0,0,4.925-6.787l-20.487-62.841a5.181,5.181,0,0,0-4.925-3.575h0a5.18,5.18,0,0,0-4.929,3.584l-20.364,62.84A5.182,5.182,0,0,0-1192.559-2055.6Z"/>
    </clipPath>
  </defs>
  <g id="表层装饰-篮球框" transform="translate(-4.093 -245.624)">
    <g id="组_2077" data-name="组 2077" transform="translate(1439.481 2665.626)">
      <rect id="矩形_31717" data-name="矩形 31717" class="cls-3" width="154.093" height="116.55" rx="3.623" transform="translate(-1328.305 -2251.823)"/>
      <path id="路径_2542" data-name="路径 2542" class="cls-4" d="M-1185.307-2144.9h-131.9a2.149,2.149,0,0,1-2.148-2.149v-92.995a2.148,2.148,0,0,1,2.148-2.148h131.9a2.147,2.147,0,0,1,2.148,2.148v92.995A2.148,2.148,0,0,1-1185.307-2144.9Z"/>
      <path id="路径_2543" data-name="路径 2543" class="cls-5" d="M-1277.684-2242.194h92.377a2.147,2.147,0,0,1,2.148,2.148v92.995a2.148,2.148,0,0,1-2.148,2.149h-131.9a2.149,2.149,0,0,1-2.148-2.149v-92.995a2.148,2.148,0,0,1,2.148-2.148h31.127"/>
      <path id="路径_2544" data-name="路径 2544" class="cls-6" d="M-1285.211-2160.3v-43.761a2.09,2.09,0,0,1,2.09-2.089h61.675a2.09,2.09,0,0,1,2.09,2.089v43.761h6.8v-47.183a4.266,4.266,0,0,0-4.267-4.267h-70.916a4.267,4.267,0,0,0-4.267,4.267v47.183Z"/>
      <path id="路径_2545" data-name="路径 2545" class="cls-5" d="M-1288.884-2251.823h111.049a3.623,3.623,0,0,1,3.623,3.622v109.3a3.623,3.623,0,0,1-3.623,3.623h-146.848a3.623,3.623,0,0,1-3.622-3.623v-109.3a3.623,3.623,0,0,1,3.622-3.622h13.4"/>
      <line id="直线_1363" data-name="直线 1363" class="cls-5" x2="5.6" transform="translate(-1302.884 -2251.823)"/>
      <path id="路径_2546" data-name="路径 2546" class="cls-7" d="M-1293.759-2152.252c5.95,9.1,19.25,35,19.25,71.75"/>
      <path id="路径_2547" data-name="路径 2547" class="cls-7" d="M-1210.809-2152.252c-5.95,9.1-19.25,35-19.25,71.75"/>
      <g id="组_2076" data-name="组 2076">
        <g id="组_2075" data-name="组 2075" class="cls-8">
          <g id="组_2074" data-name="组 2074">
            <g id="组_2072" data-name="组 2072">
              <path id="路径_2548" data-name="路径 2548" class="cls-7" d="M-1213.836-2105.508c-12.219,9.856-30.112,22.152-57.8,32.023"/>
              <path id="路径_2549" data-name="路径 2549" class="cls-7" d="M-1222.208-2144.01c-10.59,12.518-24.714,28.394-56.448,43.367"/>
              <path id="路径_2550" data-name="路径 2550" class="cls-7" d="M-1230.58-2182.513c-8.96,15.181-19.316,34.638-55.1,54.712"/>
            </g>
            <g id="组_2073" data-name="组 2073">
              <path id="路径_2551" data-name="路径 2551" class="cls-7" d="M-1285.675-2102.025c12.219,9.856,30.112,22.151,57.8,32.023"/>
              <path id="路径_2552" data-name="路径 2552" class="cls-7" d="M-1277.3-2140.528c10.59,12.519,24.714,28.4,56.448,43.368"/>
              <path id="路径_2553" data-name="路径 2553" class="cls-7" d="M-1268.93-2179.03c8.959,15.181,19.315,34.638,55.094,54.712"/>
            </g>
          </g>
        </g>
      </g>
      <rect id="矩形_31718" data-name="矩形 31718" class="cls-9" width="97.65" height="9.45" rx="4.725" transform="translate(-1301.109 -2160.302)"/>
      <path id="路径_2555" data-name="路径 2555" class="cls-5" d="M-1255.284-2160.3h47.1a4.724,4.724,0,0,1,4.725,4.725h0a4.725,4.725,0,0,1-4.725,4.725h-88.2a4.726,4.726,0,0,1-4.725-4.725h0a4.725,4.725,0,0,1,4.725-4.725h21.5"/>
      <line id="直线_1364" data-name="直线 1364" class="cls-5" x2="5.6" transform="translate(-1269.284 -2160.302)"/>
    </g>
    <g id="组_2082" data-name="组 2082" transform="translate(1439.481 2665.626)">
      <path id="路径_2559" data-name="路径 2559" class="cls-5" d="M-1154.731-2196q.138,1.381.247,2.8"/>
      <path id="路径_2560" data-name="路径 2560" class="cls-5" d="M-1204.884-2230.924c6.873-6.9,12.2-9.878,20.618-9.878,14.1,0,25.13,14.522,28.838,39.2"/>
    </g>
    <g id="组_2085" data-name="组 2085" transform="translate(1439.481 2665.626)">
      <ellipse id="椭圆_486" data-name="椭圆 486" class="cls-10" cx="47.6" cy="5.6" rx="47.6" ry="5.6" transform="translate(-1218.884 -2053.202)"/>
      <path id="路径_2561" data-name="路径 2561" class="cls-11" d="M-1192.559-2055.6h40.851a5.181,5.181,0,0,0,4.925-6.787l-20.487-62.841a5.181,5.181,0,0,0-4.925-3.575h0a5.18,5.18,0,0,0-4.929,3.584l-20.364,62.84A5.182,5.182,0,0,0-1192.559-2055.6Z"/>
      <path id="路径_2562" data-name="路径 2562" class="cls-12" d="M-1136.62-2051.1a4.5,4.5,0,0,1-4.5,4.5h-62.014a4.5,4.5,0,0,1-4.5-4.5h0a4.5,4.5,0,0,1,4.5-4.5h62.014a4.5,4.5,0,0,1,4.5,4.5Z"/>
      <g id="组_2084" data-name="组 2084">
        <g id="组_2083" data-name="组 2083" class="cls-13">
          <rect id="矩形_31719" data-name="矩形 31719" class="cls-12" width="64.45" height="16.19" rx="7.161" transform="translate(-1203.51 -2085.468)"/>
          <rect id="矩形_31720" data-name="矩形 31720" class="cls-12" width="64.45" height="16.19" rx="7.161" transform="translate(-1203.51 -2116.911)"/>
        </g>
        <path id="路径_2564" data-name="路径 2564" class="cls-2" d="M-1192.559-2055.6h40.851a5.181,5.181,0,0,0,4.925-6.787l-20.487-62.841a5.181,5.181,0,0,0-4.925-3.575h0a5.18,5.18,0,0,0-4.929,3.584l-20.364,62.84A5.182,5.182,0,0,0-1192.559-2055.6Z"/>
      </g>
      <path id="路径_2565" data-name="路径 2565" class="cls-10" d="M-1141.12-2050.448h-62.014a4.5,4.5,0,0,1-4.063-2.575,4.464,4.464,0,0,0-.438,1.925,4.5,4.5,0,0,0,4.5,4.5h62.014a4.5,4.5,0,0,0,4.5-4.5,4.464,4.464,0,0,0-.437-1.925A4.5,4.5,0,0,1-1141.12-2050.448Z"/>
      <path id="路径_2566" data-name="路径 2566" class="cls-10" d="M-1146.783-2062.386l-20.487-62.841a5.181,5.181,0,0,0-4.925-3.575,5.132,5.132,0,0,0-1.339.179l19.751,60.584a5.181,5.181,0,0,1-4.925,6.787h-39.011a5.183,5.183,0,0,0,5.16,5.653h40.851A5.181,5.181,0,0,0-1146.783-2062.386Z"/>
      <line id="直线_1367" data-name="直线 1367" class="cls-14" x1="3.2" y2="11.2" transform="translate(-1182.484 -2103.602)"/>
      <path id="路径_2567" data-name="路径 2567" class="cls-14" d="M-1176.884-2112h0l-.8,2.8h0"/>
    </g>
    <g id="组_2087" data-name="组 2087" transform="translate(1439.481 2665.626)">
      <path id="路径_2568" data-name="路径 2568" class="cls-15" d="M-1117.989-2106.28a15.8,15.8,0,0,1-21.106,7.35,15.8,15.8,0,0,1-7.35-21.106,15.8,15.8,0,0,1,21.106-7.351A15.8,15.8,0,0,1-1117.989-2106.28Z"/>
      <path id="路径_2569" data-name="路径 2569" class="cls-10" d="M-1117.738-2119.483a15.738,15.738,0,0,1-1.047,10.916,15.8,15.8,0,0,1-21.107,7.35,15.735,15.735,0,0,1-7.6-7.9,15.761,15.761,0,0,0,8.4,10.191,15.8,15.8,0,0,0,21.106-7.35A15.764,15.764,0,0,0-1117.738-2119.483Z"/>
      <path id="路径_2570" data-name="路径 2570" class="cls-16" d="M-1119.94-2107.223a13.635,13.635,0,0,1-18.212,6.342,13.635,13.635,0,0,1-6.342-18.212,13.636,13.636,0,0,1,18.212-6.343A13.637,13.637,0,0,1-1119.94-2107.223Z"/>
      <path id="路径_2571" data-name="路径 2571" class="cls-17" d="M-1143.9-2117.378a13.637,13.637,0,0,1,18.213-6.342,13.578,13.578,0,0,1,6.612,6.946,13.6,13.6,0,0,0-7.21-8.662,13.636,13.636,0,0,0-18.212,6.343,13.6,13.6,0,0,0-.271,11.266A13.584,13.584,0,0,1-1143.9-2117.378Z"/>
      <path id="路径_2572" data-name="路径 2572" class="cls-18" d="M-1121.526-2107.99a11.875,11.875,0,0,1-15.859,5.523,11.876,11.876,0,0,1-5.523-15.859,11.875,11.875,0,0,1,15.859-5.523A11.874,11.874,0,0,1-1121.526-2107.99Z"/>
      <g id="组_2086" data-name="组 2086">
        <path id="路径_2573" data-name="路径 2573" d="M-1127.49-2121.854a.472.472,0,0,1-.629.219h0a.471.471,0,0,1-.22-.629l.78-1.612a.471.471,0,0,1,.629-.219h0a.471.471,0,0,1,.219.629Z"/>
        <path id="路径_2574" data-name="路径 2574" d="M-1136.971-2102.241a.472.472,0,0,1-.629.219h0a.471.471,0,0,1-.22-.629l.78-1.612a.471.471,0,0,1,.629-.219h0a.471.471,0,0,1,.219.629Z"/>
        <path id="路径_2575" data-name="路径 2575" d="M-1141.061-2117.833a.47.47,0,0,1,.219.629h0a.471.471,0,0,1-.629.219l-1.612-.78a.47.47,0,0,1-.219-.628h0a.47.47,0,0,1,.629-.219Z"/>
        <path id="路径_2576" data-name="路径 2576" d="M-1121.448-2108.352a.471.471,0,0,1,.219.629h0a.472.472,0,0,1-.629.219l-1.612-.779a.472.472,0,0,1-.219-.629h0a.47.47,0,0,1,.629-.219Z"/>
        <path id="路径_2577" data-name="路径 2577" d="M-1141.861-2110.216a.473.473,0,0,1,.6.29h0a.471.471,0,0,1-.29.6l-1.691.589a.471.471,0,0,1-.6-.29h0a.472.472,0,0,1,.29-.6Z"/>
        <path id="路径_2578" data-name="路径 2578" d="M-1121.288-2117.38a.47.47,0,0,1,.6.29h0a.471.471,0,0,1-.289.6l-1.691.589a.473.473,0,0,1-.6-.29h0a.471.471,0,0,1,.29-.6Z"/>
        <path id="路径_2579" data-name="路径 2579" d="M-1128.533-2103.773a.472.472,0,0,0-.6-.29h0a.473.473,0,0,0-.29.6l.589,1.691a.472.472,0,0,0,.6.29h0a.471.471,0,0,0,.29-.6Z"/>
        <path id="路径_2580" data-name="路径 2580" d="M-1135.7-2124.345a.471.471,0,0,0-.6-.29h0a.47.47,0,0,0-.29.6l.589,1.691a.471.471,0,0,0,.6.29h0a.47.47,0,0,0,.29-.6Z"/>
        <path id="路径_2581" data-name="路径 2581" d="M-1131.472-2112.152a1.11,1.11,0,0,1-1.481.516,1.108,1.108,0,0,1-.515-1.481,1.109,1.109,0,0,1,1.48-.515A1.109,1.109,0,0,1-1131.472-2112.152Z"/>
        <path id="路径_2582" data-name="路径 2582" d="M-1128.792-2119.934l-4.223,7.036-2.213,5.735,3.3-5.208Z"/>
      </g>
      <path id="路径_2583" data-name="路径 2583" class="cls-19" d="M-1124.672-2128.765a6.211,6.211,0,0,1-2.885-8.284,6.21,6.21,0,0,1,8.284-2.884,6.208,6.208,0,0,1,2.884,8.283A6.209,6.209,0,0,1-1124.672-2128.765Zm4.66-9.641a4.511,4.511,0,0,0-6.018,2.1,4.512,4.512,0,0,0,2.1,6.018,4.511,4.511,0,0,0,6.018-2.1A4.511,4.511,0,0,0-1120.012-2138.406Z"/>
      <rect id="矩形_31721" data-name="矩形 31721" class="cls-19" width="2.194" height="2.732" transform="matrix(0.859, -0.512, 0.512, 0.859, -1119.138, -2121.511)"/>
      <rect id="矩形_31722" data-name="矩形 31722" class="cls-19" width="2.127" height="4.271" transform="matrix(0.859, -0.511, 0.511, 0.859, -1118.102, -2123.023)"/>
      <path id="路径_2584" data-name="路径 2584" class="cls-19" d="M-1124.149-2126.38a1.453,1.453,0,0,1-1.963.594h0a1.453,1.453,0,0,1-.754-1.908l1.427-2.954a1.453,1.453,0,0,1,1.964-.594h0a1.454,1.454,0,0,1,.754,1.908Z"/>
    </g>
    <g id="组_2088" data-name="组 2088" transform="translate(1439.481 2665.626)">
      <path id="路径_2585" data-name="路径 2585" d="M-1142.408-2031.626s12.774,16.219,48.147-6.994C-1094.261-2038.62-1139.7-2035.035-1142.408-2031.626Z"/>
      <path id="路径_2586" data-name="路径 2586" class="cls-20" d="M-1143.6-2033.349s-5.27-10.333,2.952-31.626,23.614-26.775,43.432-17.288,12.649,33.523,2.951,43.643C-1094.261-2038.62-1139.379-2022.175-1143.6-2033.349Z"/>
      <path id="路径_2587" data-name="路径 2587" class="cls-21" d="M-1085.757-2069.861s-27.127,2.991-51.107-2.981l-2.821,5.5-1.956,5.086a120.321,120.321,0,0,0,34.711,3.127l-8.006,19.247s-17.422-1.687-21.272,0-4.58,9.3-4.58,9.3,6.266,3.568,23.214-1.155l16.949-4.722,8-21.637h8.008S-1084.222-2066.377-1085.757-2069.861Z"/>
      <path id="路径_2588" data-name="路径 2588" d="M-1138.711-2069.422a67.727,67.727,0,0,0-6.292,21.515s30.348,6.419,41-6.916S-1138.711-2069.422-1138.711-2069.422Z"/>
      <path id="路径_2589" data-name="路径 2589" class="cls-22" d="M-1104.313-2057.861a3.763,3.763,0,0,1-3.763,3.763,3.763,3.763,0,0,1-3.763-3.763,3.763,3.763,0,0,1,3.763-3.763A3.763,3.763,0,0,1-1104.313-2057.861Z"/>
      <path id="路径_2590" data-name="路径 2590" class="cls-23" d="M-1129.489-2068.7l4.715.564-15.177,21.115-4.07-.676Z"/>
      <path id="路径_2591" data-name="路径 2591" class="cls-24" d="M-1124.773-2075.516s5.363-18.922,34.564-1.773C-1090.209-2077.289-1114.548-2092.381-1124.773-2075.516Z"/>
      <path id="路径_2592" data-name="路径 2592" class="cls-24" d="M-1131.276-2075.516s5.421-19.911,35.27-5.983C-1096.006-2081.5-1123.207-2093.513-1131.276-2075.516Z"/>
      <path id="路径_2593" data-name="路径 2593" class="cls-2" d="M-1143.6-2033.349s-5.27-10.333,2.952-31.626,23.614-26.775,43.432-17.288,12.649,33.523,2.951,43.643C-1094.261-2038.62-1139.379-2022.175-1143.6-2033.349Z"/>
      <path id="路径_2594" data-name="路径 2594" class="cls-10" d="M-1093.712-2080.254c7.533,11.33,1.456,27.993-6.2,35.982,0,0-31.718,11.561-44.452,8.709a12.386,12.386,0,0,0,.768,2.214c4.217,11.174,49.335-5.271,49.335-5.271C-1085.188-2048.088-1078.33-2069.734-1093.712-2080.254Z"/>
    </g>
    <g id="组_2089" data-name="组 2089" transform="translate(1439.481 2665.626)">
      <path id="路径_2595" data-name="路径 2595" d="M-1141.246-1999.6s13.535,17.185,51.016-7.411C-1090.23-2007.009-1138.374-2003.211-1141.246-1999.6Z"/>
      <path id="路径_2596" data-name="路径 2596" class="cls-20" d="M-1142.505-2001.424s-5.584-10.949,3.128-33.51,25.021-28.371,46.02-18.318,13.4,35.52,3.127,46.243C-1090.23-2007.009-1138.037-1989.584-1142.505-2001.424Z"/>
      <path id="路径_2597" data-name="路径 2597" class="cls-21" d="M-1081.22-2040.112s-28.743,3.17-54.151-3.158l-2.99,5.824-2.072,5.389a127.49,127.49,0,0,0,36.779,3.314l-8.483,20.394s-18.461-1.788-22.54,0-4.853,9.851-4.853,9.851,6.64,3.78,24.6-1.225l17.958-5,8.481-22.926h8.486S-1079.593-2036.42-1081.22-2040.112Z"/>
      <path id="路径_2598" data-name="路径 2598" d="M-1137.329-2039.647a71.774,71.774,0,0,0-6.667,22.8s32.157,6.8,43.446-7.329S-1137.329-2039.647-1137.329-2039.647Z"/>
      <path id="路径_2599" data-name="路径 2599" class="cls-22" d="M-1100.881-2027.4a3.988,3.988,0,0,1-3.987,3.987,3.987,3.987,0,0,1-3.988-3.987,3.988,3.988,0,0,1,3.988-3.987A3.988,3.988,0,0,1-1100.881-2027.4Z"/>
      <path id="路径_2600" data-name="路径 2600" class="cls-23" d="M-1127.557-2038.882l5,.6-16.081,22.373-4.312-.716Z"/>
      <path id="路径_2601" data-name="路径 2601" class="cls-24" d="M-1122.561-2046.1s5.683-20.049,36.624-1.879C-1085.937-2047.982-1111.726-2063.974-1122.561-2046.1Z"/>
      <path id="路径_2602" data-name="路径 2602" class="cls-24" d="M-1129.45-2046.1s5.743-21.1,37.371-6.34C-1092.079-2052.443-1120.9-2065.173-1129.45-2046.1Z"/>
      <path id="路径_2603" data-name="路径 2603" class="cls-2" d="M-1142.505-2001.424s-5.584-10.949,3.128-33.51,25.021-28.371,46.02-18.318,13.4,35.52,3.127,46.243C-1090.23-2007.009-1138.037-1989.584-1142.505-2001.424Z"/>
      <path id="路径_2604" data-name="路径 2604" class="cls-10" d="M-1089.649-2051.124c7.982,12.005,1.543,29.661-6.57,38.126,0,0-33.607,12.25-47.1,9.228a13.136,13.136,0,0,0,.813,2.346c4.468,11.84,52.275-5.585,52.275-5.585C-1080.617-2017.041-1073.351-2039.977-1089.649-2051.124Z"/>
    </g>
    <g id="组_2090" data-name="组 2090" transform="translate(1439.481 2665.626)">
      <rect id="矩形_31723" data-name="矩形 31723" class="cls-25" width="162.4" height="11.2" rx="5.6" transform="translate(-1385.484 -2112.002)"/>
      <rect id="矩形_31724" data-name="矩形 31724" class="cls-16" width="16.8" height="11.2" transform="translate(-1365.884 -2112.002)"/>
      <rect id="矩形_31725" data-name="矩形 31725" class="cls-16" width="16.8" height="11.2" transform="translate(-1329.484 -2112.002)"/>
      <rect id="矩形_31726" data-name="矩形 31726" class="cls-16" width="16.8" height="11.2" transform="translate(-1293.084 -2112.002)"/>
      <rect id="矩形_31727" data-name="矩形 31727" class="cls-16" width="16.8" height="11.2" transform="translate(-1259.484 -2112.002)"/>
      <path id="路径_2605" data-name="路径 2605" class="cls-5" d="M-1323.884-2112h95.2a5.6,5.6,0,0,1,5.6,5.6h0a5.6,5.6,0,0,1-5.6,5.6h-151.2a5.6,5.6,0,0,1-5.6-5.6h0a5.6,5.6,0,0,1,5.6-5.6h33.6"/>
      <line id="直线_1368" data-name="直线 1368" class="cls-5" x2="5.25" transform="translate(-1337.534 -2112.002)"/>
      <path id="路径_2606" data-name="路径 2606" class="cls-17" d="M-1362.209-2016.8h0a3.675,3.675,0,0,1-3.675-3.675V-2100.8h7.35v80.325A3.675,3.675,0,0,1-1362.209-2016.8Z"/>
      <line id="直线_1369" data-name="直线 1369" class="cls-5" y1="5.6" transform="translate(-1365.884 -2078.402)"/>
      <path id="路径_2607" data-name="路径 2607" class="cls-5" d="M-1365.884-2084v-16.8h7.35v80.325a3.675,3.675,0,0,1-3.675,3.675h0a3.675,3.675,0,0,1-3.675-3.675V-2064.4"/>
      <path id="矩形_31728" data-name="矩形 31728" class="cls-26" d="M0,0H7.35a0,0,0,0,1,0,0V80.325A3.675,3.675,0,0,1,3.675,84h0A3.675,3.675,0,0,1,0,80.325V0A0,0,0,0,1,0,0Z" transform="translate(-1250.034 -2100.802)"/>
      <rect id="矩形_31729" data-name="矩形 31729" class="cls-10" width="7.35" height="11.2" transform="translate(-1365.884 -2100.802)"/>
      <rect id="矩形_31730" data-name="矩形 31730" class="cls-10" width="7.35" height="11.2" transform="translate(-1250.034 -2100.802)"/>
      <path id="路径_2608" data-name="路径 2608" class="cls-10" d="M-1228.684-2103.6h-151.2a5.6,5.6,0,0,1-5.416-4.2,5.57,5.57,0,0,0-.184,1.4h0a5.6,5.6,0,0,0,5.6,5.6h151.2a5.6,5.6,0,0,0,5.6-5.6h0a5.614,5.614,0,0,0-.183-1.4A5.6,5.6,0,0,1-1228.684-2103.6Z"/>
    </g>
    <g id="组_2096" data-name="组 2096" transform="translate(1439.481 2665.626)">
      <rect id="矩形_31731" data-name="矩形 31731" class="cls-27" width="255.354" height="13.391" rx="4.608" transform="translate(-1433.988 -2050.37)"/>
      <path id="路径_2609" data-name="路径 2609" class="cls-5" d="M-1304.892-2050.37h119.563a6.7,6.7,0,0,1,6.695,6.7h0a6.7,6.7,0,0,1-6.695,6.7h-241.964a6.7,6.7,0,0,1-6.7-6.7h0a6.7,6.7,0,0,1,6.7-6.7h88.924"/>
      <line id="直线_1370" data-name="直线 1370" class="cls-5" x2="10.043" transform="translate(-1324.978 -2050.37)"/>
      <path id="路径_2610" data-name="路径 2610" class="cls-10" d="M-1181.772-2043.675h-248.659a3.348,3.348,0,0,1-3.348-3.348v-1.156a3.334,3.334,0,0,0-.209,1.156v6.7a3.347,3.347,0,0,0,3.348,3.347h248.658a3.347,3.347,0,0,0,3.348-3.347v-5.54A3.344,3.344,0,0,1-1181.772-2043.675Z"/>
      <g id="组_2095" data-name="组 2095">
        <g id="组_2091" data-name="组 2091">
          <path id="路径_2611" data-name="路径 2611" class="cls-28" d="M-1407.206-2036.98a6.7,6.7,0,0,1-6.7-6.7,6.7,6.7,0,0,1,6.7-6.7Z"/>
          <path id="路径_2612" data-name="路径 2612" class="cls-17" d="M-1409.438-2049.988v12.626a6.675,6.675,0,0,0,2.232.382v-13.39A6.675,6.675,0,0,0-1409.438-2049.988Z"/>
          <path id="路径_2613" data-name="路径 2613" class="cls-29" d="M-1407.206-2036.98a6.7,6.7,0,0,1-6.7-6.7,6.7,6.7,0,0,1,6.7-6.7Z"/>
        </g>
        <g id="组_2092" data-name="组 2092">
          <path id="路径_2614" data-name="路径 2614" class="cls-28" d="M-1209.616-2036.98a6.7,6.7,0,0,0,6.7-6.7,6.7,6.7,0,0,0-6.7-6.7Z"/>
          <path id="路径_2615" data-name="路径 2615" class="cls-17" d="M-1207.384-2049.988v12.626a6.675,6.675,0,0,1-2.232.382v-13.39A6.675,6.675,0,0,1-1207.384-2049.988Z"/>
          <path id="路径_2616" data-name="路径 2616" class="cls-29" d="M-1209.616-2036.98a6.7,6.7,0,0,0,6.7-6.7,6.7,6.7,0,0,0-6.7-6.7Z"/>
        </g>
        <g id="组_2093" data-name="组 2093">
          <rect id="矩形_31732" data-name="矩形 31732" class="cls-30" width="53.564" height="10.043" rx="3.456" transform="translate(-1395.489 -2070.457) rotate(90)"/>
          <rect id="矩形_31733" data-name="矩形 31733" class="cls-30" width="66.954" height="10.043" rx="3.456" transform="translate(-1385.446 -2077.152) rotate(90)"/>
          <rect id="矩形_31734" data-name="矩形 31734" class="cls-30" width="80.345" height="10.043" rx="3.456" transform="translate(-1375.403 -2083.848) rotate(90)"/>
          <path id="路径_2617" data-name="路径 2617" class="cls-31" d="M-1400.511-2070.457a5.02,5.02,0,0,0-1.674.292,5.019,5.019,0,0,1,3.348,4.73v43.52a5.019,5.019,0,0,1-3.348,4.73,5,5,0,0,0,1.674.292,5.022,5.022,0,0,0,5.022-5.022v-43.52A5.022,5.022,0,0,0-1400.511-2070.457Z"/>
          <path id="路径_2618" data-name="路径 2618" class="cls-31" d="M-1390.468-2077.152a5,5,0,0,0-1.674.292,5.018,5.018,0,0,1,3.348,4.729v56.912a5.018,5.018,0,0,1-3.348,4.729,4.994,4.994,0,0,0,1.674.292,5.021,5.021,0,0,0,5.022-5.021v-56.912A5.021,5.021,0,0,0-1390.468-2077.152Z"/>
          <path id="路径_2619" data-name="路径 2619" class="cls-31" d="M-1380.425-2083.848a5.014,5.014,0,0,0-1.673.292,5.018,5.018,0,0,1,3.347,4.73v70.3a5.019,5.019,0,0,1-3.347,4.73,5.017,5.017,0,0,0,1.673.292,5.022,5.022,0,0,0,5.022-5.022v-70.3A5.022,5.022,0,0,0-1380.425-2083.848Z"/>
          <rect id="矩形_31735" data-name="矩形 31735" class="cls-2" width="80.345" height="10.043" rx="3.456" transform="translate(-1375.403 -2083.848) rotate(90)"/>
          <rect id="矩形_31736" data-name="矩形 31736" class="cls-2" width="66.954" height="10.043" rx="3.456" transform="translate(-1385.446 -2077.152) rotate(90)"/>
          <rect id="矩形_31737" data-name="矩形 31737" class="cls-2" width="53.564" height="10.043" rx="3.456" transform="translate(-1395.489 -2070.457) rotate(90)"/>
        </g>
        <g id="组_2094" data-name="组 2094">
          <rect id="矩形_31738" data-name="矩形 31738" class="cls-30" width="53.564" height="10.043" rx="3.456" transform="translate(-1211.29 -2070.457) rotate(90)"/>
          <rect id="矩形_31739" data-name="矩形 31739" class="cls-30" width="66.954" height="10.043" rx="3.456" transform="translate(-1221.333 -2077.152) rotate(90)"/>
          <rect id="矩形_31740" data-name="矩形 31740" class="cls-30" width="80.345" height="10.043" rx="3.456" transform="translate(-1231.376 -2083.848) rotate(90)"/>
          <path id="路径_2620" data-name="路径 2620" class="cls-31" d="M-1216.311-2070.457a5.014,5.014,0,0,0-1.674.292,5.019,5.019,0,0,1,3.348,4.73v43.52a5.019,5.019,0,0,1-3.348,4.73,4.99,4.99,0,0,0,1.674.292,5.021,5.021,0,0,0,5.021-5.022v-43.52A5.021,5.021,0,0,0-1216.311-2070.457Z"/>
          <path id="路径_2621" data-name="路径 2621" class="cls-31" d="M-1226.354-2077.152a5,5,0,0,0-1.674.292,5.019,5.019,0,0,1,3.348,4.729v56.912a5.019,5.019,0,0,1-3.348,4.729,4.989,4.989,0,0,0,1.674.292,5.021,5.021,0,0,0,5.021-5.021v-56.912A5.021,5.021,0,0,0-1226.354-2077.152Z"/>
          <path id="路径_2622" data-name="路径 2622" class="cls-31" d="M-1236.4-2083.848a5.015,5.015,0,0,0-1.674.292,5.018,5.018,0,0,1,3.347,4.73v70.3a5.018,5.018,0,0,1-3.347,4.73,5.018,5.018,0,0,0,1.674.292,5.022,5.022,0,0,0,5.021-5.022v-70.3A5.022,5.022,0,0,0-1236.4-2083.848Z"/>
          <rect id="矩形_31741" data-name="矩形 31741" class="cls-2" width="80.345" height="10.043" rx="3.456" transform="translate(-1231.376 -2083.848) rotate(90)"/>
          <rect id="矩形_31742" data-name="矩形 31742" class="cls-2" width="66.954" height="10.043" rx="3.456" transform="translate(-1221.333 -2077.152) rotate(90)"/>
          <rect id="矩形_31743" data-name="矩形 31743" class="cls-2" width="53.564" height="10.043" rx="3.456" transform="translate(-1211.29 -2070.457) rotate(90)"/>
        </g>
      </g>
    </g>
    <g id="组_2097" data-name="组 2097" transform="translate(1439.481 2665.626)">
      <rect id="矩形_31744" data-name="矩形 31744" class="cls-32" width="68.676" height="54.466" rx="3.186" transform="translate(-1352.317 -2048.224)"/>
      <rect id="矩形_31745" data-name="矩形 31745" class="cls-33" width="68.676" height="82.269" rx="3.186" transform="translate(-1283.641 -2076.028)"/>
      <rect id="矩形_31746" data-name="矩形 31746" class="cls-34" width="68.676" height="41.592" rx="3.186" transform="translate(-1214.965 -2035.351)"/>
      <text id="_2" data-name="2" class="cls-35" transform="translate(-1324.861 -2020.441)"><tspan x="0" y="0">2</tspan></text>
      <text id="_3" data-name="3" class="cls-35" transform="translate(-1187.51 -2004.079)"><tspan x="0" y="0">3</tspan></text>
      <text id="_1" data-name="1" class="cls-35" transform="translate(-1255.218 -2044.241)"><tspan x="0" y="0">1</tspan></text>
      <path id="路径_2623" data-name="路径 2623" class="cls-10" d="M-1286.827-2048.224h-3.289v41.3a3.186,3.186,0,0,1-3.186,3.186h-59.015v6.789a3.186,3.186,0,0,0,3.187,3.186h62.3a3.185,3.185,0,0,0,3.186-3.186v-48.093A3.186,3.186,0,0,0-1286.827-2048.224Z"/>
      <path id="路径_2624" data-name="路径 2624" class="cls-10" d="M-1218.151-2076.028h-3.289v69.108a3.186,3.186,0,0,1-3.186,3.186h-59.015v6.789a3.186,3.186,0,0,0,3.186,3.186h62.3a3.186,3.186,0,0,0,3.186-3.186v-75.9A3.187,3.187,0,0,0-1218.151-2076.028Z"/>
      <path id="路径_2625" data-name="路径 2625" class="cls-10" d="M-1149.475-2035.351h-3.289v28.431a3.186,3.186,0,0,1-3.186,3.186h-59.015v6.789a3.186,3.186,0,0,0,3.186,3.186h62.3a3.186,3.186,0,0,0,3.186-3.186v-35.22A3.186,3.186,0,0,0-1149.475-2035.351Z"/>
      <rect id="矩形_31747" data-name="矩形 31747" class="cls-6" width="78.918" height="6.771" rx="2.316" transform="translate(-1362.559 -2051.763)"/>
      <rect id="矩形_31748" data-name="矩形 31748" class="cls-6" width="81.481" height="6.771" rx="2.316" transform="translate(-1214.965 -2037.254)"/>
      <rect id="矩形_31749" data-name="矩形 31749" class="cls-6" width="88.838" height="6.771" rx="2.316" transform="translate(-1293.722 -2078.847)"/>
      <path id="路径_2626" data-name="路径 2626" class="cls-10" d="M-1284.907-2047.442h-74.286a2.315,2.315,0,0,1-2.308-2.161c0,.052-.008.1-.008.156v2.138a2.316,2.316,0,0,0,2.316,2.317h74.286a2.316,2.316,0,0,0,2.316-2.317v-2.138c0-.053,0-.1-.008-.156A2.314,2.314,0,0,1-1284.907-2047.442Z"/>
      <path id="路径_2627" data-name="路径 2627" class="cls-10" d="M-1134.75-2032.934H-1211.6a2.313,2.313,0,0,1-2.308-2.16c0,.052-.008.1-.008.156v2.138a2.315,2.315,0,0,0,2.316,2.316h76.849a2.315,2.315,0,0,0,2.316-2.316v-2.138c0-.053,0-.1-.008-.156A2.313,2.313,0,0,1-1134.75-2032.934Z"/>
      <path id="路径_2628" data-name="路径 2628" class="cls-10" d="M-1206.15-2074.526h-84.206a2.313,2.313,0,0,1-2.308-2.16c0,.051-.008.1-.008.155v2.139a2.316,2.316,0,0,0,2.316,2.316h84.206a2.316,2.316,0,0,0,2.316-2.316v-2.139c0-.052,0-.1-.008-.155A2.313,2.313,0,0,1-1206.15-2074.526Z"/>
    </g>
    <g id="组_2098" data-name="组 2098">
      <path id="路径_2629" data-name="路径 2629" class="cls-36" d="M-1353.934-2192.131l-3.532-4.488c3.262-1.492,5.2-2.916,5.6-4.119.3-.9-.222-1.935-.828-3.135-.819-1.62-1.838-3.637-.873-5.893.979-2.291,3.732-4.145,8.662-5.836l2.818,4.772c-4.135,1.419-4.835,2.414-4.951,2.686-.209.488.258,1.412.752,2.391.854,1.69,1.917,3.794,1.073,6.312C-1346.108-2196.765-1348.88-2194.442-1353.934-2192.131Z" transform="translate(1439.481 2665.626)"/>
      <path id="路径_2630" data-name="路径 2630" class="cls-37" d="M-1151.078-2151.994c3.109-1.485,4.9-2.884,5.33-4.164.356-1.061-.2-2.17-.852-3.453-.78-1.543-1.75-3.463-.861-5.543.874-2.045,3.318-3.737,7.668-5.3l2.254,3.819c-3.6,1.3-4.491,2.294-4.7,2.781-.285.665.2,1.626.764,2.739.819,1.624,1.838,3.641,1.049,6-.816,2.431-3.309,4.574-7.826,6.718Z" transform="translate(1439.481 2665.626)"/>
      <path id="路径_2633" data-name="路径 2633" class="cls-38" d="M-1081.622-2298.618l-5.614-3.449c3.706-6.034,2.148-8.455-.01-11.807-2.338-3.633-5.541-8.609.892-16.429l5.088,4.185c-3.38,4.109-2.519,5.447-.44,8.677C-1079.333-2313.754-1075.747-2308.182-1081.622-2298.618Z" transform="translate(1439.481 2665.626)"/>
      <path id="路径_2634" data-name="路径 2634" class="cls-39" d="M-1086.337-2302.288c3.481-5.984,1.781-8.625-.355-11.943-2.3-3.571-5.145-7.994.434-15.14l4.071,3.349c-3.187,4.1-2.12,5.757-.073,8.938,2.237,3.475,5.593,8.689.415,17.556Z" transform="translate(1439.481 2665.626)"/>
      <path id="路径_2635" data-name="路径 2635" class="cls-38" d="M-1401.516-2390.453l-3.39-5.65c3.131-1.879,4.99-3.672,5.377-5.186.289-1.132-.213-2.436-.795-3.947-.785-2.04-1.763-4.578-.837-7.419.939-2.883,3.581-5.218,8.312-7.347l2.7,6.008c-3.968,1.786-4.639,3.039-4.751,3.381-.2.615.248,1.778.722,3.01.82,2.128,1.84,4.777,1.03,7.946C-1394.007-2396.287-1396.667-2393.363-1401.516-2390.453Z" transform="translate(1439.481 2665.626)"/>
      <path id="路径_2636" data-name="路径 2636" class="cls-39" d="M-1404.005-2395.883c2.983-1.869,4.7-3.631,5.114-5.243.342-1.336-.2-2.731-.818-4.347-.748-1.942-1.679-4.36-.826-6.977.839-2.575,3.184-4.706,7.358-6.676l2.163,4.808c-3.452,1.642-4.31,2.887-4.509,3.5-.273.837.193,2.047.733,3.449.786,2.043,1.764,4.583,1.006,7.548-.782,3.061-3.175,5.759-7.509,8.458Z" transform="translate(1439.481 2665.626)"/>
      <path id="路径_2637" data-name="路径 2637" class="cls-36" d="M-1100.4-2214.164l-.963-6.518c7.005-1.035,7.859-3.785,9.042-7.592,1.282-4.126,3.038-9.777,13.164-9.871l.061,6.589c-5.321.049-5.793,1.568-6.933,5.237C-1087.327-2222.132-1089.293-2215.8-1100.4-2214.164Z" transform="translate(1439.481 2665.626)"/>
      <path id="路径_2638" data-name="路径 2638" class="cls-37" d="M-1096.963-2215.578a25.187,25.187,0,0,1-2.879.659l-.771-5.215a20.321,20.321,0,0,0,2.281-.519c4.775-1.411,5.641-4.2,6.644-7.425.994-3.2,2.232-7.187,7.478-8.737a17.821,17.821,0,0,1,4.4-.656l.049,5.27a11.832,11.832,0,0,0-2.923.4c-2.567.759-3.126,2.56-3.973,5.286C-1087.794-2222.848-1089.355-2217.826-1096.963-2215.578Z" transform="translate(1439.481 2665.626)"/>
      <path id="路径_2639" data-name="路径 2639" class="cls-40" d="M-1105.641-2319.364l-5.66,1.415a2.055,2.055,0,0,1-2.493-2.493l1.415-5.66a2.055,2.055,0,0,1,1.994-1.558h4.245a2.057,2.057,0,0,1,2.057,2.056v4.245A2.057,2.057,0,0,1-1105.641-2319.364Z" transform="translate(1439.481 2665.626)"/>
      <path id="路径_2640" data-name="路径 2640" class="cls-40" d="M-1106.3-2321.34l-5.66,1.415a2.056,2.056,0,0,1-2.493-2.494l1.415-5.66a2.056,2.056,0,0,1,1.995-1.557h4.244a2.056,2.056,0,0,1,2.057,2.056v4.245A2.057,2.057,0,0,1-1106.3-2321.34Z" transform="translate(1439.481 2665.626)"/>
      <path id="路径_2641" data-name="路径 2641" class="cls-41" d="M-1409.814-2248.334l-.613-5.8a2.056,2.056,0,0,1,2.817-2.121l5.407,2.189a2.056,2.056,0,0,1,1.265,2.192l-.591,4.2a2.057,2.057,0,0,1-2.323,1.75l-4.2-.592A2.055,2.055,0,0,1-1409.814-2248.334Z" transform="translate(1439.481 2665.626)"/>
      <path id="路径_2642" data-name="路径 2642" class="cls-41" d="M-1407.765-2248.711l-.613-5.8a2.057,2.057,0,0,1,2.817-2.122l5.408,2.19a2.057,2.057,0,0,1,1.264,2.192l-.591,4.2a2.058,2.058,0,0,1-2.323,1.75l-4.2-.592A2.055,2.055,0,0,1-1407.765-2248.711Z" transform="translate(1439.481 2665.626)"/>
      <path id="路径_2643" data-name="路径 2643" class="cls-42" d="M-1146.8-2262.889l-.613-5.8a2.056,2.056,0,0,1,2.817-2.122l5.407,2.19a2.056,2.056,0,0,1,1.265,2.192l-.592,4.2a2.056,2.056,0,0,1-2.322,1.75l-4.2-.591A2.056,2.056,0,0,1-1146.8-2262.889Z" transform="translate(1439.481 2665.626)"/>
      <path id="路径_2644" data-name="路径 2644" class="cls-42" d="M-1144.748-2263.267l-.613-5.8a2.056,2.056,0,0,1,2.817-2.122l5.407,2.189a2.058,2.058,0,0,1,1.265,2.193l-.591,4.2a2.057,2.057,0,0,1-2.323,1.75l-4.2-.591A2.057,2.057,0,0,1-1144.748-2263.267Z" transform="translate(1439.481 2665.626)"/>
      <path id="路径_2645" data-name="路径 2645" class="cls-42" d="M-1357.034-2128.8l-.277-4.444c-.074-1.182.925-2.1,1.826-1.683l3.387,1.577a1.561,1.561,0,0,1,.76,1.66l-.456,3.239a1.462,1.462,0,0,1-1.506,1.388l-2.654-.373A1.377,1.377,0,0,1-1357.034-2128.8Z" transform="translate(1439.481 2665.626)"/>
      <path id="路径_2646" data-name="路径 2646" class="cls-42" d="M-1355.728-2129.128l-.277-4.444c-.073-1.182.926-2.1,1.827-1.683l3.387,1.578a1.557,1.557,0,0,1,.759,1.659l-.455,3.239a1.463,1.463,0,0,1-1.507,1.388l-2.654-.373A1.377,1.377,0,0,1-1355.728-2129.128Z" transform="translate(1439.481 2665.626)"/>
      <path id="路径_2647" data-name="路径 2647" class="cls-43" d="M-1374.061-2198.59l-.361-3.415a1.21,1.21,0,0,1,1.658-1.249l3.183,1.289a1.208,1.208,0,0,1,.744,1.29l-.348,2.474a1.21,1.21,0,0,1-1.367,1.03l-2.474-.348A1.209,1.209,0,0,1-1374.061-2198.59Z" transform="translate(1439.481 2665.626)"/>
      <path id="路径_2648" data-name="路径 2648" class="cls-43" d="M-1372.855-2198.812l-.361-3.415a1.21,1.21,0,0,1,1.658-1.249l3.183,1.289a1.208,1.208,0,0,1,.744,1.29l-.348,2.474a1.21,1.21,0,0,1-1.367,1.03l-2.474-.348A1.21,1.21,0,0,1-1372.855-2198.812Z" transform="translate(1439.481 2665.626)"/>
      <path id="路径_2649" data-name="路径 2649" class="cls-43" d="M-1118.82-2205.391l-.361-3.415a1.21,1.21,0,0,1,1.658-1.249l3.183,1.289a1.208,1.208,0,0,1,.744,1.29l-.348,2.474a1.21,1.21,0,0,1-1.367,1.03l-2.474-.348A1.209,1.209,0,0,1-1118.82-2205.391Z" transform="translate(1439.481 2665.626)"/>
      <path id="路径_2650" data-name="路径 2650" class="cls-43" d="M-1117.614-2205.613l-.36-3.415a1.21,1.21,0,0,1,1.657-1.249l3.183,1.289a1.21,1.21,0,0,1,.745,1.29l-.349,2.474a1.21,1.21,0,0,1-1.367,1.03l-2.474-.348A1.21,1.21,0,0,1-1117.614-2205.613Z" transform="translate(1439.481 2665.626)"/>
    </g>
  </g>
</svg>
