<svg xmlns="http://www.w3.org/2000/svg" width="23.296" height="20.501" viewBox="0 0 23.296 20.501">
  <defs>
    <style>
      .cls-1 {
        fill: #f93030;
      }

      .cls-2 {
        fill: #ff5454;
      }
    </style>
  </defs>
  <g id="丝带" transform="translate(-318.585 -279.978)">
    <path id="路径_2651" data-name="路径 2651" class="cls-1" d="M-1097.6-2385.627l-.213,6.585c-3.648-.118-6.183.382-7.329,1.444-.856.795-1.141,2.163-1.471,3.748-.445,2.14-1,4.8-3.316,6.689-2.352,1.915-5.837,2.446-10.967,1.671l.983-6.515c4.3.65,5.547-.039,5.825-.266.5-.409.756-1.629,1.025-2.921.465-2.233,1.043-5.012,3.441-7.237C-1107.072-2384.793-1103.252-2385.81-1097.6-2385.627Z" transform="translate(1439.481 2665.626)"/>
    <path id="路径_2632" data-name="路径 2632" class="cls-2" d="M-1116.785-2365.806a25.943,25.943,0,0,1-3.36-.243l.787-5.212a20.576,20.576,0,0,0,2.59.187h0a4.94,4.94,0,0,0,3.1-.686c.683-.556.947-1.825,1.254-3.3.446-2.143,1-4.808,3.244-6.89s5.519-3.043,10.321-3.043c.189,0,.38,0,.573,0l-.17,5.27-.38,0c-3.314,0-5.589.551-6.76,1.637-1.01.938-1.315,2.4-1.668,4.1-.424,2.039-.951,4.575-3.087,6.313A9.852,9.852,0,0,1-1116.785-2365.806Z" transform="translate(1439.481 2665.626)"/>
  </g>
</svg>
