<svg xmlns="http://www.w3.org/2000/svg" xmlns:xlink="http://www.w3.org/1999/xlink" width="126.481" height="157.668" viewBox="0 0 126.481 157.668">
  <defs>
    <style>
      .cls-1, .cls-10, .cls-5, .cls-7 {
        fill: none;
      }

      .cls-2, .cls-3, .cls-6 {
        fill: #f9e6ae;
      }

      .cls-2 {
        stroke: #502709;
      }

      .cls-10, .cls-2, .cls-3, .cls-6, .cls-7, .cls-9 {
        stroke-linecap: round;
        stroke-linejoin: round;
      }

      .cls-10, .cls-2, .cls-3, .cls-5, .cls-7, .cls-9 {
        stroke-width: 2.8px;
      }

      .cls-3, .cls-6, .cls-7, .cls-9 {
        stroke: #7a3b0d;
      }

      .cls-4 {
        fill: #edc959;
      }

      .cls-5 {
        stroke: #edc959;
        stroke-miterlimit: 10;
      }

      .cls-6 {
        stroke-width: 1.4px;
      }

      .cls-8 {
        clip-path: url(#clip-path);
      }

      .cls-9 {
        fill: #fff;
      }

      .cls-10 {
        stroke: #eaddbe;
      }
    </style>
    <clipPath id="clip-path">
      <path id="路径_625" data-name="路径 625" class="cls-1" d="M-596.746,651.116c1,6.079-19.849,14.569-46.563,18.965s-49.184,3.034-50.184-3.045c-.011-.068-.017-.133-.024-.2-.517-6.064,13.232-42.191,39.65-46.539s55.626,24.712,57.078,30.622C-596.773,650.984-596.758,651.048-596.746,651.116Z"/>
    </clipPath>
  </defs>
  <g id="小笼包" transform="translate(700.061 -619.854)">
    <g id="组_599" data-name="组 599">
      <path id="路径_587" data-name="路径 587" class="cls-2" d="M-579.038,726.367l4,24.315c1.28,7.775-21.635,18.018-51.176,22.879s-54.529,2.5-55.808-5.275l-4-24.314.22-.037c3.638,6.773,27.475,8.623,55.378,4.031s49.89-13.982,51.166-21.563Z"/>
      <path id="路径_588" data-name="路径 588" class="cls-3" d="M-583.207,701.029l3.958,24.058a3.879,3.879,0,0,1-.009,1.316c-1.276,7.581-23.263,16.972-51.166,21.563s-51.74,2.742-55.378-4.031a3.889,3.889,0,0,1-.431-1.243l-3.959-24.059c1.28,7.776,26.268,10.136,55.809,5.275S-581.928,708.8-583.207,701.029Z"/>
      <path id="路径_589" data-name="路径 589" class="cls-4" d="M-593.811,735.633c3.406.491,13.8-7.062,14.1-8.922a3.549,3.549,0,0,0,.006-1.181l-3.555-21.6c-1.121,5.968-14.864,11.91-34.918,17.838,5.746.408,29.995-5.127,32.118-6.567l1.775,10.782C-584.6,726.571-589.375,732.8-593.811,735.633Zm-71.412,13.328c-11.412-.435-12.84-4.194-13.38-4.633l-3.551-15.188c6.262-.29,17.634-.8,21.325-1.406q-21.365-.428-27.623-4.918l3.484,21.17a3.043,3.043,0,0,0,.405,1.089C-682.845,747.979-674.8,748.465-665.223,748.961Z"/>
      <path id="路径_590" data-name="路径 590" class="cls-3" d="M-583.207,701.029c1.279,7.775-21.635,18.018-51.176,22.879s-54.529,2.5-55.809-5.275c-.014-.087-.022-.17-.031-.257-.744-7.743,21.994-17.815,51.207-22.622s53.979-2.552,55.756,5.02C-583.24,700.861-583.222,700.942-583.207,701.029Z"/>
      <path id="路径_591" data-name="路径 591" class="cls-5" d="M-675.648,759.088c6.563,1.549,28.814,5.774,47.333.1"/>
      <path id="路径_592" data-name="路径 592" class="cls-5" d="M-622.529,765.594c19.283-4.224,36.1-10.672,38.832-13.224"/>
      <path id="路径_593" data-name="路径 593" class="cls-6" d="M-588.326,701.871c1,6.079-19.848,14.57-46.563,18.966s-49.183,3.033-50.184-3.046c-.011-.068-.017-.133-.023-.2-.518-6.064,20.168-14.416,46.585-18.764s48.69-3.063,50.143,2.847C-588.353,701.74-588.338,701.8-588.326,701.871Z"/>
      <path id="路径_594" data-name="路径 594" class="cls-5" d="M-670.095,733.727c17.566,1.316,30.784,1.77,40.769-1.451"/>
      <path id="路径_595" data-name="路径 595" class="cls-5" d="M-633.434,739.261c11.858-1.425,22.011-3.622,29.612-8.553"/>
      <path id="路径_596" data-name="路径 596" class="cls-7" d="M-583.207,701.029l3.958,24.058a3.879,3.879,0,0,1-.009,1.316c-1.276,7.581-23.263,16.972-51.166,21.563s-51.74,2.742-55.378-4.031a3.889,3.889,0,0,1-.431-1.243l-3.959-24.059c1.28,7.776,26.268,10.136,55.809,5.275S-581.928,708.8-583.207,701.029Z"/>
      <path id="路径_597" data-name="路径 597" class="cls-4" d="M-653.6,750.385c-11.453-.4-22.456-.167-31.06-4.534,0,0,1.574,22.348,2.851,23.715s6.3,6.324,26.767,6.11c0,0-3.836-.946-13.212-3.609s-10.393-5.65-10.393-5.65-2.443-14.845-.823-14.586S-653.6,750.385-653.6,750.385Z"/>
      <path id="路径_598" data-name="路径 598" class="cls-4" d="M-618.5,745.64s16.308-.217,24.245-3.1a43.5,43.5,0,0,0,12.979-7.393l3.207,16.3s-9.97,12.448-18.563,14.767,17.884-3.635,21.259-13.118l-3.426-25.255S-580.418,733.955-618.5,745.64Z"/>
      <path id="路径_599" data-name="路径 599" class="cls-7" d="M-579.038,726.367l4,24.315c1.28,7.775-21.635,18.018-51.176,22.879s-54.529,2.5-55.808-5.275l-4-24.314.22-.037c3.638,6.773,27.475,8.623,55.378,4.031s49.89-13.982,51.166-21.563Z"/>
    </g>
    <g id="组_600" data-name="组 600">
      <path id="路径_600" data-name="路径 600" class="cls-2" d="M-587.458,675.612l4,24.314c1.279,7.776-21.635,18.018-51.176,22.879s-54.529,2.5-55.808-5.274l-4-24.315.22-.036c3.638,6.772,27.475,8.623,55.378,4.031s49.89-13.982,51.166-21.563Z"/>
      <path id="路径_601" data-name="路径 601" class="cls-3" d="M-591.628,650.273l3.959,24.059a3.88,3.88,0,0,1-.009,1.316c-1.276,7.581-23.263,16.972-51.166,21.563s-51.74,2.741-55.378-4.031a3.866,3.866,0,0,1-.431-1.243l-3.959-24.059c1.28,7.775,26.268,10.136,55.809,5.275S-590.348,658.049-591.628,650.273Z"/>
      <path id="路径_602" data-name="路径 602" class="cls-4" d="M-602.232,684.877c3.407.491,13.8-7.061,14.1-8.922a3.52,3.52,0,0,0,.005-1.181l-3.554-21.6c-1.121,5.968-14.864,11.909-34.919,17.838,5.747.408,30-5.128,32.119-6.568l1.774,10.783C-593.019,675.816-597.795,682.044-602.232,684.877Zm-71.411,13.329c-11.412-.436-12.84-4.2-13.38-4.633l-3.551-15.188c6.261-.29,17.634-.8,21.324-1.406q-21.363-.429-27.622-4.918l3.484,21.169a3.039,3.039,0,0,0,.405,1.09C-691.265,697.224-683.222,697.71-673.643,698.206Z"/>
      <path id="路径_603" data-name="路径 603" class="cls-3" d="M-591.628,650.273c1.28,7.776-21.634,18.018-51.175,22.88s-54.529,2.5-55.809-5.275c-.014-.087-.022-.17-.032-.258-.743-7.743,21.995-17.814,51.208-22.621s53.979-2.553,55.756,5.02C-591.661,650.1-591.642,650.186-591.628,650.273Z"/>
      <path id="路径_604" data-name="路径 604" class="cls-5" d="M-684.069,708.333c6.564,1.549,28.815,5.774,47.334.1"/>
      <path id="路径_605" data-name="路径 605" class="cls-5" d="M-630.949,714.839c19.283-4.225,36.1-10.672,38.832-13.225"/>
      <path id="路径_606" data-name="路径 606" class="cls-6" d="M-596.746,651.116c1,6.079-19.849,14.569-46.563,18.965s-49.184,3.034-50.184-3.045c-.011-.068-.017-.133-.024-.2-.517-6.064,20.168-14.417,46.586-18.764s48.69-3.063,50.142,2.847C-596.773,650.984-596.758,651.048-596.746,651.116Z"/>
      <path id="路径_607" data-name="路径 607" class="cls-5" d="M-678.515,682.972c17.566,1.316,30.784,1.769,40.769-1.451"/>
      <path id="路径_608" data-name="路径 608" class="cls-5" d="M-641.854,688.506c11.857-1.426,22.011-3.622,29.612-8.553"/>
      <path id="路径_609" data-name="路径 609" class="cls-7" d="M-591.628,650.273l3.959,24.059a3.88,3.88,0,0,1-.009,1.316c-1.276,7.581-23.263,16.972-51.166,21.563s-51.74,2.741-55.378-4.031a3.866,3.866,0,0,1-.431-1.243l-3.959-24.059c1.28,7.775,26.268,10.136,55.809,5.275S-590.348,658.049-591.628,650.273Z"/>
      <path id="路径_610" data-name="路径 610" class="cls-4" d="M-662.021,699.63c-11.453-.4-22.456-.167-31.061-4.535,0,0,1.575,22.348,2.851,23.716s6.3,6.324,26.767,6.11c0,0-3.835-.946-13.211-3.609s-10.394-5.65-10.394-5.65-2.442-14.845-.822-14.586S-662.021,699.63-662.021,699.63Z"/>
      <path id="路径_611" data-name="路径 611" class="cls-4" d="M-626.917,694.884s16.307-.216,24.245-3.1a43.515,43.515,0,0,0,12.978-7.393l3.208,16.3s-9.97,12.447-18.563,14.767,17.884-3.636,21.259-13.118l-3.426-25.255S-588.838,683.2-626.917,694.884Z"/>
      <path id="路径_612" data-name="路径 612" class="cls-7" d="M-587.458,675.612l4,24.314c1.279,7.776-21.635,18.018-51.176,22.879s-54.529,2.5-55.808-5.274l-4-24.315.22-.036c3.638,6.772,27.475,8.623,55.378,4.031s49.89-13.982,51.166-21.563Z"/>
    </g>
    <g id="组_605" data-name="组 605">
      <g id="组_604" data-name="组 604" class="cls-8">
        <g id="组_601" data-name="组 601">
          <path id="路径_613" data-name="路径 613" class="cls-9" d="M-619.839,645.579c.9,10.563-8.973,13.776-21.392,14.828s-22.685-.455-23.58-11.018,11.557-23.366,20.6-24.133C-634.128,624.4-620.734,635.016-619.839,645.579Z"/>
          <line id="直线_495" data-name="直线 495" class="cls-9" y1="12.842" x2="9.413" transform="translate(-655.382 624.937)"/>
          <path id="路径_614" data-name="路径 614" class="cls-9" d="M-634.248,635.276l-10.141-10.525-.336,12.836"/>
          <path id="路径_615" data-name="路径 615" class="cls-10" d="M-658.144,642.056c-3.18,5.475-4.591,13.4,5.362,14.123"/>
          <path id="路径_616" data-name="路径 616" class="cls-10" d="M-626.13,645.071c2.506,4.994,1.3,9.261-9.121,9.1"/>
        </g>
        <g id="组_602" data-name="组 602">
          <path id="路径_617" data-name="路径 617" class="cls-9" d="M-597.808,656.926c1.909,10.428-7.6,14.576-19.863,16.82s-22.624,1.732-24.532-8.695,9.252-24.371,18.182-26.005C-614.07,637.225-599.716,646.5-597.808,656.926Z"/>
          <line id="直线_496" data-name="直线 496" class="cls-9" y1="13.689" x2="8.132" transform="translate(-633.937 638.897)"/>
          <path id="路径_618" data-name="路径 618" class="cls-9" d="M-613.142,648.06l-11.108-9.5.9,12.809"/>
          <path id="路径_619" data-name="路径 619" class="cls-10" d="M-636.273,657.109c-2.638,5.757-3.279,13.785,6.7,13.542"/>
          <path id="路径_620" data-name="路径 620" class="cls-10" d="M-604.118,657.026c2.975,4.729,2.191,9.092-8.2,9.939"/>
        </g>
        <g id="组_603" data-name="组 603">
          <path id="路径_621" data-name="路径 621" class="cls-9" d="M-643.356,667.967c.126,10.6-9.949,13.088-22.411,13.236s-22.593-2.1-22.719-12.7,13.223-22.466,22.3-22.574C-656.07,645.809-643.481,657.367-643.356,667.967Z"/>
          <line id="直线_497" data-name="直线 497" class="cls-9" y1="12.125" x2="10.32" transform="translate(-678.239 645.483)"/>
          <path id="路径_622" data-name="路径 622" class="cls-9" d="M-656.979,656.646l-9.351-11.234L-667.6,658.19"/>
          <path id="路径_623" data-name="路径 623" class="cls-10" d="M-681.3,661.673c-3.57,5.23-5.552,13.036,4.322,14.475"/>
          <path id="路径_624" data-name="路径 624" class="cls-10" d="M-649.593,667c2.137,5.162.63,9.331-9.757,8.416"/>
        </g>
      </g>
    </g>
  </g>
</svg>
