<svg xmlns="http://www.w3.org/2000/svg" xmlns:xlink="http://www.w3.org/1999/xlink" width="144.1" height="50.043" viewBox="0 0 144.1 50.043">
  <defs>
    <style>
      .cls-1, .cls-10, .cls-4, .cls-5, .cls-8, .cls-9 {
        fill: none;
      }

      .cls-2 {
        clip-path: url(#clip-path);
      }

      .cls-3 {
        fill: #fe38b2;
      }

      .cls-10, .cls-4, .cls-5, .cls-8, .cls-9 {
        stroke: #000;
        stroke-width: 2.8px;
      }

      .cls-4, .cls-5 {
        stroke-miterlimit: 10;
      }

      .cls-10, .cls-5, .cls-8, .cls-9 {
        stroke-linecap: round;
      }

      .cls-5 {
        stroke-dasharray: 1.4 5.6;
      }

      .cls-6 {
        fill: #ffda34;
      }

      .cls-7 {
        clip-path: url(#clip-path-2);
      }

      .cls-10, .cls-8, .cls-9 {
        stroke-linejoin: round;
      }

      .cls-9 {
        stroke-dasharray: 5.725 11.45;
      }

      .cls-10 {
        stroke-dasharray: 11.45 11.45 5.725 11.45;
      }
    </style>
    <clipPath id="clip-path">
      <path id="交叉_2" data-name="交叉 2" class="cls-1" d="M-629.244,479.319c-13.077,0-13.077,2.615-26.154,2.615s-13.077-2.615-26.154-2.615-13.078,2.615-26.156,2.615-13.234,1.088-25.79-2.564c-1.755-.51-2.21-1.118-2.209-2.034,0-.99.536-2.34.536-4.316,0-3.8,2.615-3.8,2.615-7.607s-2.615-3.8-2.615-7.608,2.615-3.8,2.615-7.608c0-2.838-2.965-5.784-2.953-7.538,0-.6.353-1.056,1.28-1.326,12.557-3.653,13.442,2.563,26.519,2.563s13.077-2.615,26.154-2.615,13.077,2.615,26.154,2.615,13.078-2.615,26.156-2.615,13.233-1.089,25.789,2.563c1.755.51,2.21,1.118,2.209,2.034,0,.991-.536,2.341-.536,4.318,0,3.8-2.615,3.8-2.615,7.606s2.615,3.8,2.615,7.608c0,3.344-2.729,4.1-2.738,6.731a4.709,4.709,0,0,0,.165,1.207c.876,3.358,3.132,5.687,3.125,7.144,0,.615-.409,1.075-1.494,1.391a25.1,25.1,0,0,1-7.028,1.149C-616.313,483.033-619.135,479.319-629.244,479.319Z"/>
    </clipPath>
    <clipPath id="clip-path-2">
      <path id="路径_297" data-name="路径 297" class="cls-1" d="M-611.273,477.751c-.959-3.681,2.574-4.134,2.574-7.938s-2.615-3.8-2.615-7.607,2.615-3.8,2.615-7.608,1.981-5.291-1.672-6.353c-12.559-3.65-12.713-2.562-25.79-2.562s-13.077,2.615-26.158,2.615-13.077-2.615-26.154-2.615-13.075,2.615-26.152,2.615-13.964-6.214-26.519-2.562c-3.653,1.063,1.672,5.058,1.672,8.862s-2.615,3.8-2.615,7.608,2.615,3.8,2.615,7.607-2.615,3.8-2.615,7.608-1.981,5.29,1.672,6.353c12.559,3.649,12.713,2.562,25.79,2.562s13.077-2.616,26.158-2.616,13.077,2.616,26.155,2.616,13.074-2.616,26.151-2.616,13.964,6.215,26.519,2.562C-605.989,485.22-610.025,482.526-611.273,477.751Zm-9.749,2.807c-10.38,2.624-11.116-1.84-21.929-1.84s-10.813,1.879-21.626,1.879-10.813-1.879-21.626-1.879-10.818,1.879-21.631,1.879-10.944.78-21.328-1.84c-3.023-.762-1.385-1.829-1.385-4.555s2.161-2.73,2.161-5.459-2.161-2.73-2.161-5.46,2.161-2.733,2.161-5.463-4.4-5.6-1.38-6.36c10.38-2.623,11.115,1.84,21.928,1.84s10.813-1.879,21.626-1.879,10.814,1.879,21.627,1.879,10.817-1.879,21.63-1.879,10.944-.779,21.328,1.84c3.023.763,1.385,1.83,1.385,4.556s-2.161,2.729-2.161,5.459,2.161,2.73,2.161,5.459-2.921,3.056-2.128,5.7C-621.341,477.86-618,479.8-621.022,480.558Z"/>
    </clipPath>
  </defs>
  <g id="重点选框" transform="translate(743.929 -438.787)">
    <g id="组_418" data-name="组 418">
      <g id="组_417" data-name="组 417" class="cls-2">
        <g id="组_413" data-name="组 413">
          <path id="路径_290" data-name="路径 290" class="cls-3" d="M-602.725,481.883c-12.556,3.653-13.442-2.564-26.518-2.564s-13.076,2.616-26.152,2.616-13.077-2.616-26.154-2.616-13.079,2.616-26.157,2.616-13.234,1.087-25.793-2.564c-3.651-1.061-1.672-2.546-1.672-6.349s2.615-3.8,2.615-7.607-2.615-3.8-2.615-7.605,2.615-3.8,2.615-7.61-5.327-7.8-1.673-8.866c12.556-3.654,13.442,2.563,26.518,2.563s13.076-2.615,26.152-2.615,13.077,2.615,26.154,2.615,13.079-2.615,26.157-2.615,13.234-1.088,25.793,2.563c3.651,1.062,1.672,2.547,1.672,6.349S-604.4,454-604.4,457.8s2.615,3.8,2.615,7.605-3.533,4.258-2.573,7.94C-603.11,478.126-599.071,480.82-602.725,481.883Z"/>
          <path id="路径_291" data-name="路径 291" class="cls-4" d="M-602.725,481.883c-12.556,3.653-13.442-2.564-26.518-2.564s-13.076,2.616-26.152,2.616-13.077-2.616-26.154-2.616-13.079,2.616-26.157,2.616-13.234,1.087-25.793-2.564c-3.651-1.061-1.672-2.546-1.672-6.349s2.615-3.8,2.615-7.607-2.615-3.8-2.615-7.605,2.615-3.8,2.615-7.61-5.327-7.8-1.673-8.866c12.556-3.654,13.442,2.563,26.518,2.563s13.076-2.615,26.152-2.615,13.077,2.615,26.154,2.615,13.079-2.615,26.157-2.615,13.234-1.088,25.793,2.563c3.651,1.062,1.672,2.547,1.672,6.349S-604.4,454-604.4,457.8s2.615,3.8,2.615,7.605-3.533,4.258-2.573,7.94C-603.11,478.126-599.071,480.82-602.725,481.883Z"/>
        </g>
        <g id="组_416" data-name="组 416">
          <g id="组_414" data-name="组 414">
            <line id="直线_355" data-name="直线 355" class="cls-5" y2="59.801" transform="translate(-757.755 435.045)"/>
            <line id="直线_356" data-name="直线 356" class="cls-5" y2="59.801" transform="translate(-743.367 435.045)"/>
            <line id="直线_357" data-name="直线 357" class="cls-5" y2="59.801" transform="translate(-728.979 435.045)"/>
            <line id="直线_358" data-name="直线 358" class="cls-5" y2="59.801" transform="translate(-714.591 435.045)"/>
            <line id="直线_359" data-name="直线 359" class="cls-5" y2="59.801" transform="translate(-700.203 435.045)"/>
            <line id="直线_360" data-name="直线 360" class="cls-5" y2="59.801" transform="translate(-685.815 435.045)"/>
            <line id="直线_361" data-name="直线 361" class="cls-5" y2="59.801" transform="translate(-671.427 435.045)"/>
            <line id="直线_362" data-name="直线 362" class="cls-5" y2="59.801" transform="translate(-657.039 435.045)"/>
            <line id="直线_363" data-name="直线 363" class="cls-5" y2="59.801" transform="translate(-642.651 435.045)"/>
            <line id="直线_364" data-name="直线 364" class="cls-5" y2="59.801" transform="translate(-628.263 435.045)"/>
            <line id="直线_365" data-name="直线 365" class="cls-5" y2="59.801" transform="translate(-613.875 435.045)"/>
            <line id="直线_366" data-name="直线 366" class="cls-5" y2="59.801" transform="translate(-599.487 435.045)"/>
            <line id="直线_367" data-name="直线 367" class="cls-5" y2="59.801" transform="translate(-585.099 435.045)"/>
            <line id="直线_368" data-name="直线 368" class="cls-5" y2="59.801" transform="translate(-570.711 435.045)"/>
          </g>
          <g id="组_415" data-name="组 415">
            <line id="直线_369" data-name="直线 369" class="cls-5" y2="59.801" transform="translate(-750.411 436.229)"/>
            <line id="直线_370" data-name="直线 370" class="cls-5" y2="59.801" transform="translate(-736.023 436.229)"/>
            <line id="直线_371" data-name="直线 371" class="cls-5" y2="59.801" transform="translate(-721.635 436.229)"/>
            <line id="直线_372" data-name="直线 372" class="cls-5" y2="59.801" transform="translate(-707.247 436.229)"/>
            <line id="直线_373" data-name="直线 373" class="cls-5" y2="59.801" transform="translate(-692.859 436.229)"/>
            <line id="直线_374" data-name="直线 374" class="cls-5" y2="59.801" transform="translate(-678.471 436.229)"/>
            <line id="直线_375" data-name="直线 375" class="cls-5" y2="59.801" transform="translate(-664.084 436.229)"/>
            <line id="直线_376" data-name="直线 376" class="cls-5" y2="59.801" transform="translate(-649.696 436.229)"/>
            <line id="直线_377" data-name="直线 377" class="cls-5" y2="59.801" transform="translate(-635.308 436.229)"/>
            <line id="直线_378" data-name="直线 378" class="cls-5" y2="59.801" transform="translate(-620.92 436.229)"/>
            <line id="直线_379" data-name="直线 379" class="cls-5" y2="59.801" transform="translate(-606.532 436.229)"/>
            <line id="直线_380" data-name="直线 380" class="cls-5" y2="59.801" transform="translate(-592.144 436.229)"/>
            <line id="直线_381" data-name="直线 381" class="cls-5" y2="59.801" transform="translate(-577.756 436.229)"/>
            <line id="直线_382" data-name="直线 382" class="cls-5" y2="59.801" transform="translate(-563.368 436.229)"/>
          </g>
        </g>
      </g>
    </g>
    <g id="组_419" data-name="组 419">
      <path id="路径_294" data-name="路径 294" class="cls-4" d="M-602.725,481.883c-12.556,3.653-13.442-2.564-26.518-2.564s-13.076,2.616-26.152,2.616-13.077-2.616-26.154-2.616-13.079,2.616-26.157,2.616-13.234,1.087-25.793-2.564c-3.651-1.061-1.672-2.546-1.672-6.349s2.615-3.8,2.615-7.607-2.615-3.8-2.615-7.605,2.615-3.8,2.615-7.61-5.327-7.8-1.673-8.866c12.556-3.654,13.442,2.563,26.518,2.563s13.076-2.615,26.152-2.615,13.077,2.615,26.154,2.615,13.079-2.615,26.157-2.615,13.234-1.088,25.793,2.563c3.651,1.062,1.672,2.547,1.672,6.349S-604.4,454-604.4,457.8s2.615,3.8,2.615,7.605-3.533,4.258-2.573,7.94C-603.11,478.126-599.071,480.82-602.725,481.883Z"/>
    </g>
    <g id="组_420" data-name="组 420">
      <path id="路径_295" data-name="路径 295" class="cls-6" d="M-609.641,486.284c-12.556,3.653-13.442-2.564-26.518-2.564s-13.076,2.616-26.152,2.616-13.077-2.616-26.154-2.616-13.079,2.616-26.157,2.616-13.234,1.087-25.792-2.564c-3.652-1.061-1.673-2.546-1.673-6.349s2.615-3.8,2.615-7.607-2.615-3.8-2.615-7.605,2.615-3.8,2.615-7.61-5.326-7.8-1.673-8.866c12.556-3.654,13.442,2.563,26.518,2.563s13.076-2.615,26.153-2.615,13.076,2.615,26.153,2.615,13.079-2.615,26.157-2.615,13.234-1.088,25.793,2.563c3.651,1.062,1.672,2.547,1.672,6.349s-2.615,3.8-2.615,7.608,2.615,3.8,2.615,7.605-3.533,4.258-2.573,7.94C-610.026,482.527-605.987,485.221-609.641,486.284Z"/>
      <path id="路径_296" data-name="路径 296" class="cls-4" d="M-609.641,486.284c-12.556,3.653-13.442-2.564-26.518-2.564s-13.076,2.616-26.152,2.616-13.077-2.616-26.154-2.616-13.079,2.616-26.157,2.616-13.234,1.087-25.792-2.564c-3.652-1.061-1.673-2.546-1.673-6.349s2.615-3.8,2.615-7.607-2.615-3.8-2.615-7.605,2.615-3.8,2.615-7.61-5.326-7.8-1.673-8.866c12.556-3.654,13.442,2.563,26.518,2.563s13.076-2.615,26.153-2.615,13.076,2.615,26.153,2.615,13.079-2.615,26.157-2.615,13.234-1.088,25.793,2.563c3.651,1.062,1.672,2.547,1.672,6.349s-2.615,3.8-2.615,7.608,2.615,3.8,2.615,7.605-3.533,4.258-2.573,7.94C-610.026,482.527-605.987,485.221-609.641,486.284Z"/>
    </g>
    <g id="组_448" data-name="组 448">
      <g id="组_447" data-name="组 447" class="cls-7">
        <g id="组_446" data-name="组 446">
          <g id="组_421" data-name="组 421">
            <line id="直线_383" data-name="直线 383" class="cls-8" y1="4.95" x2="4.95" transform="translate(-778.266 430.754)"/>
            <line id="直线_384" data-name="直线 384" class="cls-9" y1="8.097" x2="8.097" transform="translate(-765.22 414.561)"/>
            <line id="直线_385" data-name="直线 385" class="cls-10" y1="52.628" x2="52.628" transform="translate(-753.075 357.885)"/>
            <line id="直线_386" data-name="直线 386" class="cls-8" y1="4.95" x2="4.95" transform="translate(-696.399 348.887)"/>
          </g>
          <g id="组_422" data-name="组 422">
            <line id="直线_387" data-name="直线 387" class="cls-8" y1="4.95" x2="4.95" transform="translate(-773.94 436.334)"/>
            <line id="直线_388" data-name="直线 388" class="cls-9" y1="8.097" x2="8.097" transform="translate(-760.893 420.141)"/>
            <line id="直线_389" data-name="直线 389" class="cls-10" y1="52.628" x2="52.628" transform="translate(-748.749 363.464)"/>
            <line id="直线_390" data-name="直线 390" class="cls-8" y1="4.95" x2="4.95" transform="translate(-692.072 354.466)"/>
          </g>
          <g id="组_423" data-name="组 423">
            <line id="直线_391" data-name="直线 391" class="cls-8" y1="4.95" x2="4.95" transform="translate(-769.613 441.913)"/>
            <line id="直线_392" data-name="直线 392" class="cls-9" y1="8.097" x2="8.097" transform="translate(-756.567 425.72)"/>
            <line id="直线_393" data-name="直线 393" class="cls-10" y1="52.628" x2="52.628" transform="translate(-744.422 369.044)"/>
            <line id="直线_394" data-name="直线 394" class="cls-8" y1="4.95" x2="4.95" transform="translate(-687.746 360.046)"/>
          </g>
          <g id="组_424" data-name="组 424">
            <line id="直线_395" data-name="直线 395" class="cls-8" y1="4.95" x2="4.95" transform="translate(-765.286 447.493)"/>
            <line id="直线_396" data-name="直线 396" class="cls-9" y1="8.097" x2="8.097" transform="translate(-752.24 431.3)"/>
            <line id="直线_397" data-name="直线 397" class="cls-10" y1="52.628" x2="52.628" transform="translate(-740.095 374.624)"/>
            <line id="直线_398" data-name="直线 398" class="cls-8" y1="4.95" x2="4.95" transform="translate(-683.419 365.626)"/>
          </g>
          <g id="组_425" data-name="组 425">
            <line id="直线_399" data-name="直线 399" class="cls-8" y1="4.95" x2="4.95" transform="translate(-760.96 453.073)"/>
            <line id="直线_400" data-name="直线 400" class="cls-9" y1="8.097" x2="8.097" transform="translate(-747.913 436.879)"/>
            <line id="直线_401" data-name="直线 401" class="cls-10" y1="52.628" x2="52.628" transform="translate(-735.768 380.203)"/>
            <line id="直线_402" data-name="直线 402" class="cls-8" y1="4.95" x2="4.95" transform="translate(-679.092 371.205)"/>
          </g>
          <g id="组_426" data-name="组 426">
            <line id="直线_403" data-name="直线 403" class="cls-8" y1="4.95" x2="4.95" transform="translate(-756.633 458.652)"/>
            <line id="直线_404" data-name="直线 404" class="cls-9" y1="8.097" x2="8.097" transform="translate(-743.587 442.459)"/>
            <line id="直线_405" data-name="直线 405" class="cls-10" y1="52.628" x2="52.628" transform="translate(-731.442 385.783)"/>
            <line id="直线_406" data-name="直线 406" class="cls-8" y1="4.95" x2="4.95" transform="translate(-674.766 376.785)"/>
          </g>
          <g id="组_427" data-name="组 427">
            <line id="直线_407" data-name="直线 407" class="cls-8" y1="4.95" x2="4.95" transform="translate(-752.306 464.232)"/>
            <line id="直线_408" data-name="直线 408" class="cls-9" y1="8.097" x2="8.097" transform="translate(-739.26 448.039)"/>
            <line id="直线_409" data-name="直线 409" class="cls-10" y1="52.628" x2="52.628" transform="translate(-727.115 391.362)"/>
            <line id="直线_410" data-name="直线 410" class="cls-8" y1="4.95" x2="4.95" transform="translate(-670.439 382.364)"/>
          </g>
          <g id="组_428" data-name="组 428">
            <line id="直线_411" data-name="直线 411" class="cls-8" y1="4.95" x2="4.95" transform="translate(-747.98 469.811)"/>
            <line id="直线_412" data-name="直线 412" class="cls-9" y1="8.097" x2="8.097" transform="translate(-734.933 453.618)"/>
            <line id="直线_413" data-name="直线 413" class="cls-10" y1="52.628" x2="52.628" transform="translate(-722.788 396.942)"/>
            <line id="直线_414" data-name="直线 414" class="cls-8" y1="4.95" x2="4.95" transform="translate(-666.112 387.944)"/>
          </g>
          <g id="组_429" data-name="组 429">
            <line id="直线_415" data-name="直线 415" class="cls-8" y1="4.95" x2="4.95" transform="translate(-743.653 475.391)"/>
            <line id="直线_416" data-name="直线 416" class="cls-9" y1="8.097" x2="8.097" transform="translate(-730.607 459.198)"/>
            <line id="直线_417" data-name="直线 417" class="cls-10" y1="52.628" x2="52.628" transform="translate(-718.462 402.522)"/>
            <line id="直线_418" data-name="直线 418" class="cls-8" y1="4.95" x2="4.95" transform="translate(-661.785 393.524)"/>
          </g>
          <g id="组_430" data-name="组 430">
            <line id="直线_419" data-name="直线 419" class="cls-8" y1="4.95" x2="4.95" transform="translate(-739.326 480.971)"/>
            <line id="直线_420" data-name="直线 420" class="cls-9" y1="8.097" x2="8.097" transform="translate(-726.28 464.777)"/>
            <line id="直线_421" data-name="直线 421" class="cls-10" y1="52.628" x2="52.628" transform="translate(-714.135 408.101)"/>
            <line id="直线_422" data-name="直线 422" class="cls-8" y1="4.95" x2="4.95" transform="translate(-657.459 399.103)"/>
          </g>
          <g id="组_431" data-name="组 431">
            <line id="直线_423" data-name="直线 423" class="cls-8" y1="4.95" x2="4.95" transform="translate(-735 486.55)"/>
            <line id="直线_424" data-name="直线 424" class="cls-9" y1="8.097" x2="8.097" transform="translate(-721.953 470.357)"/>
            <line id="直线_425" data-name="直线 425" class="cls-10" y1="52.628" x2="52.628" transform="translate(-709.808 413.681)"/>
            <line id="直线_426" data-name="直线 426" class="cls-8" y1="4.95" x2="4.95" transform="translate(-653.132 404.683)"/>
          </g>
          <g id="组_432" data-name="组 432">
            <line id="直线_427" data-name="直线 427" class="cls-8" y1="4.95" x2="4.95" transform="translate(-730.673 492.13)"/>
            <line id="直线_428" data-name="直线 428" class="cls-9" y1="8.097" x2="8.097" transform="translate(-717.626 475.937)"/>
            <line id="直线_429" data-name="直线 429" class="cls-10" y1="52.628" x2="52.628" transform="translate(-705.482 419.26)"/>
            <line id="直线_430" data-name="直线 430" class="cls-8" y1="4.95" x2="4.95" transform="translate(-648.805 410.262)"/>
          </g>
          <g id="组_433" data-name="组 433">
            <line id="直线_431" data-name="直线 431" class="cls-8" y1="4.95" x2="4.95" transform="translate(-726.346 497.709)"/>
            <line id="直线_432" data-name="直线 432" class="cls-9" y1="8.097" x2="8.097" transform="translate(-713.3 481.516)"/>
            <line id="直线_433" data-name="直线 433" class="cls-10" y1="52.628" x2="52.628" transform="translate(-701.155 424.84)"/>
            <line id="直线_434" data-name="直线 434" class="cls-8" y1="4.95" x2="4.95" transform="translate(-644.479 415.842)"/>
          </g>
          <g id="组_434" data-name="组 434">
            <line id="直线_435" data-name="直线 435" class="cls-8" y1="4.95" x2="4.95" transform="translate(-722.019 503.289)"/>
            <line id="直线_436" data-name="直线 436" class="cls-9" y1="8.097" x2="8.097" transform="translate(-708.973 487.096)"/>
            <line id="直线_437" data-name="直线 437" class="cls-10" y1="52.628" x2="52.628" transform="translate(-696.828 430.42)"/>
            <line id="直线_438" data-name="直线 438" class="cls-8" y1="4.95" x2="4.95" transform="translate(-640.152 421.422)"/>
          </g>
          <g id="组_435" data-name="组 435">
            <line id="直线_439" data-name="直线 439" class="cls-8" y1="4.95" x2="4.95" transform="translate(-717.693 508.869)"/>
            <line id="直线_440" data-name="直线 440" class="cls-9" y1="8.097" x2="8.097" transform="translate(-704.646 492.675)"/>
            <line id="直线_441" data-name="直线 441" class="cls-10" y1="52.628" x2="52.628" transform="translate(-692.502 435.999)"/>
            <line id="直线_442" data-name="直线 442" class="cls-8" y1="4.95" x2="4.95" transform="translate(-635.825 427.001)"/>
          </g>
          <g id="组_436" data-name="组 436">
            <line id="直线_443" data-name="直线 443" class="cls-8" y1="4.95" x2="4.95" transform="translate(-713.366 514.448)"/>
            <line id="直线_444" data-name="直线 444" class="cls-9" y1="8.097" x2="8.097" transform="translate(-700.32 498.255)"/>
            <line id="直线_445" data-name="直线 445" class="cls-10" y1="52.628" x2="52.628" transform="translate(-688.175 441.579)"/>
            <line id="直线_446" data-name="直线 446" class="cls-8" y1="4.95" x2="4.95" transform="translate(-631.499 432.581)"/>
          </g>
          <g id="组_437" data-name="组 437">
            <line id="直线_447" data-name="直线 447" class="cls-8" y1="4.95" x2="4.95" transform="translate(-709.039 520.028)"/>
            <line id="直线_448" data-name="直线 448" class="cls-9" y1="8.097" x2="8.097" transform="translate(-695.993 503.835)"/>
            <line id="直线_449" data-name="直线 449" class="cls-10" y1="52.628" x2="52.628" transform="translate(-683.848 447.159)"/>
            <line id="直线_450" data-name="直线 450" class="cls-8" y1="4.95" x2="4.95" transform="translate(-627.172 438.16)"/>
          </g>
          <g id="组_438" data-name="组 438">
            <line id="直线_451" data-name="直线 451" class="cls-8" y1="4.95" x2="4.95" transform="translate(-704.713 525.607)"/>
            <line id="直线_452" data-name="直线 452" class="cls-9" y1="8.097" x2="8.097" transform="translate(-691.666 509.414)"/>
            <line id="直线_453" data-name="直线 453" class="cls-10" y1="52.628" x2="52.628" transform="translate(-679.521 452.738)"/>
            <line id="直线_454" data-name="直线 454" class="cls-8" y1="4.95" x2="4.95" transform="translate(-622.845 443.74)"/>
          </g>
          <g id="组_439" data-name="组 439">
            <line id="直线_455" data-name="直线 455" class="cls-8" y1="4.95" x2="4.95" transform="translate(-700.386 531.187)"/>
            <line id="直线_456" data-name="直线 456" class="cls-9" y1="8.097" x2="8.097" transform="translate(-687.34 514.994)"/>
            <line id="直线_457" data-name="直线 457" class="cls-10" y1="52.628" x2="52.628" transform="translate(-675.195 458.318)"/>
            <line id="直线_458" data-name="直线 458" class="cls-8" y1="4.95" x2="4.95" transform="translate(-618.519 449.32)"/>
          </g>
          <g id="组_440" data-name="组 440">
            <line id="直线_459" data-name="直线 459" class="cls-8" y1="4.95" x2="4.95" transform="translate(-696.059 536.767)"/>
            <line id="直线_460" data-name="直线 460" class="cls-9" y1="8.097" x2="8.097" transform="translate(-683.013 520.574)"/>
            <line id="直线_461" data-name="直线 461" class="cls-10" y1="52.628" x2="52.628" transform="translate(-670.868 463.897)"/>
            <line id="直线_462" data-name="直线 462" class="cls-8" y1="4.95" x2="4.95" transform="translate(-614.192 454.899)"/>
          </g>
          <g id="组_441" data-name="组 441">
            <line id="直线_463" data-name="直线 463" class="cls-8" y1="4.95" x2="4.95" transform="translate(-691.733 542.346)"/>
            <line id="直线_464" data-name="直线 464" class="cls-9" y1="8.097" x2="8.097" transform="translate(-678.686 526.153)"/>
            <line id="直线_465" data-name="直线 465" class="cls-10" y1="52.628" x2="52.628" transform="translate(-666.541 469.477)"/>
            <line id="直线_466" data-name="直线 466" class="cls-8" y1="4.95" x2="4.95" transform="translate(-609.865 460.479)"/>
          </g>
          <g id="组_442" data-name="组 442">
            <line id="直线_467" data-name="直线 467" class="cls-8" y1="4.95" x2="4.95" transform="translate(-687.406 547.926)"/>
            <line id="直线_468" data-name="直线 468" class="cls-9" y1="8.097" x2="8.097" transform="translate(-674.36 531.733)"/>
            <line id="直线_469" data-name="直线 469" class="cls-10" y1="52.628" x2="52.628" transform="translate(-662.215 475.057)"/>
            <line id="直线_470" data-name="直线 470" class="cls-8" y1="4.95" x2="4.95" transform="translate(-605.538 466.059)"/>
          </g>
          <g id="组_443" data-name="组 443">
            <line id="直线_471" data-name="直线 471" class="cls-8" y1="4.95" x2="4.95" transform="translate(-683.079 553.506)"/>
            <line id="直线_472" data-name="直线 472" class="cls-9" y1="8.097" x2="8.097" transform="translate(-670.033 537.312)"/>
            <line id="直线_473" data-name="直线 473" class="cls-10" y1="52.628" x2="52.628" transform="translate(-657.888 480.636)"/>
            <line id="直线_474" data-name="直线 474" class="cls-8" y1="4.95" x2="4.95" transform="translate(-601.212 471.638)"/>
          </g>
          <g id="组_444" data-name="组 444">
            <line id="直线_475" data-name="直线 475" class="cls-8" y1="4.95" x2="4.95" transform="translate(-678.753 559.085)"/>
            <line id="直线_476" data-name="直线 476" class="cls-9" y1="8.097" x2="8.097" transform="translate(-665.706 542.892)"/>
            <line id="直线_477" data-name="直线 477" class="cls-10" y1="52.628" x2="52.628" transform="translate(-653.561 486.216)"/>
            <line id="直线_478" data-name="直线 478" class="cls-8" y1="4.95" x2="4.95" transform="translate(-596.885 477.218)"/>
          </g>
          <g id="组_445" data-name="组 445">
            <line id="直线_479" data-name="直线 479" class="cls-8" y1="4.95" x2="4.95" transform="translate(-674.426 564.665)"/>
            <line id="直线_480" data-name="直线 480" class="cls-9" y1="8.097" x2="8.097" transform="translate(-661.379 548.472)"/>
            <line id="直线_481" data-name="直线 481" class="cls-10" y1="52.628" x2="52.628" transform="translate(-649.235 491.795)"/>
            <line id="直线_482" data-name="直线 482" class="cls-8" y1="4.95" x2="4.95" transform="translate(-592.558 482.797)"/>
          </g>
        </g>
      </g>
    </g>
  </g>
</svg>
