<svg xmlns="http://www.w3.org/2000/svg" width="398.437" height="91.648" viewBox="0 0 398.437 91.648">
  <defs>
    <style>
      .cls-1, .cls-3, .cls-4 {
        fill: #fdc634;
        stroke: #e88b2f;
      }

      .cls-1, .cls-4 {
        stroke-miterlimit: 10;
      }

      .cls-1, .cls-3 {
        stroke-width: 4px;
      }

      .cls-2 {
        fill: #e88b2f;
      }

      .cls-4 {
        stroke-width: 7px;
      }
    </style>
  </defs>
  <g id="底层装饰-金币" transform="translate(26.5 -338.518)">
    <g id="金币组">
      <g id="组_288" data-name="组 288" transform="translate(913.178 -42.857)">
        <circle id="椭圆_12" data-name="椭圆 12" class="cls-1" cx="18.715" cy="18.715" r="18.715" transform="translate(-580.671 383.375)"/>
        <g id="组_287" data-name="组 287">
          <g id="组_286" data-name="组 286">
            <path id="路径_251" data-name="路径 251" class="cls-2" d="M-565.527,407.244l-5.178-1.493.567-1.965,5.178,1.493.5-1.726-5.179-1.493.567-1.964,4.275,1.232-3.4-11.65L-563.6,391l1.038,5.476c.4,2.3.547,3.092.851,4.732l.133.038c1.183-1.211,1.75-1.882,3.239-3.552l3.767-4.091,4.514,1.3-9.106,8.045,4.3,1.241-.566,1.964-5.151-1.485-.5,1.726,5.151,1.485-.566,1.965-5.152-1.485-1.179,4.09-3.877-1.118Z"/>
          </g>
        </g>
      </g>
      <g id="组_291" data-name="组 291" transform="translate(913.178 -42.857)">
        <path id="路径_628" data-name="路径 628" class="cls-3" d="M18.715,0A18.715,18.715,0,1,1,0,18.715,18.715,18.715,0,0,1,18.715,0Z" transform="translate(-586.7 402.864)"/>
        <g id="组_290" data-name="组 290">
          <g id="组_289" data-name="组 289">
            <path id="路径_252" data-name="路径 252" class="cls-2" d="M-573.872,423.738l-3.375-4.2,1.6-1.281,3.375,4.2,1.4-1.125-3.375-4.2,1.594-1.281,2.787,3.469,3.927-11.483,2.994,3.727-2.3,5.076c-1,2.112-1.332,2.842-2.028,4.358l.086.108c1.665-.309,2.515-.531,4.694-1.04l5.436-1.176,2.941,3.663-12.077,1.335,2.8,3.491-1.594,1.28-3.357-4.18-1.4,1.125,3.357,4.18-1.594,1.281-3.357-4.18-3.319,2.665-2.526-3.146Z"/>
          </g>
        </g>
      </g>
    </g>
    <g id="金币1" transform="translate(913.178 -42.857)">
      <circle id="椭圆_14" data-name="椭圆 14" class="cls-4" cx="36.74" cy="36.74" r="36.74" transform="translate(-936.178 396.042)"/>
      <g id="组_293" data-name="组 293">
        <g id="组_292" data-name="组 292">
          <path id="路径_253" data-name="路径 253" class="cls-2" d="M-905.274,443.62l-10.43-1.778.675-3.958,10.429,1.778.593-3.476-10.43-1.778.675-3.957,8.61,1.468-9.185-21.984,9.252,1.577,3.226,10.456c1.286,4.4,1.744,5.911,2.7,9.045l.267.045c2.043-2.623,3-4.056,5.54-7.64l6.455-8.806,9.091,1.549-16,17.691,8.664,1.476-.675,3.957-10.375-1.768-.592,3.476,10.375,1.768-.675,3.958-10.375-1.768-1.4,8.236-7.808-1.331Z"/>
        </g>
      </g>
    </g>
  </g>
</svg>
