<svg xmlns="http://www.w3.org/2000/svg" width="65.8" height="107.8" viewBox="0 0 65.8 107.8">
  <defs>
    <style>
      .cls-1 {
        fill: #d6996f;
      }

      .cls-1, .cls-2, .cls-3, .cls-4, .cls-5 {
        stroke: #191919;
      }

      .cls-1, .cls-2, .cls-4, .cls-5 {
        stroke-miterlimit: 10;
      }

      .cls-1, .cls-2, .cls-3, .cls-4 {
        stroke-width: 2.8px;
      }

      .cls-2, .cls-3 {
        fill: #efecd6;
        stroke-linecap: round;
      }

      .cls-3 {
        stroke-linejoin: round;
      }

      .cls-4 {
        fill: #20875d;
      }

      .cls-5 {
        fill: #fff;
        stroke-width: 0.35px;
      }
    </style>
  </defs>
  <g id="奶茶杯" transform="translate(-757.565 -4578.325)">
    <path id="路径_1380" data-name="路径 1380" class="cls-1" d="M803.9,4684.725H777.032a2.626,2.626,0,0,1-2.6-2.3l-9.843-78.75a2.624,2.624,0,0,1,2.6-2.951h46.553a2.625,2.625,0,0,1,2.6,2.951l-9.844,78.75A2.625,2.625,0,0,1,803.9,4684.725Z"/>
    <path id="路径_1381" data-name="路径 1381" class="cls-2" d="M782.021,4579.725H771.357a2.627,2.627,0,0,0-2.491,1.795l-3.5,10.5a2.625,2.625,0,0,0,2.491,3.455h45.216a2.625,2.625,0,0,0,2.49-3.455l-3.5-10.5a2.624,2.624,0,0,0-2.49-1.795H798.908"/>
    <line id="直线_809" data-name="直线 809" class="cls-2" x1="3.655" transform="translate(788.841 4579.725)"/>
    <path id="路径_1382" data-name="路径 1382" class="cls-3" d="M800.965,4590.225H819.34a2.625,2.625,0,0,1,2.625,2.625v10.5a2.625,2.625,0,0,1-2.625,2.625H761.59a2.625,2.625,0,0,1-2.625-2.625v-10.5a2.625,2.625,0,0,1,2.625-2.625h28.55"/>
    <path id="路径_1383" data-name="路径 1383" class="cls-4" d="M770.47,4653.225h39.99a2.626,2.626,0,0,0,2.6-2.3l3.937-31.5a2.625,2.625,0,0,0-2.605-2.951H766.532a2.625,2.625,0,0,0-2.6,2.951l3.938,31.5A2.625,2.625,0,0,0,770.47,4653.225Z"/>
    <circle id="椭圆_116" data-name="椭圆 116" class="cls-5" cx="10.5" cy="10.5" r="10.5" transform="translate(779.965 4624.35)"/>
  </g>
</svg>
