<svg xmlns="http://www.w3.org/2000/svg" xmlns:xlink="http://www.w3.org/1999/xlink" width="361.517" height="64.779" viewBox="0 0 361.517 64.779">
  <defs>
    <style>
      .cls-1, .cls-3, .cls-9 {
        fill: #6e95ff;
      }

      .cls-1, .cls-11, .cls-12, .cls-15, .cls-4, .cls-5, .cls-6 {
        stroke: #000;
      }

      .cls-1, .cls-11, .cls-12, .cls-3, .cls-4, .cls-5, .cls-6, .cls-7, .cls-8 {
        stroke-miterlimit: 10;
      }

      .cls-1, .cls-11, .cls-12, .cls-15, .cls-3, .cls-4, .cls-5, .cls-6, .cls-7, .cls-8 {
        stroke-width: 1.4px;
      }

      .cls-11, .cls-12, .cls-15, .cls-18, .cls-2 {
        fill: none;
      }

      .cls-3, .cls-7, .cls-8 {
        stroke: #070707;
      }

      .cls-4, .cls-8 {
        fill: #cbcbcb;
      }

      .cls-5, .cls-7 {
        fill: #e5e5e5;
      }

      .cls-6 {
        fill: #fff;
      }

      .cls-10 {
        clip-path: url(#clip-path);
      }

      .cls-11 {
        mix-blend-mode: screen;
        isolation: isolate;
      }

      .cls-13 {
        fill: #5170fc;
      }

      .cls-14 {
        clip-path: url(#clip-path-2);
      }

      .cls-15, .cls-18 {
        stroke-linecap: round;
        stroke-linejoin: round;
      }

      .cls-15 {
        stroke-dasharray: 0.7 2.8;
      }

      .cls-16 {
        fill: #dc4274;
      }

      .cls-17 {
        clip-path: url(#clip-path-3);
      }

      .cls-18 {
        stroke: #ef78a8;
        stroke-width: 0.7px;
      }

      .cls-19 {
        fill: rgba(0,0,0,0.2);
      }
    </style>
    <clipPath id="clip-path">
      <path id="路径_1228" data-name="路径 1228" class="cls-1" d="M1093.922,4278.5l8.572-25.144a.877.877,0,0,0-1.3-1.043l-29.912,21.259a5.2,5.2,0,0,0-1.964,2.766l-7.366,24.715Z"/>
    </clipPath>
    <clipPath id="clip-path-2">
      <circle id="椭圆_110" data-name="椭圆 110" class="cls-2" cx="22.765" cy="22.765" r="22.765" transform="translate(761.396 4269.973)"/>
    </clipPath>
    <clipPath id="clip-path-3">
      <circle id="椭圆_112" data-name="椭圆 112" class="cls-2" cx="22.765" cy="22.765" r="22.765" transform="translate(764.037 4266.014)"/>
    </clipPath>
  </defs>
  <g id="底层装饰-星球书" transform="translate(891.43 -283.672)">
    <g id="组_1795" data-name="组 1795" transform="translate(-910.486 42.857)">
      <g id="组_693" data-name="组 693" transform="translate(-741.64 -4010.608)">
        <path id="路径_1220" data-name="路径 1220" class="cls-3" d="M1104.153,4289.748c.52.361,1.992-1.218,2.385-1.729l14.607-17.776a1.292,1.292,0,0,0-.2-1.766,1.179,1.179,0,0,0-1.7.186l-15.083,19.612a1.291,1.291,0,0,0,.2,1.766C1104.387,4290.065,1104.123,4289.727,1104.153,4289.748Z"/>
        <path id="路径_1221" data-name="路径 1221" class="cls-4" d="M1117.711,4269.265l-13.223,20.168a.812.812,0,0,1-.248.247c-2.342,1.487-31.789,20.182-32.01,19.979s18.865-23.122,20.132-24.643a.812.812,0,0,1,.157-.143l24.014-16.832A.867.867,0,0,1,1117.711,4269.265Z"/>
        <path id="路径_1222" data-name="路径 1222" class="cls-5" d="M1115.941,4267.546l-13.342,20.862a.831.831,0,0,1-.267.264l-29.536,18.216a.853.853,0,0,1-1.281-.771l.089-10.356a.871.871,0,0,1,.38-.718l42.787-28.722A.867.867,0,0,1,1115.941,4267.546Z"/>
        <path id="路径_1223" data-name="路径 1223" class="cls-6" d="M1113.01,4262.842l-12.236,23.574a.847.847,0,0,1-.343.353l-32.474,17.849a.862.862,0,0,1-1.222-.989l4.862-20.81a.857.857,0,0,1,.436-.569l39.849-20.614A.869.869,0,0,1,1113.01,4262.842Z"/>
        <path id="路径_1224" data-name="路径 1224" class="cls-7" d="M1108.812,4258.083l-12,25.623a.86.86,0,0,1-.277.334l-28.418,20.2a.858.858,0,0,1-1.3-.938l5.609-24.007a.859.859,0,0,1,.377-.534l34.811-21.814A.865.865,0,0,1,1108.812,4258.083Z"/>
        <path id="路径_1225" data-name="路径 1225" class="cls-8" d="M1095.876,4281.532l10.3-25.411a.863.863,0,0,0-1.247-1.08l-33.5,22.825a.859.859,0,0,0-.333.451l-5.981,18.873a.864.864,0,0,0,1.208,1.054l29.18-16.287A.846.846,0,0,0,1095.876,4281.532Z"/>
        <g id="组_691" data-name="组 691">
          <path id="路径_1226" data-name="路径 1226" class="cls-9" d="M1093.922,4278.5l8.572-25.144a.877.877,0,0,0-1.3-1.043l-29.912,21.259a5.2,5.2,0,0,0-1.964,2.766l-7.366,24.715Z"/>
          <g id="组_690" data-name="组 690" class="cls-10">
            <path id="路径_1227" data-name="路径 1227" class="cls-11" d="M1100.41,4246.789a206.542,206.542,0,0,0-43.505,38.459"/>
          </g>
          <path id="路径_1229" data-name="路径 1229" class="cls-12" d="M1093.922,4278.5l8.572-25.144a.877.877,0,0,0-1.3-1.043l-29.912,21.259a5.2,5.2,0,0,0-1.964,2.766l-7.366,24.715Z"/>
        </g>
        <g id="组_692" data-name="组 692">
          <path id="路径_1230" data-name="路径 1230" class="cls-13" d="M1093.97,4278.432a29.7,29.7,0,0,0,4.909,7.56c1.546,1.653,5.509,3.594,5.509,3.594l-31.974,22.552-.047.07s-10.064-.288-10.418-11.153l31.973-22.553"/>
          <path id="路径_1231" data-name="路径 1231" class="cls-12" d="M1093.97,4278.432a29.7,29.7,0,0,0,4.909,7.56c1.546,1.653,5.509,3.594,5.509,3.594l-31.974,22.552-.047.07s-10.064-.288-10.418-11.153l31.973-22.553"/>
        </g>
      </g>
      <g id="组_737" data-name="组 737" transform="translate(-741.64 -4010.608)">
        <circle id="椭圆_109" data-name="椭圆 109" class="cls-6" cx="22.765" cy="22.765" r="22.765" transform="translate(761.396 4269.973)"/>
        <g id="组_734" data-name="组 734">
          <g id="组_733" data-name="组 733" class="cls-14">
            <g id="组_732" data-name="组 732">
              <line id="直线_709" data-name="直线 709" class="cls-15" y2="65.324" transform="translate(808.417 4263.233)"/>
              <line id="直线_710" data-name="直线 710" class="cls-15" y2="65.324" transform="translate(799.949 4263.233)"/>
              <line id="直线_711" data-name="直线 711" class="cls-15" y2="65.324" transform="translate(791.481 4263.233)"/>
              <line id="直线_712" data-name="直线 712" class="cls-15" y2="65.324" transform="translate(783.013 4263.233)"/>
              <line id="直线_713" data-name="直线 713" class="cls-15" y2="65.324" transform="translate(774.545 4263.233)"/>
              <line id="直线_714" data-name="直线 714" class="cls-15" y2="65.324" transform="translate(766.077 4263.233)"/>
              <line id="直线_715" data-name="直线 715" class="cls-15" y2="65.324" transform="translate(757.609 4263.233)"/>
            </g>
          </g>
        </g>
        <circle id="椭圆_111" data-name="椭圆 111" class="cls-16" cx="22.765" cy="22.765" r="22.765" transform="translate(764.037 4266.014)"/>
        <g id="组_736" data-name="组 736">
          <g id="组_735" data-name="组 735" class="cls-17">
            <path id="路径_1316" data-name="路径 1316" class="cls-18" d="M798.939,4261.878l-32.628,16.37a.7.7,0,0,0,.464,1.31l35.524-7.775a.7.7,0,0,1,.48,1.3l-36.036,19.27a.7.7,0,0,0,.51,1.294l38.263-10.12a.7.7,0,0,1,.511,1.293L771.3,4303.5a.7.7,0,0,0,.488,1.3l34.515-7.892a.7.7,0,0,1,.5,1.295l-29.584,16.4"/>
          </g>
        </g>
        <path id="路径_1317" data-name="路径 1317" class="cls-19" d="M772.1,4271.392a22.768,22.768,0,0,0,32.043,32.134,22.766,22.766,0,1,1-32.043-32.134Z"/>
      </g>
    </g>
  </g>
</svg>
