<svg xmlns="http://www.w3.org/2000/svg" width="36.342" height="45.367" viewBox="0 0 36.342 45.367">
  <defs>
    <style>
      .cls-1, .cls-6 {
        fill: #878787;
      }

      .cls-1, .cls-5, .cls-6 {
        stroke: #000;
        stroke-miterlimit: 10;
      }

      .cls-1 {
        stroke-width: 2.8px;
      }

      .cls-2 {
        fill: rgba(0,0,0,0.2);
      }

      .cls-3, .cls-5 {
        fill: #fff;
      }

      .cls-4 {
        fill: #e5e5e5;
      }

      .cls-5 {
        stroke-width: 1.136px;
      }

      .cls-6 {
        stroke-width: 1.4px;
      }
    </style>
  </defs>
  <g id="表层装饰-计时器" transform="translate(1665.441 2707.897)">
    <path id="路径_3200" data-name="路径 3200" class="cls-1" d="M-1633.957-2672.907a15.805,15.805,0,0,1-21.107,7.351,15.8,15.8,0,0,1-7.35-21.107,15.8,15.8,0,0,1,21.107-7.35A15.8,15.8,0,0,1-1633.957-2672.907Z"/>
    <path id="路径_3201" data-name="路径 3201" class="cls-2" d="M-1633.707-2686.11a15.738,15.738,0,0,1-1.047,10.916,15.8,15.8,0,0,1-21.106,7.35,15.734,15.734,0,0,1-7.6-7.9,15.771,15.771,0,0,0,8.4,10.192,15.805,15.805,0,0,0,21.107-7.351A15.765,15.765,0,0,0-1633.707-2686.11Z"/>
    <path id="路径_3202" data-name="路径 3202" class="cls-3" d="M-1635.908-2673.85a13.638,13.638,0,0,1-18.213,6.343,13.637,13.637,0,0,1-6.342-18.213,13.637,13.637,0,0,1,18.213-6.342A13.636,13.636,0,0,1-1635.908-2673.85Z"/>
    <path id="路径_3203" data-name="路径 3203" class="cls-4" d="M-1659.866-2684a13.637,13.637,0,0,1,18.213-6.343,13.577,13.577,0,0,1,6.612,6.946,13.6,13.6,0,0,0-7.209-8.661,13.637,13.637,0,0,0-18.213,6.342,13.6,13.6,0,0,0-.27,11.267A13.583,13.583,0,0,1-1659.866-2684Z"/>
    <path id="路径_3204" data-name="路径 3204" class="cls-5" d="M-1637.495-2674.617a11.874,11.874,0,0,1-15.859,5.523,11.874,11.874,0,0,1-5.522-15.859,11.874,11.874,0,0,1,15.859-5.523A11.875,11.875,0,0,1-1637.495-2674.617Z"/>
    <g id="组_2462" data-name="组 2462">
      <path id="路径_3205" data-name="路径 3205" d="M-1643.459-2688.48a.471.471,0,0,1-.629.219h0a.472.472,0,0,1-.22-.63l.78-1.612a.47.47,0,0,1,.629-.218h0a.471.471,0,0,1,.219.629Z"/>
      <path id="路径_3206" data-name="路径 3206" d="M-1652.94-2668.868a.471.471,0,0,1-.629.219h0a.47.47,0,0,1-.219-.629l.779-1.612a.471.471,0,0,1,.629-.219h0a.471.471,0,0,1,.219.629Z"/>
      <path id="路径_3207" data-name="路径 3207" d="M-1657.029-2684.46a.471.471,0,0,1,.219.629h0a.471.471,0,0,1-.629.219l-1.612-.779a.47.47,0,0,1-.219-.629h0a.471.471,0,0,1,.629-.219Z"/>
      <path id="路径_3208" data-name="路径 3208" d="M-1637.417-2674.979a.47.47,0,0,1,.219.629h0a.471.471,0,0,1-.629.219l-1.611-.779a.47.47,0,0,1-.219-.629h0a.47.47,0,0,1,.628-.219Z"/>
      <path id="路径_3209" data-name="路径 3209" d="M-1657.83-2676.842a.471.471,0,0,1,.6.29h0a.471.471,0,0,1-.29.6l-1.691.588a.471.471,0,0,1-.6-.29h0a.472.472,0,0,1,.291-.6Z"/>
      <path id="路径_3210" data-name="路径 3210" d="M-1637.257-2684.007a.47.47,0,0,1,.6.29h0a.47.47,0,0,1-.289.6l-1.691.589a.472.472,0,0,1-.6-.29h0a.472.472,0,0,1,.29-.6Z"/>
      <path id="路径_3211" data-name="路径 3211" d="M-1644.5-2670.4a.471.471,0,0,0-.6-.29h0a.47.47,0,0,0-.29.6l.588,1.69a.471.471,0,0,0,.6.29h0a.471.471,0,0,0,.29-.6Z"/>
      <path id="路径_3212" data-name="路径 3212" d="M-1651.666-2690.972a.47.47,0,0,0-.6-.29h0a.472.472,0,0,0-.29.6l.589,1.691a.471.471,0,0,0,.6.289h0a.47.47,0,0,0,.29-.6Z"/>
      <path id="路径_3213" data-name="路径 3213" d="M-1647.441-2678.779a1.109,1.109,0,0,1-1.481.516,1.109,1.109,0,0,1-.515-1.481,1.109,1.109,0,0,1,1.48-.515A1.109,1.109,0,0,1-1647.441-2678.779Z"/>
      <path id="路径_3214" data-name="路径 3214" d="M-1644.761-2686.561l-4.223,7.036-2.213,5.735,3.3-5.208Z"/>
    </g>
    <path id="路径_3215" data-name="路径 3215" class="cls-6" d="M-1640.641-2695.392a6.209,6.209,0,0,1-2.885-8.283,6.211,6.211,0,0,1,8.284-2.885,6.21,6.21,0,0,1,2.884,8.284A6.208,6.208,0,0,1-1640.641-2695.392Zm4.661-9.641a4.513,4.513,0,0,0-6.019,2.1,4.512,4.512,0,0,0,2.1,6.018,4.51,4.51,0,0,0,6.018-2.1A4.511,4.511,0,0,0-1635.98-2705.033Z"/>
    <rect id="矩形_47392" data-name="矩形 47392" class="cls-6" width="2.194" height="2.732" transform="matrix(0.859, -0.512, 0.512, 0.859, -1635.107, -2688.138)"/>
    <rect id="矩形_47393" data-name="矩形 47393" class="cls-6" width="2.127" height="4.271" transform="matrix(0.859, -0.511, 0.511, 0.859, -1634.071, -2689.65)"/>
    <path id="路径_3216" data-name="路径 3216" class="cls-6" d="M-1640.118-2693.007a1.452,1.452,0,0,1-1.963.594h0a1.453,1.453,0,0,1-.754-1.908l1.428-2.953a1.453,1.453,0,0,1,1.963-.595h0a1.453,1.453,0,0,1,.754,1.908Z"/>
  </g>
</svg>
