<svg xmlns="http://www.w3.org/2000/svg" xmlns:xlink="http://www.w3.org/1999/xlink" width="322.674" height="310.1" viewBox="0 0 322.674 310.1">
  <defs>
    <style>
      .cls-1 {
        fill: none;
      }

      .cls-2 {
        fill: #9542dc;
      }

      .cls-10, .cls-11, .cls-12, .cls-14, .cls-15, .cls-16, .cls-18, .cls-19, .cls-2, .cls-22, .cls-23, .cls-25, .cls-26, .cls-3, .cls-30, .cls-31, .cls-32, .cls-34, .cls-35, .cls-36, .cls-37, .cls-4, .cls-5, .cls-8 {
        stroke: #000;
      }

      .cls-10, .cls-11, .cls-12, .cls-14, .cls-15, .cls-16, .cls-18, .cls-2, .cls-22, .cls-23, .cls-25, .cls-3, .cls-34, .cls-35, .cls-36, .cls-37, .cls-4, .cls-8 {
        stroke-linecap: round;
      }

      .cls-10, .cls-11, .cls-12, .cls-14, .cls-15, .cls-16, .cls-18, .cls-2, .cls-22, .cls-23, .cls-25, .cls-3, .cls-35, .cls-36, .cls-37, .cls-4, .cls-8 {
        stroke-linejoin: round;
      }

      .cls-10, .cls-11, .cls-12, .cls-14, .cls-15, .cls-18, .cls-19, .cls-2, .cls-22, .cls-25, .cls-26, .cls-3, .cls-30, .cls-31, .cls-32, .cls-34, .cls-35, .cls-36, .cls-37, .cls-5, .cls-8 {
        stroke-width: 2.8px;
      }

      .cls-10, .cls-11, .cls-12, .cls-14, .cls-2 {
        stroke-dasharray: 35 7 14 7;
      }

      .cls-3 {
        fill: #f9b233;
      }

      .cls-15, .cls-18, .cls-19, .cls-22, .cls-25, .cls-26, .cls-3, .cls-5, .cls-8 {
        stroke-dasharray: 70 7 14 7;
      }

      .cls-4 {
        fill: #ffce55;
      }

      .cls-16, .cls-23, .cls-4 {
        stroke-width: 0.7px;
      }

      .cls-5 {
        fill: #ffc02b;
      }

      .cls-19, .cls-26, .cls-30, .cls-31, .cls-32, .cls-34, .cls-5 {
        stroke-miterlimit: 10;
      }

      .cls-6, .cls-8 {
        fill: #ffe497;
      }

      .cls-11, .cls-7 {
        mix-blend-mode: multiply;
        isolation: isolate;
      }

      .cls-9 {
        fill: rgba(0,0,0,0.2);
      }

      .cls-10 {
        fill: #002e82;
      }

      .cls-11 {
        fill: #76aadb;
      }

      .cls-12 {
        fill: #1d71b8;
      }

      .cls-13 {
        clip-path: url(#clip-path);
      }

      .cls-14, .cls-33 {
        fill: #fff;
      }

      .cls-15, .cls-17 {
        fill: #e1c39d;
      }

      .cls-16 {
        fill: #e6d7be;
      }

      .cls-18, .cls-20 {
        fill: #e6e1d8;
      }

      .cls-19 {
        fill: #e6ddd3;
      }

      .cls-21 {
        clip-path: url(#clip-path-2);
      }

      .cls-22, .cls-24 {
        fill: #f29620;
      }

      .cls-23 {
        fill: #f7b640;
      }

      .cls-25, .cls-27 {
        fill: #f7d080;
      }

      .cls-26 {
        fill: #f7ac57;
      }

      .cls-28 {
        clip-path: url(#clip-path-3);
      }

      .cls-29, .cls-43, .cls-44, .cls-45, .cls-46 {
        opacity: 0.9;
      }

      .cls-30 {
        fill: #e23737;
      }

      .cls-31 {
        fill: #e22b2b;
      }

      .cls-32 {
        fill: #e34541;
      }

      .cls-33 {
        font-size: 20.647px;
        font-family: AlibabaPuHuiTi-Bold, Alibaba PuHuiTi;
        font-weight: 700;
      }

      .cls-34 {
        fill: #fde001;
      }

      .cls-34, .cls-37 {
        stroke-dasharray: 105 7 7 7;
      }

      .cls-35 {
        fill: #ffda34;
      }

      .cls-35, .cls-36 {
        stroke-dasharray: 175 7 7 7;
      }

      .cls-36, .cls-37 {
        fill: #ff7861;
      }

      .cls-38 {
        fill: #dffd01;
      }

      .cls-39 {
        fill: #f95c30;
      }

      .cls-40 {
        fill: #ff7954;
      }

      .cls-41 {
        fill: #fd821d;
      }

      .cls-42 {
        fill: #fdad01;
      }

      .cls-43 {
        fill: #fda526;
      }

      .cls-44 {
        fill: #9a55fd;
      }

      .cls-45 {
        fill: #636bfd;
      }

      .cls-46 {
        fill: #91fd63;
      }
    </style>
    <clipPath id="clip-path">
      <path id="路径_3113" data-name="路径 3113" class="cls-1" d="M-1770.848-2648.7l-.5,0-20.645.116,15.444,35.435c1.479,3.4,2.655,6.905,3.866,10.4a7.842,7.842,0,0,0,1.9,3.009l7.97,7.881a3.955,3.955,0,0,0,2.8,1.142l7.627-.042.5,0,7.628-.043a3.955,3.955,0,0,0,2.79-1.174l7.88-7.969a7.118,7.118,0,0,0,2.438-5.154l-19.052-43.721Z"/>
    </clipPath>
    <clipPath id="clip-path-2">
      <path id="路径_3143" data-name="路径 3143" class="cls-1" d="M-1691.256-2653.873l-.394,0-16.312.092,12.2,28c1.169,2.682,2.1,5.456,3.055,8.221a6.2,6.2,0,0,0,1.5,2.377l6.3,6.227a3.127,3.127,0,0,0,2.215.9l6.027-.034.393,0,6.027-.034a3.128,3.128,0,0,0,2.205-.928l6.226-6.3a5.622,5.622,0,0,0,1.927-4.072l-15.054-34.544Z"/>
    </clipPath>
    <clipPath id="clip-path-3">
      <path id="路径_3173" data-name="路径 3173" class="cls-1" d="M-1842.75-2653.873l-.394,0-16.312.092,12.2,28c1.169,2.682,2.1,5.456,3.055,8.221a6.2,6.2,0,0,0,1.5,2.377l6.3,6.227a3.127,3.127,0,0,0,2.215.9l6.027-.034.393,0,6.027-.034a3.128,3.128,0,0,0,2.2-.928l6.226-6.3a5.622,5.622,0,0,0,1.927-4.072l-15.054-34.544Z"/>
    </clipPath>
  </defs>
  <g id="底层装饰-金牌等" transform="translate(-41.421 -361.824)">
    <g id="组_2411" data-name="组 2411" transform="translate(1940.375 3017.353)">
      <path id="路径_3081" data-name="路径 3081" class="cls-2" d="M-1709.214-2642.025l-20.645.116-.5,0-13.741.077-2.255.013-20.645.116-.5,0-20.645.116,15.444,35.435c1.479,3.394,2.655,6.905,3.866,10.4a7.842,7.842,0,0,0,1.9,3.009l5.407,5.347h-.745a5.1,5.1,0,0,0-4.9,3.7c0-.02-.01-.039-.014-.059a4.946,4.946,0,0,0-.185,1.33v.258a4.974,4.974,0,0,0,4.974,4.975h9.606a5.357,5.357,0,0,0-.832,2.9,5.382,5.382,0,0,0,.352,1.871,32.283,32.283,0,0,0-27.033,32.032,32.277,32.277,0,0,0,32.457,32.1,32.278,32.278,0,0,0,32.1-32.458,32.284,32.284,0,0,0-27.42-31.732,5.391,5.391,0,0,0,.329-1.87,5.354,5.354,0,0,0-.834-2.839h9.607a4.975,4.975,0,0,0,4.975-4.975v-.258a5.025,5.025,0,0,0-.095-.964c0,.015-.01.029-.014.044a5.1,5.1,0,0,0-4.995-4.054h-1.028l5.493-5.555a7.118,7.118,0,0,0,2.438-5.153l.005-.016,2.446-6.794-.013-.029q.294-.744.6-1.485Z"/>
      <path id="路径_3082" data-name="路径 3082" class="cls-2" d="M-1668.585-2592.171a4.248,4.248,0,0,0,.26-1.479,4.238,4.238,0,0,0-.658-2.243h7.59a3.931,3.931,0,0,0,3.931-3.931v-.1h0v-.1a3.97,3.97,0,0,0-.075-.761l-.011.034a4.034,4.034,0,0,0-3.946-3.2h-.813l4.34-4.39a5.621,5.621,0,0,0,1.926-4.071l.005-.013,1.932-5.368-.01-.022c.155-.393.313-.784.478-1.173l11.887-28.134-16.312.092-.394,0-9.082.051h0l-2.954.016-4.276.024h0l-12.639.071-.394,0-16.312.092,12.2,28c1.169,2.681,2.1,5.455,3.055,8.22a6.2,6.2,0,0,0,1.5,2.377l4.272,4.225h-.588a4.031,4.031,0,0,0-3.875,2.925l-.012-.046a3.968,3.968,0,0,0-.146,1.051v.2a3.931,3.931,0,0,0,3.931,3.931h7.59a4.227,4.227,0,0,0-.658,2.291,4.246,4.246,0,0,0,.278,1.479,25.507,25.507,0,0,0-21.359,25.309,25.5,25.5,0,0,0,25.645,25.359,25.5,25.5,0,0,0,25.36-25.645A25.508,25.508,0,0,0-1668.585-2592.171Z"/>
      <path id="路径_3083" data-name="路径 3083" class="cls-2" d="M-1793.243-2647.129l-16.312.092-.394,0-9.082.051h0l-2.953.016-4.277.024h0l-12.639.071-.394,0-16.312.092,12.2,28c1.169,2.681,2.1,5.455,3.055,8.22a6.2,6.2,0,0,0,1.5,2.377l4.272,4.225h-.588a4.031,4.031,0,0,0-3.875,2.925c0-.015-.008-.03-.011-.046a3.924,3.924,0,0,0-.147,1.051v.1h0v.1a3.931,3.931,0,0,0,3.931,3.931h7.59a4.236,4.236,0,0,0-.658,2.291,4.225,4.225,0,0,0,.279,1.479,25.508,25.508,0,0,0-21.36,25.309,25.5,25.5,0,0,0,25.645,25.359,25.5,25.5,0,0,0,25.36-25.645,25.508,25.508,0,0,0-21.666-25.071,4.248,4.248,0,0,0,.26-1.479,4.229,4.229,0,0,0-.658-2.243h7.591a3.931,3.931,0,0,0,3.93-3.931v-.1h0v-.1a3.97,3.97,0,0,0-.075-.761l-.011.034a4.034,4.034,0,0,0-3.946-3.2h-.813l4.34-4.39a5.625,5.625,0,0,0,1.927-4.071l0-.014,1.932-5.367-.01-.022c.155-.393.313-.784.478-1.173Z"/>
    </g>
    <g id="组_2431" data-name="组 2431" transform="translate(1940.375 3017.353)">
      <g id="组_2419" data-name="组 2419">
        <circle id="椭圆_606" data-name="椭圆 606" class="cls-3" cx="32.277" cy="32.277" r="32.277" transform="translate(-1789.015 -2521.007) rotate(-80.567)"/>
        <circle id="椭圆_607" data-name="椭圆 607" class="cls-4" cx="28.793" cy="28.793" r="28.793" transform="matrix(0.164, -0.986, 0.986, 0.164, -1785.007, -2523.873)"/>
        <rect id="矩形_42198" data-name="矩形 42198" class="cls-3" width="38.278" height="10.207" rx="5.104" transform="translate(-1771.228 -2594.387)"/>
        <circle id="椭圆_608" data-name="椭圆 608" class="cls-5" cx="5.39" cy="5.39" r="5.39" transform="translate(-1757.479 -2586.701)"/>
        <g id="组_2412" data-name="组 2412">
          <path id="路径_3084" data-name="路径 3084" class="cls-6" d="M-1746.993-2574.878a1.914,1.914,0,0,1,1.515,2.244,1.914,1.914,0,0,1-2.243,1.515,1.915,1.915,0,0,1-1.515-2.244A1.914,1.914,0,0,1-1746.993-2574.878Z"/>
          <path id="路径_3085" data-name="路径 3085" class="cls-6" d="M-1739.337-2572.247a1.915,1.915,0,0,1,.8,2.587,1.914,1.914,0,0,1-2.587.8,1.914,1.914,0,0,1-.8-2.587A1.915,1.915,0,0,1-1739.337-2572.247Z"/>
          <path id="路径_3086" data-name="路径 3086" class="cls-6" d="M-1732.776-2567.5a1.915,1.915,0,0,1,.011,2.707,1.916,1.916,0,0,1-2.708.011,1.914,1.914,0,0,1-.01-2.707A1.913,1.913,0,0,1-1732.776-2567.5Z"/>
          <path id="路径_3087" data-name="路径 3087" class="cls-6" d="M-1727.879-2561.057a1.913,1.913,0,0,1-.777,2.593,1.913,1.913,0,0,1-2.593-.777,1.915,1.915,0,0,1,.777-2.593A1.915,1.915,0,0,1-1727.879-2561.057Z"/>
          <path id="路径_3088" data-name="路径 3088" class="cls-6" d="M-1725.067-2553.465a1.914,1.914,0,0,1-1.5,2.255,1.913,1.913,0,0,1-2.255-1.5,1.914,1.914,0,0,1,1.5-2.255A1.914,1.914,0,0,1-1725.067-2553.465Z"/>
          <path id="路径_3089" data-name="路径 3089" class="cls-6" d="M-1724.585-2545.384a1.915,1.915,0,0,1-2.089,1.723,1.914,1.914,0,0,1-1.722-2.089,1.914,1.914,0,0,1,2.089-1.722A1.914,1.914,0,0,1-1724.585-2545.384Z"/>
          <path id="路径_3090" data-name="路径 3090" class="cls-6" d="M-1726.474-2537.511a1.914,1.914,0,0,1-2.5,1.04,1.914,1.914,0,0,1-1.04-2.5,1.914,1.914,0,0,1,2.5-1.04A1.914,1.914,0,0,1-1726.474-2537.511Z"/>
          <path id="路径_3091" data-name="路径 3091" class="cls-6" d="M-1730.57-2530.528a1.914,1.914,0,0,1-2.693.269,1.914,1.914,0,0,1-.269-2.694,1.913,1.913,0,0,1,2.693-.269A1.913,1.913,0,0,1-1730.57-2530.528Z"/>
          <path id="路径_3092" data-name="路径 3092" class="cls-6" d="M-1736.519-2525.038a1.915,1.915,0,0,1-2.656-.526,1.915,1.915,0,0,1,.526-2.656,1.915,1.915,0,0,1,2.656.526A1.915,1.915,0,0,1-1736.519-2525.038Z"/>
          <path id="路径_3093" data-name="路径 3093" class="cls-6" d="M-1743.808-2521.515a1.915,1.915,0,0,1-2.388-1.276,1.915,1.915,0,0,1,1.275-2.388,1.914,1.914,0,0,1,2.388,1.276A1.915,1.915,0,0,1-1743.808-2521.515Z"/>
          <path id="路径_3094" data-name="路径 3094" class="cls-6" d="M-1751.807-2520.264a1.916,1.916,0,0,1-1.914-1.915,1.915,1.915,0,0,1,1.915-1.914,1.916,1.916,0,0,1,1.914,1.915A1.915,1.915,0,0,1-1751.807-2520.264Z"/>
          <path id="路径_3095" data-name="路径 3095" class="cls-6" d="M-1759.823-2521.393a1.915,1.915,0,0,1-1.275-2.389,1.915,1.915,0,0,1,2.389-1.274,1.914,1.914,0,0,1,1.274,2.389A1.914,1.914,0,0,1-1759.823-2521.393Z"/>
          <path id="路径_3096" data-name="路径 3096" class="cls-6" d="M-1767.165-2524.8a1.914,1.914,0,0,1-.525-2.656,1.915,1.915,0,0,1,2.656-.525,1.914,1.914,0,0,1,.524,2.656A1.914,1.914,0,0,1-1767.165-2524.8Z"/>
          <path id="路径_3097" data-name="路径 3097" class="cls-6" d="M-1773.2-2530.2a1.915,1.915,0,0,1,.27-2.694,1.915,1.915,0,0,1,2.694.27,1.914,1.914,0,0,1-.271,2.694A1.914,1.914,0,0,1-1773.2-2530.2Z"/>
          <path id="路径_3098" data-name="路径 3098" class="cls-6" d="M-1777.4-2537.123a1.914,1.914,0,0,1,1.042-2.5,1.915,1.915,0,0,1,2.5,1.042,1.914,1.914,0,0,1-1.042,2.5A1.914,1.914,0,0,1-1777.4-2537.123Z"/>
          <path id="路径_3099" data-name="路径 3099" class="cls-6" d="M-1779.409-2544.966a1.914,1.914,0,0,1,1.724-2.087,1.913,1.913,0,0,1,2.087,1.723,1.914,1.914,0,0,1-1.723,2.088A1.916,1.916,0,0,1-1779.409-2544.966Z"/>
          <path id="路径_3100" data-name="路径 3100" class="cls-6" d="M-1779.05-2553.053a1.915,1.915,0,0,1,2.256-1.5,1.915,1.915,0,0,1,1.5,2.256,1.915,1.915,0,0,1-2.256,1.5A1.914,1.914,0,0,1-1779.05-2553.053Z"/>
          <path id="路径_3101" data-name="路径 3101" class="cls-6" d="M-1776.354-2560.687a1.913,1.913,0,0,1,2.593-.776,1.914,1.914,0,0,1,.776,2.594,1.915,1.915,0,0,1-2.594.775A1.914,1.914,0,0,1-1776.354-2560.687Z"/>
          <path id="路径_3102" data-name="路径 3102" class="cls-6" d="M-1771.556-2567.208a1.914,1.914,0,0,1,2.707.013,1.913,1.913,0,0,1-.012,2.707,1.914,1.914,0,0,1-2.707-.012A1.915,1.915,0,0,1-1771.556-2567.208Z"/>
          <path id="路径_3103" data-name="路径 3103" class="cls-6" d="M-1765.068-2572.051a1.914,1.914,0,0,1,2.586.8,1.914,1.914,0,0,1-.8,2.587,1.914,1.914,0,0,1-2.586-.8A1.914,1.914,0,0,1-1765.068-2572.051Z"/>
          <path id="路径_3104" data-name="路径 3104" class="cls-6" d="M-1757.453-2574.8a1.914,1.914,0,0,1,2.242,1.516,1.914,1.914,0,0,1-1.516,2.243,1.915,1.915,0,0,1-2.243-1.516A1.915,1.915,0,0,1-1757.453-2574.8Z"/>
        </g>
        <g id="组_2415" data-name="组 2415">
          <g id="组_2413" data-name="组 2413" class="cls-7">
            <path id="路径_3105" data-name="路径 3105" class="cls-6" d="M-1759.779-2524.729c-1.342.007-1.936-.58-1.943-1.922l-.037-6.494c-.007-1.342.58-1.936,1.922-1.943l6.01-.034-.1-17.926-4.938.027c-1.342.008-1.936-.579-1.943-1.921l-.037-6.5c-.007-1.342.58-1.935,1.922-1.942l15.565-.088c1.342-.007,1.936.579,1.944,1.921l.148,26.354,5.152-.029c1.341-.008,1.935.58,1.943,1.921l.036,6.494c.008,1.342-.579,1.936-1.921,1.943Z"/>
          </g>
          <g id="组_2414" data-name="组 2414">
            <path id="路径_3106" data-name="路径 3106" class="cls-8" d="M-1763.974-2528.747c-1.341.007-1.935-.58-1.943-1.922l-.036-6.494c-.008-1.341.579-1.935,1.921-1.943l6.011-.034-.1-17.926-4.938.028c-1.341.007-1.935-.58-1.943-1.922l-.036-6.494c-.008-1.342.579-1.936,1.921-1.943l15.566-.087c1.342-.008,1.935.579,1.943,1.921l.148,26.353,5.152-.029c1.342-.007,1.936.58,1.943,1.921l.037,6.494c.007,1.342-.58,1.936-1.922,1.944Z"/>
          </g>
        </g>
        <path id="路径_3107" data-name="路径 3107" class="cls-9" d="M-1737.835-2586.732h-28.328a4.975,4.975,0,0,1-4.879-4.011,4.946,4.946,0,0,0-.185,1.33v.258a4.974,4.974,0,0,0,4.974,4.975h28.328a4.975,4.975,0,0,0,4.975-4.975v-.258a5.015,5.015,0,0,0-.1-.964A4.972,4.972,0,0,1-1737.835-2586.732Z"/>
        <rect id="矩形_42199" data-name="矩形 42199" class="cls-9" width="26.336" height="5.104" rx="2.552" transform="translate(-1765.257 -2593.75)"/>
        <path id="路径_3108" data-name="路径 3108" class="cls-10" d="M-1734.207-2648.907l.5,0,20.645-.116-15.044,35.606c-1.441,3.411-2.578,6.935-3.75,10.447a7.833,7.833,0,0,1-1.862,3.03l-7.88,7.97a3.957,3.957,0,0,1-2.79,1.174l-7.628.043-.5,0-7.627.043a3.956,3.956,0,0,1-2.8-1.143l-7.468-8.147c-1.478-1.462-2.816-3.184-2.828-5.262l18.392-43.529Z"/>
        <path id="路径_3109" data-name="路径 3109" class="cls-11" d="M-1745.7-2648.842l17,36.937-2.451,6.809-19.052-43.72Z"/>
        <path id="路径_3110" data-name="路径 3110" class="cls-12" d="M-1770.848-2648.7l-.5,0-20.645.116,15.444,35.435c1.479,3.4,2.655,6.905,3.866,10.4a7.842,7.842,0,0,0,1.9,3.009l7.97,7.881a3.955,3.955,0,0,0,2.8,1.142l7.627-.042.5,0,7.628-.043a3.955,3.955,0,0,0,2.79-1.174l7.88-7.969a7.118,7.118,0,0,0,2.438-5.154l-19.052-43.721Z"/>
        <g id="组_2418" data-name="组 2418">
          <g id="组_2417" data-name="组 2417" class="cls-13">
            <g id="组_2416" data-name="组 2416">
              <path id="路径_3111" data-name="路径 3111" class="cls-14" d="M-1767.329-2645.188l4.738,6.186,7.347-2.594-4.419,6.417,4.738,6.186-7.469-2.22-4.419,6.417-.2-7.789-7.469-2.22,7.347-2.594Z"/>
              <path id="路径_3112" data-name="路径 3112" class="cls-14" d="M-1758.213-2618.733l4.738,6.186,7.347-2.594-4.419,6.417,4.738,6.186-7.469-2.22-4.419,6.417-.2-7.79-7.469-2.22,7.347-2.594Z"/>
            </g>
          </g>
        </g>
      </g>
      <g id="组_2425" data-name="组 2425">
        <circle id="椭圆_609" data-name="椭圆 609" class="cls-15" cx="25.503" cy="25.503" r="25.503" transform="matrix(0.164, -0.986, 0.986, 0.164, -1705.61, -2552.979)"/>
        <circle id="椭圆_610" data-name="椭圆 610" class="cls-16" cx="22.75" cy="22.75" r="22.75" transform="translate(-1702.443 -2555.243) rotate(-80.567)"/>
        <g id="组_2420" data-name="组 2420">
          <path id="路径_3114" data-name="路径 3114" class="cls-17" d="M-1664.882-2570.574l-.021-3.778a1.774,1.774,0,0,0-.051-.424l-.08-10.837c0-.781-.35-1.122-1.131-1.118l-14.992.051c-.781,0-1.122.349-1.118,1.13l.021,3.778c.005.78.35,1.122,1.131,1.118l8.81-.016.045,5.231-9.421.046c-.781.005-1.122.35-1.118,1.131l.016,1.18a2.194,2.194,0,0,0-.016.278l.021,3.778a1.82,1.82,0,0,0,.051.424l.081,10.837c0,.781.349,1.122,1.13,1.118l14.993-.051c.78,0,1.122-.349,1.117-1.13l-.021-3.778c0-.78-.35-1.122-1.13-1.118l-8.81.016-.046-5.231,9.421-.046c.781,0,1.123-.35,1.118-1.131l-.016-1.18A2.032,2.032,0,0,0-1664.882-2570.574Z"/>
          <path id="路径_3115" data-name="路径 3115" class="cls-18" d="M-1667.973-2572.176l-.021-3.777a1.943,1.943,0,0,0-.037-.36l-.008-.617-.086-11.619c-.005-.78-.35-1.122-1.131-1.117l-14.992.05c-.781,0-1.122.35-1.118,1.131l.021,3.777c0,.781.35,1.123,1.131,1.118l8.81-.016.057,6.565-9.433.047c-.781,0-1.122.35-1.118,1.131l0,.1a.214.214,0,0,0,0,.025l.021,3.778a1.929,1.929,0,0,0,.037.359l.009.617.086,11.619c0,.781.349,1.122,1.13,1.118l14.993-.051c.78,0,1.122-.35,1.117-1.13l-.021-3.778c0-.781-.35-1.122-1.13-1.118l-8.81.016-.058-6.565,9.433-.047c.781,0,1.122-.35,1.118-1.13v-.1C-1667.974-2572.159-1667.973-2572.167-1667.973-2572.176Z"/>
        </g>
        <rect id="矩形_42200" data-name="矩形 42200" class="cls-15" width="30.244" height="8.065" rx="4.033" transform="translate(-1691.556 -2610.958)"/>
        <circle id="椭圆_611" data-name="椭圆 611" class="cls-19" cx="4.259" cy="4.259" r="4.259" transform="translate(-1680.693 -2604.885)"/>
        <g id="组_2421" data-name="组 2421">
          <path id="路径_3116" data-name="路径 3116" class="cls-20" d="M-1672.408-2595.543a1.511,1.511,0,0,1,1.2,1.772,1.513,1.513,0,0,1-1.773,1.2,1.512,1.512,0,0,1-1.2-1.772A1.512,1.512,0,0,1-1672.408-2595.543Z"/>
          <path id="路径_3117" data-name="路径 3117" class="cls-20" d="M-1666.358-2593.465a1.514,1.514,0,0,1,.63,2.044,1.512,1.512,0,0,1-2.044.63,1.511,1.511,0,0,1-.63-2.044A1.513,1.513,0,0,1-1666.358-2593.465Z"/>
          <path id="路径_3118" data-name="路径 3118" class="cls-20" d="M-1661.175-2589.717a1.513,1.513,0,0,1,.009,2.139,1.513,1.513,0,0,1-2.139.009,1.513,1.513,0,0,1-.009-2.139A1.513,1.513,0,0,1-1661.175-2589.717Z"/>
          <path id="路径_3119" data-name="路径 3119" class="cls-20" d="M-1657.305-2584.623a1.513,1.513,0,0,1-.614,2.049,1.513,1.513,0,0,1-2.049-.614,1.513,1.513,0,0,1,.614-2.049A1.512,1.512,0,0,1-1657.305-2584.623Z"/>
          <path id="路径_3120" data-name="路径 3120" class="cls-20" d="M-1655.084-2578.625a1.511,1.511,0,0,1-1.183,1.782,1.512,1.512,0,0,1-1.782-1.183,1.513,1.513,0,0,1,1.183-1.782A1.512,1.512,0,0,1-1655.084-2578.625Z"/>
          <path id="路径_3121" data-name="路径 3121" class="cls-20" d="M-1654.7-2572.239a1.512,1.512,0,0,1-1.65,1.36,1.513,1.513,0,0,1-1.361-1.65,1.513,1.513,0,0,1,1.651-1.361A1.512,1.512,0,0,1-1654.7-2572.239Z"/>
          <path id="路径_3122" data-name="路径 3122" class="cls-20" d="M-1656.195-2566.019a1.512,1.512,0,0,1-1.974.822,1.513,1.513,0,0,1-.823-1.975,1.513,1.513,0,0,1,1.975-.822A1.513,1.513,0,0,1-1656.195-2566.019Z"/>
          <path id="路径_3123" data-name="路径 3123" class="cls-20" d="M-1659.431-2560.5a1.514,1.514,0,0,1-2.129.213,1.514,1.514,0,0,1-.212-2.129,1.512,1.512,0,0,1,2.128-.212A1.511,1.511,0,0,1-1659.431-2560.5Z"/>
          <path id="路径_3124" data-name="路径 3124" class="cls-20" d="M-1664.132-2556.164a1.512,1.512,0,0,1-2.1-.416,1.512,1.512,0,0,1,.415-2.1,1.512,1.512,0,0,1,2.1.416A1.512,1.512,0,0,1-1664.132-2556.164Z"/>
          <path id="路径_3125" data-name="路径 3125" class="cls-20" d="M-1669.892-2553.381a1.511,1.511,0,0,1-1.886-1.007,1.512,1.512,0,0,1,1.008-1.887,1.511,1.511,0,0,1,1.886,1.008A1.511,1.511,0,0,1-1669.892-2553.381Z"/>
          <path id="路径_3126" data-name="路径 3126" class="cls-20" d="M-1676.211-2552.392a1.512,1.512,0,0,1-1.512-1.513,1.512,1.512,0,0,1,1.513-1.512,1.512,1.512,0,0,1,1.512,1.513A1.514,1.514,0,0,1-1676.211-2552.392Z"/>
          <path id="路径_3127" data-name="路径 3127" class="cls-20" d="M-1682.545-2553.284a1.513,1.513,0,0,1-1.007-1.887,1.512,1.512,0,0,1,1.887-1.007,1.513,1.513,0,0,1,1.007,1.887A1.513,1.513,0,0,1-1682.545-2553.284Z"/>
          <path id="路径_3128" data-name="路径 3128" class="cls-20" d="M-1688.346-2555.979a1.513,1.513,0,0,1-.415-2.1,1.513,1.513,0,0,1,2.1-.414,1.512,1.512,0,0,1,.414,2.1A1.512,1.512,0,0,1-1688.346-2555.979Z"/>
          <path id="路径_3129" data-name="路径 3129" class="cls-20" d="M-1693.113-2560.245a1.512,1.512,0,0,1,.214-2.128,1.512,1.512,0,0,1,2.128.213,1.511,1.511,0,0,1-.214,2.128A1.513,1.513,0,0,1-1693.113-2560.245Z"/>
          <path id="路径_3130" data-name="路径 3130" class="cls-20" d="M-1696.433-2565.713a1.513,1.513,0,0,1,.823-1.974,1.512,1.512,0,0,1,1.974.823,1.513,1.513,0,0,1-.823,1.975A1.513,1.513,0,0,1-1696.433-2565.713Z"/>
          <path id="路径_3131" data-name="路径 3131" class="cls-20" d="M-1698.02-2571.909a1.513,1.513,0,0,1,1.362-1.65,1.512,1.512,0,0,1,1.649,1.362,1.511,1.511,0,0,1-1.361,1.649A1.512,1.512,0,0,1-1698.02-2571.909Z"/>
          <path id="路径_3132" data-name="路径 3132" class="cls-20" d="M-1697.736-2578.3a1.512,1.512,0,0,1,1.782-1.182,1.514,1.514,0,0,1,1.183,1.783,1.513,1.513,0,0,1-1.783,1.182A1.512,1.512,0,0,1-1697.736-2578.3Z"/>
          <path id="路径_3133" data-name="路径 3133" class="cls-20" d="M-1695.607-2584.331a1.513,1.513,0,0,1,2.05-.613,1.512,1.512,0,0,1,.612,2.049,1.512,1.512,0,0,1-2.049.613A1.513,1.513,0,0,1-1695.607-2584.331Z"/>
          <path id="路径_3134" data-name="路径 3134" class="cls-20" d="M-1691.815-2589.483a1.512,1.512,0,0,1,2.139.01,1.512,1.512,0,0,1-.01,2.139,1.513,1.513,0,0,1-2.139-.01A1.512,1.512,0,0,1-1691.815-2589.483Z"/>
          <path id="路径_3135" data-name="路径 3135" class="cls-20" d="M-1686.689-2593.31a1.512,1.512,0,0,1,2.043.631,1.512,1.512,0,0,1-.631,2.044,1.513,1.513,0,0,1-2.044-.631A1.513,1.513,0,0,1-1686.689-2593.31Z"/>
          <path id="路径_3136" data-name="路径 3136" class="cls-20" d="M-1680.672-2595.48a1.511,1.511,0,0,1,1.771,1.2,1.512,1.512,0,0,1-1.2,1.772,1.513,1.513,0,0,1-1.772-1.2A1.512,1.512,0,0,1-1680.672-2595.48Z"/>
        </g>
        <path id="路径_3137" data-name="路径 3137" class="cls-9" d="M-1665.171-2604.91h-22.383a3.932,3.932,0,0,1-3.856-3.169,3.968,3.968,0,0,0-.146,1.051v.2a3.931,3.931,0,0,0,3.931,3.931h22.382a3.931,3.931,0,0,0,3.931-3.931v-.2a3.988,3.988,0,0,0-.075-.762A3.929,3.929,0,0,1-1665.171-2604.91Z"/>
        <rect id="矩形_42201" data-name="矩形 42201" class="cls-9" width="20.809" height="4.033" rx="2.016" transform="translate(-1686.838 -2610.454)"/>
        <path id="路径_3138" data-name="路径 3138" class="cls-10" d="M-1662.305-2654.035l.394,0,16.312-.092L-1657.486-2626c-1.139,2.694-2.037,5.479-2.963,8.254a6.2,6.2,0,0,1-1.471,2.394l-6.227,6.3a3.123,3.123,0,0,1-2.2.927l-6.027.034-.394,0-6.027.033a3.125,3.125,0,0,1-2.215-.9l-5.9-6.437a6.167,6.167,0,0,1-2.234-4.158l14.532-34.393Z"/>
        <path id="路径_3139" data-name="路径 3139" class="cls-11" d="M-1671.387-2653.984l13.433,29.185-1.937,5.38-15.054-34.544Z"/>
        <path id="路径_3140" data-name="路径 3140" class="cls-12" d="M-1691.256-2653.873l-.394,0-16.312.092,12.2,28c1.169,2.682,2.1,5.456,3.055,8.221a6.2,6.2,0,0,0,1.5,2.377l6.3,6.227a3.127,3.127,0,0,0,2.215.9l6.027-.034.393,0,6.027-.034a3.128,3.128,0,0,0,2.205-.928l6.226-6.3a5.622,5.622,0,0,0,1.927-4.072l-15.054-34.544Z"/>
        <g id="组_2424" data-name="组 2424">
          <g id="组_2423" data-name="组 2423" class="cls-21">
            <g id="组_2422" data-name="组 2422">
              <path id="路径_3141" data-name="路径 3141" class="cls-14" d="M-1688.476-2651.1l3.743,4.888,5.805-2.05-3.492,5.071,3.744,4.887-5.9-1.754-3.492,5.071-.155-6.155-5.9-1.754,5.805-2.05Z"/>
              <path id="路径_3142" data-name="路径 3142" class="cls-14" d="M-1681.273-2630.195l3.743,4.888,5.805-2.05-3.492,5.071,3.743,4.888-5.9-1.754-3.492,5.071-.156-6.155-5.9-1.754,5.805-2.05Z"/>
            </g>
          </g>
        </g>
      </g>
      <g id="组_2430" data-name="组 2430">
        <circle id="椭圆_612" data-name="椭圆 612" class="cls-22" cx="25.503" cy="25.503" r="25.503" transform="translate(-1857.104 -2552.979) rotate(-80.567)"/>
        <circle id="椭圆_613" data-name="椭圆 613" class="cls-23" cx="22.75" cy="22.75" r="22.75" transform="translate(-1853.937 -2555.243) rotate(-80.567)"/>
        <path id="路径_3144" data-name="路径 3144" class="cls-24" d="M-1819.036-2573.1l-.005-.862.006-.4c0-.058-.005-.108-.009-.16l-.01-1.763a1.575,1.575,0,0,0-.045-.371l-.07-9.465c0-.682-.305-.98-.987-.976l-13.095.044c-.682,0-.98.305-.976.987l.018,3.3c0,.682.306.98.987.976l7.7-.014.039,4.569-8.229.041c-.681,0-.98.3-.976.987l.014,1.031a2.032,2.032,0,0,0-.014.243l.078,1.9-.078,1.9a2.032,2.032,0,0,0,.014.243l-.014,1.031c0,.682.3.983.976.987l8.229.041-.039,4.569-7.7-.014c-.681,0-.983.294-.987.976l-.018,3.3c0,.682.294.983.976.987l13.095.044c.682,0,.984-.294.987-.976l.07-9.465a1.575,1.575,0,0,0,.045-.371l.01-1.763c0-.052.009-.1.009-.16l-.006-.4.005-.862s0-.007,0-.011v-.1S-1819.036-2573.1-1819.036-2573.1Z"/>
        <path id="路径_3145" data-name="路径 3145" class="cls-25" d="M-1821.737-2576.119l0-.087a1.976,1.976,0,0,0-.012-.21l-.007-1.273a1.644,1.644,0,0,0-.032-.314l-.007-.539-.076-10.148c0-.682-.3-.98-.987-.976l-13.1.044c-.682,0-.98.305-.976.987l.018,3.3c0,.682.306.98.988.976l7.7-.014.05,5.735-8.239.04c-.682,0-.981.306-.977.988v.087c0,.007,0,.013,0,.021l.069,2.259-.069,2.258c0,.008,0,.014,0,.022v.087c0,.681.295.983.977.987l8.239.041-.05,5.734-7.7-.014c-.682,0-.984.295-.988.976l-.018,3.3c0,.682.294.983.976.987l13.1.045c.682,0,.984-.295.987-.976l.076-10.149.007-.539a1.646,1.646,0,0,0,.032-.314l.007-1.272a2,2,0,0,0,.012-.211l0-.086a.152.152,0,0,0,0-.022l-.005-.854.005-.855A.133.133,0,0,0-1821.737-2576.119Z"/>
        <rect id="矩形_42202" data-name="矩形 42202" class="cls-22" width="30.244" height="8.065" rx="4.033" transform="translate(-1843.05 -2610.958)"/>
        <circle id="椭圆_614" data-name="椭圆 614" class="cls-26" cx="4.259" cy="4.259" r="4.259" transform="translate(-1832.187 -2604.885)"/>
        <g id="组_2426" data-name="组 2426">
          <path id="路径_3146" data-name="路径 3146" class="cls-27" d="M-1823.9-2595.543a1.511,1.511,0,0,1,1.2,1.772,1.513,1.513,0,0,1-1.773,1.2,1.512,1.512,0,0,1-1.2-1.772A1.513,1.513,0,0,1-1823.9-2595.543Z"/>
          <path id="路径_3147" data-name="路径 3147" class="cls-27" d="M-1817.852-2593.465a1.513,1.513,0,0,1,.63,2.044,1.511,1.511,0,0,1-2.044.63,1.512,1.512,0,0,1-.63-2.044A1.513,1.513,0,0,1-1817.852-2593.465Z"/>
          <path id="路径_3148" data-name="路径 3148" class="cls-27" d="M-1812.668-2589.717a1.514,1.514,0,0,1,.008,2.139,1.513,1.513,0,0,1-2.139.009,1.512,1.512,0,0,1-.008-2.139A1.513,1.513,0,0,1-1812.668-2589.717Z"/>
          <path id="路径_3149" data-name="路径 3149" class="cls-27" d="M-1808.8-2584.623a1.513,1.513,0,0,1-.614,2.049,1.513,1.513,0,0,1-2.049-.614,1.513,1.513,0,0,1,.614-2.049A1.512,1.512,0,0,1-1808.8-2584.623Z"/>
          <path id="路径_3150" data-name="路径 3150" class="cls-27" d="M-1806.578-2578.625a1.511,1.511,0,0,1-1.183,1.782,1.512,1.512,0,0,1-1.782-1.183,1.513,1.513,0,0,1,1.184-1.782A1.512,1.512,0,0,1-1806.578-2578.625Z"/>
          <path id="路径_3151" data-name="路径 3151" class="cls-27" d="M-1806.2-2572.239a1.511,1.511,0,0,1-1.65,1.36,1.513,1.513,0,0,1-1.361-1.65,1.513,1.513,0,0,1,1.651-1.361A1.512,1.512,0,0,1-1806.2-2572.239Z"/>
          <path id="路径_3152" data-name="路径 3152" class="cls-27" d="M-1807.689-2566.019a1.512,1.512,0,0,1-1.974.822,1.512,1.512,0,0,1-.822-1.975,1.512,1.512,0,0,1,1.974-.822A1.512,1.512,0,0,1-1807.689-2566.019Z"/>
          <path id="路径_3153" data-name="路径 3153" class="cls-27" d="M-1810.925-2560.5a1.513,1.513,0,0,1-2.129.213,1.514,1.514,0,0,1-.212-2.129,1.512,1.512,0,0,1,2.128-.212A1.511,1.511,0,0,1-1810.925-2560.5Z"/>
          <path id="路径_3154" data-name="路径 3154" class="cls-27" d="M-1815.626-2556.164a1.512,1.512,0,0,1-2.1-.416,1.512,1.512,0,0,1,.415-2.1,1.513,1.513,0,0,1,2.1.416A1.513,1.513,0,0,1-1815.626-2556.164Z"/>
          <path id="路径_3155" data-name="路径 3155" class="cls-27" d="M-1821.385-2553.381a1.512,1.512,0,0,1-1.887-1.007,1.512,1.512,0,0,1,1.008-1.887,1.511,1.511,0,0,1,1.886,1.008A1.511,1.511,0,0,1-1821.385-2553.381Z"/>
          <path id="路径_3156" data-name="路径 3156" class="cls-27" d="M-1827.7-2552.392a1.513,1.513,0,0,1-1.512-1.513,1.512,1.512,0,0,1,1.513-1.512,1.512,1.512,0,0,1,1.512,1.513A1.513,1.513,0,0,1-1827.7-2552.392Z"/>
          <path id="路径_3157" data-name="路径 3157" class="cls-27" d="M-1834.039-2553.284a1.513,1.513,0,0,1-1.007-1.887,1.512,1.512,0,0,1,1.887-1.007,1.513,1.513,0,0,1,1.007,1.887A1.513,1.513,0,0,1-1834.039-2553.284Z"/>
          <path id="路径_3158" data-name="路径 3158" class="cls-27" d="M-1839.84-2555.979a1.513,1.513,0,0,1-.415-2.1,1.513,1.513,0,0,1,2.1-.414,1.512,1.512,0,0,1,.414,2.1A1.512,1.512,0,0,1-1839.84-2555.979Z"/>
          <path id="路径_3159" data-name="路径 3159" class="cls-27" d="M-1844.607-2560.245a1.512,1.512,0,0,1,.214-2.128,1.512,1.512,0,0,1,2.128.213,1.511,1.511,0,0,1-.214,2.128A1.513,1.513,0,0,1-1844.607-2560.245Z"/>
          <path id="路径_3160" data-name="路径 3160" class="cls-27" d="M-1847.927-2565.713a1.513,1.513,0,0,1,.823-1.974,1.512,1.512,0,0,1,1.974.823,1.513,1.513,0,0,1-.823,1.975A1.513,1.513,0,0,1-1847.927-2565.713Z"/>
          <path id="路径_3161" data-name="路径 3161" class="cls-27" d="M-1849.514-2571.909a1.513,1.513,0,0,1,1.362-1.65,1.512,1.512,0,0,1,1.649,1.362,1.511,1.511,0,0,1-1.361,1.649A1.512,1.512,0,0,1-1849.514-2571.909Z"/>
          <path id="路径_3162" data-name="路径 3162" class="cls-27" d="M-1849.23-2578.3a1.513,1.513,0,0,1,1.782-1.182,1.514,1.514,0,0,1,1.183,1.783,1.513,1.513,0,0,1-1.783,1.182A1.512,1.512,0,0,1-1849.23-2578.3Z"/>
          <path id="路径_3163" data-name="路径 3163" class="cls-27" d="M-1847.1-2584.331a1.513,1.513,0,0,1,2.05-.613,1.513,1.513,0,0,1,.613,2.049,1.513,1.513,0,0,1-2.05.613A1.513,1.513,0,0,1-1847.1-2584.331Z"/>
          <path id="路径_3164" data-name="路径 3164" class="cls-27" d="M-1843.309-2589.483a1.512,1.512,0,0,1,2.139.01,1.512,1.512,0,0,1-.01,2.139,1.513,1.513,0,0,1-2.139-.01A1.513,1.513,0,0,1-1843.309-2589.483Z"/>
          <path id="路径_3165" data-name="路径 3165" class="cls-27" d="M-1838.183-2593.31a1.512,1.512,0,0,1,2.043.631,1.511,1.511,0,0,1-.631,2.044,1.512,1.512,0,0,1-2.043-.631A1.512,1.512,0,0,1-1838.183-2593.31Z"/>
          <path id="路径_3166" data-name="路径 3166" class="cls-27" d="M-1832.166-2595.48a1.512,1.512,0,0,1,1.772,1.2,1.513,1.513,0,0,1-1.2,1.772,1.512,1.512,0,0,1-1.771-1.2A1.511,1.511,0,0,1-1832.166-2595.48Z"/>
        </g>
        <path id="路径_3167" data-name="路径 3167" class="cls-9" d="M-1816.665-2604.91h-22.383a3.93,3.93,0,0,1-3.855-3.169,3.924,3.924,0,0,0-.147,1.051v.2a3.931,3.931,0,0,0,3.931,3.931h22.383a3.931,3.931,0,0,0,3.93-3.931v-.2a3.988,3.988,0,0,0-.075-.762A3.929,3.929,0,0,1-1816.665-2604.91Z"/>
        <rect id="矩形_42203" data-name="矩形 42203" class="cls-9" width="20.809" height="4.033" rx="2.016" transform="translate(-1838.332 -2610.454)"/>
        <path id="路径_3168" data-name="路径 3168" class="cls-10" d="M-1813.8-2654.035l.394,0,16.312-.092L-1808.98-2626c-1.139,2.694-2.037,5.479-2.963,8.254a6.2,6.2,0,0,1-1.471,2.394l-6.227,6.3a3.119,3.119,0,0,1-2.2.927l-6.027.034-.394,0-6.027.033a3.126,3.126,0,0,1-2.215-.9l-5.9-6.437a6.167,6.167,0,0,1-2.235-4.158l14.532-34.393Z"/>
        <path id="路径_3169" data-name="路径 3169" class="cls-11" d="M-1822.881-2653.984l13.433,29.185-1.937,5.38-15.054-34.544Z"/>
        <path id="路径_3170" data-name="路径 3170" class="cls-12" d="M-1842.75-2653.873l-.394,0-16.312.092,12.2,28c1.169,2.682,2.1,5.456,3.055,8.221a6.2,6.2,0,0,0,1.5,2.377l6.3,6.227a3.127,3.127,0,0,0,2.215.9l6.027-.034.393,0,6.027-.034a3.128,3.128,0,0,0,2.2-.928l6.226-6.3a5.622,5.622,0,0,0,1.927-4.072l-15.054-34.544Z"/>
        <g id="组_2429" data-name="组 2429">
          <g id="组_2428" data-name="组 2428" class="cls-28">
            <g id="组_2427" data-name="组 2427">
              <path id="路径_3171" data-name="路径 3171" class="cls-14" d="M-1839.97-2651.1l3.743,4.888,5.805-2.05-3.492,5.071,3.743,4.887-5.9-1.754-3.492,5.071-.155-6.155-5.9-1.754,5.805-2.05Z"/>
              <path id="路径_3172" data-name="路径 3172" class="cls-14" d="M-1832.767-2630.195l3.743,4.888,5.805-2.05-3.492,5.071,3.744,4.888-5.9-1.754-3.492,5.071-.156-6.155-5.9-1.754,5.805-2.05Z"/>
            </g>
          </g>
        </g>
      </g>
    </g>
    <g id="组_2464" data-name="组 2464" class="cls-29" transform="translate(1940.375 3017.353)">
      <ellipse id="椭圆_621" data-name="椭圆 621" class="cls-9" cx="117.6" cy="6.675" rx="117.6" ry="6.675" transform="translate(-1868.203 -2401.48)"/>
      <rect id="矩形_47394" data-name="矩形 47394" class="cls-30" width="68.676" height="43.284" rx="3.186" transform="translate(-1852.448 -2439.394)"/>
      <rect id="矩形_47395" data-name="矩形 47395" class="cls-31" width="68.676" height="65.379" rx="3.186" transform="translate(-1783.772 -2461.489)"/>
      <rect id="矩形_47396" data-name="矩形 47396" class="cls-32" width="68.676" height="33.053" rx="3.186" transform="translate(-1715.096 -2429.163)"/>
      <text id="_2" data-name="2" class="cls-33" transform="translate(-1824.993 -2417.314)"><tspan x="0" y="0">2</tspan></text>
      <text id="_3" data-name="3" class="cls-33" transform="translate(-1687.641 -2404.311)"><tspan x="0" y="0">3</tspan></text>
      <text id="_1" data-name="1" class="cls-33" transform="translate(-1755.35 -2436.229)"><tspan x="0" y="0">1</tspan></text>
      <path id="路径_3217" data-name="路径 3217" class="cls-9" d="M-1786.959-2439.393h-3.288v32.824c0,1.4-1.427,2.532-3.187,2.532h-59.014v5.4c0,1.4,1.426,2.532,3.186,2.532h62.3c1.76,0,3.187-1.133,3.187-2.532v-38.219C-1783.772-2438.26-1785.2-2439.393-1786.959-2439.393Z"/>
      <path id="路径_3218" data-name="路径 3218" class="cls-9" d="M-1718.283-2461.489h-3.288v54.92c0,1.4-1.427,2.532-3.187,2.532h-59.014v5.4c0,1.4,1.426,2.532,3.186,2.532h62.3c1.76,0,3.187-1.133,3.187-2.532v-60.315C-1715.1-2460.355-1716.523-2461.489-1718.283-2461.489Z"/>
      <path id="路径_3219" data-name="路径 3219" class="cls-9" d="M-1649.607-2429.163h-3.288v22.594c0,1.4-1.427,2.532-3.187,2.532H-1715.1v5.4c0,1.4,1.426,2.532,3.186,2.532h62.3c1.76,0,3.187-1.133,3.187-2.532v-27.989C-1646.42-2428.029-1647.847-2429.163-1649.607-2429.163Z"/>
      <rect id="矩形_47397" data-name="矩形 47397" class="cls-34" width="78.918" height="5.381" rx="2.316" transform="translate(-1862.69 -2442.206)"/>
      <rect id="矩形_47398" data-name="矩形 47398" class="cls-34" width="81.481" height="5.381" rx="2.316" transform="translate(-1715.096 -2430.676)"/>
      <rect id="矩形_47399" data-name="矩形 47399" class="cls-34" width="88.838" height="5.381" rx="2.316" transform="translate(-1793.853 -2463.729)"/>
      <path id="路径_3220" data-name="路径 3220" class="cls-9" d="M-1785.038-2438.772h-74.286a2.158,2.158,0,0,1-2.308-1.717c0,.041-.008.082-.008.124v1.7a2.12,2.12,0,0,0,2.316,1.841h74.286a2.12,2.12,0,0,0,2.316-1.841v-1.7c0-.042-.005-.083-.008-.124A2.159,2.159,0,0,1-1785.038-2438.772Z"/>
      <path id="路径_3221" data-name="路径 3221" class="cls-9" d="M-1634.881-2427.242h-76.849a2.158,2.158,0,0,1-2.308-1.717c0,.041-.008.082-.008.124v1.7a2.12,2.12,0,0,0,2.316,1.84h76.849a2.12,2.12,0,0,0,2.316-1.84v-1.7c0-.042-.005-.083-.008-.124A2.159,2.159,0,0,1-1634.881-2427.242Z"/>
      <path id="路径_3222" data-name="路径 3222" class="cls-9" d="M-1706.281-2460.295h-84.206a2.159,2.159,0,0,1-2.308-1.717c0,.041-.008.082-.008.123v1.7a2.12,2.12,0,0,0,2.316,1.841h84.206a2.12,2.12,0,0,0,2.316-1.841v-1.7c0-.041-.005-.082-.008-.123A2.16,2.16,0,0,1-1706.281-2460.295Z"/>
    </g>
    <g id="组_2465" data-name="组 2465" transform="translate(1940.375 3017.353)">
      <ellipse id="椭圆_622" data-name="椭圆 622" class="cls-9" cx="103.775" cy="10.15" rx="103.775" ry="10.15" transform="translate(-1859.803 -2365.729)"/>
      <rect id="矩形_47400" data-name="矩形 47400" class="cls-35" width="174.204" height="63.561" rx="13.739" transform="translate(-1839.63 -2418.965)"/>
      <rect id="矩形_47401" data-name="矩形 47401" class="cls-9" width="18.833" height="63.561" rx="7" transform="translate(-1757.236 -2418.965)"/>
      <rect id="矩形_47402" data-name="矩形 47402" class="cls-36" width="18.833" height="63.561" rx="7" transform="translate(-1761.944 -2418.965)"/>
      <rect id="矩形_47403" data-name="矩形 47403" class="cls-9" width="18.833" height="174.204" rx="7" transform="translate(-1665.426 -2394.247) rotate(90)"/>
      <rect id="矩形_47404" data-name="矩形 47404" class="cls-36" width="18.833" height="174.204" rx="7" transform="translate(-1665.426 -2398.955) rotate(90)"/>
    </g>
    <g id="组_2466" data-name="组 2466" transform="translate(1940.375 3017.353)">
      <rect id="矩形_47405" data-name="矩形 47405" class="cls-35" width="174.204" height="30.603" rx="13.739" transform="translate(-1731.821 -2512.698) rotate(28.116)"/>
      <rect id="矩形_47406" data-name="矩形 47406" class="cls-9" width="18.833" height="30.603" rx="7" transform="translate(-1659.15 -2473.868) rotate(28.116)"/>
      <rect id="矩形_47407" data-name="矩形 47407" class="cls-36" width="18.833" height="30.603" rx="7" transform="translate(-1663.303 -2476.087) rotate(28.116)"/>
      <path id="路径_3223" data-name="路径 3223" class="cls-37" d="M-1676.771-2483.475c-4.385-5.345-8.743-15.93-8.427-21.876.376-7.083,3.561-12.76,8.74-15.575s11.67-2.4,17.824,1.131c5.162,2.968,10.524,7.616,13.126,14.021,7.116,17.517-1.495,32.621-6.673,35.437C-1657.163-2467.628-1665.767-2470.066-1676.771-2483.475Zm10.855-24.42c-1.852-.99-3.272-1.117-3.883-.785-.648.352-1.356,1.746-1.479,4.068a22.222,22.222,0,0,0,2.958,11.242,22.223,22.223,0,0,0,7.827,8.594c2.013,1.157,3.571,1.322,4.218.97h0c.648-.352,1.356-1.746,1.479-4.067a22.219,22.219,0,0,0-2.958-11.242,22.22,22.22,0,0,0-7.827-8.595C-1665.694-2507.775-1665.806-2507.837-1665.916-2507.9Z"/>
      <path id="路径_3224" data-name="路径 3224" class="cls-9" d="M-1583.618-2429.535l-3.535,6.615a11.552,11.552,0,0,1-15.632,4.745l-133.27-71.209a11.5,11.5,0,0,1-5.166-5.627,11.551,11.551,0,0,0,5.166,14.749l133.27,71.209a11.552,11.552,0,0,0,15.632-4.745l3.535-6.615a11.528,11.528,0,0,0,.422-10C-1583.325-2430.121-1583.463-2429.826-1583.618-2429.535Z"/>
      <path id="路径_3225" data-name="路径 3225" class="cls-9" d="M-1642.811-2491.79a33.672,33.672,0,0,1-1.4,9.187h0a31.017,31.017,0,0,1-2.1,5.232,17.872,17.872,0,0,1-5.494,6.812c-.127.083-.25.153-.371.221l-.185.1a8.617,8.617,0,0,1-4.414.871h0a21.267,21.267,0,0,1-2.934-2.439,8.684,8.684,0,0,0,.927,2.151,19.781,19.781,0,0,1-6.165-2.719,36.13,36.13,0,0,1-4.134-3.1,63.75,63.75,0,0,1-7.684-8,34.4,34.4,0,0,1-3.593-5.538c.218.289.433.565.651.83a52.235,52.235,0,0,0,11.817,11.1,19.791,19.791,0,0,0,6.165,2.719v0c.077.126.156.256.239.385a5.878,5.878,0,0,1,1.556.047c0-.053.006-.106.009-.162a8.646,8.646,0,0,0,4.62-.856l.185-.1c3-1.636,7.163-7.4,8.737-15.381a34.011,34.011,0,0,0,.633-6.071,35.652,35.652,0,0,0-2.7-13.983c-.162-.4-.332-.789-.515-1.171a24.192,24.192,0,0,1,3.458,5.879,36.626,36.626,0,0,1,2.345,8.563A34.349,34.349,0,0,1-1642.811-2491.79Z"/>
      <path id="路径_3226" data-name="路径 3226" class="cls-37" d="M-1659.776-2472.042c-1.383-5.838,5.584-20.115,26.494-21.471,7.646-.5,15.8,2.233,22.311,5.521,7.759,3.921,13,9.51,14.378,15.348s-1.274,11.159-7.288,14.6c-5.048,2.887-17.728,3.655-25.769,2.1C-1649.825-2459.847-1658.447-2466.426-1659.776-2472.042Zm43.274-4.476a33.672,33.672,0,0,0-13.512-3.189c-4.909-.17-9.361.668-12.212,2.3-1.972,1.128-2.679,2.369-2.507,3.1h0c.173.73,1.489,2.042,4.027,3.324a33.664,33.664,0,0,0,13.512,3.189c4.91.17,9.361-.668,12.213-2.3,1.971-1.128,2.679-2.369,2.506-3.1-.163-.688-1.341-1.9-3.611-3.108C-1616.22-2476.374-1616.359-2476.446-1616.5-2476.518Z"/>
      <path id="路径_3227" data-name="路径 3227" class="cls-9" d="M-1603.88-2458.047c-5.049,2.89-17.729,3.658-25.768,2.1-8.575-1.656-15.061-3.8-19.787-6.144a.49.49,0,0,1-.032.068l-8.875,16.611a5.886,5.886,0,0,1-7.963,2.419l-6.229-3.331a5.885,5.885,0,0,1-3.1-4.8l.159.089,6.23,3.331a5.885,5.885,0,0,0,7.962-2.419l7.684-14.384,1.191-2.227a.671.671,0,0,0,.033-.068q1.65.821,3.6,1.6a89.053,89.053,0,0,0,16.19,4.54c8.039,1.557,20.719.789,25.769-2.1,6.011-3.44,8.669-8.76,7.286-14.6a15.234,15.234,0,0,0-.854-2.551,17.978,17.978,0,0,1,3.8,7.259C-1595.211-2466.807-1597.868-2461.487-1603.88-2458.047Z"/>
    </g>
    <g id="组_2467" data-name="组 2467" transform="translate(1940.375 3017.353)">
      <path id="路径_3228" data-name="路径 3228" class="cls-38" d="M-1769.47-2427.332c1.6,3.049,3.073,4.785,4.368,5.165,1.074.314,2.16-.288,3.418-.986,1.511-.839,3.393-1.883,5.505-1.075,2.077.794,3.863,3.17,5.595,7.456l-3.728,2.4c-1.443-3.544-2.466-4.4-2.961-4.588-.676-.258-1.618.264-2.708.869-1.591.883-3.567,1.979-5.951,1.281-2.461-.721-4.7-3.129-7.016-7.56Z"/>
      <path id="路径_3231" data-name="路径 3231" class="cls-39" d="M-1632.354-2360.564l3.866-1.506c.834,2.142,1.75,3.486,2.649,3.887a4.418,4.418,0,0,0,2.534-.075,6.725,6.725,0,0,1,4.694.265c1.69.889,2.86,2.776,3.68,5.938l-4.016,1.042c-.688-2.652-1.4-3.2-1.595-3.307a3.853,3.853,0,0,0-1.945.129,7.861,7.861,0,0,1-5.041-.2C-1629.528-2355.285-1631.062-2357.246-1632.354-2360.564Z"/>
      <path id="路径_3232" data-name="路径 3232" class="cls-40" d="M-1616.131-2354.358a16.438,16.438,0,0,1,.691,2.006l-3.213.834a13.058,13.058,0,0,0-.532-1.546h0a3.112,3.112,0,0,0-1.163-1.623,3.849,3.849,0,0,0-2.218.09,7.528,7.528,0,0,1-4.792-.174c-1.756-.783-3.128-2.443-4.316-5.224-.046-.109-.093-.22-.139-.333l3.094-1.2c.03.075.061.148.092.221.82,1.919,1.7,3.1,2.62,3.509a4.67,4.67,0,0,0,2.785-.047,6.387,6.387,0,0,1,4.419.226A6.2,6.2,0,0,1-1616.131-2354.358Z"/>
      <path id="路径_3235" data-name="路径 3235" class="cls-39" d="M-1827.858-2429.34l-1.463,7.326c-5.765-3.515-7.357-1.249-9.56,1.888-2.389,3.4-5.659,8.058-13.517,1.536l2.184-6.808c4.129,3.427,5.008,2.175,7.132-.849C-1840.659-2429.7-1837-2434.911-1827.858-2429.34Z"/>
      <path id="路径_3236" data-name="路径 3236" class="cls-40" d="M-1829.713-2423.065c-5.671-3.25-7.407-.778-9.589,2.327-2.347,3.342-5.254,7.482-12.364,1.883l1.748-5.447c4.074,3.2,5.165,1.644,7.256-1.332,2.284-3.253,5.712-8.133,14.119-3.292Z"/>
      <path id="路径_3241" data-name="路径 3241" class="cls-41" d="M-1655.4-2423.25l4.956-.3c.36,4.752,2.376,5.472,5.166,6.468,3.024,1.079,7.166,2.558,6.631,9.352l-4.954-.31c.28-3.57-.833-3.968-3.522-4.928C-1650.195-2414.062-1654.833-2415.718-1655.4-2423.25Z"/>
      <path id="路径_3242" data-name="路径 3242" class="cls-42" d="M-1654.545-2420.872a15.111,15.111,0,0,1-.323-1.966l3.965-.239a12.153,12.153,0,0,0,.254,1.557c.775,3.277,2.818,4.006,5.183,4.85,2.347.838,5.268,1.88,6.119,5.48a10.721,10.721,0,0,1,.23,2.987l-3.963-.247a7.161,7.161,0,0,0-.126-1.982c-.417-1.761-1.737-2.232-3.735-2.946C-1649.629-2414.337-1653.31-2415.652-1654.545-2420.872Z"/>
      <path id="路径_3243" data-name="路径 3243" class="cls-43" d="M-1855.76-2489.091l-5.66,1.415a2.055,2.055,0,0,1-2.493-2.493l1.415-5.66a2.056,2.056,0,0,1,1.995-1.557h4.245a2.056,2.056,0,0,1,2.056,2.056v4.245A2.055,2.055,0,0,1-1855.76-2489.091Z"/>
      <path id="路径_3244" data-name="路径 3244" class="cls-43" d="M-1856.419-2491.067l-5.659,1.415a2.057,2.057,0,0,1-2.494-2.494l1.415-5.66a2.056,2.056,0,0,1,1.995-1.557h4.245a2.056,2.056,0,0,1,2.056,2.056v4.245A2.056,2.056,0,0,1-1856.419-2491.067Z"/>
      <path id="路径_3245" data-name="路径 3245" class="cls-43" d="M-1890.06-2412.091l-5.66,1.415a2.055,2.055,0,0,1-2.493-2.493l1.415-5.66a2.056,2.056,0,0,1,1.995-1.557h4.245a2.056,2.056,0,0,1,2.056,2.056v4.245A2.055,2.055,0,0,1-1890.06-2412.091Z"/>
      <path id="路径_3246" data-name="路径 3246" class="cls-43" d="M-1890.719-2414.067l-5.659,1.415a2.057,2.057,0,0,1-2.494-2.494l1.415-5.66a2.056,2.056,0,0,1,1.995-1.557h4.245a2.056,2.056,0,0,1,2.056,2.056v4.245A2.056,2.056,0,0,1-1890.719-2414.067Z"/>
      <path id="路径_3247" data-name="路径 3247" class="cls-43" d="M-1861.36-2550.691l-5.66,1.415a2.055,2.055,0,0,1-2.493-2.493l1.415-5.66a2.056,2.056,0,0,1,1.995-1.557h4.245a2.056,2.056,0,0,1,2.056,2.056v4.245A2.055,2.055,0,0,1-1861.36-2550.691Z"/>
      <path id="路径_3248" data-name="路径 3248" class="cls-43" d="M-1862.019-2552.667l-5.659,1.415a2.057,2.057,0,0,1-2.494-2.494l1.415-5.66a2.056,2.056,0,0,1,1.995-1.557h4.245a2.056,2.056,0,0,1,2.056,2.056v4.245A2.056,2.056,0,0,1-1862.019-2552.667Z"/>
      <path id="路径_3249" data-name="路径 3249" class="cls-43" d="M-1759.933-2429.961l-3.381.845a1.228,1.228,0,0,1-1.489-1.489l.845-3.381a1.229,1.229,0,0,1,1.191-.931h2.536a1.228,1.228,0,0,1,1.228,1.229v2.535A1.228,1.228,0,0,1-1759.933-2429.961Z"/>
      <path id="路径_3250" data-name="路径 3250" class="cls-43" d="M-1760.327-2431.142l-3.381.845a1.228,1.228,0,0,1-1.489-1.489l.845-3.381a1.228,1.228,0,0,1,1.192-.93h2.535a1.228,1.228,0,0,1,1.229,1.228v2.536A1.229,1.229,0,0,1-1760.327-2431.142Z"/>
      <path id="路径_3251" data-name="路径 3251" class="cls-44" d="M-1805.916-2494.216l-.613-5.8a2.057,2.057,0,0,1,2.817-2.122l5.407,2.19a2.056,2.056,0,0,1,1.265,2.192l-.591,4.2a2.056,2.056,0,0,1-2.323,1.749l-4.2-.591A2.056,2.056,0,0,1-1805.916-2494.216Z"/>
      <path id="路径_3252" data-name="路径 3252" class="cls-44" d="M-1803.867-2494.593l-.613-5.8a2.057,2.057,0,0,1,2.817-2.122l5.408,2.19a2.057,2.057,0,0,1,1.264,2.192l-.591,4.2a2.056,2.056,0,0,1-2.323,1.749l-4.2-.591A2.056,2.056,0,0,1-1803.867-2494.593Z"/>
      <path id="路径_3253" data-name="路径 3253" class="cls-44" d="M-1682.14-2435.99l-.5-4.7a1.665,1.665,0,0,1,2.281-1.718l4.377,1.772a1.666,1.666,0,0,1,1.024,1.775l-.479,3.4a1.664,1.664,0,0,1-1.88,1.417l-3.4-.479A1.666,1.666,0,0,1-1682.14-2435.99Z"/>
      <path id="路径_3254" data-name="路径 3254" class="cls-44" d="M-1680.481-2436.295l-.5-4.7a1.664,1.664,0,0,1,2.28-1.717l4.378,1.772a1.666,1.666,0,0,1,1.024,1.775l-.479,3.4a1.665,1.665,0,0,1-1.88,1.416l-3.4-.478A1.666,1.666,0,0,1-1680.481-2436.295Z"/>
      <path id="路径_3255" data-name="路径 3255" class="cls-45" d="M-1760.089-2453.868l-.36-3.415a1.21,1.21,0,0,1,1.657-1.249l3.183,1.289a1.21,1.21,0,0,1,.745,1.29l-.348,2.475a1.212,1.212,0,0,1-1.368,1.03l-2.474-.348A1.213,1.213,0,0,1-1760.089-2453.868Z"/>
      <path id="路径_3256" data-name="路径 3256" class="cls-45" d="M-1758.883-2454.09l-.36-3.415a1.211,1.211,0,0,1,1.658-1.249l3.182,1.289a1.211,1.211,0,0,1,.745,1.29l-.348,2.475a1.21,1.21,0,0,1-1.367,1.03l-2.475-.348A1.213,1.213,0,0,1-1758.883-2454.09Z"/>
      <path id="路径_3257" data-name="路径 3257" class="cls-46" d="M-1639-2386.53l-.317-3.006a1.065,1.065,0,0,1,1.459-1.1l2.8,1.134a1.066,1.066,0,0,1,.655,1.136l-.307,2.178a1.065,1.065,0,0,1-1.2.906l-2.178-.306A1.066,1.066,0,0,1-1639-2386.53Z"/>
      <path id="路径_3258" data-name="路径 3258" class="cls-46" d="M-1637.934-2386.726l-.317-3a1.065,1.065,0,0,1,1.459-1.1l2.8,1.134a1.065,1.065,0,0,1,.655,1.136l-.306,2.177a1.065,1.065,0,0,1-1.2.907l-2.178-.307A1.065,1.065,0,0,1-1637.934-2386.726Z"/>
      <path id="路径_3259" data-name="路径 3259" class="cls-45" d="M-1796.139-2442.318l-.36-3.415a1.21,1.21,0,0,1,1.657-1.249l3.183,1.289a1.211,1.211,0,0,1,.745,1.29l-.348,2.475a1.212,1.212,0,0,1-1.368,1.03l-2.474-.348A1.212,1.212,0,0,1-1796.139-2442.318Z"/>
      <path id="路径_3260" data-name="路径 3260" class="cls-45" d="M-1794.933-2442.54l-.36-3.415a1.211,1.211,0,0,1,1.658-1.249l3.182,1.289a1.211,1.211,0,0,1,.745,1.29l-.348,2.475a1.21,1.21,0,0,1-1.367,1.03l-2.475-.348A1.212,1.212,0,0,1-1794.933-2442.54Z"/>
      <path id="路径_3261" data-name="路径 3261" class="cls-45" d="M-1898.239-2449.746l-.7-6.636a2.352,2.352,0,0,1,3.221-2.428l6.186,2.505a2.353,2.353,0,0,1,1.446,2.508l-.676,4.808a2.352,2.352,0,0,1-2.657,2l-4.808-.676A2.351,2.351,0,0,1-1898.239-2449.746Z"/>
      <path id="路径_3262" data-name="路径 3262" class="cls-45" d="M-1895.9-2450.177l-.7-6.637a2.351,2.351,0,0,1,3.221-2.427l6.186,2.5a2.352,2.352,0,0,1,1.446,2.507l-.676,4.808a2.353,2.353,0,0,1-2.657,2l-4.808-.676A2.354,2.354,0,0,1-1895.9-2450.177Z"/>
      <ellipse id="椭圆_623" data-name="椭圆 623" class="cls-9" cx="9.275" cy="1.05" rx="9.275" ry="1.05" transform="translate(-1633.003 -2351.029)"/>
    </g>
  </g>
</svg>
