<svg xmlns="http://www.w3.org/2000/svg" width="25.561" height="21.353" viewBox="0 0 25.561 21.353">
  <defs>
    <style>
      .cls-1 {
        fill: #fdda1d;
      }

      .cls-2 {
        fill: #dffd01;
      }
    </style>
  </defs>
  <g id="丝带2" transform="translate(1828.941 2539.205)">
    <path id="路径_3265" data-name="路径 3265" class="cls-1" d="M-1828.941-2537.737l6.423-1.468c1.577,6.9,4.386,7.541,8.273,8.425,4.213.957,9.984,2.267,10.865,12.355l-6.563.573c-.464-5.3-2.015-5.652-5.761-6.5C-1819.98-2525.327-1826.441-2526.794-1828.941-2537.737Z"/>
    <path id="路径_3266" data-name="路径 3266" class="cls-2" d="M-1827.264-2534.423a25.148,25.148,0,0,1-.881-2.82l5.139-1.174a20.465,20.465,0,0,0,.695,2.233c1.779,4.651,4.625,5.3,7.92,6.046,3.27.743,7.339,1.667,9.292,6.776a17.859,17.859,0,0,1,1,4.338l-5.25.46a11.823,11.823,0,0,0-.627-2.884c-.956-2.5-2.8-2.917-5.579-3.55C-1819.3-2525.848-1824.431-2527.014-1827.264-2534.423Z"/>
  </g>
</svg>
