<svg xmlns="http://www.w3.org/2000/svg" width="32.031" height="9.905" viewBox="0 0 32.031 9.905">
  <defs>
    <style>
      .cls-1 {
        fill: #fd821d;
      }

      .cls-2 {
        fill: #fdad01;
      }
    </style>
  </defs>
  <g id="丝带1" transform="translate(1851.863 2470.78)">
    <path id="路径_3263" data-name="路径 3263" class="cls-1" d="M-1851.863-2465.818l4.334-4.962c5.333,4.658,7.981,3.524,11.645,1.954,3.971-1.7,9.41-4.032,16.052,3.611l-4.974,4.322c-3.49-4.017-4.952-3.39-8.483-1.877C-1837.319-2461.043-1843.409-2458.434-1851.863-2465.818Z"/>
    <path id="路径_3264" data-name="路径 3264" class="cls-2" d="M-1848.559-2464.123a25.1,25.1,0,0,1-2.37-1.763l3.468-3.971a20.4,20.4,0,0,0,1.875,1.4c4.172,2.718,6.855,1.568,9.961.238,3.082-1.321,6.917-2.964,11.5.021a17.852,17.852,0,0,1,3.356,2.925l-3.978,3.457a11.808,11.808,0,0,0-2.2-1.965c-2.242-1.461-3.976-.718-6.6.406C-1837.078-2461.863-1841.912-2459.793-1848.559-2464.123Z"/>
  </g>
</svg>
