<svg xmlns="http://www.w3.org/2000/svg" width="16.639" height="24.366" viewBox="0 0 16.639 24.366">
  <defs>
    <style>
      .cls-1 {
        fill: #f95c30;
      }

      .cls-2 {
        fill: #ff7954;
      }
    </style>
  </defs>
  <g id="丝带3" transform="translate(1786.835 2483.464)">
    <path id="路径_3267" data-name="路径 3267" class="cls-1" d="M-1772.529-2459.1l-7.348-1.346c3.423-5.82,1.132-7.376-2.04-9.529-3.438-2.334-8.146-5.531-1.75-13.491l6.841,2.076c-3.36,4.182-2.095,5.042.962,7.117C-1772.375-2471.9-1767.1-2468.323-1772.529-2459.1Z"/>
    <path id="路径_3268" data-name="路径 3268" class="cls-2" d="M-1778.832-2460.853c3.159-5.722.66-7.419-2.48-9.55-3.378-2.294-7.565-5.135-2.079-12.333l5.474,1.661c-3.131,4.124-1.562,5.19,1.447,7.234,3.289,2.232,8.223,5.582,3.516,14.065Z"/>
  </g>
</svg>
