<svg xmlns="http://www.w3.org/2000/svg" width="13.446" height="30.228" viewBox="0 0 13.446 30.228">
  <defs>
    <style>
      .cls-1 {
        fill: #f95c30;
      }

      .cls-2 {
        fill: #ff7954;
      }
    </style>
  </defs>
  <g id="丝带4" transform="translate(1730.732 2444.034)">
    <path id="路径_3269" data-name="路径 3269" class="cls-1" d="M-1727.271-2444.034l5.606,3.462c-1.917,3.106-2.745,5.553-2.394,7.076.263,1.138,1.309,2.066,2.519,3.141,1.635,1.451,3.67,3.257,4.152,6.205.49,2.993-.784,6.28-4.008,10.344l-5.161-4.095c2.7-3.409,2.725-4.83,2.667-5.185-.1-.638-1.037-1.466-2.024-2.342-1.706-1.514-3.829-3.4-4.565-6.586C-1731.261-2435.4-1730.242-2439.222-1727.271-2444.034Z"/>
    <path id="路径_3270" data-name="路径 3270" class="cls-2" d="M-1719.624-2417.529a26.166,26.166,0,0,1-1.883,2.794l-4.13-3.277a20.6,20.6,0,0,0,1.451-2.153h0a4.942,4.942,0,0,0,.945-3.027c-.142-.869-1.112-1.73-2.235-2.727-1.637-1.454-3.673-3.261-4.362-6.243s.106-6.3,2.5-10.467q.141-.246.289-.5l4.486,2.77c-.065.11-.129.22-.191.328-1.649,2.875-2.3,5.122-1.944,6.678.31,1.343,1.429,2.336,2.723,3.485,1.558,1.383,3.495,3.1,3.94,5.819A9.864,9.864,0,0,1-1719.624-2417.529Z"/>
  </g>
</svg>
