<svg id="svg-login" xmlns="http://www.w3.org/2000/svg" xmlns:xlink="http://www.w3.org/1999/xlink" preserveAspectRatio="none meet" width="154.655" height="56.722" viewBox="0 0 154.655 56.722">
  <defs>
    <style>
      .cls-1, .cls-4, .cls-5 {
        fill: none;
      }

      .cls-2 {
        clip-path: url(#clip-path);
      }

      .cls-3 {
        fill: #007d7b;
      }

      .cls-4, .cls-5 {
        stroke: #000;
        stroke-miterlimit: 10;
        stroke-width: 2.8px;
      }

      .cls-5 {
        stroke-linecap: round;
        stroke-dasharray: 1.4 5.6;
      }

      .cls-6 {
        fill: #77bcf5;
      }
	  .login-text{
		  fill:#000000;
		  font-weight: 600;
	  }
    </style>
    <clipPath id="clip-path">
      <path id="交叉_1" data-name="交叉 1" class="cls-1" d="M117.3,43.119C102.891,43.119,102.891,46,88.484,46s-14.409-2.881-28.817-2.881S45.257,46,30.848,46s-14.58,1.2-28.416-2.823C.5,42.615,0,41.944,0,40.935c0-1.091.59-2.579.59-4.757,0-4.19,2.882-4.19,2.882-8.381S.59,23.606.59,19.417s2.882-4.192,2.882-8.384c0-3.118-3.249-6.356-3.253-8.29,0-.665.381-1.176,1.411-1.476,13.834-4.025,14.81,2.824,29.218,2.824S45.255,1.21,59.663,1.21,74.071,4.091,88.48,4.091,102.889,1.21,117.3,1.21s14.579-1.2,28.415,2.825c1.933.562,2.434,1.231,2.433,2.241,0,1.091-.59,2.579-.59,4.756,0,4.191-2.881,4.191-2.881,8.382s2.881,4.19,2.881,8.382c0,3.683-3.007,4.516-3.017,7.416a5.183,5.183,0,0,0,.182,1.329c.964,3.7,3.451,6.266,3.443,7.872,0,.678-.451,1.184-1.646,1.532a27.645,27.645,0,0,1-7.743,1.267C131.546,47.21,128.436,43.119,117.3,43.119Z"/>
    </clipPath>
  </defs>
  <g id="开启按钮" transform="translate(1.296 1.396)">
    <g id="组_277" data-name="组 277" transform="translate(0 6.72)">
      <g id="组_276" data-name="组 276" class="cls-2">
        <g id="组_272" data-name="组 272" transform="translate(0 0)">
          <path id="路径_244" data-name="路径 244" class="cls-3" d="M-864.671,1434.538c-13.834,4.025-14.81-2.824-29.217-2.824s-14.408,2.881-28.816,2.881-14.408-2.881-28.816-2.881-14.409,2.881-28.819,2.881-14.58,1.2-28.417-2.824c-4.022-1.17-1.843-2.806-1.843-6.995s2.882-4.191,2.882-8.382-2.882-4.19-2.882-8.379,2.882-4.193,2.882-8.385-5.869-8.6-1.843-9.768c13.833-4.026,14.809,2.824,29.217,2.824s14.408-2.882,28.816-2.882,14.408,2.882,28.815,2.882,14.41-2.882,28.819-2.882,14.581-1.2,28.417,2.825c4.023,1.169,1.843,2.806,1.843,6.995s-2.881,4.191-2.881,8.382,2.881,4.189,2.881,8.379-3.893,4.691-2.835,8.748C-865.095,1430.4-860.645,1433.366-864.671,1434.538Z" transform="translate(1011.188 -1388.594)"/>
          <path id="路径_245" data-name="路径 245" class="cls-4" d="M-864.671,1434.538c-13.834,4.025-14.81-2.824-29.217-2.824s-14.408,2.881-28.816,2.881-14.408-2.881-28.816-2.881-14.409,2.881-28.819,2.881-14.58,1.2-28.417-2.824c-4.022-1.17-1.843-2.806-1.843-6.995s2.882-4.191,2.882-8.382-2.882-4.19-2.882-8.379,2.882-4.193,2.882-8.385-5.869-8.6-1.843-9.768c13.833-4.026,14.809,2.824,29.217,2.824s14.408-2.882,28.816-2.882,14.408,2.882,28.815,2.882,14.41-2.882,28.819-2.882,14.581-1.2,28.417,2.825c4.023,1.169,1.843,2.806,1.843,6.995s-2.881,4.191-2.881,8.382,2.881,4.189,2.881,8.379-3.893,4.691-2.835,8.748C-865.095,1430.4-860.645,1433.366-864.671,1434.538Z" transform="translate(1011.188 -1388.594)"/>
        </g>
        <g id="组_275" data-name="组 275" transform="translate(-24.292 -5.662)">
          <g id="组_273" data-name="组 273">
            <line id="直线_66" data-name="直线 66" class="cls-5" y2="65.888"/>
            <line id="直线_67" data-name="直线 67" class="cls-5" y2="65.888" transform="translate(41.216)"/>
            <line id="直线_68" data-name="直线 68" class="cls-5" y2="65.888" transform="translate(82.433)"/>
            <line id="直线_69" data-name="直线 69" class="cls-5" y2="65.888" transform="translate(123.649)"/>
            <line id="直线_70" data-name="直线 70" class="cls-5" y2="65.888" transform="translate(164.866)"/>
            <line id="直线_71" data-name="直线 71" class="cls-5" y2="65.888" transform="translate(206.082)"/>
          </g>
          <g id="组_274" data-name="组 274" transform="translate(8.091 1.305)">
            <line id="直线_72" data-name="直线 72" class="cls-5" y2="65.888"/>
            <line id="直线_73" data-name="直线 73" class="cls-5" y2="65.888" transform="translate(41.216)"/>
            <line id="直线_74" data-name="直线 74" class="cls-5" y2="65.888" transform="translate(82.433)"/>
            <line id="直线_75" data-name="直线 75" class="cls-5" y2="65.888" transform="translate(123.649)"/>
            <line id="直线_76" data-name="直线 76" class="cls-5" y2="65.888" transform="translate(164.866)"/>
            <line id="直线_77" data-name="直线 77" class="cls-5" y2="65.888" transform="translate(206.082)"/>
          </g>
        </g>
      </g>
    </g>
    <g id="组_278" data-name="组 278" transform="translate(0 6.72)">
      <path id="路径_248" data-name="路径 248" class="cls-4" d="M-864.671,1434.538c-13.834,4.025-14.81-2.824-29.217-2.824s-14.408,2.881-28.816,2.881-14.408-2.881-28.816-2.881-14.409,2.881-28.819,2.881-14.58,1.2-28.417-2.824c-4.022-1.17-1.843-2.806-1.843-6.995s2.882-4.191,2.882-8.382-2.882-4.19-2.882-8.379,2.882-4.193,2.882-8.385-5.869-8.6-1.843-9.768c13.833-4.026,14.809,2.824,29.217,2.824s14.408-2.882,28.816-2.882,14.408,2.882,28.815,2.882,14.41-2.882,28.819-2.882,14.581-1.2,28.417,2.825c4.023,1.169,1.843,2.806,1.843,6.995s-2.881,4.191-2.881,8.382,2.881,4.189,2.881,8.379-3.893,4.691-2.835,8.748C-865.095,1430.4-860.645,1433.366-864.671,1434.538Z" transform="translate(1011.188 -1388.594)"/>
    </g>
    <g id="组_279" data-name="组 279" transform="translate(3.794)">
      <path id="路径_249" data-name="路径 249" class="cls-6 svg-login-bg" d="M-860.877,1427.818c-13.834,4.025-14.81-2.824-29.217-2.824s-14.408,2.881-28.816,2.881-14.408-2.881-28.816-2.881-14.409,2.881-28.819,2.881-14.58,1.2-28.417-2.824c-4.023-1.17-1.843-2.806-1.843-6.995s2.882-4.191,2.882-8.382-2.882-4.189-2.882-8.379,2.882-4.192,2.882-8.385-5.869-8.6-1.844-9.768c13.834-4.025,14.81,2.824,29.218,2.824s14.408-2.881,28.816-2.881,14.407,2.881,28.815,2.881,14.41-2.881,28.819-2.881,14.581-1.2,28.417,2.824c4.023,1.17,1.843,2.806,1.843,6.995s-2.881,4.191-2.881,8.382,2.881,4.189,2.881,8.379-3.893,4.692-2.835,8.748C-861.3,1423.679-856.852,1426.647-860.877,1427.818Z" transform="translate(1007.395 -1381.875)"/>
      <path data-name="路径 250" class="cls-4" d="M-860.877,1427.818c-13.834,4.025-14.81-2.824-29.217-2.824s-14.408,2.881-28.816,2.881-14.408-2.881-28.816-2.881-14.409,2.881-28.819,2.881-14.58,1.2-28.417-2.824c-4.023-1.17-1.843-2.806-1.843-6.995s2.882-4.191,2.882-8.382-2.882-4.189-2.882-8.379,2.882-4.192,2.882-8.385-5.869-8.6-1.844-9.768c13.834-4.025,14.81,2.824,29.218,2.824s14.408-2.881,28.816-2.881,14.407,2.881,28.815,2.881,14.41-2.881,28.819-2.881,14.581-1.2,28.417,2.824c4.023,1.17,1.843,2.806,1.843,6.995s-2.881,4.191-2.881,8.382,2.881,4.189,2.881,8.379-3.893,4.692-2.835,8.748C-861.3,1423.679-856.852,1426.647-860.877,1427.818Z" transform="translate(1007.395 -1381.875)"/>
    </g>
  </g>
  <text x="45" y="30" class="login-text">立即开启</text>
</svg>
