<svg xmlns="http://www.w3.org/2000/svg" xmlns:xlink="http://www.w3.org/1999/xlink"  width="340.32" height="383.12" viewBox="0 0 340.32 383.12">
  <defs>
    <style>
      .cls-1, .cls-3, .cls-5 {
        fill: none;
      }

      .cls-2 {
        fill: #ffda34;
      }

      .cls-3 {
        stroke: #191919;
        stroke-linejoin: round;
      }

      .cls-3, .cls-5 {
        stroke-linecap: round;
        stroke-width: 2.8px;
      }

      .cls-4 {
        clip-path: url(#clip-path);
      }

      .cls-5 {
        stroke: #000;
        stroke-miterlimit: 10;
        stroke-dasharray: 1.4 5.6;
      }

      .cls-6 {
        fill: #fff;
      }

      .cls-7 {
        clip-path: url(#clip-path-2);
      }
    </style>
    <clipPath id="clip-path">
      <path id="路径_3387" data-name="路径 3387" class="cls-1" d="M-470.317-2980.051c-28.4,0-28.4-7.16-56.81-7.16s-28.4,7.16-56.811,7.16-28.405-7.16-56.81-7.16-28.407,7.16-56.813,7.16-28.407-7.16-56.814-7.16c-2.013,0-4.985,6.644-6.8,6.013-1.883-.655-.633-7.921-2.2-9.141-1.583-1.233-7.651,2.275-8.8.581-1.141-1.678,3.843-6.765,3.231-8.78-.59-1.945-7.435-2.914-7.435-5.069,0-31.806,6.69-31.806,6.69-63.612s-6.69-31.806-6.69-63.612,6.69-31.806,6.69-63.612-6.69-31.807-6.69-63.614,6.69-31.808,6.69-63.615c0-2.155-6.208-5.336-5.618-7.281.612-2.015,7.4-.677,8.541-2.355,1.152-1.694-2.126-8.189-.543-9.422,1.567-1.22,6.32,4.114,8.2,3.459,1.817-.631,2.723-7.958,4.736-7.958,28.406,0,28.406,7.161,56.811,7.161s28.405-7.161,56.811-7.161,28.4,7.161,56.81,7.161,28.407-7.161,56.813-7.161,28.407,7.161,56.813,7.161c2.014,0,4.986-6.644,6.8-6.013,1.883.654.633,7.92,2.2,9.141,1.583,1.233,7.651-2.275,8.8-.581,1.141,1.677-3.843,6.764-3.232,8.78.59,1.944,7.436,2.914,7.436,5.069,0,31.806-6.69,31.806-6.69,63.611s6.69,31.806,6.69,63.613-6.69,31.806-6.69,63.611,6.69,31.808,6.69,63.615-6.69,31.808-6.69,63.615c0,2.155,6.207,5.336,5.617,7.28-.611,2.016-7.4.678-8.54,2.356-1.152,1.694,2.126,8.188.543,9.421-1.568,1.221-6.321-4.113-8.2-3.459C-467.4-2987.377-468.3-2980.051-470.317-2980.051Z"/>
    </clipPath>
    <clipPath id="clip-path-2">
      <path id="路径_3390" data-name="路径 3390" class="cls-1" d="M-755.152-3057.54c0-31.806-6.691-31.806-6.691-63.613s6.691-31.806,6.691-63.611-6.691-31.808-6.691-63.615,6.691-31.808,6.691-63.615c0-2.155-6.208-5.336-5.618-7.28.611-2.016,7.4-.678,8.541-2.356,1.152-1.694-2.126-8.188-.544-9.421s6.321,4.113,8.2,3.459c1.817-.632,2.722-7.958,4.736-7.958,28.405,0,28.405,7.16,56.81,7.16s28.406-7.16,56.811-7.16,28.4,7.16,56.811,7.16,28.406-7.16,56.813-7.16c27.832,0,28.4,6.873,55.13,7.15.114-2.545.177-5.329.177-8.415,0-2.155-6.845-3.124-7.435-5.069-.611-2.015,4.372-7.1,3.232-8.78-1.152-1.694-7.22,1.815-8.8.582s-.318-8.487-2.2-9.142c-1.817-.631-4.789,6.013-6.8,6.013-28.407,0-28.407-7.16-56.813-7.16s-28.407,7.16-56.813,7.16-28.406-7.16-56.811-7.16-28.405,7.16-56.811,7.16-28.4-7.16-56.81-7.16c-2.013,0-2.919,7.326-4.736,7.958-1.883.654-6.636-4.68-8.2-3.459-1.583,1.233,1.7,7.727.543,9.422-1.141,1.677-7.93.339-8.541,2.355-.59,1.944,5.618,5.125,5.618,7.28,0,31.808-6.69,31.808-6.69,63.615s6.69,31.807,6.69,63.615-6.69,31.806-6.69,63.612,6.69,31.806,6.69,63.612-6.69,31.806-6.69,63.611c0,2.155,6.845,3.125,7.435,5.07.611,2.015-4.372,7.1-3.232,8.779,1.152,1.695,7.22-1.814,8.8-.581,1.567,1.221.318,8.487,2.2,9.141,1.817.632,4.789-6.012,6.8-6.012.574,0,1.132,0,1.683.009C-760.607-3026.031-755.152-3028.821-755.152-3057.54Z"/>
    </clipPath>
  </defs>
  <g id="背景板2" transform="translate(786.992 3361.771)">
    <g id="组_2582" data-name="组 2582">
      <path id="路径_3385" data-name="路径 3385" class="cls-2" d="M-469.152-2980.051c-28.638,0-28.638-7.16-57.276-7.16s-28.639,7.16-57.277,7.16-28.638-7.16-57.276-7.16-28.64,7.16-57.279,7.16-28.64-7.16-57.279-7.16c-1.888,0-4.812,6.686-6.515,6.133-1.766-.573-.2-7.719-1.665-8.789-1.484-1.08-7.794,2.614-8.874,1.13s4.384-6.325,3.811-8.09c-.553-1.7-7.837-2.416-7.837-4.3,0-32.3,7.16-32.3,7.16-64.6s-7.16-32.3-7.16-64.6,7.16-32.3,7.16-64.6-7.16-32.3-7.16-64.6,7.16-32.3,7.16-64.606c0-1.887-6.686-4.811-6.133-6.515.573-1.765,7.719-.195,8.789-1.665s-2.614-7.793-1.129-8.873c1.469-1.07,6.324,4.384,8.089,3.811,1.7-.553,2.416-7.838,4.3-7.838,28.638,0,28.638,7.161,57.276,7.161s28.638-7.161,57.277-7.161,28.638,7.161,57.276,7.161,28.639-7.161,57.279-7.161,28.639,7.161,57.279,7.161c1.887,0,4.811-6.687,6.515-6.134,1.765.574.2,7.72,1.665,8.789s7.793-2.613,8.873-1.129-4.384,6.324-3.811,8.09c.554,1.7,7.838,2.416,7.838,4.3,0,32.3-7.161,32.3-7.161,64.6s7.161,32.3,7.161,64.6-7.161,32.3-7.161,64.6,7.161,32.3,7.161,64.6-7.161,32.3-7.161,64.6c0,1.888,6.687,4.812,6.134,6.515-.574,1.766-7.72.2-8.789,1.665-1.08,1.485,2.613,7.794,1.129,8.874s-6.324-4.384-8.09-3.811C-466.552-2987.335-467.265-2980.051-469.152-2980.051Z"/>
      <path id="路径_3386" data-name="路径 3386" class="cls-3" d="M-469.152-2980.051c-28.638,0-28.638-7.16-57.276-7.16s-28.639,7.16-57.277,7.16-28.638-7.16-57.276-7.16-28.64,7.16-57.279,7.16-28.64-7.16-57.279-7.16c-1.888,0-4.812,6.686-6.515,6.133-1.766-.573-.2-7.719-1.665-8.789-1.484-1.08-7.794,2.614-8.874,1.13s4.384-6.325,3.811-8.09c-.553-1.7-7.837-2.416-7.837-4.3,0-32.3,7.16-32.3,7.16-64.6s-7.16-32.3-7.16-64.6,7.16-32.3,7.16-64.6-7.16-32.3-7.16-64.6,7.16-32.3,7.16-64.606c0-1.887-6.686-4.811-6.133-6.515.573-1.765,7.719-.195,8.789-1.665s-2.614-7.793-1.129-8.873c1.469-1.07,6.324,4.384,8.089,3.811,1.7-.553,2.416-7.838,4.3-7.838,28.638,0,28.638,7.161,57.276,7.161s28.638-7.161,57.277-7.161,28.638,7.161,57.276,7.161,28.639-7.161,57.279-7.161,28.639,7.161,57.279,7.161c1.887,0,4.811-6.687,6.515-6.134,1.765.574.2,7.72,1.665,8.789s7.793-2.613,8.873-1.129-4.384,6.324-3.811,8.09c.554,1.7,7.838,2.416,7.838,4.3,0,32.3-7.161,32.3-7.161,64.6s7.161,32.3,7.161,64.6-7.161,32.3-7.161,64.6,7.161,32.3,7.161,64.6-7.161,32.3-7.161,64.6c0,1.888,6.687,4.812,6.134,6.515-.574,1.766-7.72.2-8.789,1.665-1.08,1.485,2.613,7.794,1.129,8.874s-6.324-4.384-8.09-3.811C-466.552-2987.335-467.265-2980.051-469.152-2980.051Z"/>
    </g>
    <g id="组_2587" data-name="组 2587">
      <g id="组_2586" data-name="组 2586" class="cls-4">
        <g id="组_2585" data-name="组 2585">
          <g id="组_2583" data-name="组 2583">
            <line id="直线_2083" data-name="直线 2083" class="cls-5" y2="441.916" transform="translate(-798.065 -3386.354)"/>
            <line id="直线_2084" data-name="直线 2084" class="cls-5" y2="441.916" transform="translate(-784.308 -3386.354)"/>
            <line id="直线_2085" data-name="直线 2085" class="cls-5" y2="441.916" transform="translate(-770.552 -3386.354)"/>
            <line id="直线_2086" data-name="直线 2086" class="cls-5" y2="441.916" transform="translate(-756.796 -3386.354)"/>
            <line id="直线_2087" data-name="直线 2087" class="cls-5" y2="441.916" transform="translate(-743.039 -3386.354)"/>
            <line id="直线_2088" data-name="直线 2088" class="cls-5" y2="441.916" transform="translate(-729.283 -3386.354)"/>
            <line id="直线_2089" data-name="直线 2089" class="cls-5" y2="441.916" transform="translate(-715.527 -3386.354)"/>
            <line id="直线_2090" data-name="直线 2090" class="cls-5" y2="441.916" transform="translate(-701.77 -3386.354)"/>
            <line id="直线_2091" data-name="直线 2091" class="cls-5" y2="441.916" transform="translate(-688.014 -3386.354)"/>
            <line id="直线_2092" data-name="直线 2092" class="cls-5" y2="441.916" transform="translate(-674.258 -3386.354)"/>
            <line id="直线_2093" data-name="直线 2093" class="cls-5" y2="441.916" transform="translate(-660.501 -3386.354)"/>
            <line id="直线_2094" data-name="直线 2094" class="cls-5" y2="441.916" transform="translate(-646.745 -3386.354)"/>
            <line id="直线_2095" data-name="直线 2095" class="cls-5" y2="441.916" transform="translate(-632.989 -3386.354)"/>
            <line id="直线_2096" data-name="直线 2096" class="cls-5" y2="441.916" transform="translate(-619.232 -3386.354)"/>
            <line id="直线_2097" data-name="直线 2097" class="cls-5" y2="441.916" transform="translate(-605.476 -3386.354)"/>
            <line id="直线_2098" data-name="直线 2098" class="cls-5" y2="441.916" transform="translate(-591.719 -3386.354)"/>
            <line id="直线_2099" data-name="直线 2099" class="cls-5" y2="441.916" transform="translate(-577.963 -3386.354)"/>
            <line id="直线_2100" data-name="直线 2100" class="cls-5" y2="441.916" transform="translate(-564.207 -3386.354)"/>
            <line id="直线_2101" data-name="直线 2101" class="cls-5" y2="441.916" transform="translate(-550.45 -3386.354)"/>
            <line id="直线_2102" data-name="直线 2102" class="cls-5" y2="441.916" transform="translate(-536.694 -3386.354)"/>
            <line id="直线_2103" data-name="直线 2103" class="cls-5" y2="441.916" transform="translate(-522.938 -3386.354)"/>
            <line id="直线_2104" data-name="直线 2104" class="cls-5" y2="441.916" transform="translate(-509.181 -3386.354)"/>
            <line id="直线_2105" data-name="直线 2105" class="cls-5" y2="441.916" transform="translate(-495.425 -3386.354)"/>
            <line id="直线_2106" data-name="直线 2106" class="cls-5" y2="441.916" transform="translate(-481.669 -3386.354)"/>
            <line id="直线_2107" data-name="直线 2107" class="cls-5" y2="441.916" transform="translate(-467.912 -3386.354)"/>
            <line id="直线_2108" data-name="直线 2108" class="cls-5" y2="441.916" transform="translate(-454.156 -3386.354)"/>
            <line id="直线_2109" data-name="直线 2109" class="cls-5" y2="441.916" transform="translate(-440.4 -3386.354)"/>
            <line id="直线_2110" data-name="直线 2110" class="cls-5" y2="441.916" transform="translate(-426.643 -3386.354)"/>
          </g>
          <g id="组_2584" data-name="组 2584">
            <line id="直线_2111" data-name="直线 2111" class="cls-5" y2="441.916" transform="translate(-790.599 -3377.604)"/>
            <line id="直线_2112" data-name="直线 2112" class="cls-5" y2="441.916" transform="translate(-776.843 -3377.604)"/>
            <line id="直线_2113" data-name="直线 2113" class="cls-5" y2="441.916" transform="translate(-763.086 -3377.604)"/>
            <line id="直线_2114" data-name="直线 2114" class="cls-5" y2="441.916" transform="translate(-749.33 -3377.604)"/>
            <line id="直线_2115" data-name="直线 2115" class="cls-5" y2="441.916" transform="translate(-735.574 -3377.604)"/>
            <line id="直线_2116" data-name="直线 2116" class="cls-5" y2="441.916" transform="translate(-721.817 -3377.604)"/>
            <line id="直线_2117" data-name="直线 2117" class="cls-5" y2="441.916" transform="translate(-708.061 -3377.604)"/>
            <line id="直线_2118" data-name="直线 2118" class="cls-5" y2="441.916" transform="translate(-694.305 -3377.604)"/>
            <line id="直线_2119" data-name="直线 2119" class="cls-5" y2="441.916" transform="translate(-680.548 -3377.604)"/>
            <line id="直线_2120" data-name="直线 2120" class="cls-5" y2="441.916" transform="translate(-666.792 -3377.604)"/>
            <line id="直线_2121" data-name="直线 2121" class="cls-5" y2="441.916" transform="translate(-653.036 -3377.604)"/>
            <line id="直线_2122" data-name="直线 2122" class="cls-5" y2="441.916" transform="translate(-639.279 -3377.604)"/>
            <line id="直线_2123" data-name="直线 2123" class="cls-5" y2="441.916" transform="translate(-625.523 -3377.604)"/>
            <line id="直线_2124" data-name="直线 2124" class="cls-5" y2="441.916" transform="translate(-611.766 -3377.604)"/>
            <line id="直线_2125" data-name="直线 2125" class="cls-5" y2="441.916" transform="translate(-598.01 -3377.604)"/>
            <line id="直线_2126" data-name="直线 2126" class="cls-5" y2="441.916" transform="translate(-584.254 -3377.604)"/>
            <line id="直线_2127" data-name="直线 2127" class="cls-5" y2="441.916" transform="translate(-570.497 -3377.604)"/>
            <line id="直线_2128" data-name="直线 2128" class="cls-5" y2="441.916" transform="translate(-556.741 -3377.604)"/>
            <line id="直线_2129" data-name="直线 2129" class="cls-5" y2="441.916" transform="translate(-542.985 -3377.604)"/>
            <line id="直线_2130" data-name="直线 2130" class="cls-5" y2="441.916" transform="translate(-529.228 -3377.604)"/>
            <line id="直线_2131" data-name="直线 2131" class="cls-5" y2="441.916" transform="translate(-515.472 -3377.604)"/>
            <line id="直线_2132" data-name="直线 2132" class="cls-5" y2="441.916" transform="translate(-501.716 -3377.604)"/>
            <line id="直线_2133" data-name="直线 2133" class="cls-5" y2="441.916" transform="translate(-487.959 -3377.604)"/>
            <line id="直线_2134" data-name="直线 2134" class="cls-5" y2="441.916" transform="translate(-474.203 -3377.604)"/>
            <line id="直线_2135" data-name="直线 2135" class="cls-5" y2="441.916" transform="translate(-460.447 -3377.604)"/>
            <line id="直线_2136" data-name="直线 2136" class="cls-5" y2="441.916" transform="translate(-446.69 -3377.604)"/>
            <line id="直线_2137" data-name="直线 2137" class="cls-5" y2="441.916" transform="translate(-432.934 -3377.604)"/>
            <line id="直线_2138" data-name="直线 2138" class="cls-5" y2="441.916" transform="translate(-419.177 -3377.604)"/>
          </g>
        </g>
      </g>
    </g>
    <g id="组_2588" data-name="组 2588">
      <path id="路径_3388" data-name="路径 3388" class="cls-6" d="M-478.126-2995.193c-28.638,0-28.638-7.16-57.276-7.16s-28.638,7.16-57.276,7.16-28.638-7.16-57.277-7.16-28.639,7.16-57.278,7.16-28.64-7.16-57.279-7.16c-1.888,0-4.812,6.686-6.515,6.133-1.766-.573-.2-7.72-1.665-8.789-1.485-1.08-7.794,2.613-8.874,1.129s4.384-6.324,3.811-8.09c-.553-1.7-7.837-2.415-7.837-4.3,0-32.3,7.16-32.3,7.16-64.6s-7.16-32.3-7.16-64.6,7.16-32.3,7.16-64.6-7.16-32.3-7.16-64.606,7.16-32.3,7.16-64.6c0-1.888-6.687-4.812-6.133-6.515.573-1.766,7.719-.2,8.789-1.665,1.08-1.484-2.614-7.794-1.13-8.874s6.325,4.384,8.09,3.811c1.7-.553,2.416-7.837,4.3-7.837,28.638,0,28.638,7.16,57.276,7.16s28.638-7.16,57.276-7.16,28.638,7.16,57.277,7.16,28.639-7.16,57.278-7.16,28.64,7.16,57.279,7.16c1.888,0,4.812-6.686,6.515-6.133,1.766.573.2,7.719,1.665,8.789,1.485,1.08,7.794-2.614,8.874-1.129,1.07,1.469-4.384,6.324-3.811,8.089.553,1.7,7.837,2.416,7.837,4.3,0,32.3-7.16,32.3-7.16,64.6s7.16,32.3,7.16,64.6-7.16,32.3-7.16,64.6,7.16,32.3,7.16,64.6-7.16,32.3-7.16,64.606c0,1.888,6.687,4.811,6.133,6.515-.573,1.765-7.719.2-8.789,1.665s2.614,7.793,1.13,8.874-6.325-4.385-8.09-3.811C-475.526-3002.477-476.238-2995.193-478.126-2995.193Z"/>
      <path id="路径_3389" data-name="路径 3389" class="cls-3" d="M-478.126-2995.193c-28.638,0-28.638-7.16-57.276-7.16s-28.638,7.16-57.276,7.16-28.638-7.16-57.277-7.16-28.639,7.16-57.278,7.16-28.64-7.16-57.279-7.16c-1.888,0-4.812,6.686-6.515,6.133-1.766-.573-.2-7.72-1.665-8.789-1.485-1.08-7.794,2.613-8.874,1.129s4.384-6.324,3.811-8.09c-.553-1.7-7.837-2.415-7.837-4.3,0-32.3,7.16-32.3,7.16-64.6s-7.16-32.3-7.16-64.6,7.16-32.3,7.16-64.6-7.16-32.3-7.16-64.606,7.16-32.3,7.16-64.6c0-1.888-6.687-4.812-6.133-6.515.573-1.766,7.719-.2,8.789-1.665,1.08-1.484-2.614-7.794-1.13-8.874s6.325,4.384,8.09,3.811c1.7-.553,2.416-7.837,4.3-7.837,28.638,0,28.638,7.16,57.276,7.16s28.638-7.16,57.276-7.16,28.638,7.16,57.277,7.16,28.639-7.16,57.278-7.16,28.64,7.16,57.279,7.16c1.888,0,4.812-6.686,6.515-6.133,1.766.573.2,7.719,1.665,8.789,1.485,1.08,7.794-2.614,8.874-1.129,1.07,1.469-4.384,6.324-3.811,8.089.553,1.7,7.837,2.416,7.837,4.3,0,32.3-7.16,32.3-7.16,64.6s7.16,32.3,7.16,64.6-7.16,32.3-7.16,64.6,7.16,32.3,7.16,64.6-7.16,32.3-7.16,64.606c0,1.888,6.687,4.811,6.133,6.515-.573,1.765-7.719.2-8.789,1.665s2.614,7.793,1.13,8.874-6.325-4.385-8.09-3.811C-475.526-3002.477-476.238-2995.193-478.126-2995.193Z"/>
    </g>
    <g id="组_2652" data-name="组 2652">
      <g id="组_2651" data-name="组 2651" class="cls-7">
        <g id="组_2650" data-name="组 2650">
          <g id="组_2589" data-name="组 2589">
            <rect id="矩形_47416" data-name="矩形 47416" width="542.403" height="0.7" transform="translate(-1013.691 -3172.432) rotate(-46.949)"/>
          </g>
          <g id="组_2590" data-name="组 2590">
            <rect id="矩形_47417" data-name="矩形 47417" width="542.403" height="0.7" transform="translate(-1008.913 -3167.319) rotate(-46.949)"/>
          </g>
          <g id="组_2591" data-name="组 2591">
            <rect id="矩形_47418" data-name="矩形 47418" width="542.403" height="0.7" transform="translate(-1004.135 -3162.205) rotate(-46.949)"/>
          </g>
          <g id="组_2592" data-name="组 2592">
            <rect id="矩形_47419" data-name="矩形 47419" width="542.403" height="0.7" transform="translate(-999.357 -3157.091) rotate(-46.949)"/>
          </g>
          <g id="组_2593" data-name="组 2593">
            <rect id="矩形_47420" data-name="矩形 47420" width="542.403" height="0.7" transform="translate(-994.579 -3151.977) rotate(-46.949)"/>
          </g>
          <g id="组_2594" data-name="组 2594">
            <rect id="矩形_47421" data-name="矩形 47421" width="542.403" height="0.7" transform="translate(-989.801 -3146.863) rotate(-46.949)"/>
          </g>
          <g id="组_2595" data-name="组 2595">
            <rect id="矩形_47422" data-name="矩形 47422" width="542.403" height="0.7" transform="translate(-985.023 -3141.749) rotate(-46.949)"/>
          </g>
          <g id="组_2596" data-name="组 2596">
            <rect id="矩形_47423" data-name="矩形 47423" width="542.403" height="0.7" transform="translate(-980.245 -3136.635) rotate(-46.949)"/>
          </g>
          <g id="组_2597" data-name="组 2597">
            <rect id="矩形_47424" data-name="矩形 47424" width="542.403" height="0.7" transform="translate(-975.466 -3131.521) rotate(-46.949)"/>
          </g>
          <g id="组_2598" data-name="组 2598">
            <rect id="矩形_47425" data-name="矩形 47425" width="542.403" height="0.7" transform="translate(-970.689 -3126.407) rotate(-46.949)"/>
          </g>
          <g id="组_2599" data-name="组 2599">
            <rect id="矩形_47426" data-name="矩形 47426" width="542.403" height="0.7" transform="translate(-965.91 -3121.293) rotate(-46.949)"/>
          </g>
          <g id="组_2600" data-name="组 2600">
            <rect id="矩形_47427" data-name="矩形 47427" width="542.403" height="0.7" transform="translate(-961.132 -3116.179) rotate(-46.949)"/>
          </g>
          <g id="组_2601" data-name="组 2601">
            <rect id="矩形_47428" data-name="矩形 47428" width="542.403" height="0.7" transform="translate(-956.354 -3111.065) rotate(-46.949)"/>
          </g>
          <g id="组_2602" data-name="组 2602">
            <rect id="矩形_47429" data-name="矩形 47429" width="542.403" height="0.7" transform="translate(-951.576 -3105.951) rotate(-46.949)"/>
          </g>
          <g id="组_2603" data-name="组 2603">
            <rect id="矩形_47430" data-name="矩形 47430" width="542.403" height="0.7" transform="translate(-946.798 -3100.837) rotate(-46.949)"/>
          </g>
          <g id="组_2604" data-name="组 2604">
            <rect id="矩形_47431" data-name="矩形 47431" width="542.403" height="0.7" transform="translate(-942.02 -3095.723) rotate(-46.949)"/>
          </g>
          <g id="组_2605" data-name="组 2605">
            <rect id="矩形_47432" data-name="矩形 47432" width="542.403" height="0.7" transform="translate(-937.242 -3090.609) rotate(-46.949)"/>
          </g>
          <g id="组_2606" data-name="组 2606">
            <rect id="矩形_47433" data-name="矩形 47433" width="542.403" height="0.7" transform="translate(-932.464 -3085.495) rotate(-46.949)"/>
          </g>
          <g id="组_2607" data-name="组 2607">
            <rect id="矩形_47434" data-name="矩形 47434" width="542.403" height="0.7" transform="translate(-927.686 -3080.381) rotate(-46.949)"/>
          </g>
          <g id="组_2608" data-name="组 2608">
            <rect id="矩形_47435" data-name="矩形 47435" width="542.403" height="0.7" transform="translate(-922.908 -3075.267) rotate(-46.949)"/>
          </g>
          <g id="组_2609" data-name="组 2609">
            <rect id="矩形_47436" data-name="矩形 47436" width="542.403" height="0.7" transform="translate(-918.13 -3070.154) rotate(-46.949)"/>
          </g>
          <g id="组_2610" data-name="组 2610">
            <rect id="矩形_47437" data-name="矩形 47437" width="542.403" height="0.7" transform="translate(-913.351 -3065.04) rotate(-46.949)"/>
          </g>
          <g id="组_2611" data-name="组 2611">
            <rect id="矩形_47438" data-name="矩形 47438" width="542.403" height="0.7" transform="translate(-908.573 -3059.926) rotate(-46.949)"/>
          </g>
          <g id="组_2612" data-name="组 2612">
            <rect id="矩形_47439" data-name="矩形 47439" width="542.403" height="0.7" transform="translate(-903.795 -3054.812) rotate(-46.949)"/>
          </g>
          <g id="组_2613" data-name="组 2613">
            <rect id="矩形_47440" data-name="矩形 47440" width="542.403" height="0.7" transform="translate(-899.017 -3049.698) rotate(-46.949)"/>
          </g>
          <g id="组_2614" data-name="组 2614">
            <rect id="矩形_47441" data-name="矩形 47441" width="542.403" height="0.7" transform="translate(-894.239 -3044.584) rotate(-46.949)"/>
          </g>
          <g id="组_2615" data-name="组 2615">
            <rect id="矩形_47442" data-name="矩形 47442" width="542.403" height="0.7" transform="translate(-889.461 -3039.47) rotate(-46.949)"/>
          </g>
          <g id="组_2616" data-name="组 2616">
            <rect id="矩形_47443" data-name="矩形 47443" width="542.403" height="0.7" transform="translate(-884.683 -3034.356) rotate(-46.949)"/>
          </g>
          <g id="组_2617" data-name="组 2617">
            <rect id="矩形_47444" data-name="矩形 47444" width="542.403" height="0.7" transform="translate(-879.905 -3029.242) rotate(-46.949)"/>
          </g>
          <g id="组_2618" data-name="组 2618">
            <rect id="矩形_47445" data-name="矩形 47445" width="542.403" height="0.7" transform="translate(-875.127 -3024.128) rotate(-46.949)"/>
          </g>
          <g id="组_2619" data-name="组 2619">
            <rect id="矩形_47446" data-name="矩形 47446" width="542.403" height="0.7" transform="translate(-870.349 -3019.014) rotate(-46.949)"/>
          </g>
          <g id="组_2620" data-name="组 2620">
            <rect id="矩形_47447" data-name="矩形 47447" width="542.403" height="0.7" transform="translate(-865.57 -3013.9) rotate(-46.949)"/>
          </g>
          <g id="组_2621" data-name="组 2621">
            <rect id="矩形_47448" data-name="矩形 47448" width="542.403" height="0.7" transform="translate(-860.793 -3008.786) rotate(-46.949)"/>
          </g>
          <g id="组_2622" data-name="组 2622">
            <rect id="矩形_47449" data-name="矩形 47449" width="542.403" height="0.7" transform="translate(-856.014 -3003.672) rotate(-46.949)"/>
          </g>
          <g id="组_2623" data-name="组 2623">
            <rect id="矩形_47450" data-name="矩形 47450" width="542.403" height="0.7" transform="translate(-851.236 -2998.558) rotate(-46.949)"/>
          </g>
          <g id="组_2624" data-name="组 2624">
            <rect id="矩形_47451" data-name="矩形 47451" width="542.403" height="0.7" transform="translate(-846.458 -2993.444) rotate(-46.949)"/>
          </g>
          <g id="组_2625" data-name="组 2625">
            <rect id="矩形_47452" data-name="矩形 47452" width="542.403" height="0.7" transform="translate(-841.68 -2988.33) rotate(-46.949)"/>
          </g>
          <g id="组_2626" data-name="组 2626">
            <rect id="矩形_47453" data-name="矩形 47453" width="542.403" height="0.7" transform="translate(-836.902 -2983.216) rotate(-46.949)"/>
          </g>
          <g id="组_2627" data-name="组 2627">
            <rect id="矩形_47454" data-name="矩形 47454" width="542.403" height="0.7" transform="translate(-832.124 -2978.102) rotate(-46.949)"/>
          </g>
          <g id="组_2628" data-name="组 2628">
            <rect id="矩形_47455" data-name="矩形 47455" width="542.403" height="0.7" transform="translate(-827.346 -2972.988) rotate(-46.949)"/>
          </g>
          <g id="组_2629" data-name="组 2629">
            <rect id="矩形_47456" data-name="矩形 47456" width="542.403" height="0.7" transform="translate(-822.568 -2967.875) rotate(-46.949)"/>
          </g>
          <g id="组_2630" data-name="组 2630">
            <rect id="矩形_47457" data-name="矩形 47457" width="542.403" height="0.7" transform="translate(-817.79 -2962.76) rotate(-46.949)"/>
          </g>
          <g id="组_2631" data-name="组 2631">
            <rect id="矩形_47458" data-name="矩形 47458" width="542.403" height="0.7" transform="translate(-813.012 -2957.646) rotate(-46.949)"/>
          </g>
          <g id="组_2632" data-name="组 2632">
            <rect id="矩形_47459" data-name="矩形 47459" width="542.403" height="0.7" transform="translate(-808.234 -2952.533) rotate(-46.949)"/>
          </g>
          <g id="组_2633" data-name="组 2633">
            <rect id="矩形_47460" data-name="矩形 47460" width="542.403" height="0.7" transform="translate(-803.455 -2947.419) rotate(-46.949)"/>
          </g>
          <g id="组_2634" data-name="组 2634">
            <rect id="矩形_47461" data-name="矩形 47461" width="542.403" height="0.7" transform="translate(-798.677 -2942.305) rotate(-46.949)"/>
          </g>
          <g id="组_2635" data-name="组 2635">
            <rect id="矩形_47462" data-name="矩形 47462" width="542.403" height="0.7" transform="translate(-793.899 -2937.191) rotate(-46.949)"/>
          </g>
          <g id="组_2636" data-name="组 2636">
            <rect id="矩形_47463" data-name="矩形 47463" width="542.403" height="0.7" transform="translate(-789.121 -2932.077) rotate(-46.949)"/>
          </g>
          <g id="组_2637" data-name="组 2637">
            <rect id="矩形_47464" data-name="矩形 47464" width="542.403" height="0.7" transform="translate(-784.343 -2926.963) rotate(-46.949)"/>
          </g>
          <g id="组_2638" data-name="组 2638">
            <rect id="矩形_47465" data-name="矩形 47465" width="542.403" height="0.7" transform="translate(-779.565 -2921.849) rotate(-46.949)"/>
          </g>
          <g id="组_2639" data-name="组 2639">
            <rect id="矩形_47466" data-name="矩形 47466" width="542.403" height="0.7" transform="translate(-774.787 -2916.735) rotate(-46.949)"/>
          </g>
          <g id="组_2640" data-name="组 2640">
            <rect id="矩形_47467" data-name="矩形 47467" width="542.403" height="0.7" transform="translate(-770.009 -2911.621) rotate(-46.949)"/>
          </g>
          <g id="组_2641" data-name="组 2641">
            <rect id="矩形_47468" data-name="矩形 47468" width="542.403" height="0.7" transform="translate(-765.231 -2906.507) rotate(-46.949)"/>
          </g>
          <g id="组_2642" data-name="组 2642">
            <rect id="矩形_47469" data-name="矩形 47469" width="542.403" height="0.7" transform="translate(-760.453 -2901.393) rotate(-46.949)"/>
          </g>
          <g id="组_2643" data-name="组 2643">
            <rect id="矩形_47470" data-name="矩形 47470" width="542.403" height="0.7" transform="translate(-755.674 -2896.279) rotate(-46.949)"/>
          </g>
          <g id="组_2644" data-name="组 2644">
            <rect id="矩形_47471" data-name="矩形 47471" width="542.403" height="0.7" transform="translate(-750.897 -2891.165) rotate(-46.949)"/>
          </g>
          <g id="组_2645" data-name="组 2645">
            <rect id="矩形_47472" data-name="矩形 47472" width="542.403" height="0.7" transform="translate(-746.118 -2886.051) rotate(-46.949)"/>
          </g>
          <g id="组_2646" data-name="组 2646">
            <rect id="矩形_47473" data-name="矩形 47473" width="542.403" height="0.7" transform="translate(-741.34 -2880.937) rotate(-46.949)"/>
          </g>
          <g id="组_2647" data-name="组 2647">
            <rect id="矩形_47474" data-name="矩形 47474" width="542.403" height="0.7" transform="translate(-736.562 -2875.823) rotate(-46.949)"/>
          </g>
          <g id="组_2648" data-name="组 2648">
            <rect id="矩形_47475" data-name="矩形 47475" width="542.403" height="0.7" transform="translate(-731.784 -2870.709) rotate(-46.949)"/>
          </g>
          <g id="组_2649" data-name="组 2649">
            <rect id="矩形_47476" data-name="矩形 47476" width="542.403" height="0.7" transform="translate(-727.006 -2865.595) rotate(-46.949)"/>
          </g>
        </g>
      </g>
    </g>
  </g>
</svg>
