<svg xmlns="http://www.w3.org/2000/svg" xmlns:xlink="http://www.w3.org/1999/xlink" width="380.813" height="268.301" viewBox="0 0 380.813 268.301">
  <defs>
    <style>
      .cls-1, .cls-14, .cls-8 {
        fill: #6e95ff;
      }

      .cls-1, .cls-10, .cls-11, .cls-16, .cls-17, .cls-19, .cls-20, .cls-21, .cls-22, .cls-26, .cls-27, .cls-28, .cls-29, .cls-30, .cls-6, .cls-9 {
        stroke: #000;
      }

      .cls-1, .cls-16, .cls-17, .cls-19, .cls-21, .cls-23, .cls-24, .cls-27, .cls-28, .cls-30, .cls-33, .cls-34, .cls-37, .cls-39, .cls-40, .cls-41, .cls-6, .cls-7, .cls-8 {
        stroke-linecap: round;
        stroke-linejoin: round;
      }

      .cls-1, .cls-16, .cls-17, .cls-19, .cls-21, .cls-28, .cls-30, .cls-33, .cls-34, .cls-37, .cls-6, .cls-7, .cls-8 {
        stroke-width: 2.8px;
      }

      .cls-16, .cls-17, .cls-2, .cls-23, .cls-24, .cls-37, .cls-39, .cls-6, .cls-7 {
        fill: none;
      }

      .cls-3 {
        fill: #4510dc;
        opacity: 0.8;
      }

      .cls-4 {
        mix-blend-mode: soft-light;
      }

      .cls-16, .cls-32, .cls-4 {
        isolation: isolate;
      }

      .cls-5 {
        fill: #fffdff;
      }

      .cls-6, .cls-7 {
        stroke-dasharray: 2.8 8.4 14 8.4;
      }

      .cls-7 {
        stroke: #ffda34;
      }

      .cls-12, .cls-13, .cls-8 {
        stroke: #070707;
      }

      .cls-13, .cls-9 {
        fill: #cbcbcb;
      }

      .cls-10, .cls-11, .cls-12, .cls-13, .cls-20, .cls-22, .cls-26, .cls-29, .cls-9 {
        stroke-miterlimit: 10;
      }

      .cls-10, .cls-11, .cls-12, .cls-13, .cls-27, .cls-39, .cls-40, .cls-41, .cls-9 {
        stroke-width: 1.4px;
      }

      .cls-10, .cls-12 {
        fill: #e5e5e5;
      }

      .cls-11, .cls-19, .cls-27 {
        fill: #fff;
      }

      .cls-15 {
        clip-path: url(#clip-path);
      }

      .cls-16 {
        mix-blend-mode: screen;
      }

      .cls-18 {
        fill: #5170fc;
      }

      .cls-20 {
        fill: #aae869;
      }

      .cls-21 {
        fill: #cf4d3e;
      }

      .cls-22 {
        fill: #da6e58;
      }

      .cls-23, .cls-24 {
        stroke: #fff;
        opacity: 0.6;
      }

      .cls-23 {
        stroke-width: 7px;
      }

      .cls-24 {
        stroke-width: 3.5px;
      }

      .cls-25, .cls-29, .cls-30 {
        fill: #f4d076;
      }

      .cls-26 {
        fill: #f4c151;
      }

      .cls-28 {
        fill: #f9e6ae;
      }

      .cls-31, .cls-33 {
        fill: #6887de;
      }

      .cls-33, .cls-34, .cls-37, .cls-39, .cls-40, .cls-41 {
        stroke: #191919;
      }

      .cls-34 {
        fill: #8ec7f9;
      }

      .cls-35 {
        clip-path: url(#clip-path-2);
      }

      .cls-36 {
        fill: #ffeddd;
      }

      .cls-38 {
        clip-path: url(#clip-path-3);
      }

      .cls-40 {
        fill: #ff4a4a;
      }

      .cls-41 {
        fill: #ff4f23;
      }
    </style>
    <clipPath id="clip-path">
      <path id="路径_3315" data-name="路径 3315" class="cls-1" d="M-606.766-3394.921l26.047,5.218a.877.877,0,0,0,.864-1.427l-24.979-26.883a5.21,5.21,0,0,0-3-1.586l-25.464-4.08Z"/>
    </clipPath>
    <clipPath id="clip-path-2">
      <path id="路径_3299" data-name="路径 3299" class="cls-2" d="M-605.926-3474.8a1.653,1.653,0,0,1-.054.272c-.008.028-.014.055-.023.083a2.181,2.181,0,0,1-.153.343c-.044.079-.093.158-.149.239-.011.016-.024.032-.036.048-.049.068-.1.135-.16.2l-.075.088c-.054.06-.112.121-.172.182-.027.028-.053.055-.082.082-.068.066-.143.133-.219.2-.027.025-.053.049-.081.073-.107.091-.22.182-.341.274-.045.035-.095.069-.142.1-.085.062-.169.125-.261.188-.058.04-.121.08-.182.121-.087.057-.172.115-.265.173-.141.089-.29.179-.443.269l-.09.054c-.187.108-.384.217-.589.327l-.111.058q-.306.162-.638.327l-.241.117c-.2.1-.411.2-.626.295-.075.035-.148.07-.225.1-.271.123-.549.246-.841.37l-17.949,7.651s2.835,5.849,2.894,7.955c.077,2.713-3.143,10.425-3.143,10.425l17.949-7.651c.291-.124.569-.247.84-.369l.075-.033.151-.071q.322-.149.625-.3l.242-.118q.332-.164.637-.326c.029-.016.062-.031.091-.046l.021-.012q.308-.165.588-.327c.033-.019.062-.038.094-.057.152-.089.3-.178.439-.266l.032-.019c.082-.052.157-.1.234-.156.061-.04.124-.08.182-.12.09-.062.174-.124.258-.186.048-.035.1-.07.145-.1l.011-.008c.116-.089.225-.178.329-.266l.083-.074c.061-.054.123-.108.179-.161l.039-.038.081-.082c.06-.061.118-.122.172-.183.026-.029.052-.058.076-.087s.036-.04.051-.059c.039-.048.073-.1.108-.143l.037-.05c.051-.074.1-.148.14-.221l.008-.018a2.052,2.052,0,0,0,.153-.343c0-.009.01-.019.013-.028s.005-.036.01-.054a1.486,1.486,0,0,0,.054-.272c0-.018.01-.037.011-.054s0-.053,0-.078l.25-18.381C-605.913-3474.885-605.922-3474.841-605.926-3474.8Z"/>
    </clipPath>
    <clipPath id="clip-path-3">
      <path id="路径_3304" data-name="路径 3304" class="cls-2" d="M-631.842-3462.986s2.945,6.583,2.91,8.883-3.192,8.853-3.192,8.853l-68.381-10.554s3.141-6.414,3.189-8.681c.05-2.341-2.907-9.055-2.907-9.055l27.006,4.168,5.352.826Z"/>
    </clipPath>
  </defs>
  <g id="标题栏底层-煎饼等" transform="translate(17.128 -63.497)">
    <circle id="椭圆_624" data-name="椭圆 624" class="cls-3" cx="79.855" cy="79.855" r="79.855" transform="translate(107.375 83.338)"/>
    <g id="组_2470" data-name="组 2470" class="cls-4" transform="translate(807.792 3606.24)">
      <g id="组_2475" data-name="组 2475">
        <circle id="椭圆_625" data-name="椭圆 625" class="cls-5" cx="0.657" cy="0.657" r="0.657" transform="translate(-560.501 -3503.342)"/>
        <circle id="椭圆_626" data-name="椭圆 626" class="cls-5" cx="0.876" cy="0.876" r="0.876" transform="translate(-574.387 -3507.282)"/>
        <circle id="椭圆_627" data-name="椭圆 627" class="cls-5" cx="1.095" cy="1.095" r="1.095" transform="translate(-588.273 -3511.222)"/>
        <circle id="椭圆_628" data-name="椭圆 628" class="cls-5" cx="1.314" cy="1.314" r="1.314" transform="translate(-602.159 -3515.162)"/>
        <circle id="椭圆_629" data-name="椭圆 629" class="cls-5" cx="1.532" cy="1.532" r="1.532" transform="translate(-616.045 -3519.102)"/>
        <circle id="椭圆_630" data-name="椭圆 630" class="cls-5" cx="1.751" cy="1.751" r="1.751" transform="translate(-629.931 -3523.042)"/>
        <circle id="椭圆_631" data-name="椭圆 631" class="cls-5" cx="1.97" cy="1.97" r="1.97" transform="translate(-643.817 -3526.982)"/>
        <circle id="椭圆_632" data-name="椭圆 632" class="cls-5" cx="2.189" cy="2.189" r="2.189" transform="translate(-657.703 -3530.922)"/>
        <circle id="椭圆_633" data-name="椭圆 633" class="cls-5" cx="2.408" cy="2.408" r="2.408" transform="translate(-671.589 -3534.863)"/>
        <circle id="椭圆_634" data-name="椭圆 634" class="cls-5" cx="2.627" cy="2.627" r="2.627" transform="translate(-685.475 -3538.803)"/>
        <circle id="椭圆_635" data-name="椭圆 635" class="cls-5" cx="2.846" cy="2.846" r="2.846" transform="translate(-699.361 -3542.743)"/>
      </g>
      <g id="组_2476" data-name="组 2476">
        <circle id="椭圆_636" data-name="椭圆 636" class="cls-5" cx="0.93" cy="0.93" r="0.93" transform="translate(-588.711 -3455.178)"/>
        <circle id="椭圆_637" data-name="椭圆 637" class="cls-5" cx="1.122" cy="1.122" r="1.122" transform="translate(-602.57 -3459.091)"/>
        <circle id="椭圆_638" data-name="椭圆 638" class="cls-5" cx="1.314" cy="1.314" r="1.314" transform="translate(-616.428 -3463.003)"/>
        <circle id="椭圆_639" data-name="椭圆 639" class="cls-5" cx="1.505" cy="1.505" r="1.505" transform="translate(-630.287 -3466.916)"/>
        <circle id="椭圆_640" data-name="椭圆 640" class="cls-5" cx="1.697" cy="1.697" r="1.697" transform="translate(-644.145 -3470.829)"/>
        <circle id="椭圆_641" data-name="椭圆 641" class="cls-5" cx="1.888" cy="1.888" r="1.888" transform="translate(-658.004 -3474.742)"/>
        <circle id="椭圆_642" data-name="椭圆 642" class="cls-5" cx="2.08" cy="2.08" r="2.08" transform="translate(-671.863 -3478.655)"/>
        <circle id="椭圆_643" data-name="椭圆 643" class="cls-5" cx="2.271" cy="2.271" r="2.271" transform="translate(-685.721 -3482.567)"/>
        <circle id="椭圆_644" data-name="椭圆 644" class="cls-5" cx="2.463" cy="2.463" r="2.463" transform="translate(-699.58 -3486.48)"/>
        <circle id="椭圆_645" data-name="椭圆 645" class="cls-5" cx="2.654" cy="2.654" r="2.654" transform="translate(-713.439 -3490.393)"/>
        <circle id="椭圆_646" data-name="椭圆 646" class="cls-5" cx="2.846" cy="2.846" r="2.846" transform="translate(-727.297 -3494.305)"/>
      </g>
      <g id="组_2477" data-name="组 2477">
        <circle id="椭圆_647" data-name="椭圆 647" class="cls-5" cx="2.846" cy="2.846" r="2.846" transform="translate(-602.603 -3445.606)"/>
        <circle id="椭圆_648" data-name="椭圆 648" class="cls-5" cx="2.654" cy="2.654" r="2.654" transform="translate(-616.079 -3449.136)"/>
        <circle id="椭圆_649" data-name="椭圆 649" class="cls-5" cx="2.463" cy="2.463" r="2.463" transform="translate(-629.554 -3452.666)"/>
        <circle id="椭圆_650" data-name="椭圆 650" class="cls-5" cx="2.271" cy="2.271" r="2.271" transform="translate(-643.03 -3456.195)"/>
        <circle id="椭圆_651" data-name="椭圆 651" class="cls-5" cx="2.08" cy="2.08" r="2.08" transform="translate(-656.505 -3459.725)"/>
        <circle id="椭圆_652" data-name="椭圆 652" class="cls-5" cx="1.888" cy="1.888" r="1.888" transform="translate(-669.981 -3463.254)"/>
        <circle id="椭圆_653" data-name="椭圆 653" class="cls-5" cx="1.697" cy="1.697" r="1.697" transform="translate(-683.456 -3466.784)"/>
        <circle id="椭圆_654" data-name="椭圆 654" class="cls-5" cx="1.505" cy="1.505" r="1.505" transform="translate(-696.932 -3470.314)"/>
        <circle id="椭圆_655" data-name="椭圆 655" class="cls-5" cx="1.314" cy="1.314" r="1.314" transform="translate(-710.407 -3473.843)"/>
        <circle id="椭圆_656" data-name="椭圆 656" class="cls-5" cx="1.122" cy="1.122" r="1.122" transform="translate(-723.883 -3477.373)"/>
        <circle id="椭圆_657" data-name="椭圆 657" class="cls-5" cx="0.93" cy="0.93" r="0.93" transform="translate(-737.358 -3480.903)"/>
      </g>
      <g id="组_2478" data-name="组 2478">
        <circle id="椭圆_658" data-name="椭圆 658" class="cls-5" cx="0.93" cy="0.93" r="0.93" transform="translate(-568.251 -3476.154)"/>
        <circle id="椭圆_659" data-name="椭圆 659" class="cls-5" cx="1.122" cy="1.122" r="1.122" transform="translate(-582.11 -3480.067)"/>
        <circle id="椭圆_660" data-name="椭圆 660" class="cls-5" cx="1.314" cy="1.314" r="1.314" transform="translate(-595.969 -3483.98)"/>
        <circle id="椭圆_661" data-name="椭圆 661" class="cls-5" cx="1.505" cy="1.505" r="1.505" transform="translate(-609.827 -3487.893)"/>
        <circle id="椭圆_662" data-name="椭圆 662" class="cls-5" cx="1.697" cy="1.697" r="1.697" transform="translate(-623.686 -3491.805)"/>
        <circle id="椭圆_663" data-name="椭圆 663" class="cls-5" cx="1.888" cy="1.888" r="1.888" transform="translate(-637.544 -3495.718)"/>
        <circle id="椭圆_664" data-name="椭圆 664" class="cls-5" cx="2.08" cy="2.08" r="2.08" transform="translate(-651.403 -3499.631)"/>
        <circle id="椭圆_665" data-name="椭圆 665" class="cls-5" cx="2.271" cy="2.271" r="2.271" transform="translate(-665.262 -3503.544)"/>
        <circle id="椭圆_666" data-name="椭圆 666" class="cls-5" cx="2.463" cy="2.463" r="2.463" transform="translate(-679.12 -3507.456)"/>
        <circle id="椭圆_667" data-name="椭圆 667" class="cls-5" cx="2.654" cy="2.654" r="2.654" transform="translate(-692.979 -3511.369)"/>
        <circle id="椭圆_668" data-name="椭圆 668" class="cls-5" cx="2.846" cy="2.846" r="2.846" transform="translate(-706.838 -3515.282)"/>
      </g>
      <g id="组_2479" data-name="组 2479">
        <circle id="椭圆_669" data-name="椭圆 669" class="cls-5" cx="2.846" cy="2.846" r="2.846" transform="translate(-558.19 -3489.557)"/>
        <circle id="椭圆_670" data-name="椭圆 670" class="cls-5" cx="2.707" cy="2.707" r="2.707" transform="translate(-571.973 -3493.209)"/>
        <circle id="椭圆_671" data-name="椭圆 671" class="cls-5" cx="2.567" cy="2.567" r="2.567" transform="translate(-585.756 -3496.86)"/>
        <circle id="椭圆_672" data-name="椭圆 672" class="cls-5" cx="2.428" cy="2.428" r="2.428" transform="translate(-599.54 -3500.511)"/>
        <circle id="椭圆_673" data-name="椭圆 673" class="cls-5" cx="2.289" cy="2.289" r="2.289" transform="translate(-613.323 -3504.163)"/>
        <circle id="椭圆_674" data-name="椭圆 674" class="cls-5" cx="2.149" cy="2.149" r="2.149" transform="translate(-627.106 -3507.814)"/>
        <circle id="椭圆_675" data-name="椭圆 675" class="cls-5" cx="2.01" cy="2.01" r="2.01" transform="translate(-640.889 -3511.466)"/>
        <circle id="椭圆_676" data-name="椭圆 676" class="cls-5" cx="1.871" cy="1.871" r="1.871" transform="translate(-654.672 -3515.117)"/>
        <circle id="椭圆_677" data-name="椭圆 677" class="cls-5" cx="1.732" cy="1.732" r="1.732" transform="translate(-668.455 -3518.769)"/>
        <circle id="椭圆_678" data-name="椭圆 678" class="cls-5" cx="1.592" cy="1.592" r="1.592" transform="translate(-682.239 -3522.42)"/>
        <circle id="椭圆_679" data-name="椭圆 679" class="cls-5" cx="1.453" cy="1.453" r="1.453" transform="translate(-696.022 -3526.072)"/>
        <circle id="椭圆_680" data-name="椭圆 680" class="cls-5" cx="1.314" cy="1.314" r="1.314" transform="translate(-709.805 -3529.723)"/>
      </g>
      <g id="组_2480" data-name="组 2480">
        <circle id="椭圆_681" data-name="椭圆 681" class="cls-5" cx="2.846" cy="2.846" r="2.846" transform="translate(-564.919 -3464.843)"/>
        <circle id="椭圆_682" data-name="椭圆 682" class="cls-5" cx="2.686" cy="2.686" r="2.686" transform="translate(-577.522 -3468.158)"/>
        <circle id="椭圆_683" data-name="椭圆 683" class="cls-5" cx="2.527" cy="2.527" r="2.527" transform="translate(-590.125 -3471.473)"/>
        <circle id="椭圆_684" data-name="椭圆 684" class="cls-5" cx="2.367" cy="2.367" r="2.367" transform="translate(-602.727 -3474.788)"/>
        <circle id="椭圆_685" data-name="椭圆 685" class="cls-5" cx="2.208" cy="2.208" r="2.208" transform="translate(-615.33 -3478.103)"/>
        <circle id="椭圆_686" data-name="椭圆 686" class="cls-5" cx="2.048" cy="2.048" r="2.048" transform="translate(-627.933 -3481.418)"/>
        <circle id="椭圆_687" data-name="椭圆 687" class="cls-5" cx="1.888" cy="1.888" r="1.888" transform="translate(-640.535 -3484.734)"/>
        <circle id="椭圆_688" data-name="椭圆 688" class="cls-5" cx="1.729" cy="1.729" r="1.729" transform="translate(-653.138 -3488.049)"/>
        <circle id="椭圆_689" data-name="椭圆 689" class="cls-5" cx="1.569" cy="1.569" r="1.569" transform="translate(-665.74 -3491.364)"/>
        <circle id="椭圆_690" data-name="椭圆 690" class="cls-5" cx="1.409" cy="1.409" r="1.409" transform="translate(-678.343 -3494.679)"/>
        <circle id="椭圆_691" data-name="椭圆 691" class="cls-5" cx="1.25" cy="1.25" r="1.25" transform="translate(-690.946 -3497.995)"/>
        <circle id="椭圆_692" data-name="椭圆 692" class="cls-5" cx="1.09" cy="1.09" r="1.09" transform="translate(-703.548 -3501.31)"/>
        <circle id="椭圆_693" data-name="椭圆 693" class="cls-5" cx="0.93" cy="0.93" r="0.93" transform="translate(-716.151 -3504.625)"/>
      </g>
    </g>
    <g id="组_3011" data-name="组 3011">
      <path id="路径_3271" data-name="路径 3271" class="cls-6" d="M-810.207-3276.371c65.007-40.546,97.176-59.311,158.833-70.034s202.73,12.733,203.065-63.332-36.4-93.784-92.4-90.984c-43.255,2.163-122.541,85.683-173.6,70-51.709-15.883-110.06-70.875-109.2-70" transform="translate(807.792 3606.24)"/>
      <path id="路径_3272" data-name="路径 3272" class="cls-7" d="M-807.407-3279.171c65.007-40.546,97.176-59.311,158.833-70.034s202.73,12.733,203.065-63.332-36.4-93.784-92.4-90.984c-43.255,2.163-122.541,85.683-173.6,70-51.709-15.883-110.06-70.875-109.2-70" transform="translate(807.792 3606.24)"/>
    </g>
    <g id="组_2472" data-name="组 2472" transform="translate(807.792 3606.24)">
      <path id="路径_3307" data-name="路径 3307" class="cls-8" d="M-616.581-3383.311c-.29.563,1.467,1.817,2.025,2.139l19.529,12.164a1.292,1.292,0,0,0,1.726-.428,1.18,1.18,0,0,0-.407-1.664l-21.412-12.4a1.292,1.292,0,0,0-1.725.428C-616.865-3383.037-616.564-3383.343-616.581-3383.311Z"/>
      <path id="路径_3308" data-name="路径 3308" class="cls-9" d="M-594.505-3372.54l-21.72-10.479a.824.824,0,0,1-.277-.214c-1.78-2.128-24.157-28.884-23.985-29.13s25.386,15.688,27.059,16.745a.792.792,0,0,1,.162.137l19.821,21.613A.867.867,0,0,1-594.505-3372.54Z"/>
      <path id="路径_3309" data-name="路径 3309" class="cls-10" d="M-593.031-3374.52l-22.424-10.5a.854.854,0,0,1-.3-.231l-21.914-26.907a.853.853,0,0,1,.6-1.371l10.279-1.263a.874.874,0,0,1,.762.283l34.058,38.675A.867.867,0,0,1-593.031-3374.52Z"/>
      <path id="路径_3310" data-name="路径 3310" class="cls-11" d="M-588.75-3378.039l-24.969-9.057a.837.837,0,0,1-.394-.293l-21.933-29.868a.861.861,0,0,1,.821-1.341l21.267,2.106a.859.859,0,0,1,.621.358l25.636,36.82A.868.868,0,0,1-588.75-3378.039Z"/>
      <path id="路径_3311" data-name="路径 3311" class="cls-12" d="M-584.58-3382.822l-26.969-8.556a.854.854,0,0,1-.367-.232l-23.732-25.54a.858.858,0,0,1,.761-1.414l24.532,2.429a.86.86,0,0,1,.58.3l26.169,31.668A.866.866,0,0,1-584.58-3382.822Z"/>
      <path id="路径_3312" data-name="路径 3312" class="cls-13" d="M-609.516-3392.588l26.538,6.9a.863.863,0,0,0,.908-1.378l-27-30.237a.858.858,0,0,0-.49-.271l-19.492-3.468a.863.863,0,0,0-.887,1.335l19.954,26.806A.852.852,0,0,0-609.516-3392.588Z"/>
      <g id="组_2492" data-name="组 2492">
        <path id="路径_3313" data-name="路径 3313" class="cls-14" d="M-606.766-3394.921l26.047,5.218a.877.877,0,0,0,.864-1.427l-24.979-26.883a5.21,5.21,0,0,0-3-1.586l-25.464-4.08Z"/>
        <g id="组_2491" data-name="组 2491" class="cls-15">
          <path id="路径_3314" data-name="路径 3314" class="cls-16" d="M-574.478-3392.626a206.573,206.573,0,0,0-43.8-38.116"/>
        </g>
        <path id="路径_3316" data-name="路径 3316" class="cls-17" d="M-606.766-3394.921l26.047,5.218a.877.877,0,0,0,.864-1.427l-24.979-26.883a5.21,5.21,0,0,0-3-1.586l-25.464-4.08Z"/>
      </g>
      <g id="组_2493" data-name="组 2493">
        <path id="路径_3317" data-name="路径 3317" class="cls-18" d="M-606.691-3394.883a29.71,29.71,0,0,0-6.854,5.854c-1.437,1.748-2.845,5.93-2.845,5.93l-26.531-28.758-.075-.038s-1.027-10.015,9.7-11.784l26.531,28.758"/>
        <path id="路径_3318" data-name="路径 3318" class="cls-17" d="M-606.691-3394.883a29.71,29.71,0,0,0-6.854,5.854c-1.437,1.748-2.845,5.93-2.845,5.93l-26.531-28.758-.075-.038s-1.027-10.015,9.7-11.784l26.531,28.758"/>
      </g>
    </g>
    <g id="组_2473" data-name="组 2473" transform="translate(807.792 3606.24)">
      <g id="组_2495" data-name="组 2495">
        <path id="路径_3321" data-name="路径 3321" class="cls-19" d="M-556.039-3457.125l12.635-26.829,4.314.912-12,23.015,14.959-27.112,3.215,2.77-8.793,14.865,9.318-11.193,2.451,3.15-25.293,31.819Z"/>
        <path id="路径_3322" data-name="路径 3322" class="cls-20" d="M-544.471-3472.716l-3.566-1.4,4.631-9.835,4.314.912Z"/>
        <path id="路径_3323" data-name="路径 3323" class="cls-20" d="M-532.913-3484.369l-7.775,13.144-3.467-1.368,8.027-14.545Z"/>
        <path id="路径_3324" data-name="路径 3324" class="cls-20" d="M-529.938-3477.547l-6.387,8.034-4.047-1.591,7.983-9.594Z"/>
        <path id="路径_3325" data-name="路径 3325" class="cls-17" d="M-556.039-3457.125l12.635-26.829,4.314.912-12,23.015,14.959-27.112,3.215,2.77-8.793,14.865,9.318-11.193,2.451,3.15-25.293,31.819Z"/>
      </g>
      <g id="组_2497" data-name="组 2497">
        <g id="组_2496" data-name="组 2496">
          <path id="路径_3326" data-name="路径 3326" class="cls-21" d="M-565.06-3486.685a4.844,4.844,0,0,0-4.773,5.379,36.724,36.724,0,0,1-13.12,32.545,4.83,4.83,0,0,0-1.4,1.905,5.052,5.052,0,0,0,1.1,5.3,6.817,6.817,0,0,0,9.053.58,44.877,44.877,0,0,0,16.034-39.776,6.963,6.963,0,0,0-4.288-5.488A5.852,5.852,0,0,0-565.06-3486.685Z"/>
          <path id="路径_3327" data-name="路径 3327" class="cls-22" d="M-559.543-3480.589a43.667,43.667,0,0,1-2.874,21.263,43.382,43.382,0,0,1-12.658,17.267,5.412,5.412,0,0,1-7.144-.432,3.675,3.675,0,0,1-.853-3.84,3.393,3.393,0,0,1,1-1.35,38.037,38.037,0,0,0,11.1-15.14,38.286,38.286,0,0,0,2.521-18.649,3.4,3.4,0,0,1,.218-1.662,3.633,3.633,0,0,1,3.268-2.157A5.452,5.452,0,0,1-559.543-3480.589Z"/>
        </g>
        <path id="路径_3328" data-name="路径 3328" class="cls-23" d="M-561.936-3471.355a32.756,32.756,0,0,1-2.772,12.1"/>
        <path id="路径_3329" data-name="路径 3329" class="cls-23" d="M-561.427-3479.208q.026.957.012,1.911"/>
      </g>
      <g id="组_2499" data-name="组 2499">
        <g id="组_2498" data-name="组 2498">
          <path id="路径_3330" data-name="路径 3330" class="cls-21" d="M-543.506-3477.962a4.844,4.844,0,0,0-6.844,2.209,36.721,36.721,0,0,1-27.828,21.375,4.826,4.826,0,0,0-2.177.929,5.049,5.049,0,0,0-1.74,5.127,6.818,6.818,0,0,0,7.5,5.1,44.879,44.879,0,0,0,34.012-26.125,6.963,6.963,0,0,0-.908-6.9A5.832,5.832,0,0,0-543.506-3477.962Z"/>
          <path id="路径_3331" data-name="路径 3331" class="cls-22" d="M-541.849-3469.91a43.665,43.665,0,0,1-13.274,16.859,43.364,43.364,0,0,1-19.671,8.447,5.414,5.414,0,0,1-5.936-4,3.674,3.674,0,0,1,1.216-3.741,3.377,3.377,0,0,1,1.546-.655,38.038,38.038,0,0,0,17.247-7.409,38.276,38.276,0,0,0,11.642-14.785,3.4,3.4,0,0,1,1.032-1.321,3.635,3.635,0,0,1,3.911-.2A5.451,5.451,0,0,1-541.849-3469.91Z"/>
        </g>
        <path id="路径_3332" data-name="路径 3332" class="cls-24" d="M-548.6-3463.169a32.813,32.813,0,0,1-8.532,9.015"/>
        <path id="路径_3333" data-name="路径 3333" class="cls-24" d="M-544.174-3469.677q-.462.839-.959,1.653"/>
      </g>
      <g id="组_2502" data-name="组 2502">
        <g id="组_2500" data-name="组 2500">
          <path id="路径_3334" data-name="路径 3334" class="cls-25" d="M-564.04-3435.03c-1.717,1.218-2.272-5.725-4.16-6.655s-4.362,4.095-6.251,3.165.585-5.953-1.3-6.883-4.361,4.095-6.249,3.166.584-5.954-1.3-6.884-4.365,4.093-6.257,3.162.353-2.405.25-4.511c-.188-3.837-3.639-4.542-1.962-8s6.715-1.01,8.393-4.466-3.361-5.9-1.683-9.358,6.714-1.009,8.391-4.464-3.36-5.9-1.682-9.36,6.718-1.015,8.4-4.475-3.917-8.2-.78-10.426c1.717-1.218,2.272,5.726,4.16,6.655s4.362-4.095,6.251-3.165-.585,5.954,1.3,6.883,4.361-4.095,6.249-3.165-.584,5.954,1.3,6.883,4.365-4.093,6.257-3.162-.353,2.406-.25,4.512c.188,3.836,3.639,4.541,1.962,8s-6.715,1.011-8.393,4.466,3.361,5.9,1.683,9.358-6.714,1.01-8.391,4.464,3.36,5.9,1.682,9.36-8.113,1.5-8.651,5.307C-565.759-3439.768-560.9-3437.254-564.04-3435.03Z"/>
          <path id="路径_3335" data-name="路径 3335" class="cls-17" d="M-564.04-3435.03c-1.717,1.218-2.272-5.725-4.16-6.655s-4.362,4.095-6.251,3.165.585-5.953-1.3-6.883-4.361,4.095-6.249,3.166.584-5.954-1.3-6.884-4.365,4.093-6.257,3.162.353-2.405.25-4.511c-.188-3.837-3.639-4.542-1.962-8s6.715-1.01,8.393-4.466-3.361-5.9-1.683-9.358,6.714-1.009,8.391-4.464-3.36-5.9-1.682-9.36,6.718-1.015,8.4-4.475-3.917-8.2-.78-10.426c1.717-1.218,2.272,5.726,4.16,6.655s4.362-4.095,6.251-3.165-.585,5.954,1.3,6.883,4.361-4.095,6.249-3.165-.584,5.954,1.3,6.883,4.365-4.093,6.257-3.162-.353,2.406-.25,4.512c.188,3.836,3.639,4.541,1.962,8s-6.715,1.011-8.393,4.466,3.361,5.9,1.683,9.358-6.714,1.01-8.391,4.464,3.36,5.9,1.682,9.36-8.113,1.5-8.651,5.307C-565.759-3439.768-560.9-3437.254-564.04-3435.03Z"/>
        </g>
        <path id="路径_3336" data-name="路径 3336" class="cls-26" d="M-565.132-3436.555c-1.722,1.223-2.011-2.523-3.9-3.452s-2.7.738-4.59-.192-1.079-2.6-2.968-3.528-2.7.739-4.588-.191-1.081-2.6-2.969-3.529-2.7.738-4.59-.192-2.353-.623-2.456-2.741c-.035-.73-.06-1.322-.063-1.822.266.116.578.248.942.427,1.889.93,2.7-.739,4.59.192s1.078,2.6,2.969,3.529,2.7-.739,4.588.191,1.079,2.6,2.968,3.528,2.7-.739,4.59.192,2.178,4.675,3.9,3.452c3.125-2.212.915-3.773,1.936-7.9.923-3.732,3.4-2.827,5.075-6.284s.025-4.27,1.7-7.729,3.331-2.643,5.009-6.1.025-4.27,1.7-7.727,3.331-2.643,5.009-6.1c1.359-2.8,1.7-3.317,1.673-5.451,1.114.475,1.431.6,1.514,2.314.184,3.84.068,3.817-1.61,7.273s-3.331,2.643-5.009,6.1-.024,4.271-1.7,7.727-3.331,2.643-5.009,6.1-.025,4.273-1.7,7.729-4.152,2.552-5.075,6.284C-564.217-3440.328-562.007-3438.767-565.132-3436.555Z"/>
        <ellipse id="椭圆_694" data-name="椭圆 694" class="cls-26" cx="1.396" cy="1.384" rx="1.396" ry="1.384" transform="translate(-567.213 -3478.827) rotate(-83.679)"/>
        <ellipse id="椭圆_695" data-name="椭圆 695" class="cls-26" cx="1.396" cy="1.384" rx="1.396" ry="1.384" transform="translate(-562.604 -3468.805) rotate(-83.679)"/>
        <ellipse id="椭圆_696" data-name="椭圆 696" class="cls-26" cx="2.816" cy="2.792" rx="2.816" ry="2.792" transform="translate(-583.723 -3455.727) rotate(-83.679)"/>
        <ellipse id="椭圆_697" data-name="椭圆 697" class="cls-26" cx="2.816" cy="2.792" rx="2.816" ry="2.792" transform="translate(-570.454 -3456.691) rotate(-83.679)"/>
        <ellipse id="椭圆_698" data-name="椭圆 698" class="cls-26" cx="2.816" cy="2.792" rx="2.816" ry="2.792" transform="translate(-556.54 -3480.081) rotate(-83.679)"/>
        <ellipse id="椭圆_699" data-name="椭圆 699" class="cls-26" cx="1.309" cy="1.298" rx="1.309" ry="1.298" transform="translate(-571.99 -3470.448) rotate(-83.679)"/>
        <g id="组_2501" data-name="组 2501">
          <path id="路径_3337" data-name="路径 3337" class="cls-17" d="M-564.04-3435.03c-1.717,1.218-2.272-5.725-4.16-6.655s-4.362,4.095-6.251,3.165.585-5.953-1.3-6.883-4.361,4.095-6.249,3.166.584-5.954-1.3-6.884-4.365,4.093-6.257,3.162.353-2.405.25-4.511c-.188-3.837-3.639-4.542-1.962-8s6.715-1.01,8.393-4.466-3.361-5.9-1.683-9.358,6.714-1.009,8.391-4.464-3.36-5.9-1.682-9.36,6.718-1.015,8.4-4.475-3.917-8.2-.78-10.426c1.717-1.218,2.272,5.726,4.16,6.655s4.362-4.095,6.251-3.165-.585,5.954,1.3,6.883,4.361-4.095,6.249-3.165-.584,5.954,1.3,6.883,4.365-4.093,6.257-3.162-.353,2.406-.25,4.512c.188,3.836,3.639,4.541,1.962,8s-6.715,1.011-8.393,4.466,3.361,5.9,1.683,9.358-6.714,1.01-8.391,4.464,3.36,5.9,1.682,9.36-8.113,1.5-8.651,5.307C-565.759-3439.768-560.9-3437.254-564.04-3435.03Z"/>
        </g>
      </g>
      <g id="组_2503" data-name="组 2503">
        <path id="路径_3338" data-name="路径 3338" class="cls-27" d="M-578.882-3468.925l7.709-35.469,5.714.025-8.072,30.715,10.551-36.389,4.9,2.537-6.53,20.1,8.314-15.805,4.051,3.186-22.13,44.632Z"/>
        <path id="路径_3339" data-name="路径 3339" class="cls-20" d="M-569.077-3490.589l-4.921-.8,2.826-13,5.714.025Z"/>
        <path id="路径_3340" data-name="路径 3340" class="cls-20" d="M-558.082-3507.506l-5.774,17.771-4.786-.786,5.663-19.522Z"/>
        <path id="路径_3341" data-name="路径 3341" class="cls-20" d="M-552.247-3500.026l-5.588,11.27-5.585-.909,7.122-13.546Z"/>
        <path id="路径_3342" data-name="路径 3342" class="cls-17" d="M-578.882-3468.925l7.709-35.469,5.714.025-8.072,30.715,10.551-36.389,4.9,2.537-6.53,20.1,8.314-15.805,4.051,3.186-22.13,44.632Z"/>
      </g>
      <g id="组_2505" data-name="组 2505">
        <g id="组_2504" data-name="组 2504">
          <path id="路径_3343" data-name="路径 3343" class="cls-21" d="M-565.06-3486.685a4.844,4.844,0,0,0-4.773,5.379,36.724,36.724,0,0,1-13.12,32.545,4.83,4.83,0,0,0-1.4,1.905,5.052,5.052,0,0,0,1.1,5.3,6.817,6.817,0,0,0,9.053.58,44.877,44.877,0,0,0,16.034-39.776,6.963,6.963,0,0,0-4.288-5.488A5.852,5.852,0,0,0-565.06-3486.685Z"/>
          <path id="路径_3344" data-name="路径 3344" class="cls-22" d="M-559.543-3480.589a43.667,43.667,0,0,1-2.874,21.263,43.382,43.382,0,0,1-12.658,17.267,5.412,5.412,0,0,1-7.144-.432,3.675,3.675,0,0,1-.853-3.84,3.393,3.393,0,0,1,1-1.35,38.037,38.037,0,0,0,11.1-15.14,38.286,38.286,0,0,0,2.521-18.649,3.4,3.4,0,0,1,.218-1.662,3.633,3.633,0,0,1,3.268-2.157A5.452,5.452,0,0,1-559.543-3480.589Z"/>
        </g>
        <path id="路径_3345" data-name="路径 3345" class="cls-24" d="M-561.936-3471.355a32.756,32.756,0,0,1-2.772,12.1"/>
        <path id="路径_3346" data-name="路径 3346" class="cls-24" d="M-561.427-3479.208q.026.957.012,1.911"/>
      </g>
      <path id="路径_3347" data-name="路径 3347" class="cls-28" d="M-561.014-3411.7l-9.132-4.164,11.792-46.883,15.638,3.284Z"/>
      <path id="路径_3348" data-name="路径 3348" class="cls-29" d="M-551.749-3459.746l-13.955,46.3-3.945-3.772,13.21-44.274Z"/>
      <path id="路径_3349" data-name="路径 3349" class="cls-17" d="M-561.014-3411.7l-9.132-4.164,11.792-46.883,15.638,3.284Z"/>
      <path id="路径_3350" data-name="路径 3350" class="cls-28" d="M-579.268-3482.274l23.251,21.709-14.128,44.7-37.2-16.9Z"/>
      <path id="路径_3351" data-name="路径 3351" class="cls-30" d="M-579.343-3480l-18.645,44.559,28.173,18.672-37.53-16Z"/>
      <ellipse id="椭圆_700" data-name="椭圆 700" class="cls-29" cx="1.441" cy="1.429" rx="1.441" ry="1.429" transform="translate(-574.572 -3458.684) rotate(-83.679)"/>
      <ellipse id="椭圆_701" data-name="椭圆 701" class="cls-29" cx="1.441" cy="1.429" rx="1.441" ry="1.429" transform="translate(-571.521 -3448.327) rotate(-83.679)"/>
      <ellipse id="椭圆_702" data-name="椭圆 702" class="cls-29" cx="2.523" cy="2.501" rx="2.523" ry="2.501" transform="translate(-590.687 -3436.764) rotate(-83.679)"/>
      <circle id="椭圆_703" data-name="椭圆 703" class="cls-29" cx="0.36" cy="0.36" r="0.36" transform="translate(-574.724 -3425.937) rotate(-83.679)"/>
      <ellipse id="椭圆_704" data-name="椭圆 704" class="cls-29" cx="1.441" cy="1.429" rx="1.441" ry="1.429" transform="translate(-574.922 -3441.138) rotate(-83.679)"/>
      <ellipse id="椭圆_705" data-name="椭圆 705" class="cls-29" cx="1.441" cy="1.429" rx="1.441" ry="1.429" transform="translate(-551.791 -3450.214) rotate(-83.679)"/>
      <ellipse id="椭圆_706" data-name="椭圆 706" class="cls-29" cx="1.441" cy="1.429" rx="1.441" ry="1.429" transform="translate(-558.841 -3435.159) rotate(-83.679)"/>
      <ellipse id="椭圆_707" data-name="椭圆 707" class="cls-29" cx="1.802" cy="1.786" rx="1.802" ry="1.786" transform="translate(-561.409 -3423.736) rotate(-83.679)"/>
    </g>
    <g id="组_3010" data-name="组 3010">
      <g id="组_2471" data-name="组 2471" transform="translate(807.792 3606.24)">
        <g id="组_2482" data-name="组 2482">
          <path id="路径_3295" data-name="路径 3295" class="cls-31" d="M-631.842-3462.986s1.99,6.455,1.955,8.755-2.237,8.981-2.237,8.981l-68.381-10.554a3.4,3.4,0,0,0,2.18-2.02,21.682,21.682,0,0,0,1.009-6.661c.034-1.559.3-5.546-.573-7.709-.438-1.086-2.334-1.346-2.334-1.346Z"/>
        </g>
        <g id="组_2486" data-name="组 2486" class="cls-32">
          <path id="路径_3296" data-name="路径 3296" class="cls-33" d="M-623.094-3458.021c.077.017.155.033.228.05l.255.062.206.051c.037.009.071.019.108.029.164.043.32.088.469.133l.129.039c.168.053.326.106.473.161l.061.024c.126.049.243.1.352.148l.093.044c.119.057.23.115.327.174l.03.02a2.191,2.191,0,0,1,.231.165l.056.047a1.323,1.323,0,0,1,.181.189l.008.012a.836.836,0,0,1,.1.184c.007.017.013.034.019.051a.614.614,0,0,1,.033.2l.282-17.737a.644.644,0,0,0-.034-.2.537.537,0,0,0-.018-.051.8.8,0,0,0-.1-.185l-.007-.012a1.379,1.379,0,0,0-.181-.188l-.057-.048a2.363,2.363,0,0,0-.23-.164l-.03-.02c-.1-.059-.208-.118-.327-.175l-.093-.043c-.11-.05-.227-.1-.353-.148l-.061-.024c-.146-.055-.3-.109-.472-.161l-.13-.04q-.222-.067-.468-.133l-.071-.02-.037-.009-.206-.05c-.084-.021-.167-.042-.255-.062l-.228-.05c-.069-.016-.136-.032-.208-.047l-.043-.008c-.257-.054-.53-.106-.815-.157l-.078-.016-.317-.055-.412-.056q-.405-.053-.809-.1h-.014q-.362-.04-.722-.075l-.4-.034-.15-.014-.119-.01q-.321-.025-.642-.046c-.105-.007-.209-.012-.314-.018l-.15-.008c-.053,0-.106-.007-.159-.009-.2-.01-.4-.019-.6-.025l-.3-.009-.145,0-.16,0c-.2,0-.408-.006-.611-.007-.093,0-.185,0-.277,0h-.383q-.372,0-.742.015l-.1,0c-.119,0-.238.011-.358.016-.189.008-.378.013-.567.024-.061,0-.121.009-.182.013-.172.01-.345.023-.517.036q-.321.023-.642.051c-.174.015-.347.033-.521.051-.211.022-.422.044-.633.069-.175.021-.349.044-.523.067-.21.027-.419.057-.628.088q-.261.039-.522.081c-.1.016-.192.029-.287.045-.118.02-.236.044-.354.065l-.477.088q-.33.064-.661.134c-.153.032-.307.064-.461.1-.056.012-.112.023-.167.036l-.135.032.062-3.915a1.333,1.333,0,0,1-.01.141h0l-.06,3.776c-.176.04-.352.083-.529.126-.074.019-.148.035-.222.053-.328.083-.656.169-.984.26l-.078.023c-.1.028-.2.059-.3.088q-.386.111-.771.23c-.128.039-.256.08-.384.121s-.248.078-.372.119q-.274.09-.547.185l-9.625,3.511-.281,17.737,9.625-3.512c.3-.106.612-.205.918-.3l.385-.122c.257-.08.514-.156.771-.23l.3-.088q.53-.149,1.062-.282l.222-.053c.279-.068.559-.134.839-.2.153-.035.307-.066.461-.1.22-.047.44-.092.661-.134.159-.031.318-.06.477-.088.213-.039.427-.075.641-.11.174-.028.347-.056.521-.081.209-.032.419-.061.629-.089l.522-.066c.211-.025.423-.048.634-.07.173-.018.347-.035.521-.051.213-.019.427-.035.641-.051.173-.012.345-.026.518-.036.249-.015.5-.026.749-.037.119,0,.239-.011.358-.015q.519-.016,1.041-.02h.179q.522,0,1.047.011l.146,0c.354.01.709.023,1.065.042l.15.009c.357.02.715.044,1.074.074l.151.013c.372.032.744.068,1.118.11h.01q.61.069,1.224.155c.136.023.265.046.4.07q.429.077.816.158C-623.259-3458.058-623.176-3458.039-623.094-3458.021Z"/>
          <path id="路径_3297" data-name="路径 3297" class="cls-34" d="M-604.62-3474.8a1.328,1.328,0,0,1-.061.263c-.009.027-.016.053-.026.08a1.923,1.923,0,0,1-.173.331,2.542,2.542,0,0,1-.167.23c-.013.016-.028.031-.041.047-.055.065-.115.13-.18.2-.027.028-.056.056-.085.084-.061.059-.126.117-.194.176l-.092.08c-.077.064-.161.128-.247.193-.031.023-.059.046-.092.07q-.18.132-.384.265c-.05.033-.107.066-.16.1-.1.061-.191.121-.294.182-.065.038-.137.078-.205.116-.1.056-.2.112-.3.168-.159.086-.327.172-.5.259l-.1.052c-.211.1-.433.21-.664.316-.04.019-.084.037-.125.056q-.345.156-.719.315l-.272.114c-.227.094-.463.189-.705.284l-.255.1c-.3.118-.619.237-.947.356l-20.234,7.383s3.285,6.465,3.262,8.755c-.023,2.361-3.544,8.981-3.544,8.981l20.235-7.382c.328-.12.642-.239.947-.357l.084-.032c.06-.023.112-.045.17-.068q.364-.142.705-.284l.273-.115c.249-.1.489-.21.718-.314l.1-.045.024-.011c.231-.106.452-.212.663-.316.037-.018.07-.037.106-.055.171-.086.338-.172.5-.257l.035-.018c.093-.05.177-.1.264-.15.068-.038.14-.077.205-.116.1-.06.2-.12.291-.18.054-.033.112-.068.163-.1l.012-.008c.132-.086.255-.171.372-.256l.093-.072c.069-.052.139-.1.2-.155.016-.012.029-.024.044-.037.032-.026.061-.053.091-.079.069-.059.133-.118.194-.176l.086-.085c.019-.019.04-.038.058-.057.044-.046.082-.092.121-.138.013-.016.029-.032.042-.048a2.614,2.614,0,0,0,.158-.213l.009-.017a1.866,1.866,0,0,0,.172-.331c0-.009.011-.018.015-.027s.006-.035.012-.052a1.428,1.428,0,0,0,.06-.263c0-.017.011-.035.012-.052s0-.051,0-.076l-2.334-.8.223-14.065,2.392-2.872C-604.606-3474.887-604.615-3474.844-604.62-3474.8Z"/>
          <g id="组_2484" data-name="组 2484">
            <g id="组_2483" data-name="组 2483" class="cls-35">
              <path id="路径_3298" data-name="路径 3298" class="cls-36" d="M-636.073-3446.406l35.961-14.52-1.547-17.5-42.921,7.446Z"/>
            </g>
          </g>
          <path id="路径_3300" data-name="路径 3300" class="cls-33" d="M-655.228-3461.958l.215.048.239.057.194.048.1.026c.156.041.3.083.444.126l.122.037c.157.049.306.1.443.151l.055.022c.119.045.229.092.333.139l.087.04c.112.054.216.108.308.164l.026.018a1.965,1.965,0,0,1,.217.154c.019.015.037.029.054.044a1.394,1.394,0,0,1,.17.176l.006.01a.785.785,0,0,1,.1.174c.006.015.012.031.017.047a.586.586,0,0,1,.032.189l.281-17.737a.605.605,0,0,0-.031-.188.459.459,0,0,0-.018-.048.762.762,0,0,0-.1-.173l-.007-.01a1.227,1.227,0,0,0-.17-.176l-.053-.045a2.235,2.235,0,0,0-.218-.154l-.026-.018c-.091-.055-.2-.109-.307-.163l-.088-.041c-.1-.047-.213-.093-.333-.139l-.054-.022c-.137-.051-.287-.1-.444-.151l-.122-.037c-.14-.042-.287-.084-.443-.125l-.064-.018-.032-.008-.193-.048-.241-.058-.214-.047-.2-.046-.035-.006c-.245-.052-.506-.1-.778-.151-.027-.005-.049-.01-.076-.014l-.27-.047-.3-.035q-.3-.033-.6-.062l-.049,0-.089-.008q-.207-.02-.414-.036c-.152-.012-.3-.023-.458-.033l-.043,0-.022,0c-.171-.011-.342-.02-.512-.029-.122-.006-.244-.01-.365-.015l-.08,0-.056,0c-.167-.005-.335-.01-.5-.013l-.309,0h-.2c-.179,0-.357,0-.536,0l-.2,0-.2.005-.226,0c-.127,0-.254.011-.381.016l-.342.015-.116.005c-.125.007-.25.017-.376.026-.157.01-.314.02-.471.032s-.322.029-.482.045-.312.028-.468.045-.324.039-.485.059-.31.037-.464.059-.323.047-.485.072-.308.046-.462.072l-.1.015c-.138.024-.277.051-.415.076s-.28.05-.42.078c-.173.034-.346.071-.518.108-.138.029-.275.056-.413.087l-.065.014c-.038.009-.075.02-.112.028q-.7.162-1.4.353c-.037.011-.075.018-.113.029l-.071.02-.312.091c-.193.056-.387.113-.58.172l-.35.111c-.117.038-.234.073-.352.112l-.344.116-9.13,3.331-.282,17.737,9.131-3.332c.232-.079.464-.153.7-.227.117-.037.233-.075.35-.111.193-.06.387-.117.581-.173l.31-.09.185-.049c.466-.128.931-.245,1.4-.353l.178-.042c.137-.031.274-.059.411-.088.173-.036.347-.074.52-.108.14-.027.279-.051.419-.077.17-.031.341-.063.512-.092.154-.025.309-.048.463-.072s.323-.05.484-.072.31-.04.465-.059.322-.041.484-.058.313-.031.469-.046.321-.031.481-.044.315-.022.472-.033.327-.022.491-.031c.114-.006.228-.01.342-.014.2-.009.405-.016.608-.021l.2,0c.273,0,.547-.007.821,0h.111c.288,0,.578.01.867.02l.079,0q.45.018.9.046l.043,0c.29.019.581.043.872.069l.089.008c.314.03.628.063.943.1.119.02.231.041.346.062.272.049.532.1.777.15Z"/>
          <g id="组_2485" data-name="组 2485">
            <path id="路径_3301" data-name="路径 3301" class="cls-34" d="M-700.223-3473.54l19-6.932A73.612,73.612,0,0,1-648-3483.16q9.249,1.428,8.94,3.942a87.283,87.283,0,0,1,23.425.027q19.824,3.06,4.029,8.822l-20.234,7.383m8.759-8.513q7.816-3.022-1.19-4.541a40.209,40.209,0,0,0-19.039,1.8l-9.625,3.511,19.49,3.008,10.364-3.781m-57.6-3.51,16.517,2.55,9.131-3.332q7.075-2.751-1.27-4.167a33.949,33.949,0,0,0-15.248,1.618l-9.13,3.331"/>
          </g>
          <path id="路径_3302" data-name="路径 3302" class="cls-37" d="M-604.62-3474.8a1.328,1.328,0,0,1-.061.263c-.009.027-.016.053-.026.08a1.923,1.923,0,0,1-.173.331,2.542,2.542,0,0,1-.167.23c-.013.016-.028.031-.041.047-.055.065-.115.13-.18.2-.027.028-.056.056-.085.084-.061.059-.126.117-.194.176l-.092.08c-.077.064-.161.128-.247.193-.031.023-.059.046-.092.07q-.18.132-.384.265c-.05.033-.107.066-.16.1-.1.061-.191.121-.294.182-.065.038-.137.078-.205.116-.1.056-.2.112-.3.168-.159.086-.327.172-.5.259l-.1.052c-.211.1-.433.21-.664.316-.04.019-.084.037-.125.056q-.345.156-.719.315l-.272.114c-.227.094-.463.189-.705.284l-.255.1c-.3.118-.619.237-.947.356l-20.234,7.383s1.977,6.465,1.955,8.755c-.024,2.361-2.237,8.981-2.237,8.981l20.235-7.382c.328-.12.642-.239.947-.357l.084-.032c.06-.023.112-.045.17-.068q.364-.142.705-.284l.273-.115c.249-.1.489-.21.718-.314l.1-.045.024-.011c.231-.106.452-.212.663-.316.037-.018.07-.037.106-.055.171-.086.338-.172.5-.257l.035-.018c.093-.05.177-.1.264-.15.068-.038.14-.077.205-.116.1-.06.2-.12.291-.18.054-.033.112-.068.163-.1l.012-.008c.132-.086.255-.171.372-.256l.093-.072c.069-.052.139-.1.2-.155.016-.012.029-.024.044-.037.032-.026.061-.053.091-.079.069-.059.133-.118.194-.176l.086-.085c.019-.019.04-.038.058-.057.044-.046.082-.092.121-.138.013-.016.029-.032.042-.048a2.614,2.614,0,0,0,.158-.213l.009-.017a1.866,1.866,0,0,0,.172-.331c0-.009.011-.018.015-.027s.006-.035.012-.052a1.428,1.428,0,0,0,.06-.263c0-.017.011-.035.012-.052s0-.051,0-.076l-2.334-.8.223-14.065,2.392-2.872C-604.606-3474.887-604.615-3474.844-604.62-3474.8Z"/>
        </g>
        <g id="组_2488" data-name="组 2488">
          <g id="组_2487" data-name="组 2487" class="cls-38">
            <path id="路径_3303" data-name="路径 3303" class="cls-36" d="M-701.377-3459.261l78.9,13.293-1.938-24.791-81.426-7.112Z"/>
          </g>
        </g>
        <g id="组_2489" data-name="组 2489">
          <path id="路径_3305" data-name="路径 3305" class="cls-37" d="M-653.427-3448.537l-47.078-7.267a3.4,3.4,0,0,0,2.18-2.02,21.682,21.682,0,0,0,1.009-6.661c.034-1.559.3-5.546-.573-7.709-.438-1.086-2.334-1.346-2.334-1.346l18.7,2.886"/>
          <path id="路径_3306" data-name="路径 3306" class="cls-37" d="M-659.75-3467.293l27.908,4.307s1.99,6.455,1.955,8.755-2.237,8.981-2.237,8.981l-15.944-2.46"/>
          <line id="直线_1904" data-name="直线 1904" class="cls-37" x2="6.858" y2="1.058" transform="translate(-672.586 -3469.274)"/>
        </g>
        <line id="直线_1905" data-name="直线 1905" class="cls-39" x2="10.898" y2="1.796" transform="translate(-685.248 -3466.805)"/>
        <line id="直线_1906" data-name="直线 1906" class="cls-39" x2="14.821" y2="2.515" transform="translate(-676.094 -3461.776)"/>
        <line id="直线_1907" data-name="直线 1907" class="cls-39" x2="5.667" y2="1.078" transform="translate(-658.222 -3458.902)"/>
        <line id="直线_1908" data-name="直线 1908" class="cls-39" x2="20.488" y2="3.952" transform="translate(-659.093 -3454.95)"/>
        <line id="直线_1909" data-name="直线 1909" class="cls-39" y1="3.593" x2="9.59" transform="translate(-625.964 -3462.854)"/>
        <line id="直线_1910" data-name="直线 1910" class="cls-39" y1="1.796" x2="3.923" transform="translate(-618.118 -3457.824)"/>
      </g>
      <path id="路径_3273" data-name="路径 3273" class="cls-40" d="M-623.505-3459.339l5.95-2.307s3.15,9.807,8.75,10.673h-6.3l.35,3.173S-619.655-3448.089-623.505-3459.339Z" transform="translate(807.792 3606.24)"/>
      <path id="路径_3274" data-name="路径 3274" class="cls-41" d="M-675.88-3465l-8.139-1.272s-4.309,13.114-11.969,15.713l8.618-1.707-.479,4.061S-681.146-3449.892-675.88-3465Z" transform="translate(807.792 3606.24)"/>
    </g>
  </g>
</svg>
