<svg xmlns="http://www.w3.org/2000/svg" xmlns:xlink="http://www.w3.org/1999/xlink" width="81.219" height="70.327" viewBox="0 0 81.219 70.327">
  <defs>
    <style>
      .cls-1, .cls-17, .cls-23, .cls-25, .cls-5, .cls-9 {
        fill: none;
      }

      .cls-2 {
        clip-path: url(#clip-path);
      }

      .cls-15, .cls-3 {
        opacity: 0.1;
      }

      .cls-16, .cls-4 {
        opacity: 0.2;
      }

      .cls-18, .cls-19, .cls-20, .cls-21, .cls-5, .cls-7, .cls-8, .cls-9 {
        stroke: #000;
      }

      .cls-17, .cls-21, .cls-23, .cls-25, .cls-5, .cls-8, .cls-9 {
        stroke-linecap: round;
        stroke-linejoin: round;
      }

      .cls-17, .cls-23, .cls-25, .cls-5, .cls-9 {
        stroke-width: 1.4px;
      }

      .cls-17, .cls-5 {
        stroke-dasharray: 35 3.5 3.5 3.5;
      }

      .cls-6 {
        font-size: 9.581px;
      }

      .cls-10, .cls-6 {
        font-family: AlibabaPuHuiTi-Bold, Alibaba PuHuiTi;
        font-weight: 700;
      }

      .cls-18, .cls-19, .cls-20, .cls-7 {
        stroke-miterlimit: 10;
      }

      .cls-18, .cls-19, .cls-20, .cls-21, .cls-7, .cls-8 {
        stroke-width: 0.7px;
      }

      .cls-10 {
        font-size: 12.6px;
      }

      .cls-11 {
        fill: #aef1b8;
      }

      .cls-12 {
        clip-path: url(#clip-path-4);
      }

      .cls-13 {
        fill: #4ab86b;
      }

      .cls-14 {
        fill: #90f6ac;
      }

      .cls-15, .cls-16 {
        fill: #fff;
      }

      .cls-17, .cls-23 {
        stroke: #191919;
      }

      .cls-18 {
        fill: #eeedfc;
      }

      .cls-19 {
        fill: #50f96b;
      }

      .cls-20, .cls-21 {
        fill: #57ffd2;
      }

      .cls-22 {
        fill: #ffda34;
      }

      .cls-24 {
        fill: #ff9f36;
      }

      .cls-25 {
        stroke: #fff;
      }

      .cls-26 {
        fill: #fce47b;
      }

      .cls-27 {
        fill: #ecc05d;
      }

      .cls-28 {
        fill: #eaa654;
      }
    </style>
    <clipPath id="clip-path">
      <path id="路径_3392" data-name="路径 3392" class="cls-1" d="M-685.71-3199.936l-6.547-4.2a34.866,34.866,0,0,0-37.651,0l-6.547,4.2a7.867,7.867,0,0,0-3.62,6.622v28.593a7.867,7.867,0,0,0,3.62,6.622l21.125,13.55a7.867,7.867,0,0,0,8.495,0l21.125-13.55a7.867,7.867,0,0,0,3.62-6.622v-28.593A7.867,7.867,0,0,0-685.71-3199.936Z"/>
    </clipPath>
    <clipPath id="clip-path-4">
      <path id="路径_3865" data-name="路径 3865" class="cls-1" d="M-688.16-3202.386l-6.547-4.2a34.865,34.865,0,0,0-37.651,0l-6.547,4.2a7.866,7.866,0,0,0-3.62,6.622v28.593a7.868,7.868,0,0,0,3.62,6.622L-717.78-3147a7.868,7.868,0,0,0,8.5,0l21.125-13.55a7.868,7.868,0,0,0,3.62-6.622v-28.593A7.866,7.866,0,0,0-688.16-3202.386Z"/>
    </clipPath>
  </defs>
  <g id="知书达理" transform="translate(-58.264 -393.436)">
    <path id="路径_3391" data-name="路径 3391" d="M-685.71-3199.936l-6.547-4.2a34.866,34.866,0,0,0-37.651,0l-6.547,4.2a7.867,7.867,0,0,0-3.62,6.622v28.593a7.867,7.867,0,0,0,3.62,6.622l21.125,13.55a7.867,7.867,0,0,0,8.495,0l21.125-13.55a7.867,7.867,0,0,0,3.62-6.622v-28.593A7.867,7.867,0,0,0-685.71-3199.936Z" transform="translate(807.792 3606.24)"/>
    <g id="组_2655" data-name="组 2655" transform="translate(807.792 3606.24)">
      <g id="组_2654" data-name="组 2654" class="cls-2">
        <rect id="矩形_47477" data-name="矩形 47477" width="32.05" height="112" transform="translate(-727.108 -3229.121)"/>
      </g>
    </g>
    <g id="组_2657" data-name="组 2657" transform="translate(807.792 3606.24)">
      <g id="组_2656" data-name="组 2656" class="cls-2">
        <rect id="矩形_47478" data-name="矩形 47478" width="26.45" height="112" transform="translate(-724.308 -3229.121)"/>
      </g>
    </g>
    <path id="路径_3394" data-name="路径 3394" class="cls-3" d="M-685.71-3199.936l-6.547-4.2a34.849,34.849,0,0,0-20.05-5.5,34.837,34.837,0,0,1,17.6,5.5l6.547,4.2a7.867,7.867,0,0,1,3.62,6.622v28.593a7.867,7.867,0,0,1-3.62,6.622l-21.125,13.55a7.858,7.858,0,0,1-3.022,1.146,7.863,7.863,0,0,0,5.472-1.146l21.125-13.55a7.867,7.867,0,0,0,3.62-6.622v-28.593A7.867,7.867,0,0,0-685.71-3199.936Z" transform="translate(807.792 3606.24)"/>
    <path id="路径_3395" data-name="路径 3395" class="cls-4" d="M-735.905-3199.936l6.547-4.2a34.85,34.85,0,0,1,20.051-5.5,34.837,34.837,0,0,0-17.6,5.5l-6.547,4.2a7.867,7.867,0,0,0-3.62,6.622v28.593a7.867,7.867,0,0,0,3.62,6.622l21.125,13.55a7.856,7.856,0,0,0,3.023,1.146,7.866,7.866,0,0,1-5.473-1.146l-21.125-13.55a7.867,7.867,0,0,1-3.62-6.622v-28.593A7.867,7.867,0,0,1-735.905-3199.936Z" transform="translate(807.792 3606.24)"/>
    <path id="路径_3396" data-name="路径 3396" class="cls-5" d="M-685.71-3199.936l-6.547-4.2a34.866,34.866,0,0,0-37.651,0l-6.547,4.2a7.867,7.867,0,0,0-3.62,6.622v28.593a7.867,7.867,0,0,0,3.62,6.622l21.125,13.55a7.867,7.867,0,0,0,8.495,0l21.125-13.55a7.867,7.867,0,0,0,3.62-6.622v-28.593A7.867,7.867,0,0,0-685.71-3199.936Z" transform="translate(807.792 3606.24)"/>
    <g id="组_2659" data-name="组 2659" transform="translate(807.792 3606.24)">
      <g id="组_2658" data-name="组 2658" class="cls-2">
        <path id="路径_3397" data-name="路径 3397" class="cls-4" d="M-744.324-3167.968l61.654-2.209a1.291,1.291,0,0,1,1.263,1.358v13.005a1.328,1.328,0,0,1-1.022,1.341l-59.843,9.33a1.254,1.254,0,0,1-1.418-1.2l-1.812-20.127A1.317,1.317,0,0,1-744.324-3167.968Z"/>
      </g>
    </g>
    <text id="SHU" class="cls-6" transform="translate(93.879 429.196)"><tspan x="-9.773" y="0">SHU</tspan></text>
    <path id="路径_3399" data-name="路径 3399" class="cls-4" d="M-692.747-3178.36a1.817,1.817,0,0,1,0-1.626l.407-.815a1.817,1.817,0,0,0-1.625-2.63h-1.318v-2.188a4.212,4.212,0,0,0-4.2-4.2H-723.02a4.212,4.212,0,0,0-4.2,4.2v27.795a4.212,4.212,0,0,0,4.2,4.2h23.537a4.212,4.212,0,0,0,4.2-4.2v-17.091h1.318a1.817,1.817,0,0,0,1.625-2.63Z" transform="translate(807.792 3606.24)"/>
    <rect id="矩形_47479" data-name="矩形 47479" class="cls-7" width="27.679" height="36.195" rx="4.2" transform="translate(83.081 413.621)"/>
    <rect id="矩形_47480" data-name="矩形 47480" class="cls-7" width="27.679" height="36.195" rx="4.2" transform="translate(82.016 413.621)"/>
    <rect id="矩形_47481" data-name="矩形 47481" class="cls-7" width="27.679" height="36.195" rx="4.2" transform="translate(80.952 413.621)"/>
    <rect id="矩形_47482" data-name="矩形 47482" class="cls-7" width="27.679" height="36.195" rx="4.2" transform="translate(79.887 413.621)"/>
    <path id="路径_3400" data-name="路径 3400" class="cls-7" d="M-695.715-3177.715h-10.146a1.818,1.818,0,0,1-1.817-1.818v-4.881a1.817,1.817,0,0,1,1.817-1.817h10.146a1.817,1.817,0,0,1,1.625,2.63l-.407.815a1.817,1.817,0,0,0,0,1.626l.407.815A1.817,1.817,0,0,1-695.715-3177.715Z" transform="translate(807.792 3606.24)"/>
    <rect id="矩形_47483" data-name="矩形 47483" class="cls-7" width="27.679" height="36.195" rx="4.2" transform="translate(78.822 413.621)"/>
    <text id="SHU-2" data-name="SHU" class="cls-6" transform="translate(92.129 426.396)"><tspan x="-9.773" y="0">SHU</tspan></text>
    <line id="直线_2139" data-name="直线 2139" class="cls-8" x2="19.162" transform="translate(83.081 417.879)"/>
    <line id="直线_2140" data-name="直线 2140" class="cls-8" x2="19.162" transform="translate(83.081 428.525)"/>
    <path id="路径_3401" data-name="路径 3401" d="M-672.18-3172.187l-19.378,3.915a1.327,1.327,0,0,0-1,1.337v15.123a1.27,1.27,0,0,0,1.424,1.341l21.092-3.906a1.4,1.4,0,0,0,.664-2.3l-3.911-5.046a1.471,1.471,0,0,1-.229-1.568l2.655-6.95A1.331,1.331,0,0,0-672.18-3172.187Z" transform="translate(807.792 3606.24)"/>
    <path id="路径_3402" data-name="路径 3402" class="cls-9" d="M-672.18-3172.187l-19.378,3.915a1.327,1.327,0,0,0-1,1.337v15.123a1.27,1.27,0,0,0,1.424,1.341l21.092-3.906a1.4,1.4,0,0,0,.664-2.3l-3.911-5.046a1.471,1.471,0,0,1-.229-1.568l2.655-6.95A1.331,1.331,0,0,0-672.18-3172.187Z" transform="translate(807.792 3606.24)"/>
    <path id="路径_3403" data-name="路径 3403" class="cls-4" d="M-678.257-3153.521v-17.438l-13.3,2.687a1.327,1.327,0,0,0-1,1.337v15.123a1.27,1.27,0,0,0,1.424,1.341l12.065-2.234Z" transform="translate(807.792 3606.24)"/>
    <path id="路径_3404" data-name="路径 3404" d="M-746.018-3170.826l3.717-4.13a1.212,1.212,0,0,1,2.088.96v19.325a1.468,1.468,0,0,1-.205.754l-2.044,3.405a1.2,1.2,0,0,1-2.234-.618l-1.674-18.6A1.444,1.444,0,0,1-746.018-3170.826Z" transform="translate(807.792 3606.24)"/>
    <path id="路径_3405" data-name="路径 3405" class="cls-9" d="M-746.018-3170.826l3.717-4.13a1.212,1.212,0,0,1,2.088.96v19.325a1.468,1.468,0,0,1-.205.754l-2.044,3.405a1.2,1.2,0,0,1-2.234-.618l-1.674-18.6A1.444,1.444,0,0,1-746.018-3170.826Z" transform="translate(807.792 3606.24)"/>
    <path id="路径_3406" data-name="路径 3406" d="M-690.71-3151.442l7.913-5.275a1.4,1.4,0,0,0,.593-1.165v-13.133a1.265,1.265,0,0,0-1.462-1.333l-7.913,1.758a1.331,1.331,0,0,0-.983,1.333v16.649A1.227,1.227,0,0,0-690.71-3151.442Z" transform="translate(807.792 3606.24)"/>
    <path id="路径_3407" data-name="路径 3407" class="cls-9" d="M-690.71-3151.442l7.913-5.275a1.4,1.4,0,0,0,.593-1.165v-13.133a1.265,1.265,0,0,0-1.462-1.333l-7.913,1.758a1.331,1.331,0,0,0-.983,1.333v16.649A1.227,1.227,0,0,0-690.71-3151.442Z" transform="translate(807.792 3606.24)"/>
    <path id="路径_3408" data-name="路径 3408" d="M-745.12-3170.418l61.654-2.209a1.29,1.29,0,0,1,1.262,1.358v13.005a1.327,1.327,0,0,1-1.022,1.341l-59.842,9.33a1.254,1.254,0,0,1-1.418-1.205l-1.812-20.127A1.317,1.317,0,0,1-745.12-3170.418Z" transform="translate(807.792 3606.24)"/>
    <path id="路径_3409" data-name="路径 3409" class="cls-9" d="M-745.12-3170.418l61.654-2.209a1.29,1.29,0,0,1,1.262,1.358v13.005a1.327,1.327,0,0,1-1.022,1.341l-59.842,9.33a1.254,1.254,0,0,1-1.418-1.205l-1.812-20.127A1.317,1.317,0,0,1-745.12-3170.418Z" transform="translate(807.792 3606.24)"/>
    <path id="路径_3410" data-name="路径 3410" class="cls-4" d="M-683.466-3172.627l-.391.014v11.2a1.328,1.328,0,0,1-1.022,1.341l-59.783,9.321.176,1.954a1.254,1.254,0,0,0,1.418,1.205l59.842-9.33a1.327,1.327,0,0,0,1.022-1.341v-13.005A1.29,1.29,0,0,0-683.466-3172.627Z" transform="translate(807.792 3606.24)"/>
    <path id="路径_3411" data-name="路径 3411" d="M-742.2-3165.841l-.151-1.68h0" transform="translate(807.792 3606.24)"/>
    <path id="路径_3412" data-name="路径 3412" class="cls-9" d="M-742.2-3165.841l-.151-1.68h0" transform="translate(807.792 3606.24)"/>
    <line id="直线_2141" data-name="直线 2141" x1="0.302" y1="3.36" transform="translate(65.89 443.759)"/>
    <line id="直线_2142" data-name="直线 2142" class="cls-9" x1="0.302" y1="3.36" transform="translate(65.89 443.759)"/>
    <path id="路径_3413" data-name="路径 3413" d="M-711.19-3206.721v2.977l-2.772-.9-.021-.047,1.5-.874Z" transform="translate(807.792 3606.24)"/>
    <path id="路径_3414" data-name="路径 3414" d="M-708.4-3204.692l-.021.047-2.772.9v-2.977l1.295,1.155Z" transform="translate(807.792 3606.24)"/>
    <path id="路径_3415" data-name="路径 3415" d="M-708.418-3204.645l-.678,1.541-.369,1.7-.031,0h0l-1.694-2.332Z" transform="translate(807.792 3606.24)"/>
    <path id="路径_3416" data-name="路径 3416" d="M-709.5-3201.412l-1.694-.17-1.694.17,1.694-2.332Z" transform="translate(807.792 3606.24)"/>
    <path id="路径_3417" data-name="路径 3417" d="M-711.19-3203.744l-1.694,2.332h0l-.031,0-.369-1.7-.678-1.541Z" transform="translate(807.792 3606.24)"/>
    <path id="路径_3418" data-name="路径 3418" d="M-720.939-3204.022l1.018,2.8-2.913.1-.035-.037,1.109-1.334Z" transform="translate(807.792 3606.24)"/>
    <path id="路径_3419" data-name="路径 3419" d="M-717.621-3203.07l0,.051-2.3,1.795-1.018-2.8,1.612.642Z" transform="translate(807.792 3606.24)"/>
    <path id="路径_3420" data-name="路径 3420" d="M-717.624-3203.019l-.11,1.68.233,1.719-.03.008h0l-2.39-1.612Z" transform="translate(807.792 3606.24)"/>
    <path id="路径_3421" data-name="路径 3421" d="M-717.531-3199.613l-1.65.42-1.534.739.795-2.771Z" transform="translate(807.792 3606.24)"/>
    <path id="路径_3422" data-name="路径 3422" d="M-719.921-3201.224l-.795,2.771h0l-.028.014-.926-1.467-1.164-1.216Z" transform="translate(807.792 3606.24)"/>
    <path id="路径_3423" data-name="路径 3423" d="M-701.441-3204.022l-1.018,2.8-2.3-1.795,0-.051,1.707-.309Z" transform="translate(807.792 3606.24)"/>
    <path id="路径_3424" data-name="路径 3424" d="M-699.511-3201.16l-.035.037-2.913-.1,1.018-2.8.822,1.528Z" transform="translate(807.792 3606.24)"/>
    <path id="路径_3425" data-name="路径 3425" d="M-699.546-3201.123l-1.164,1.216-.926,1.467-.028-.014h0l-.795-2.771Z" transform="translate(807.792 3606.24)"/>
    <path id="路径_3426" data-name="路径 3426" d="M-701.664-3198.454l-1.534-.739-1.65-.42,2.39-1.612Z" transform="translate(807.792 3606.24)"/>
    <path id="路径_3427" data-name="路径 3427" d="M-702.459-3201.224l-2.39,1.612h0l-.03-.008.233-1.719-.11-1.68Z" transform="translate(807.792 3606.24)"/>
    <text id="知书达理-2" data-name="知书达理" class="cls-10" transform="matrix(0.998, -0.07, 0.07, 0.998, 93.393, 448.406)"><tspan x="-24.797" y="0">知书达理</tspan></text>
    <g id="组_2751" data-name="组 2751" transform="translate(807.792 3606.24)">
      <path id="路径_3864" data-name="路径 3864" class="cls-11" d="M-688.16-3202.386l-6.547-4.2a34.865,34.865,0,0,0-37.651,0l-6.547,4.2a7.866,7.866,0,0,0-3.62,6.622v28.593a7.868,7.868,0,0,0,3.62,6.622L-717.78-3147a7.868,7.868,0,0,0,8.5,0l21.125-13.55a7.868,7.868,0,0,0,3.62-6.622v-28.593A7.866,7.866,0,0,0-688.16-3202.386Z"/>
      <g id="组_2731" data-name="组 2731">
        <g id="组_2730" data-name="组 2730" class="cls-12">
          <rect id="矩形_47506" data-name="矩形 47506" class="cls-13" width="32.05" height="112" transform="translate(-729.558 -3231.571)"/>
        </g>
      </g>
      <g id="组_2733" data-name="组 2733">
        <g id="组_2732" data-name="组 2732" class="cls-12">
          <rect id="矩形_47507" data-name="矩形 47507" class="cls-14" width="26.45" height="112" transform="translate(-726.758 -3231.571)"/>
        </g>
      </g>
      <g id="组_2734" data-name="组 2734">
        <path id="路径_3867" data-name="路径 3867" class="cls-15" d="M-688.16-3202.386l-6.547-4.2a34.85,34.85,0,0,0-20.05-5.5,34.837,34.837,0,0,1,17.6,5.5l6.547,4.2a7.866,7.866,0,0,1,3.62,6.622v28.593a7.868,7.868,0,0,1-3.62,6.622L-711.735-3147a7.858,7.858,0,0,1-3.022,1.146,7.865,7.865,0,0,0,5.472-1.146l21.125-13.55a7.868,7.868,0,0,0,3.62-6.622v-28.593A7.866,7.866,0,0,0-688.16-3202.386Z"/>
      </g>
      <g id="组_2735" data-name="组 2735">
        <path id="路径_3868" data-name="路径 3868" class="cls-16" d="M-738.355-3202.386l6.547-4.2a34.851,34.851,0,0,1,20.051-5.5,34.837,34.837,0,0,0-17.6,5.5l-6.547,4.2a7.866,7.866,0,0,0-3.62,6.622v28.593a7.868,7.868,0,0,0,3.62,6.622L-714.78-3147a7.856,7.856,0,0,0,3.023,1.146A7.867,7.867,0,0,1-717.23-3147l-21.125-13.55a7.867,7.867,0,0,1-3.62-6.622v-28.593A7.866,7.866,0,0,1-738.355-3202.386Z"/>
      </g>
      <path id="路径_3869" data-name="路径 3869" class="cls-17" d="M-688.16-3202.386l-6.547-4.2a34.865,34.865,0,0,0-37.651,0l-6.547,4.2a7.866,7.866,0,0,0-3.62,6.622v28.593a7.868,7.868,0,0,0,3.62,6.622L-717.78-3147a7.868,7.868,0,0,0,8.5,0l21.125-13.55a7.868,7.868,0,0,0,3.62-6.622v-28.593A7.866,7.866,0,0,0-688.16-3202.386Z"/>
      <g id="组_2738" data-name="组 2738">
        <g id="组_2737" data-name="组 2737" class="cls-12">
          <g id="组_2736" data-name="组 2736">
            <path id="路径_3870" data-name="路径 3870" class="cls-4" d="M-746.774-3170.418l61.654-2.209a1.29,1.29,0,0,1,1.263,1.358v13.005a1.328,1.328,0,0,1-1.022,1.341l-59.843,9.33a1.254,1.254,0,0,1-1.418-1.205l-1.812-20.127A1.317,1.317,0,0,1-746.774-3170.418Z"/>
          </g>
        </g>
      </g>
      <g id="组_2739" data-name="组 2739">
        <text id="SHU-3" data-name="SHU" class="cls-6" transform="translate(-716.363 -3179.494)"><tspan x="-9.773" y="0">SHU</tspan></text>
      </g>
      <g id="组_2740" data-name="组 2740">
        <path id="路径_3872" data-name="路径 3872" class="cls-4" d="M-695.2-3180.81a1.817,1.817,0,0,1,0-1.626l.407-.815a1.817,1.817,0,0,0-1.625-2.63h-1.318v-2.188a4.212,4.212,0,0,0-4.2-4.2H-725.47a4.212,4.212,0,0,0-4.2,4.2v27.8a4.212,4.212,0,0,0,4.2,4.2h23.537a4.212,4.212,0,0,0,4.2-4.2v-17.091h1.318a1.817,1.817,0,0,0,1.625-2.63Z"/>
      </g>
      <g id="组_2741" data-name="组 2741">
        <rect id="矩形_47508" data-name="矩形 47508" class="cls-18" width="27.679" height="36.195" rx="4.2" transform="translate(-727.161 -3195.069)"/>
        <rect id="矩形_47509" data-name="矩形 47509" class="cls-18" width="27.679" height="36.195" rx="4.2" transform="translate(-728.226 -3195.069)"/>
        <rect id="矩形_47510" data-name="矩形 47510" class="cls-18" width="27.679" height="36.195" rx="4.2" transform="translate(-729.29 -3195.069)"/>
        <rect id="矩形_47511" data-name="矩形 47511" class="cls-18" width="27.679" height="36.195" rx="4.2" transform="translate(-730.355 -3195.069)"/>
        <path id="路径_3873" data-name="路径 3873" class="cls-19" d="M-698.165-3180.165h-10.146a1.818,1.818,0,0,1-1.817-1.818v-4.881a1.817,1.817,0,0,1,1.817-1.817h10.146a1.817,1.817,0,0,1,1.625,2.63l-.407.815a1.817,1.817,0,0,0,0,1.626l.407.815A1.817,1.817,0,0,1-698.165-3180.165Z"/>
        <rect id="矩形_47512" data-name="矩形 47512" class="cls-20" width="27.679" height="36.195" rx="4.2" transform="translate(-731.42 -3195.069)"/>
        <text id="SHU-4" data-name="SHU" class="cls-6" transform="translate(-718.113 -3182.294)"><tspan x="-9.773" y="0">SHU</tspan></text>
        <line id="直线_2162" data-name="直线 2162" class="cls-21" x2="19.162" transform="translate(-727.161 -3190.811)"/>
        <line id="直线_2163" data-name="直线 2163" class="cls-21" x2="19.162" transform="translate(-727.161 -3180.165)"/>
      </g>
      <g id="组_2750" data-name="组 2750">
        <g id="组_2742" data-name="组 2742">
          <path id="路径_3874" data-name="路径 3874" class="cls-22" d="M-674.63-3174.637l-19.378,3.915a1.327,1.327,0,0,0-1,1.337v15.123a1.27,1.27,0,0,0,1.424,1.341l21.092-3.906a1.4,1.4,0,0,0,.664-2.3l-3.911-5.046a1.471,1.471,0,0,1-.229-1.568l2.655-6.95A1.331,1.331,0,0,0-674.63-3174.637Z"/>
          <path id="路径_3875" data-name="路径 3875" class="cls-23" d="M-674.63-3174.637l-19.378,3.915a1.327,1.327,0,0,0-1,1.337v15.123a1.27,1.27,0,0,0,1.424,1.341l21.092-3.906a1.4,1.4,0,0,0,.664-2.3l-3.911-5.046a1.471,1.471,0,0,1-.229-1.568l2.655-6.95A1.331,1.331,0,0,0-674.63-3174.637Z"/>
        </g>
        <g id="组_2743" data-name="组 2743">
          <path id="路径_3876" data-name="路径 3876" class="cls-4" d="M-680.707-3155.971v-17.438l-13.3,2.687a1.327,1.327,0,0,0-1,1.337v15.123a1.27,1.27,0,0,0,1.424,1.341l12.065-2.234Z"/>
        </g>
        <g id="组_2744" data-name="组 2744">
          <path id="路径_3877" data-name="路径 3877" class="cls-24" d="M-748.468-3173.276l3.717-4.13a1.212,1.212,0,0,1,2.088.96v19.325a1.47,1.47,0,0,1-.2.754l-2.044,3.405a1.2,1.2,0,0,1-2.234-.618l-1.674-18.6A1.444,1.444,0,0,1-748.468-3173.276Z"/>
          <path id="路径_3878" data-name="路径 3878" class="cls-23" d="M-748.468-3173.276l3.717-4.13a1.212,1.212,0,0,1,2.088.96v19.325a1.47,1.47,0,0,1-.2.754l-2.044,3.405a1.2,1.2,0,0,1-2.234-.618l-1.674-18.6A1.444,1.444,0,0,1-748.468-3173.276Z"/>
        </g>
        <g id="组_2745" data-name="组 2745">
          <path id="路径_3879" data-name="路径 3879" class="cls-24" d="M-693.16-3153.892l7.913-5.275a1.4,1.4,0,0,0,.593-1.165v-13.133a1.265,1.265,0,0,0-1.462-1.333l-7.913,1.758a1.331,1.331,0,0,0-.983,1.333v16.649A1.227,1.227,0,0,0-693.16-3153.892Z"/>
          <path id="路径_3880" data-name="路径 3880" class="cls-23" d="M-693.16-3153.892l7.913-5.275a1.4,1.4,0,0,0,.593-1.165v-13.133a1.265,1.265,0,0,0-1.462-1.333l-7.913,1.758a1.331,1.331,0,0,0-.983,1.333v16.649A1.227,1.227,0,0,0-693.16-3153.892Z"/>
        </g>
        <g id="组_2746" data-name="组 2746">
          <path id="路径_3881" data-name="路径 3881" class="cls-22" d="M-747.57-3172.868l61.654-2.209a1.29,1.29,0,0,1,1.262,1.358v13a1.327,1.327,0,0,1-1.022,1.341l-59.842,9.33a1.254,1.254,0,0,1-1.418-1.205l-1.812-20.127A1.317,1.317,0,0,1-747.57-3172.868Z"/>
          <path id="路径_3882" data-name="路径 3882" class="cls-23" d="M-747.57-3172.868l61.654-2.209a1.29,1.29,0,0,1,1.262,1.358v13a1.327,1.327,0,0,1-1.022,1.341l-59.842,9.33a1.254,1.254,0,0,1-1.418-1.205l-1.812-20.127A1.317,1.317,0,0,1-747.57-3172.868Z"/>
        </g>
        <g id="组_2747" data-name="组 2747">
          <path id="路径_3883" data-name="路径 3883" class="cls-4" d="M-685.916-3175.077l-.391.014v11.2a1.328,1.328,0,0,1-1.022,1.341l-59.783,9.321.176,1.954a1.254,1.254,0,0,0,1.418,1.205l59.842-9.33a1.327,1.327,0,0,0,1.022-1.341v-13A1.29,1.29,0,0,0-685.916-3175.077Z"/>
        </g>
        <g id="组_2748" data-name="组 2748">
          <path id="路径_3884" data-name="路径 3884" class="cls-22" d="M-744.654-3168.291l-.151-1.68h0"/>
          <path id="路径_3885" data-name="路径 3885" class="cls-25" d="M-744.654-3168.291l-.151-1.68h0"/>
        </g>
        <g id="组_2749" data-name="组 2749">
          <line id="直线_2164" data-name="直线 2164" class="cls-22" x1="0.302" y1="3.36" transform="translate(-744.352 -3164.931)"/>
          <line id="直线_2165" data-name="直线 2165" class="cls-25" x1="0.302" y1="3.36" transform="translate(-744.352 -3164.931)"/>
        </g>
      </g>
    </g>
    <g id="组_2755" data-name="组 2755" transform="translate(807.792 3606.24)">
      <g id="组_2752" data-name="组 2752">
        <path id="路径_3886" data-name="路径 3886" class="cls-26" d="M-713.64-3209.171v2.977l-2.772-.9-.021-.047,1.5-.874Z"/>
        <path id="路径_3887" data-name="路径 3887" class="cls-27" d="M-710.847-3207.142l-.021.047-2.772.9v-2.977l1.295,1.155Z"/>
        <path id="路径_3888" data-name="路径 3888" class="cls-28" d="M-710.868-3207.095l-.678,1.541-.369,1.7-.031,0h0l-1.694-2.332Z"/>
        <path id="路径_3889" data-name="路径 3889" class="cls-27" d="M-711.946-3203.862l-1.694-.17-1.694.17,1.694-2.332Z"/>
        <path id="路径_3890" data-name="路径 3890" class="cls-26" d="M-713.64-3206.194l-1.694,2.332h0l-.031,0-.369-1.7-.678-1.541Z"/>
      </g>
      <g id="组_2753" data-name="组 2753">
        <path id="路径_3891" data-name="路径 3891" class="cls-26" d="M-723.389-3206.472l1.018,2.8-2.913.1-.035-.037,1.109-1.334Z"/>
        <path id="路径_3892" data-name="路径 3892" class="cls-27" d="M-720.071-3205.52l0,.051-2.3,1.794-1.018-2.8,1.612.642Z"/>
        <path id="路径_3893" data-name="路径 3893" class="cls-28" d="M-720.074-3205.469l-.11,1.68.233,1.719-.03.008h0l-2.39-1.612Z"/>
        <path id="路径_3894" data-name="路径 3894" class="cls-27" d="M-719.981-3202.063l-1.65.42-1.534.739.795-2.771Z"/>
        <path id="路径_3895" data-name="路径 3895" class="cls-26" d="M-722.371-3203.675l-.795,2.771h0l-.028.014-.926-1.467-1.164-1.216Z"/>
      </g>
      <g id="组_2754" data-name="组 2754">
        <path id="路径_3896" data-name="路径 3896" class="cls-26" d="M-703.891-3206.472l-1.018,2.8-2.3-1.794,0-.051,1.707-.309Z"/>
        <path id="路径_3897" data-name="路径 3897" class="cls-27" d="M-701.961-3203.61l-.035.037-2.913-.1,1.018-2.8.822,1.528Z"/>
        <path id="路径_3898" data-name="路径 3898" class="cls-28" d="M-702-3203.573l-1.164,1.216-.926,1.467-.028-.014h0l-.795-2.771Z"/>
        <path id="路径_3899" data-name="路径 3899" class="cls-27" d="M-704.114-3200.9l-1.534-.739-1.65-.42,2.39-1.612Z"/>
        <path id="路径_3900" data-name="路径 3900" class="cls-26" d="M-704.909-3203.675l-2.39,1.612h0l-.03-.008.233-1.719-.11-1.68Z"/>
      </g>
    </g>
  </g>
</svg>
