<svg xmlns="http://www.w3.org/2000/svg" xmlns:xlink="http://www.w3.org/1999/xlink" width="81.219" height="70.327" viewBox="0 0 81.219 70.327">
  <defs>
    <style>
      .cls-1, .cls-17, .cls-25, .cls-27, .cls-5, .cls-9 {
        fill: none;
      }

      .cls-2 {
        clip-path: url(#clip-path);
      }

      .cls-15, .cls-3 {
        opacity: 0.1;
      }

      .cls-16, .cls-4 {
        opacity: 0.2;
      }

      .cls-18, .cls-20, .cls-23, .cls-5, .cls-6, .cls-8, .cls-9 {
        stroke: #000;
      }

      .cls-17, .cls-23, .cls-25, .cls-27, .cls-5, .cls-8, .cls-9 {
        stroke-linecap: round;
        stroke-linejoin: round;
      }

      .cls-17, .cls-25, .cls-27, .cls-5, .cls-9 {
        stroke-width: 1.4px;
      }

      .cls-17, .cls-5 {
        stroke-dasharray: 35 3.5 3.5 3.5;
      }

      .cls-18, .cls-20, .cls-6 {
        stroke-miterlimit: 10;
      }

      .cls-18, .cls-20, .cls-23, .cls-6, .cls-8 {
        stroke-width: 0.7px;
      }

      .cls-19, .cls-22, .cls-7 {
        opacity: 0.4;
      }

      .cls-19, .cls-21, .cls-22, .cls-7 {
        mix-blend-mode: overlay;
        isolation: isolate;
      }

      .cls-10 {
        font-size: 12.6px;
        font-family: AlibabaPuHuiTi-Bold, Alibaba PuHuiTi;
        font-weight: 700;
      }

      .cls-11 {
        fill: #aed6f1;
      }

      .cls-12 {
        clip-path: url(#clip-path-4);
      }

      .cls-13 {
        fill: #4a79b8;
      }

      .cls-14, .cls-18 {
        fill: #90bef6;
      }

      .cls-15, .cls-16, .cls-19 {
        fill: #fff;
      }

      .cls-17, .cls-25 {
        stroke: #191919;
      }

      .cls-20, .cls-23 {
        fill: #ffd8b8;
      }

      .cls-24 {
        fill: #ffda34;
      }

      .cls-26 {
        fill: #ff9f36;
      }

      .cls-27 {
        stroke: #fff;
      }

      .cls-28 {
        fill: #fce47b;
      }

      .cls-29 {
        fill: #ecc05d;
      }

      .cls-30 {
        fill: #eaa654;
      }
    </style>
    <clipPath id="clip-path">
      <path id="路径_3429" data-name="路径 3429" class="cls-1" d="M-594.01-3295.136l-6.547-4.2a34.865,34.865,0,0,0-37.651,0l-6.547,4.2a7.866,7.866,0,0,0-3.62,6.622v28.593a7.868,7.868,0,0,0,3.62,6.622l21.125,13.55a7.868,7.868,0,0,0,8.495,0l21.125-13.55a7.868,7.868,0,0,0,3.62-6.622v-28.593A7.866,7.866,0,0,0-594.01-3295.136Z"/>
    </clipPath>
    <clipPath id="clip-path-4">
      <path id="路径_3902" data-name="路径 3902" class="cls-1" d="M-596.46-3297.586l-6.547-4.2a34.865,34.865,0,0,0-37.651,0l-6.547,4.2a7.866,7.866,0,0,0-3.62,6.622v28.593a7.868,7.868,0,0,0,3.62,6.622l21.125,13.55a7.868,7.868,0,0,0,8.495,0l21.125-13.55a7.868,7.868,0,0,0,3.62-6.622v-28.593A7.866,7.866,0,0,0-596.46-3297.586Z"/>
    </clipPath>
  </defs>
  <g id="榜样楷模" transform="translate(-149.964 -298.236)">
    <path id="路径_3428" data-name="路径 3428" d="M-594.01-3295.136l-6.547-4.2a34.865,34.865,0,0,0-37.651,0l-6.547,4.2a7.866,7.866,0,0,0-3.62,6.622v28.593a7.868,7.868,0,0,0,3.62,6.622l21.125,13.55a7.868,7.868,0,0,0,8.495,0l21.125-13.55a7.868,7.868,0,0,0,3.62-6.622v-28.593A7.866,7.866,0,0,0-594.01-3295.136Z" transform="translate(807.792 3606.24)"/>
    <g id="组_2661" data-name="组 2661" transform="translate(807.792 3606.24)">
      <g id="组_2660" data-name="组 2660" class="cls-2">
        <rect id="矩形_47484" data-name="矩形 47484" width="32.05" height="112" transform="translate(-635.408 -3324.321)"/>
      </g>
    </g>
    <g id="组_2663" data-name="组 2663" transform="translate(807.792 3606.24)">
      <g id="组_2662" data-name="组 2662" class="cls-2">
        <rect id="矩形_47485" data-name="矩形 47485" width="26.45" height="112" transform="translate(-632.608 -3324.321)"/>
      </g>
    </g>
    <path id="路径_3431" data-name="路径 3431" class="cls-3" d="M-594.01-3295.136l-6.547-4.2a34.85,34.85,0,0,0-20.05-5.5,34.836,34.836,0,0,1,17.6,5.5l6.547,4.2a7.866,7.866,0,0,1,3.62,6.622v28.593a7.867,7.867,0,0,1-3.62,6.622l-21.125,13.55a7.858,7.858,0,0,1-3.022,1.146,7.865,7.865,0,0,0,5.472-1.146l21.125-13.55a7.868,7.868,0,0,0,3.62-6.622v-28.593A7.866,7.866,0,0,0-594.01-3295.136Z" transform="translate(807.792 3606.24)"/>
    <path id="路径_3432" data-name="路径 3432" class="cls-4" d="M-644.205-3295.136l6.547-4.2a34.851,34.851,0,0,1,20.051-5.5,34.837,34.837,0,0,0-17.6,5.5l-6.547,4.2a7.866,7.866,0,0,0-3.62,6.622v28.593a7.868,7.868,0,0,0,3.62,6.622l21.125,13.55a7.856,7.856,0,0,0,3.023,1.146,7.867,7.867,0,0,1-5.473-1.146l-21.125-13.55a7.868,7.868,0,0,1-3.62-6.622v-28.593A7.866,7.866,0,0,1-644.205-3295.136Z" transform="translate(807.792 3606.24)"/>
    <path id="路径_3433" data-name="路径 3433" class="cls-5" d="M-594.01-3295.136l-6.547-4.2a34.865,34.865,0,0,0-37.651,0l-6.547,4.2a7.866,7.866,0,0,0-3.62,6.622v28.593a7.868,7.868,0,0,0,3.62,6.622l21.125,13.55a7.868,7.868,0,0,0,8.495,0l21.125-13.55a7.868,7.868,0,0,0,3.62-6.622v-28.593A7.866,7.866,0,0,0-594.01-3295.136Z" transform="translate(807.792 3606.24)"/>
    <g id="组_2665" data-name="组 2665" transform="translate(807.792 3606.24)">
      <g id="组_2664" data-name="组 2664" class="cls-2">
        <path id="路径_3434" data-name="路径 3434" class="cls-4" d="M-652.624-3263.168l61.654-2.209a1.29,1.29,0,0,1,1.263,1.358v13.005a1.328,1.328,0,0,1-1.022,1.341l-59.843,9.33a1.254,1.254,0,0,1-1.418-1.205l-1.812-20.127A1.317,1.317,0,0,1-652.624-3263.168Z"/>
      </g>
    </g>
    <path id="路径_3436" data-name="路径 3436" class="cls-4" d="M-600.653-3261.426l-.481-11.48a3.649,3.649,0,0,0-.132-.787,3.664,3.664,0,0,0-.508-1.072,3.918,3.918,0,0,0-.245-.316,3.815,3.815,0,0,0-.593-.554,3.855,3.855,0,0,0-.4-.26c-.021-.012-.044-.021-.065-.033a3.848,3.848,0,0,0-.371-.179l-.036-.014a3.831,3.831,0,0,0-.425-.145h0a3.855,3.855,0,0,0-.466-.1h0a4.072,4.072,0,0,0-1.62.071l-7.765,1.94c.042-.65.066-1.334.061-2.027h0v-.006c0-.287-.011-.576-.024-.865,0-.085-.007-.17-.012-.255-.007-.109-.014-.217-.022-.326s-.015-.19-.024-.286-.018-.206-.029-.309-.024-.209-.038-.313-.022-.187-.035-.279c-.026-.178-.054-.355-.086-.529-.013-.072-.028-.141-.042-.212-.026-.131-.053-.262-.083-.391-.017-.076-.037-.151-.056-.226-.029-.116-.06-.23-.092-.343-.022-.073-.043-.146-.066-.218-.037-.119-.077-.235-.118-.351-.022-.061-.043-.122-.066-.182q-.1-.256-.21-.5l-.03-.058q-.1-.215-.218-.417c-.028-.05-.059-.1-.089-.148-.062-.1-.127-.2-.2-.3-.035-.05-.071-.1-.107-.149q-.108-.143-.225-.276c-.029-.033-.055-.069-.085-.1l-.029-.029a4.4,4.4,0,0,0-.355-.343l0,0c-.051-.043-.1-.085-.161-.127l-.046-.032c-.045-.033-.092-.066-.14-.1l-.048-.031c-.054-.035-.11-.069-.167-.1l-.034-.02a4.379,4.379,0,0,0-3.323-.367,5.277,5.277,0,0,0-1.822.809l-.038.027c-.1.069-.184.14-.269.214l-.005,0a5.37,5.37,0,0,0-1.456,2.269c-.047.125-.093.249-.136.373l-.8,2.334-2.129,6.227a8.625,8.625,0,0,0-.308,1.291l-4.412,1.1c-.093.024-.184.051-.272.082l-.021.007c-.024.008-.046.019-.069.028-.057.022-.114.045-.17.07l-.039.016-.065.034c-.048.024-.1.049-.141.075-.018.01-.036.018-.054.029s-.035.023-.053.034c-.043.026-.084.054-.124.082-.022.015-.044.028-.065.043l-.041.031c-.038.029-.075.06-.112.091s-.048.037-.071.057l-.028.026c-.022.02-.043.041-.064.062s-.04.038-.059.058-.037.034-.054.052c-.041.044-.079.09-.117.135-.016.019-.033.037-.048.057l-.019.022c-.032.041-.062.085-.092.128-.014.019-.028.038-.041.058l-.013.018-.017.025c-.025.039-.048.08-.072.121l-.027.046c-.012.022-.025.043-.036.065l-.006.01c-.019.037-.037.074-.055.112l-.007.015a3.073,3.073,0,0,0-.255.845l-.006.036c-.012.093-.021.187-.025.282,0,.021,0,.042,0,.064,0,.087,0,.175.005.263,0,.025,0,.051,0,.076.007.086.02.173.035.259h0c0,.024.006.048.01.072l1.545,13.56.05.2a5.016,5.016,0,0,0,.586,1.405,4.987,4.987,0,0,0,.592.785,5.052,5.052,0,0,0,2,1.328,5.117,5.117,0,0,0,.942.24,5.024,5.024,0,0,0,.985.055,5.064,5.064,0,0,0,1.005-.147l2.705-.675h0l.881-.221h0l1.879-.469,1.028-.257h0l.247-.062h0l13.953-3.486a5.286,5.286,0,0,0,1.924-.925,6.015,6.015,0,0,0,1.46-1.622,8.666,8.666,0,0,0,1.189-4.793Z" transform="translate(807.792 3606.24)"/>
    <path id="路径_3437" data-name="路径 3437" class="cls-6" d="M-621.979-3253.75l-6.74,1.684a5.037,5.037,0,0,1-6.109-3.666l-.05-.2-1.545-13.56a3.084,3.084,0,0,1,2.287-3.586l6.9-1.723Zm-9.676-2.692" transform="translate(807.792 3606.24)"/>
    <path id="路径_3438" data-name="路径 3438" class="cls-7" d="M-628.719-3253.816a5.037,5.037,0,0,1-6.109-3.666l-.05-.2-1.5-13.177a3.052,3.052,0,0,0-.044,1.367l1.545,13.56.05.2a5.037,5.037,0,0,0,6.109,3.666l6.74-1.684-.412-1.647Z" transform="translate(807.792 3606.24)"/>
    <path id="路径_3439" data-name="路径 3439" class="cls-7" d="M-634.136-3272.025l6.9-1.723,5.012,20.06.247-.062-5.259-21.048-6.9,1.723a3.081,3.081,0,0,0-2.3,3.514A3.085,3.085,0,0,1-634.136-3272.025Z" transform="translate(807.792 3606.24)"/>
    <path id="路径_3440" data-name="路径 3440" class="cls-7" d="M-630.738-3271.648l4.724,18.907,4.035-1.009-5.259-21.048-6.9,1.723a3.084,3.084,0,0,0-2.339,2.86Z" transform="translate(807.792 3606.24)"/>
    <path id="路径_3441" data-name="路径 3441" class="cls-6" d="M-608.026-3257.236l-17.107,4.274-.394-1.577c-.728-2.917-4.077-16.486-4.077-16.486a8.04,8.04,0,0,1,.188-4.443l2.928-8.563a4.933,4.933,0,0,1,3.725-3.694,4.271,4.271,0,0,1,3.922.779c2.237,1.912,2.492,6.119,2.275,9.44l7.765-1.94a4.028,4.028,0,0,1,3.389.661,3.675,3.675,0,0,1,1.478,2.729l.481,11.48c.088,3.7-1.735,6.631-4.573,7.34Zm-14.741.333" transform="translate(807.792 3606.24)"/>
    <path id="路径_3442" data-name="路径 3442" class="cls-4" d="M-618.131-3286.175a4.494,4.494,0,0,0-2.88-.15,4.935,4.935,0,0,0-3.728,3.7l-2.926,8.561a8.055,8.055,0,0,0-.189,4.445s3.238,13.118,4.039,16.331l-1.319.329-.392-1.575c-.728-2.919-4.078-16.485-4.078-16.485a8.055,8.055,0,0,1,.189-4.445l2.926-8.561a4.936,4.936,0,0,1,3.728-3.7,4.266,4.266,0,0,1,3.92.78A4.369,4.369,0,0,1-618.131-3286.175Z" transform="translate(807.792 3606.24)"/>
    <path id="路径_3443" data-name="路径 3443" d="M-619.016-3278.906l2.511-.627c-.021-2.853-.537-5.875-2.336-7.413a4.077,4.077,0,0,0-1.947-.885C-619.021-3285.751-618.817-3281.957-619.016-3278.906Z" transform="translate(807.792 3606.24)"/>
    <path id="路径_3444" data-name="路径 3444" d="M-603.934-3276.056a3.675,3.675,0,0,0-1.478-2.729,4,4,0,0,0-1.769-.732,3.627,3.627,0,0,1,.8,2.061l.481,11.48c.088,3.705-1.735,6.631-4.573,7.34l-15.13,3.78.079.317.394,1.577,17.107-4.274c2.838-.709,4.661-3.635,4.573-7.34Z" transform="translate(807.792 3606.24)"/>
    <line id="直线_2143" data-name="直线 2143" class="cls-8" x1="11.2" y2="2.8" transform="translate(191.135 332.319)"/>
    <line id="直线_2144" data-name="直线 2144" class="cls-8" x1="11.2" y2="2.8" transform="translate(191.135 337.919)"/>
    <path id="路径_3445" data-name="路径 3445" d="M-580.48-3267.387l-19.378,3.915a1.327,1.327,0,0,0-1,1.337v15.123a1.27,1.27,0,0,0,1.424,1.341l21.092-3.906a1.4,1.4,0,0,0,.664-2.3l-3.911-5.046a1.471,1.471,0,0,1-.229-1.568l2.655-6.95A1.331,1.331,0,0,0-580.48-3267.387Z" transform="translate(807.792 3606.24)"/>
    <path id="路径_3446" data-name="路径 3446" class="cls-9" d="M-580.48-3267.387l-19.378,3.915a1.327,1.327,0,0,0-1,1.337v15.123a1.27,1.27,0,0,0,1.424,1.341l21.092-3.906a1.4,1.4,0,0,0,.664-2.3l-3.911-5.046a1.471,1.471,0,0,1-.229-1.568l2.655-6.95A1.331,1.331,0,0,0-580.48-3267.387Z" transform="translate(807.792 3606.24)"/>
    <path id="路径_3447" data-name="路径 3447" class="cls-4" d="M-586.557-3248.721v-17.438l-13.3,2.687a1.327,1.327,0,0,0-1,1.337v15.123a1.27,1.27,0,0,0,1.424,1.341l12.065-2.234Z" transform="translate(807.792 3606.24)"/>
    <path id="路径_3448" data-name="路径 3448" d="M-654.318-3266.026l3.717-4.13a1.212,1.212,0,0,1,2.088.96v19.325a1.469,1.469,0,0,1-.205.754l-2.044,3.405a1.2,1.2,0,0,1-2.234-.618l-1.674-18.6A1.444,1.444,0,0,1-654.318-3266.026Z" transform="translate(807.792 3606.24)"/>
    <path id="路径_3449" data-name="路径 3449" class="cls-9" d="M-654.318-3266.026l3.717-4.13a1.212,1.212,0,0,1,2.088.96v19.325a1.469,1.469,0,0,1-.205.754l-2.044,3.405a1.2,1.2,0,0,1-2.234-.618l-1.674-18.6A1.444,1.444,0,0,1-654.318-3266.026Z" transform="translate(807.792 3606.24)"/>
    <path id="路径_3450" data-name="路径 3450" d="M-599.01-3246.642l7.913-5.275a1.4,1.4,0,0,0,.593-1.165v-13.133a1.265,1.265,0,0,0-1.462-1.333l-7.913,1.758a1.331,1.331,0,0,0-.983,1.333v16.649A1.227,1.227,0,0,0-599.01-3246.642Z" transform="translate(807.792 3606.24)"/>
    <path id="路径_3451" data-name="路径 3451" class="cls-9" d="M-599.01-3246.642l7.913-5.275a1.4,1.4,0,0,0,.593-1.165v-13.133a1.265,1.265,0,0,0-1.462-1.333l-7.913,1.758a1.331,1.331,0,0,0-.983,1.333v16.649A1.227,1.227,0,0,0-599.01-3246.642Z" transform="translate(807.792 3606.24)"/>
    <path id="路径_3452" data-name="路径 3452" d="M-653.42-3265.618l61.654-2.209a1.29,1.29,0,0,1,1.262,1.358v13a1.327,1.327,0,0,1-1.022,1.341l-59.842,9.33a1.254,1.254,0,0,1-1.418-1.205l-1.812-20.127A1.317,1.317,0,0,1-653.42-3265.618Z" transform="translate(807.792 3606.24)"/>
    <path id="路径_3453" data-name="路径 3453" class="cls-9" d="M-653.42-3265.618l61.654-2.209a1.29,1.29,0,0,1,1.262,1.358v13a1.327,1.327,0,0,1-1.022,1.341l-59.842,9.33a1.254,1.254,0,0,1-1.418-1.205l-1.812-20.127A1.317,1.317,0,0,1-653.42-3265.618Z" transform="translate(807.792 3606.24)"/>
    <path id="路径_3454" data-name="路径 3454" class="cls-4" d="M-591.766-3267.827l-.391.014v11.2a1.328,1.328,0,0,1-1.022,1.341l-59.783,9.321.176,1.954a1.254,1.254,0,0,0,1.418,1.205l59.842-9.33a1.327,1.327,0,0,0,1.022-1.341v-13A1.29,1.29,0,0,0-591.766-3267.827Z" transform="translate(807.792 3606.24)"/>
    <path id="路径_3455" data-name="路径 3455" d="M-650.5-3261.041l-.151-1.68h0" transform="translate(807.792 3606.24)"/>
    <path id="路径_3456" data-name="路径 3456" class="cls-9" d="M-650.5-3261.041l-.151-1.68h0" transform="translate(807.792 3606.24)"/>
    <line id="直线_2145" data-name="直线 2145" x1="0.302" y1="3.36" transform="translate(157.59 348.559)"/>
    <line id="直线_2146" data-name="直线 2146" class="cls-9" x1="0.302" y1="3.36" transform="translate(157.59 348.559)"/>
    <path id="路径_3457" data-name="路径 3457" d="M-619.49-3301.921v2.977l-2.772-.9-.021-.047,1.5-.874Z" transform="translate(807.792 3606.24)"/>
    <path id="路径_3458" data-name="路径 3458" d="M-616.7-3299.892l-.021.047-2.772.9v-2.977l1.295,1.155Z" transform="translate(807.792 3606.24)"/>
    <path id="路径_3459" data-name="路径 3459" d="M-616.718-3299.845l-.678,1.541-.369,1.7-.031,0h0l-1.694-2.332Z" transform="translate(807.792 3606.24)"/>
    <path id="路径_3460" data-name="路径 3460" d="M-617.8-3296.612l-1.694-.17-1.694.17,1.694-2.332Z" transform="translate(807.792 3606.24)"/>
    <path id="路径_3461" data-name="路径 3461" d="M-619.49-3298.944l-1.694,2.332h0l-.031,0-.369-1.7-.678-1.541Z" transform="translate(807.792 3606.24)"/>
    <path id="路径_3462" data-name="路径 3462" d="M-629.239-3299.222l1.018,2.8-2.913.1-.035-.037,1.109-1.334Z" transform="translate(807.792 3606.24)"/>
    <path id="路径_3463" data-name="路径 3463" d="M-625.921-3298.27l0,.051-2.3,1.794-1.018-2.8,1.612.642Z" transform="translate(807.792 3606.24)"/>
    <path id="路径_3464" data-name="路径 3464" d="M-625.924-3298.219l-.11,1.68.233,1.719-.03.008h0l-2.39-1.612Z" transform="translate(807.792 3606.24)"/>
    <path id="路径_3465" data-name="路径 3465" d="M-625.831-3294.813l-1.65.42-1.534.739.795-2.771Z" transform="translate(807.792 3606.24)"/>
    <path id="路径_3466" data-name="路径 3466" d="M-628.221-3296.425l-.795,2.771h0l-.028.014-.926-1.467-1.164-1.216Z" transform="translate(807.792 3606.24)"/>
    <path id="路径_3467" data-name="路径 3467" d="M-609.741-3299.222l-1.018,2.8-2.3-1.794,0-.051,1.707-.309Z" transform="translate(807.792 3606.24)"/>
    <path id="路径_3468" data-name="路径 3468" d="M-607.811-3296.36l-.035.037-2.913-.1,1.018-2.8.822,1.528Z" transform="translate(807.792 3606.24)"/>
    <path id="路径_3469" data-name="路径 3469" d="M-607.846-3296.323l-1.164,1.216-.926,1.467-.028-.014h0l-.795-2.771Z" transform="translate(807.792 3606.24)"/>
    <path id="路径_3470" data-name="路径 3470" d="M-609.964-3293.654l-1.534-.739-1.65-.42,2.39-1.612Z" transform="translate(807.792 3606.24)"/>
    <path id="路径_3471" data-name="路径 3471" d="M-610.759-3296.425l-2.39,1.612h0l-.03-.008.233-1.719-.11-1.68Z" transform="translate(807.792 3606.24)"/>
    <text id="榜样楷模-2" data-name="榜样楷模" class="cls-10" transform="matrix(0.998, -0.07, 0.07, 0.998, 185.094, 352.857)"><tspan x="-24.797" y="0">榜样楷模</tspan></text>
    <g id="组_2783" data-name="组 2783" transform="translate(807.792 3606.24)">
      <path id="路径_3901" data-name="路径 3901" class="cls-11" d="M-596.46-3297.586l-6.547-4.2a34.865,34.865,0,0,0-37.651,0l-6.547,4.2a7.866,7.866,0,0,0-3.62,6.622v28.593a7.868,7.868,0,0,0,3.62,6.622l21.125,13.55a7.868,7.868,0,0,0,8.495,0l21.125-13.55a7.868,7.868,0,0,0,3.62-6.622v-28.593A7.866,7.866,0,0,0-596.46-3297.586Z"/>
      <g id="组_2757" data-name="组 2757">
        <g id="组_2756" data-name="组 2756" class="cls-12">
          <rect id="矩形_47513" data-name="矩形 47513" class="cls-13" width="32.05" height="112" transform="translate(-637.858 -3326.771)"/>
        </g>
      </g>
      <g id="组_2759" data-name="组 2759">
        <g id="组_2758" data-name="组 2758" class="cls-12">
          <rect id="矩形_47514" data-name="矩形 47514" class="cls-14" width="26.45" height="112" transform="translate(-635.058 -3326.771)"/>
        </g>
      </g>
      <g id="组_2760" data-name="组 2760">
        <path id="路径_3904" data-name="路径 3904" class="cls-15" d="M-596.46-3297.586l-6.547-4.2a34.848,34.848,0,0,0-20.05-5.5,34.835,34.835,0,0,1,17.6,5.5l6.547,4.2a7.866,7.866,0,0,1,3.62,6.622v28.593a7.868,7.868,0,0,1-3.62,6.622l-21.125,13.55a7.862,7.862,0,0,1-3.022,1.146,7.865,7.865,0,0,0,5.472-1.146l21.125-13.55a7.868,7.868,0,0,0,3.62-6.622v-28.593A7.866,7.866,0,0,0-596.46-3297.586Z"/>
      </g>
      <g id="组_2761" data-name="组 2761">
        <path id="路径_3905" data-name="路径 3905" class="cls-16" d="M-646.655-3297.586l6.547-4.2a34.849,34.849,0,0,1,20.051-5.5,34.835,34.835,0,0,0-17.6,5.5l-6.547,4.2a7.866,7.866,0,0,0-3.62,6.622v28.593a7.868,7.868,0,0,0,3.62,6.622l21.125,13.55a7.86,7.86,0,0,0,3.023,1.146,7.868,7.868,0,0,1-5.473-1.146l-21.125-13.55a7.868,7.868,0,0,1-3.62-6.622v-28.593A7.866,7.866,0,0,1-646.655-3297.586Z"/>
      </g>
      <path id="路径_3906" data-name="路径 3906" class="cls-17" d="M-596.46-3297.586l-6.547-4.2a34.865,34.865,0,0,0-37.651,0l-6.547,4.2a7.866,7.866,0,0,0-3.62,6.622v28.593a7.868,7.868,0,0,0,3.62,6.622l21.125,13.55a7.868,7.868,0,0,0,8.495,0l21.125-13.55a7.868,7.868,0,0,0,3.62-6.622v-28.593A7.866,7.866,0,0,0-596.46-3297.586Z"/>
      <g id="组_2764" data-name="组 2764">
        <g id="组_2763" data-name="组 2763" class="cls-12">
          <g id="组_2762" data-name="组 2762">
            <path id="路径_3907" data-name="路径 3907" class="cls-4" d="M-655.074-3265.618l61.654-2.209a1.29,1.29,0,0,1,1.263,1.358v13a1.328,1.328,0,0,1-1.022,1.341l-59.843,9.33A1.254,1.254,0,0,1-654.44-3244l-1.812-20.127A1.317,1.317,0,0,1-655.074-3265.618Z"/>
          </g>
        </g>
      </g>
      <g id="组_2773" data-name="组 2773">
        <g id="组_2765" data-name="组 2765">
          <path id="路径_3909" data-name="路径 3909" class="cls-4" d="M-603.1-3263.876l-.481-11.48a3.649,3.649,0,0,0-.132-.787,3.668,3.668,0,0,0-.508-1.072,3.958,3.958,0,0,0-.245-.316,3.815,3.815,0,0,0-.593-.554,3.809,3.809,0,0,0-.4-.26c-.021-.012-.044-.021-.065-.033a3.792,3.792,0,0,0-.371-.179l-.036-.014a3.832,3.832,0,0,0-.425-.145h0a3.853,3.853,0,0,0-.466-.1h0a4.072,4.072,0,0,0-1.62.071l-7.765,1.94c.042-.65.066-1.334.061-2.027h0v-.006c0-.287-.011-.576-.024-.865,0-.085-.007-.17-.012-.255-.007-.109-.014-.217-.022-.326s-.015-.19-.024-.286-.018-.206-.029-.309-.024-.209-.038-.313-.022-.187-.035-.279c-.026-.178-.054-.355-.086-.529-.013-.072-.028-.141-.042-.212-.026-.131-.053-.262-.083-.391-.017-.076-.037-.151-.056-.226-.029-.116-.06-.23-.092-.343-.022-.073-.043-.146-.066-.218-.037-.119-.077-.235-.118-.351-.022-.061-.043-.122-.066-.182q-.1-.256-.21-.5l-.03-.058q-.1-.215-.218-.417c-.028-.05-.059-.1-.089-.148-.062-.1-.127-.2-.2-.3-.035-.05-.071-.1-.107-.149q-.108-.142-.225-.276c-.029-.033-.055-.069-.085-.1l-.029-.029a4.481,4.481,0,0,0-.355-.343l0,0c-.051-.043-.1-.085-.161-.127l-.046-.032c-.045-.033-.092-.066-.14-.1l-.048-.031c-.054-.035-.11-.069-.167-.1l-.034-.02a4.379,4.379,0,0,0-3.323-.367,5.277,5.277,0,0,0-1.822.809l-.038.027c-.095.069-.184.14-.269.214l-.005,0A5.37,5.37,0,0,0-626-3283.7c-.047.125-.093.249-.136.373l-.8,2.334-2.129,6.227a8.626,8.626,0,0,0-.308,1.291l-4.412,1.1c-.093.024-.184.051-.272.082l-.021.007c-.024.008-.046.019-.069.028-.057.022-.114.045-.17.07l-.039.016-.065.034q-.072.036-.141.075c-.018.01-.036.018-.054.029s-.035.023-.053.034c-.043.026-.084.054-.124.082-.022.015-.044.028-.065.043l-.041.031c-.038.029-.075.06-.112.091s-.048.037-.071.057l-.028.026c-.022.02-.043.041-.064.062s-.04.038-.059.058-.037.034-.054.052c-.041.044-.079.09-.117.135-.016.019-.033.037-.048.057l-.019.022c-.032.041-.062.085-.092.128-.014.019-.028.038-.041.058l-.013.018-.017.025c-.025.039-.048.08-.072.121l-.027.046c-.012.022-.025.043-.036.065l-.006.01c-.019.037-.037.074-.055.112l-.007.015a3.075,3.075,0,0,0-.255.845l-.006.036c-.012.093-.021.187-.025.282,0,.021,0,.042,0,.064,0,.087,0,.175.005.263,0,.025,0,.051,0,.076.007.086.02.173.035.259h0c0,.024.006.048.01.072l1.545,13.56.05.2a5.016,5.016,0,0,0,.586,1.405,4.987,4.987,0,0,0,.592.785,5.053,5.053,0,0,0,2,1.328,5.117,5.117,0,0,0,.942.24,5.063,5.063,0,0,0,.985.055,5.063,5.063,0,0,0,1.005-.147l2.705-.675h0l.881-.221h0l1.879-.469,1.028-.257h0l.247-.062h0l13.953-3.486a5.285,5.285,0,0,0,1.924-.925,6.015,6.015,0,0,0,1.46-1.622,8.666,8.666,0,0,0,1.189-4.793Z"/>
        </g>
        <g id="组_2772" data-name="组 2772">
          <path id="路径_3910" data-name="路径 3910" class="cls-18" d="M-624.429-3256.2l-6.74,1.684a5.036,5.036,0,0,1-6.109-3.666l-.05-.2-1.545-13.56a3.084,3.084,0,0,1,2.287-3.586l6.9-1.723Zm-9.676-2.692"/>
          <g id="组_2766" data-name="组 2766">
            <path id="路径_3911" data-name="路径 3911" class="cls-7" d="M-631.169-3256.266a5.036,5.036,0,0,1-6.109-3.666l-.05-.2-1.5-13.177a3.051,3.051,0,0,0-.044,1.367l1.545,13.56.05.2a5.036,5.036,0,0,0,6.109,3.666l6.74-1.684-.412-1.647Z"/>
          </g>
          <g id="组_2767" data-name="组 2767">
            <path id="路径_3912" data-name="路径 3912" class="cls-19" d="M-636.586-3274.475l6.9-1.723,5.012,20.06.247-.062-5.259-21.048-6.9,1.723a3.081,3.081,0,0,0-2.3,3.514A3.086,3.086,0,0,1-636.586-3274.475Z"/>
          </g>
          <g id="组_2768" data-name="组 2768">
            <path id="路径_3913" data-name="路径 3913" class="cls-7" d="M-633.188-3274.1l4.724,18.907,4.035-1.009-5.259-21.048-6.9,1.723a3.083,3.083,0,0,0-2.339,2.86Z"/>
          </g>
          <path id="路径_3914" data-name="路径 3914" class="cls-20" d="M-610.476-3259.686l-17.107,4.274-.394-1.577c-.728-2.917-4.077-16.486-4.077-16.486a8.039,8.039,0,0,1,.188-4.443l2.928-8.563a4.933,4.933,0,0,1,3.725-3.694,4.271,4.271,0,0,1,3.922.779c2.237,1.912,2.492,6.119,2.275,9.44l7.765-1.94a4.028,4.028,0,0,1,3.389.661,3.675,3.675,0,0,1,1.478,2.729l.481,11.48c.088,3.7-1.735,6.631-4.573,7.34Zm-14.741.333"/>
          <g id="组_2769" data-name="组 2769" class="cls-21">
            <path id="路径_3915" data-name="路径 3915" class="cls-4" d="M-620.581-3288.625a4.494,4.494,0,0,0-2.88-.15,4.935,4.935,0,0,0-3.728,3.7l-2.926,8.561a8.056,8.056,0,0,0-.189,4.445s3.238,13.118,4.039,16.331l-1.319.329-.392-1.575c-.728-2.919-4.078-16.485-4.078-16.485a8.056,8.056,0,0,1,.189-4.445l2.926-8.561a4.936,4.936,0,0,1,3.728-3.7,4.265,4.265,0,0,1,3.92.78A4.361,4.361,0,0,1-620.581-3288.625Z"/>
          </g>
          <g id="组_2771" data-name="组 2771" class="cls-22">
            <g id="组_2770" data-name="组 2770">
              <path id="路径_3916" data-name="路径 3916" d="M-621.466-3281.356l2.511-.627c-.021-2.853-.537-5.875-2.336-7.413a4.075,4.075,0,0,0-1.947-.885C-621.471-3288.2-621.267-3284.407-621.466-3281.356Z"/>
              <path id="路径_3917" data-name="路径 3917" d="M-606.384-3278.506a3.675,3.675,0,0,0-1.478-2.729,4.006,4.006,0,0,0-1.769-.732,3.627,3.627,0,0,1,.8,2.061l.481,11.48c.088,3.705-1.735,6.631-4.573,7.34l-15.13,3.78.079.317.394,1.577,17.107-4.274c2.838-.709,4.661-3.635,4.573-7.34Z"/>
            </g>
          </g>
        </g>
        <line id="直线_2166" data-name="直线 2166" class="cls-23" x1="11.2" y2="2.8" transform="translate(-619.107 -3276.371)"/>
        <line id="直线_2167" data-name="直线 2167" class="cls-23" x1="11.2" y2="2.8" transform="translate(-619.107 -3270.771)"/>
      </g>
      <g id="组_2782" data-name="组 2782">
        <g id="组_2774" data-name="组 2774">
          <path id="路径_3918" data-name="路径 3918" class="cls-24" d="M-582.93-3269.837l-19.378,3.915a1.327,1.327,0,0,0-1,1.337v15.123a1.27,1.27,0,0,0,1.424,1.341l21.092-3.906a1.4,1.4,0,0,0,.664-2.3l-3.911-5.046a1.471,1.471,0,0,1-.229-1.568l2.655-6.95A1.331,1.331,0,0,0-582.93-3269.837Z"/>
          <path id="路径_3919" data-name="路径 3919" class="cls-25" d="M-582.93-3269.837l-19.378,3.915a1.327,1.327,0,0,0-1,1.337v15.123a1.27,1.27,0,0,0,1.424,1.341l21.092-3.906a1.4,1.4,0,0,0,.664-2.3l-3.911-5.046a1.471,1.471,0,0,1-.229-1.568l2.655-6.95A1.331,1.331,0,0,0-582.93-3269.837Z"/>
        </g>
        <g id="组_2775" data-name="组 2775">
          <path id="路径_3920" data-name="路径 3920" class="cls-4" d="M-589.007-3251.171v-17.438l-13.3,2.687a1.327,1.327,0,0,0-1,1.337v15.123a1.27,1.27,0,0,0,1.424,1.341l12.065-2.234Z"/>
        </g>
        <g id="组_2776" data-name="组 2776">
          <path id="路径_3921" data-name="路径 3921" class="cls-26" d="M-656.768-3268.476l3.717-4.13a1.212,1.212,0,0,1,2.088.96v19.325a1.469,1.469,0,0,1-.205.754l-2.044,3.4a1.2,1.2,0,0,1-2.234-.618l-1.674-18.6A1.445,1.445,0,0,1-656.768-3268.476Z"/>
          <path id="路径_3922" data-name="路径 3922" class="cls-25" d="M-656.768-3268.476l3.717-4.13a1.212,1.212,0,0,1,2.088.96v19.325a1.469,1.469,0,0,1-.205.754l-2.044,3.4a1.2,1.2,0,0,1-2.234-.618l-1.674-18.6A1.445,1.445,0,0,1-656.768-3268.476Z"/>
        </g>
        <g id="组_2777" data-name="组 2777">
          <path id="路径_3923" data-name="路径 3923" class="cls-26" d="M-601.46-3249.092l7.913-5.275a1.4,1.4,0,0,0,.593-1.165v-13.133a1.265,1.265,0,0,0-1.462-1.333l-7.913,1.758a1.331,1.331,0,0,0-.983,1.333v16.649A1.227,1.227,0,0,0-601.46-3249.092Z"/>
          <path id="路径_3924" data-name="路径 3924" class="cls-25" d="M-601.46-3249.092l7.913-5.275a1.4,1.4,0,0,0,.593-1.165v-13.133a1.265,1.265,0,0,0-1.462-1.333l-7.913,1.758a1.331,1.331,0,0,0-.983,1.333v16.649A1.227,1.227,0,0,0-601.46-3249.092Z"/>
        </g>
        <g id="组_2778" data-name="组 2778">
          <path id="路径_3925" data-name="路径 3925" class="cls-24" d="M-655.87-3268.068l61.654-2.209a1.29,1.29,0,0,1,1.262,1.358v13a1.327,1.327,0,0,1-1.022,1.341l-59.842,9.33a1.254,1.254,0,0,1-1.418-1.205l-1.812-20.127A1.318,1.318,0,0,1-655.87-3268.068Z"/>
          <path id="路径_3926" data-name="路径 3926" class="cls-25" d="M-655.87-3268.068l61.654-2.209a1.29,1.29,0,0,1,1.262,1.358v13a1.327,1.327,0,0,1-1.022,1.341l-59.842,9.33a1.254,1.254,0,0,1-1.418-1.205l-1.812-20.127A1.318,1.318,0,0,1-655.87-3268.068Z"/>
        </g>
        <g id="组_2779" data-name="组 2779">
          <path id="路径_3927" data-name="路径 3927" class="cls-4" d="M-594.216-3270.277l-.391.014v11.2a1.328,1.328,0,0,1-1.022,1.341l-59.783,9.321.176,1.954a1.254,1.254,0,0,0,1.418,1.205l59.842-9.33a1.327,1.327,0,0,0,1.022-1.341v-13A1.29,1.29,0,0,0-594.216-3270.277Z"/>
        </g>
        <g id="组_2780" data-name="组 2780">
          <path id="路径_3928" data-name="路径 3928" class="cls-24" d="M-652.954-3263.491l-.151-1.68h0"/>
          <path id="路径_3929" data-name="路径 3929" class="cls-27" d="M-652.954-3263.491l-.151-1.68h0"/>
        </g>
        <g id="组_2781" data-name="组 2781">
          <line id="直线_2168" data-name="直线 2168" class="cls-24" x1="0.302" y1="3.36" transform="translate(-652.652 -3260.131)"/>
          <line id="直线_2169" data-name="直线 2169" class="cls-27" x1="0.302" y1="3.36" transform="translate(-652.652 -3260.131)"/>
        </g>
      </g>
    </g>
    <g id="组_2787" data-name="组 2787" transform="translate(807.792 3606.24)">
      <g id="组_2784" data-name="组 2784">
        <path id="路径_3930" data-name="路径 3930" class="cls-28" d="M-621.94-3304.371v2.977l-2.772-.9-.021-.047,1.5-.874Z"/>
        <path id="路径_3931" data-name="路径 3931" class="cls-29" d="M-619.147-3302.342l-.021.047-2.772.9v-2.977l1.295,1.155Z"/>
        <path id="路径_3932" data-name="路径 3932" class="cls-30" d="M-619.168-3302.3l-.678,1.541-.369,1.7-.031,0h0l-1.694-2.332Z"/>
        <path id="路径_3933" data-name="路径 3933" class="cls-29" d="M-620.246-3299.062l-1.694-.17-1.694.17,1.694-2.332Z"/>
        <path id="路径_3934" data-name="路径 3934" class="cls-28" d="M-621.94-3301.394l-1.694,2.332h0l-.031,0-.369-1.7-.678-1.541Z"/>
      </g>
      <g id="组_2785" data-name="组 2785">
        <path id="路径_3935" data-name="路径 3935" class="cls-28" d="M-631.689-3301.672l1.018,2.8-2.913.1-.035-.037,1.109-1.334Z"/>
        <path id="路径_3936" data-name="路径 3936" class="cls-29" d="M-628.371-3300.72l0,.051-2.3,1.794-1.018-2.8,1.612.642Z"/>
        <path id="路径_3937" data-name="路径 3937" class="cls-30" d="M-628.374-3300.669l-.11,1.68.233,1.719-.03.008h0l-2.39-1.612Z"/>
        <path id="路径_3938" data-name="路径 3938" class="cls-29" d="M-628.281-3297.263l-1.65.42-1.534.739.795-2.771Z"/>
        <path id="路径_3939" data-name="路径 3939" class="cls-28" d="M-630.671-3298.875l-.795,2.771h0l-.028.014-.926-1.467-1.164-1.216Z"/>
      </g>
      <g id="组_2786" data-name="组 2786">
        <path id="路径_3940" data-name="路径 3940" class="cls-28" d="M-612.191-3301.672l-1.018,2.8-2.3-1.794,0-.051,1.707-.309Z"/>
        <path id="路径_3941" data-name="路径 3941" class="cls-29" d="M-610.261-3298.81l-.035.037-2.913-.1,1.018-2.8.822,1.528Z"/>
        <path id="路径_3942" data-name="路径 3942" class="cls-30" d="M-610.3-3298.773l-1.164,1.216-.926,1.467-.028-.014h0l-.795-2.771Z"/>
        <path id="路径_3943" data-name="路径 3943" class="cls-29" d="M-612.414-3296.1l-1.534-.739-1.65-.42,2.39-1.612Z"/>
        <path id="路径_3944" data-name="路径 3944" class="cls-28" d="M-613.209-3298.875l-2.39,1.612h0l-.03-.008.233-1.719-.11-1.68Z"/>
      </g>
    </g>
  </g>
</svg>
