<svg xmlns="http://www.w3.org/2000/svg" xmlns:xlink="http://www.w3.org/1999/xlink" width="81.219" height="70.327" viewBox="0 0 81.219 70.327">
  <defs>
    <style>
      .cls-1, .cls-16, .cls-19, .cls-21, .cls-23, .cls-5, .cls-7, .cls-8 {
        fill: none;
      }

      .cls-2 {
        clip-path: url(#clip-path);
      }

      .cls-14, .cls-3 {
        opacity: 0.1;
      }

      .cls-15, .cls-4 {
        opacity: 0.2;
      }

      .cls-17, .cls-5, .cls-6, .cls-7, .cls-8 {
        stroke: #000;
      }

      .cls-16, .cls-19, .cls-21, .cls-23, .cls-5, .cls-7, .cls-8 {
        stroke-linecap: round;
        stroke-linejoin: round;
      }

      .cls-16, .cls-21, .cls-23, .cls-5, .cls-8 {
        stroke-width: 1.4px;
      }

      .cls-16, .cls-5 {
        stroke-dasharray: 35 3.5 3.5 3.5;
      }

      .cls-17, .cls-6 {
        stroke-miterlimit: 10;
      }

      .cls-17, .cls-19, .cls-6, .cls-7 {
        stroke-width: 0.7px;
      }

      .cls-9 {
        font-size: 12.6px;
        font-family: AlibabaPuHuiTi-Bold, Alibaba PuHuiTi;
        font-weight: 700;
      }

      .cls-10 {
        fill: #ffb17d;
      }

      .cls-11 {
        clip-path: url(#clip-path-4);
      }

      .cls-12 {
        fill: #c66e22;
      }

      .cls-13 {
        fill: #ffa55a;
      }

      .cls-14, .cls-15 {
        fill: #fff;
      }

      .cls-16, .cls-21 {
        stroke: #191919;
      }

      .cls-17 {
        fill: #eaeaea;
      }

      .cls-18 {
        mix-blend-mode: soft-light;
        isolation: isolate;
      }

      .cls-19, .cls-23 {
        stroke: #fff;
      }

      .cls-20 {
        fill: #ffda34;
      }

      .cls-22 {
        fill: #ff9f36;
      }

      .cls-24 {
        fill: #fce47b;
      }

      .cls-25 {
        fill: #ecc05d;
      }

      .cls-26 {
        fill: #eaa654;
      }
    </style>
    <clipPath id="clip-path">
      <path id="路径_3473" data-name="路径 3473" class="cls-1" d="M-501.61-3295.136l-6.547-4.2a34.865,34.865,0,0,0-37.651,0l-6.547,4.2a7.866,7.866,0,0,0-3.62,6.622v28.593a7.867,7.867,0,0,0,3.62,6.622l21.125,13.55a7.868,7.868,0,0,0,8.495,0l21.125-13.55a7.868,7.868,0,0,0,3.62-6.622v-28.593A7.866,7.866,0,0,0-501.61-3295.136Z"/>
    </clipPath>
    <clipPath id="clip-path-4">
      <path id="路径_3946" data-name="路径 3946" class="cls-1" d="M-504.06-3297.586l-6.547-4.2a34.865,34.865,0,0,0-37.651,0l-6.547,4.2a7.866,7.866,0,0,0-3.62,6.622v28.593a7.868,7.868,0,0,0,3.62,6.622l21.125,13.55a7.868,7.868,0,0,0,8.495,0l21.125-13.55a7.868,7.868,0,0,0,3.62-6.622v-28.593A7.866,7.866,0,0,0-504.06-3297.586Z"/>
    </clipPath>
  </defs>
  <g id="吃吃吃" transform="translate(-242.364 -298.236)">
    <path id="路径_3472" data-name="路径 3472" d="M-501.61-3295.136l-6.547-4.2a34.865,34.865,0,0,0-37.651,0l-6.547,4.2a7.866,7.866,0,0,0-3.62,6.622v28.593a7.867,7.867,0,0,0,3.62,6.622l21.125,13.55a7.868,7.868,0,0,0,8.495,0l21.125-13.55a7.868,7.868,0,0,0,3.62-6.622v-28.593A7.866,7.866,0,0,0-501.61-3295.136Z" transform="translate(807.792 3606.24)"/>
    <g id="组_2667" data-name="组 2667" transform="translate(807.792 3606.24)">
      <g id="组_2666" data-name="组 2666" class="cls-2">
        <rect id="矩形_47486" data-name="矩形 47486" width="32.05" height="112" transform="translate(-543.008 -3324.321)"/>
      </g>
    </g>
    <g id="组_2669" data-name="组 2669" transform="translate(807.792 3606.24)">
      <g id="组_2668" data-name="组 2668" class="cls-2">
        <rect id="矩形_47487" data-name="矩形 47487" width="26.45" height="112" transform="translate(-540.208 -3324.321)"/>
      </g>
    </g>
    <path id="路径_3475" data-name="路径 3475" class="cls-3" d="M-501.61-3295.136l-6.547-4.2a34.849,34.849,0,0,0-20.05-5.5,34.836,34.836,0,0,1,17.6,5.5l6.547,4.2a7.866,7.866,0,0,1,3.62,6.622v28.593a7.868,7.868,0,0,1-3.62,6.622l-21.125,13.55a7.858,7.858,0,0,1-3.022,1.146,7.865,7.865,0,0,0,5.472-1.146l21.125-13.55a7.868,7.868,0,0,0,3.62-6.622v-28.593A7.866,7.866,0,0,0-501.61-3295.136Z" transform="translate(807.792 3606.24)"/>
    <path id="路径_3476" data-name="路径 3476" class="cls-4" d="M-551.8-3295.136l6.547-4.2a34.851,34.851,0,0,1,20.051-5.5,34.837,34.837,0,0,0-17.6,5.5l-6.547,4.2a7.866,7.866,0,0,0-3.62,6.622v28.593a7.867,7.867,0,0,0,3.62,6.622l21.125,13.55a7.856,7.856,0,0,0,3.023,1.146,7.867,7.867,0,0,1-5.473-1.146L-551.8-3253.3a7.868,7.868,0,0,1-3.62-6.622v-28.593A7.866,7.866,0,0,1-551.8-3295.136Z" transform="translate(807.792 3606.24)"/>
    <path id="路径_3477" data-name="路径 3477" class="cls-5" d="M-501.61-3295.136l-6.547-4.2a34.865,34.865,0,0,0-37.651,0l-6.547,4.2a7.866,7.866,0,0,0-3.62,6.622v28.593a7.867,7.867,0,0,0,3.62,6.622l21.125,13.55a7.868,7.868,0,0,0,8.495,0l21.125-13.55a7.868,7.868,0,0,0,3.62-6.622v-28.593A7.866,7.866,0,0,0-501.61-3295.136Z" transform="translate(807.792 3606.24)"/>
    <g id="组_2671" data-name="组 2671" transform="translate(807.792 3606.24)">
      <g id="组_2670" data-name="组 2670" class="cls-2">
        <path id="路径_3478" data-name="路径 3478" class="cls-4" d="M-560.224-3263.168l61.654-2.209a1.29,1.29,0,0,1,1.263,1.358v13.005a1.328,1.328,0,0,1-1.022,1.341l-59.843,9.33a1.254,1.254,0,0,1-1.418-1.205l-1.812-20.127A1.317,1.317,0,0,1-560.224-3263.168Z"/>
      </g>
    </g>
    <path id="路径_3480" data-name="路径 3480" class="cls-4" d="M-510.1-3281.786a.628.628,0,0,0-.288-.539,1.04,1.04,0,0,0-.162-.094.74.74,0,0,0-.3-.073.7.7,0,0,0-.144.01.786.786,0,0,0-.137.037l-.042.017c-.029.012-.058.025-.085.039l-.039.022c-.028.016-.054.031-.079.048l-.024.017c-.03.021-.058.042-.083.062h0a1.437,1.437,0,0,0-.129.119l-5.381,7.537a.93.93,0,0,1-.581.388.89.89,0,0,1-.646-.185.97.97,0,0,1-.082-.07.878.878,0,0,1-.122-1.161l5.2-8.086a.774.774,0,0,0,.088-.253.768.768,0,0,0,.01-.138.654.654,0,0,0-.226-.47.934.934,0,0,0-.094-.076,1.236,1.236,0,0,0-.152-.079.749.749,0,0,0-.266-.068.6.6,0,0,0-.121.008.7.7,0,0,0-.3.131.742.742,0,0,0-.114.1l-5.9,7.556a1.114,1.114,0,0,1-.619.361.773.773,0,0,1-.609-.157.983.983,0,0,1-.1-.081h0a.761.761,0,0,1-.067-.074l-.015-.017a.547.547,0,0,1-.048-.072l-.015-.022a.738.738,0,0,1-.034-.071l-.011-.027a.581.581,0,0,1-.023-.071l-.008-.028a.53.53,0,0,1-.013-.07l0-.028c0-.023-.005-.046-.006-.069v-.029c0-.022,0-.044,0-.066v-.028c0-.021,0-.042.007-.063l0-.027c0-.02.007-.04.01-.058l.006-.027c0-.018.009-.036.013-.053l.007-.024.014-.046.008-.022.013-.039.009-.021.011-.029.009-.019.008-.019.008-.016,0-.007,0-.009s1.127-1.6,2.351-3.332l.245-.347.492-.694c.488-.688.959-1.348,1.346-1.886.129-.18.249-.346.357-.5.324-.446.543-.739.59-.783a.9.9,0,0,0,.139-.623c0-.016-.006-.03-.008-.045a.949.949,0,0,0-.069-.226.812.812,0,0,0-.266-.337.471.471,0,0,0-.112-.062.615.615,0,0,0-.323-.029l-.1.02c-.1.023-.2.05-.278.075-.051.016-.094.031-.123.042l-.047.017-.015.017-.005,0c-.293.318-4.128,4.5-6.3,7.542-2.241,3.255-.187,7.26-.187,7.26l-2.4,3.186-11.3-15.981-1.627-2.281a3.411,3.411,0,0,0-.731-.79l-.02-.014a1.033,1.033,0,0,0-.139-.08l-.025-.011a.675.675,0,0,0-.144-.047.431.431,0,0,0-.119,0,.438.438,0,0,0-.237.1,1.484,1.484,0,0,0-.411.8c-.029.106-.055.224-.079.354a8.406,8.406,0,0,0-.1,1.569c.008.363.033.731.07,1.093.064.633.164,1.249.27,1.8.122.624.253,1.156.348,1.517.012.045.023.087.034.127.064.237.1.373.1.373a18.285,18.285,0,0,0,2.592,6.355c.076.11.154.215.231.317.155.2.312.4.47.573a7.379,7.379,0,0,0,1.678,1.418c.159.1.318.183.475.261s.313.146.467.207a6.04,6.04,0,0,0,1.112.317c.161.03.314.05.464.066l.124.012c.116.011.23.018.339.022l.084,0a6.556,6.556,0,0,0,.771-.026h0c.216-.02.4-.046.553-.071l2.921,4.448-6.707,8.9a1.647,1.647,0,0,0,.512,2.312,1.812,1.812,0,0,0,.9.342l.036,0a1.544,1.544,0,0,0,.168,0h.049a1.89,1.89,0,0,0,.2-.021,1.618,1.618,0,0,0,1.007-.558l5.539-8.391,5.241,7.981c.045.065.092.128.142.189a2.549,2.549,0,0,0,.706.6,2,2,0,0,0,.619.23,1.281,1.281,0,0,0,.229.02c.038,0,.076,0,.114-.007s.067-.006.1-.012a1.3,1.3,0,0,0,.148-.034l.05-.016a1.237,1.237,0,0,0,.168-.069h0a1.279,1.279,0,0,0,.169-.1,1.742,1.742,0,0,0,.451-2.455l-6.369-9.006,2.62-3.969a8.483,8.483,0,0,0,.856.048h.037c.15,0,.3,0,.442-.007.047,0,.093-.006.139-.009.113-.007.226-.013.336-.024.163-.017.323-.037.478-.063a8.219,8.219,0,0,0,3.847-1.757,8.248,8.248,0,0,0,.693-.631l0,0c.035-.036.067-.068.093-.1a16.355,16.355,0,0,0,1.038-1.583l.2-.321c.134-.221.274-.454.418-.694,1.517-2.53,3.5-5.971,3.5-5.971C-510.151-3281.49-510.1-3281.62-510.1-3281.786Z" transform="translate(807.792 3606.24)"/>
    <path id="路径_3481" data-name="路径 3481" class="cls-6" d="M-518.392-3287.574m-15.122,31.558a1.615,1.615,0,0,1-1.007.558,1.769,1.769,0,0,1-1.348-.326,1.647,1.647,0,0,1-.512-2.312l10.932-14.5s-2.054-4.005.187-7.26c2.256-3.162,6.317-7.564,6.317-7.564a3.05,3.05,0,0,1,.553-.154h0a.576.576,0,0,1,.435.091.929.929,0,0,1,.2,1.231c-.252.237-5.381,7.537-5.381,7.537a.981.981,0,0,0,.2,1.232.773.773,0,0,0,.609.157,1.113,1.113,0,0,0,.619-.361l5.9-7.556a.769.769,0,0,1,.415-.231.778.778,0,0,1,.539.139.694.694,0,0,1,.222.937l-5.2,8.086a.874.874,0,0,0,.2,1.231.891.891,0,0,0,.646.185.93.93,0,0,0,.581-.388l5.381-7.537a1.242,1.242,0,0,1,.618-.361.791.791,0,0,1,.609.157c.477.341.2.808.272.862,0,0-4.595,7.99-5.148,8.569a8.351,8.351,0,0,1-4.636,2.487,8.333,8.333,0,0,1-2.288.054Z" transform="translate(807.792 3606.24)"/>
    <path id="路径_3482" data-name="路径 3482" class="cls-6" d="M-532.245-3272.141a6.653,6.653,0,0,1-2.336-.007c-2.261-.414-5.349-2.312-7.025-9.448,0,0-1.175-3.856-.728-6.474.19-1.038.53-1.3.845-1.244.5.092,1.059.942,1.059.942l1.627,2.281,19.315,27.313a1.744,1.744,0,0,1-.45,2.456,1.285,1.285,0,0,1-.979.212,2.376,2.376,0,0,1-1.466-1.015Z" transform="translate(807.792 3606.24)"/>
    <path id="路径_3483" data-name="路径 3483" d="M-533.383-3272.148c-2.261-.414-5.349-2.312-7.025-9.448,0,0-1.175-3.856-.729-6.474a3.058,3.058,0,0,1,.261-.849,1.322,1.322,0,0,0-.613-.4c-.315-.057-.655.206-.845,1.244-.447,2.618.728,6.474.728,6.474,1.676,7.136,4.764,9.034,7.025,9.448a6.509,6.509,0,0,0,1.783.078C-532.985-3272.087-533.179-3272.11-533.383-3272.148Z" transform="translate(807.792 3606.24)"/>
    <path id="路径_3484" data-name="路径 3484" d="M-521.186-3257.125l-9.861-15.016a7.064,7.064,0,0,1-1.133.1l9.8,14.918a2.376,2.376,0,0,0,1.466,1.015,1.269,1.269,0,0,0,.81-.118A2.522,2.522,0,0,1-521.186-3257.125Z" transform="translate(807.792 3606.24)"/>
    <path id="路径_3485" data-name="路径 3485" d="M-515.476-3285.1l-5.2,8.086a.876.876,0,0,0,.2,1.232.891.891,0,0,0,.646.184.868.868,0,0,0,.47-.255.878.878,0,0,1-.122-1.161l5.2-8.086a.692.692,0,0,0-.222-.937.781.781,0,0,0-.539-.139.769.769,0,0,0-.415.231l-.063.08A.7.7,0,0,1-515.476-3285.1Z" transform="translate(807.792 3606.24)"/>
    <path id="路径_3486" data-name="路径 3486" d="M-518.6-3286.952c-.252.237-5.381,7.538-5.381,7.538a.978.978,0,0,0,.2,1.231.77.77,0,0,0,.608.157,1.051,1.051,0,0,0,.493-.238,1.013,1.013,0,0,1-.107-1.15s5.128-7.3,5.38-7.538a.929.929,0,0,0-.2-1.231.576.576,0,0,0-.435-.091,3.09,3.09,0,0,0-.553.154l-.066.072A.946.946,0,0,1-518.6-3286.952Z" transform="translate(807.792 3606.24)"/>
    <path id="路径_3487" data-name="路径 3487" d="M-524.435-3271.753l-9.927,15.037a1.538,1.538,0,0,1-.694.477,1.733,1.733,0,0,0,.885.081,1.611,1.611,0,0,0,1.007-.558l9.894-14.987A8.5,8.5,0,0,1-524.435-3271.753Z" transform="translate(807.792 3606.24)"/>
    <path id="路径_3488" data-name="路径 3488" d="M-511.437-3283.725a.8.8,0,0,0-.609-.157,1.09,1.09,0,0,0-.489.242c.333.329.106.727.172.777,0,0-4.594,7.991-5.147,8.569a8.349,8.349,0,0,1-4.637,2.487c-.233.039-.478.064-.728.082a8.272,8.272,0,0,0,1.926-.082,8.344,8.344,0,0,0,4.636-2.487c.554-.578,5.148-8.569,5.148-8.569C-511.237-3282.917-510.96-3283.383-511.437-3283.725Z" transform="translate(807.792 3606.24)"/>
    <line id="直线_2147" data-name="直线 2147" class="cls-7" x2="1.843" y2="2.764" transform="translate(270.353 324.635)"/>
    <path id="路径_3489" data-name="路径 3489" class="cls-7" d="M-539.282-3284.368h0l.58.87" transform="translate(807.792 3606.24)"/>
    <path id="路径_3490" data-name="路径 3490" class="cls-7" d="M-524.914-3277.85a4.284,4.284,0,0,0,.76,3.128" transform="translate(807.792 3606.24)"/>
    <path id="路径_3491" data-name="路径 3491" class="cls-7" d="M-524.154-3279.936a2.5,2.5,0,0,0-.567,1.043h0" transform="translate(807.792 3606.24)"/>
    <path id="路径_3492" data-name="路径 3492" d="M-488.08-3267.387l-19.378,3.915a1.327,1.327,0,0,0-1,1.337v15.123a1.27,1.27,0,0,0,1.424,1.341l21.092-3.906a1.4,1.4,0,0,0,.664-2.3l-3.911-5.046a1.471,1.471,0,0,1-.229-1.568l2.655-6.95A1.331,1.331,0,0,0-488.08-3267.387Z" transform="translate(807.792 3606.24)"/>
    <path id="路径_3493" data-name="路径 3493" class="cls-8" d="M-488.08-3267.387l-19.378,3.915a1.327,1.327,0,0,0-1,1.337v15.123a1.27,1.27,0,0,0,1.424,1.341l21.092-3.906a1.4,1.4,0,0,0,.664-2.3l-3.911-5.046a1.471,1.471,0,0,1-.229-1.568l2.655-6.95A1.331,1.331,0,0,0-488.08-3267.387Z" transform="translate(807.792 3606.24)"/>
    <path id="路径_3494" data-name="路径 3494" class="cls-4" d="M-494.157-3248.721v-17.438l-13.3,2.687a1.327,1.327,0,0,0-1,1.337v15.123a1.27,1.27,0,0,0,1.424,1.341l12.065-2.234Z" transform="translate(807.792 3606.24)"/>
    <path id="路径_3495" data-name="路径 3495" d="M-561.918-3266.026l3.717-4.13a1.212,1.212,0,0,1,2.088.96v19.325a1.47,1.47,0,0,1-.205.754l-2.044,3.405a1.2,1.2,0,0,1-2.234-.618l-1.674-18.6A1.445,1.445,0,0,1-561.918-3266.026Z" transform="translate(807.792 3606.24)"/>
    <path id="路径_3496" data-name="路径 3496" class="cls-8" d="M-561.918-3266.026l3.717-4.13a1.212,1.212,0,0,1,2.088.96v19.325a1.47,1.47,0,0,1-.205.754l-2.044,3.405a1.2,1.2,0,0,1-2.234-.618l-1.674-18.6A1.445,1.445,0,0,1-561.918-3266.026Z" transform="translate(807.792 3606.24)"/>
    <path id="路径_3497" data-name="路径 3497" d="M-506.61-3246.642l7.913-5.275a1.4,1.4,0,0,0,.593-1.165v-13.133a1.265,1.265,0,0,0-1.462-1.333l-7.913,1.758a1.331,1.331,0,0,0-.983,1.333v16.649A1.227,1.227,0,0,0-506.61-3246.642Z" transform="translate(807.792 3606.24)"/>
    <path id="路径_3498" data-name="路径 3498" class="cls-8" d="M-506.61-3246.642l7.913-5.275a1.4,1.4,0,0,0,.593-1.165v-13.133a1.265,1.265,0,0,0-1.462-1.333l-7.913,1.758a1.331,1.331,0,0,0-.983,1.333v16.649A1.227,1.227,0,0,0-506.61-3246.642Z" transform="translate(807.792 3606.24)"/>
    <path id="路径_3499" data-name="路径 3499" d="M-561.02-3265.618l61.654-2.209a1.29,1.29,0,0,1,1.262,1.358v13a1.327,1.327,0,0,1-1.022,1.341l-59.842,9.33a1.254,1.254,0,0,1-1.418-1.205l-1.812-20.127A1.317,1.317,0,0,1-561.02-3265.618Z" transform="translate(807.792 3606.24)"/>
    <path id="路径_3500" data-name="路径 3500" class="cls-8" d="M-561.02-3265.618l61.654-2.209a1.29,1.29,0,0,1,1.262,1.358v13a1.327,1.327,0,0,1-1.022,1.341l-59.842,9.33a1.254,1.254,0,0,1-1.418-1.205l-1.812-20.127A1.317,1.317,0,0,1-561.02-3265.618Z" transform="translate(807.792 3606.24)"/>
    <path id="路径_3501" data-name="路径 3501" class="cls-4" d="M-499.366-3267.827l-.391.014v11.2a1.328,1.328,0,0,1-1.022,1.341l-59.783,9.321.176,1.954a1.254,1.254,0,0,0,1.418,1.205l59.842-9.33a1.327,1.327,0,0,0,1.022-1.341v-13A1.29,1.29,0,0,0-499.366-3267.827Z" transform="translate(807.792 3606.24)"/>
    <path id="路径_3502" data-name="路径 3502" d="M-558.1-3261.041l-.151-1.68h0" transform="translate(807.792 3606.24)"/>
    <path id="路径_3503" data-name="路径 3503" class="cls-8" d="M-558.1-3261.041l-.151-1.68h0" transform="translate(807.792 3606.24)"/>
    <line id="直线_2148" data-name="直线 2148" x1="0.302" y1="3.36" transform="translate(249.99 348.559)"/>
    <line id="直线_2149" data-name="直线 2149" class="cls-8" x1="0.302" y1="3.36" transform="translate(249.99 348.559)"/>
    <path id="路径_3504" data-name="路径 3504" d="M-526.749-3301.921v2.977l-2.772-.9-.021-.047,1.5-.874Z" transform="translate(807.792 3606.24)"/>
    <path id="路径_3505" data-name="路径 3505" d="M-523.957-3299.892l-.021.047-2.772.9v-2.977l1.295,1.155Z" transform="translate(807.792 3606.24)"/>
    <path id="路径_3506" data-name="路径 3506" d="M-523.977-3299.845l-.678,1.541-.369,1.7-.031,0h0l-1.694-2.332Z" transform="translate(807.792 3606.24)"/>
    <path id="路径_3507" data-name="路径 3507" d="M-525.055-3296.612l-1.694-.17-1.694.17,1.694-2.332Z" transform="translate(807.792 3606.24)"/>
    <path id="路径_3508" data-name="路径 3508" d="M-526.749-3298.944l-1.694,2.332h0l-.031,0-.369-1.7-.678-1.541Z" transform="translate(807.792 3606.24)"/>
    <path id="路径_3509" data-name="路径 3509" d="M-536.5-3299.222l1.018,2.8-2.913.1-.035-.037,1.109-1.334Z" transform="translate(807.792 3606.24)"/>
    <path id="路径_3510" data-name="路径 3510" d="M-533.18-3298.27l0,.051-2.3,1.794-1.018-2.8,1.612.642Z" transform="translate(807.792 3606.24)"/>
    <path id="路径_3511" data-name="路径 3511" d="M-533.184-3298.219l-.11,1.68.233,1.719-.03.008h0l-2.39-1.612Z" transform="translate(807.792 3606.24)"/>
    <path id="路径_3512" data-name="路径 3512" d="M-533.091-3294.813l-1.65.42-1.534.739.795-2.771Z" transform="translate(807.792 3606.24)"/>
    <path id="路径_3513" data-name="路径 3513" d="M-535.48-3296.425l-.795,2.771h0l-.028.014-.926-1.467-1.164-1.216Z" transform="translate(807.792 3606.24)"/>
    <path id="路径_3514" data-name="路径 3514" d="M-517-3299.222l-1.018,2.8-2.3-1.794,0-.051,1.707-.309Z" transform="translate(807.792 3606.24)"/>
    <path id="路径_3515" data-name="路径 3515" d="M-515.07-3296.36l-.035.037-2.913-.1,1.018-2.8.822,1.528Z" transform="translate(807.792 3606.24)"/>
    <path id="路径_3516" data-name="路径 3516" d="M-515.105-3296.323l-1.164,1.216-.926,1.467-.028-.014h0l-.795-2.771Z" transform="translate(807.792 3606.24)"/>
    <path id="路径_3517" data-name="路径 3517" d="M-517.224-3293.654l-1.534-.739-1.65-.42,2.39-1.612Z" transform="translate(807.792 3606.24)"/>
    <path id="路径_3518" data-name="路径 3518" d="M-518.018-3296.425l-2.39,1.612h0l-.03-.008.233-1.719-.11-1.68Z" transform="translate(807.792 3606.24)"/>
    <text id="吃吃吃-2" data-name="吃吃吃" class="cls-9" transform="matrix(0.998, -0.07, 0.07, 0.998, 277.493, 352.857)"><tspan x="-18.598" y="0">吃吃吃</tspan></text>
    <g id="组_2811" data-name="组 2811" transform="translate(807.792 3606.24)">
      <path id="路径_3945" data-name="路径 3945" class="cls-10" d="M-504.06-3297.586l-6.547-4.2a34.865,34.865,0,0,0-37.651,0l-6.547,4.2a7.866,7.866,0,0,0-3.62,6.622v28.593a7.868,7.868,0,0,0,3.62,6.622l21.125,13.55a7.868,7.868,0,0,0,8.495,0l21.125-13.55a7.868,7.868,0,0,0,3.62-6.622v-28.593A7.866,7.866,0,0,0-504.06-3297.586Z"/>
      <g id="组_2789" data-name="组 2789">
        <g id="组_2788" data-name="组 2788" class="cls-11">
          <rect id="矩形_47515" data-name="矩形 47515" class="cls-12" width="32.05" height="112" transform="translate(-545.458 -3326.771)"/>
        </g>
      </g>
      <g id="组_2791" data-name="组 2791">
        <g id="组_2790" data-name="组 2790" class="cls-11">
          <rect id="矩形_47516" data-name="矩形 47516" class="cls-13" width="26.45" height="112" transform="translate(-542.658 -3326.771)"/>
        </g>
      </g>
      <g id="组_2792" data-name="组 2792">
        <path id="路径_3948" data-name="路径 3948" class="cls-14" d="M-504.06-3297.586l-6.547-4.2a34.848,34.848,0,0,0-20.05-5.5,34.834,34.834,0,0,1,17.6,5.5l6.547,4.2a7.866,7.866,0,0,1,3.62,6.622v28.593a7.868,7.868,0,0,1-3.62,6.622l-21.125,13.55a7.862,7.862,0,0,1-3.022,1.146,7.865,7.865,0,0,0,5.472-1.146l21.125-13.55a7.868,7.868,0,0,0,3.62-6.622v-28.593A7.866,7.866,0,0,0-504.06-3297.586Z"/>
      </g>
      <g id="组_2793" data-name="组 2793">
        <path id="路径_3949" data-name="路径 3949" class="cls-15" d="M-554.255-3297.586l6.547-4.2a34.849,34.849,0,0,1,20.051-5.5,34.835,34.835,0,0,0-17.6,5.5l-6.547,4.2a7.866,7.866,0,0,0-3.62,6.622v28.593a7.868,7.868,0,0,0,3.62,6.622l21.125,13.55a7.86,7.86,0,0,0,3.023,1.146,7.867,7.867,0,0,1-5.473-1.146l-21.125-13.55a7.868,7.868,0,0,1-3.62-6.622v-28.593A7.866,7.866,0,0,1-554.255-3297.586Z"/>
      </g>
      <path id="路径_3950" data-name="路径 3950" class="cls-16" d="M-504.06-3297.586l-6.547-4.2a34.865,34.865,0,0,0-37.651,0l-6.547,4.2a7.866,7.866,0,0,0-3.62,6.622v28.593a7.868,7.868,0,0,0,3.62,6.622l21.125,13.55a7.868,7.868,0,0,0,8.495,0l21.125-13.55a7.868,7.868,0,0,0,3.62-6.622v-28.593A7.866,7.866,0,0,0-504.06-3297.586Z"/>
      <g id="组_2796" data-name="组 2796">
        <g id="组_2795" data-name="组 2795" class="cls-11">
          <g id="组_2794" data-name="组 2794">
            <path id="路径_3951" data-name="路径 3951" class="cls-4" d="M-562.674-3265.618l61.654-2.209a1.29,1.29,0,0,1,1.263,1.358v13a1.328,1.328,0,0,1-1.022,1.341l-59.843,9.33A1.254,1.254,0,0,1-562.04-3244l-1.812-20.127A1.317,1.317,0,0,1-562.674-3265.618Z"/>
          </g>
        </g>
      </g>
      <g id="组_2797" data-name="组 2797">
        <path id="路径_3953" data-name="路径 3953" class="cls-4" d="M-512.549-3284.236a.628.628,0,0,0-.288-.539,1.042,1.042,0,0,0-.162-.094.74.74,0,0,0-.3-.073.681.681,0,0,0-.144.01.786.786,0,0,0-.137.037l-.042.017c-.029.012-.058.025-.085.039l-.039.022c-.028.016-.054.031-.079.048l-.024.017c-.03.021-.058.042-.083.062h0a1.437,1.437,0,0,0-.129.119l-5.381,7.537a.93.93,0,0,1-.581.388.891.891,0,0,1-.646-.185.97.97,0,0,1-.082-.07.878.878,0,0,1-.122-1.161l5.2-8.086a.775.775,0,0,0,.088-.253.764.764,0,0,0,.01-.138.654.654,0,0,0-.226-.47.934.934,0,0,0-.094-.076,1.236,1.236,0,0,0-.152-.079.749.749,0,0,0-.266-.068.615.615,0,0,0-.121.008.7.7,0,0,0-.3.131.739.739,0,0,0-.114.1l-5.9,7.556a1.114,1.114,0,0,1-.619.361.773.773,0,0,1-.609-.157.977.977,0,0,1-.1-.081h0a.761.761,0,0,1-.067-.074l-.015-.017a.547.547,0,0,1-.048-.072l-.015-.022a.738.738,0,0,1-.034-.071l-.011-.027a.6.6,0,0,1-.023-.071l-.008-.028a.536.536,0,0,1-.013-.07l0-.028c0-.023,0-.046-.006-.069v-.029c0-.022,0-.044,0-.066v-.028c0-.021,0-.042.007-.063l0-.027c0-.02.007-.04.01-.058l.006-.027c0-.018.009-.036.013-.053l.007-.024.014-.046.008-.022.013-.039.009-.021.011-.029.009-.019.008-.019.008-.016,0-.007,0-.009s1.127-1.6,2.351-3.332l.245-.347.492-.694c.488-.688.959-1.348,1.346-1.886.129-.18.249-.346.357-.495.324-.446.543-.739.59-.783a.9.9,0,0,0,.139-.623c0-.016-.006-.03-.008-.045a.949.949,0,0,0-.069-.226.811.811,0,0,0-.266-.337.471.471,0,0,0-.112-.062.61.61,0,0,0-.323-.029c-.036.006-.071.013-.1.02-.1.023-.2.05-.278.075-.051.016-.094.031-.123.042l-.047.017-.015.017-.005.005c-.293.318-4.128,4.5-6.3,7.542-2.241,3.255-.187,7.26-.187,7.26l-2.4,3.186-11.3-15.981-1.627-2.281a3.413,3.413,0,0,0-.731-.79l-.02-.014a1.031,1.031,0,0,0-.139-.08l-.025-.011a.676.676,0,0,0-.144-.047.422.422,0,0,0-.119,0,.439.439,0,0,0-.237.1,1.484,1.484,0,0,0-.411.795c-.029.106-.055.224-.079.354a8.415,8.415,0,0,0-.1,1.569c.008.363.033.731.07,1.093.064.633.164,1.249.27,1.795.122.624.253,1.156.348,1.517l.034.127c.064.237.105.373.105.373a18.284,18.284,0,0,0,2.592,6.355c.076.11.154.215.231.317.155.205.312.4.47.573a7.38,7.38,0,0,0,1.678,1.418c.159.1.318.183.475.261s.313.146.467.207a6.04,6.04,0,0,0,1.112.317c.161.03.314.05.464.066.042.005.082.009.124.012.116.011.23.018.339.022l.084,0a6.552,6.552,0,0,0,.771-.026h0c.216-.02.4-.046.553-.071l2.921,4.448-6.707,8.9a1.647,1.647,0,0,0,.512,2.312,1.812,1.812,0,0,0,.9.342l.036,0a1.607,1.607,0,0,0,.168,0h.049a1.889,1.889,0,0,0,.2-.021,1.617,1.617,0,0,0,1.007-.558l5.539-8.391,5.241,7.981c.045.065.092.128.142.189a2.554,2.554,0,0,0,.706.6,2,2,0,0,0,.619.23,1.281,1.281,0,0,0,.229.02c.038,0,.076,0,.114-.007s.067-.006.1-.012a1.246,1.246,0,0,0,.148-.034l.05-.016a1.208,1.208,0,0,0,.168-.069h0a1.251,1.251,0,0,0,.169-.095,1.742,1.742,0,0,0,.451-2.455l-6.369-9.006,2.62-3.969a8.483,8.483,0,0,0,.856.048h.037c.15,0,.3,0,.442-.007.047,0,.093-.006.139-.009.113-.007.226-.013.336-.024.163-.017.323-.037.478-.063a8.219,8.219,0,0,0,3.847-1.757,8.233,8.233,0,0,0,.693-.631l0,0c.035-.036.067-.068.093-.1a16.343,16.343,0,0,0,1.038-1.583l.2-.321c.134-.221.274-.454.418-.694,1.517-2.53,3.5-5.971,3.5-5.971C-512.6-3283.94-512.55-3284.07-512.549-3284.236Z"/>
      </g>
      <path id="路径_3954" data-name="路径 3954" class="cls-17" d="M-520.842-3290.024m-15.122,31.558a1.616,1.616,0,0,1-1.007.558,1.769,1.769,0,0,1-1.348-.326,1.647,1.647,0,0,1-.512-2.312l10.932-14.5s-2.054-4.005.187-7.26c2.256-3.162,6.317-7.564,6.317-7.564a3.062,3.062,0,0,1,.553-.154h0a.576.576,0,0,1,.435.091.929.929,0,0,1,.2,1.231c-.252.237-5.381,7.537-5.381,7.537a.98.98,0,0,0,.2,1.232.772.772,0,0,0,.609.157,1.114,1.114,0,0,0,.619-.361l5.9-7.556a.769.769,0,0,1,.415-.231.776.776,0,0,1,.539.139.694.694,0,0,1,.222.937l-5.2,8.086a.874.874,0,0,0,.2,1.231.891.891,0,0,0,.646.185.93.93,0,0,0,.581-.388l5.381-7.537a1.244,1.244,0,0,1,.618-.361.792.792,0,0,1,.609.157c.477.341.2.808.272.862,0,0-4.595,7.99-5.148,8.569a8.351,8.351,0,0,1-4.636,2.487,8.333,8.333,0,0,1-2.288.054Z"/>
      <g id="组_2801" data-name="组 2801">
        <path id="路径_3955" data-name="路径 3955" class="cls-17" d="M-534.7-3274.591a6.653,6.653,0,0,1-2.336-.007c-2.261-.414-5.349-2.312-7.025-9.448,0,0-1.175-3.856-.728-6.474.19-1.038.53-1.3.845-1.244.5.092,1.059.942,1.059.942l1.627,2.281,19.315,27.313a1.744,1.744,0,0,1-.45,2.456,1.286,1.286,0,0,1-.979.212,2.377,2.377,0,0,1-1.466-1.015Z"/>
        <g id="组_2798" data-name="组 2798" class="cls-18">
          <path id="路径_3956" data-name="路径 3956" d="M-535.833-3274.6c-2.261-.414-5.349-2.312-7.025-9.448,0,0-1.175-3.856-.729-6.474a3.058,3.058,0,0,1,.261-.849,1.32,1.32,0,0,0-.613-.4c-.315-.057-.655.206-.845,1.244-.447,2.618.728,6.474.728,6.474,1.676,7.136,4.764,9.034,7.025,9.448a6.509,6.509,0,0,0,1.783.078C-535.435-3274.537-535.629-3274.56-535.833-3274.6Z"/>
          <path id="路径_3957" data-name="路径 3957" d="M-523.636-3259.575l-9.861-15.016a7.121,7.121,0,0,1-1.133.1l9.8,14.918a2.377,2.377,0,0,0,1.466,1.015,1.269,1.269,0,0,0,.81-.118A2.522,2.522,0,0,1-523.636-3259.575Z"/>
        </g>
        <g id="组_2800" data-name="组 2800" class="cls-18">
          <g id="组_2799" data-name="组 2799">
            <path id="路径_3958" data-name="路径 3958" d="M-517.926-3287.548l-5.2,8.086a.876.876,0,0,0,.2,1.232.891.891,0,0,0,.646.184.868.868,0,0,0,.47-.255.878.878,0,0,1-.122-1.161l5.2-8.086a.692.692,0,0,0-.222-.937.782.782,0,0,0-.539-.139.769.769,0,0,0-.415.231l-.063.08A.7.7,0,0,1-517.926-3287.548Z"/>
            <path id="路径_3959" data-name="路径 3959" d="M-521.05-3289.4c-.252.237-5.381,7.538-5.381,7.538a.978.978,0,0,0,.2,1.231.77.77,0,0,0,.608.157,1.046,1.046,0,0,0,.493-.238,1.012,1.012,0,0,1-.107-1.15s5.128-7.3,5.38-7.538a.929.929,0,0,0-.2-1.231.577.577,0,0,0-.435-.091,3.1,3.1,0,0,0-.553.154l-.066.072A.946.946,0,0,1-521.05-3289.4Z"/>
            <path id="路径_3960" data-name="路径 3960" d="M-526.885-3274.2l-9.927,15.037a1.538,1.538,0,0,1-.694.477,1.733,1.733,0,0,0,.885.081,1.611,1.611,0,0,0,1.007-.558l9.894-14.987A8.463,8.463,0,0,1-526.885-3274.2Z"/>
            <path id="路径_3961" data-name="路径 3961" d="M-513.887-3286.175a.794.794,0,0,0-.609-.157,1.093,1.093,0,0,0-.489.242c.333.329.106.727.172.777,0,0-4.594,7.991-5.147,8.569a8.347,8.347,0,0,1-4.637,2.487c-.233.039-.478.064-.728.082a8.258,8.258,0,0,0,1.926-.082,8.343,8.343,0,0,0,4.636-2.487c.554-.578,5.148-8.569,5.148-8.569C-513.687-3285.367-513.41-3285.833-513.887-3286.175Z"/>
          </g>
        </g>
        <line id="直线_2170" data-name="直线 2170" class="cls-19" x2="1.843" y2="2.764" transform="translate(-539.889 -3284.054)"/>
        <path id="路径_3962" data-name="路径 3962" class="cls-19" d="M-541.732-3286.818h0l.58.87"/>
        <path id="路径_3963" data-name="路径 3963" class="cls-19" d="M-527.364-3280.3a4.284,4.284,0,0,0,.76,3.128"/>
        <path id="路径_3964" data-name="路径 3964" class="cls-19" d="M-526.6-3282.386a2.5,2.5,0,0,0-.567,1.043h0"/>
      </g>
      <g id="组_2810" data-name="组 2810">
        <g id="组_2802" data-name="组 2802">
          <path id="路径_3965" data-name="路径 3965" class="cls-20" d="M-490.53-3269.837l-19.378,3.915a1.327,1.327,0,0,0-1,1.337v15.123a1.27,1.27,0,0,0,1.424,1.341l21.092-3.906a1.4,1.4,0,0,0,.664-2.3l-3.911-5.046a1.471,1.471,0,0,1-.229-1.568l2.655-6.95A1.331,1.331,0,0,0-490.53-3269.837Z"/>
          <path id="路径_3966" data-name="路径 3966" class="cls-21" d="M-490.53-3269.837l-19.378,3.915a1.327,1.327,0,0,0-1,1.337v15.123a1.27,1.27,0,0,0,1.424,1.341l21.092-3.906a1.4,1.4,0,0,0,.664-2.3l-3.911-5.046a1.471,1.471,0,0,1-.229-1.568l2.655-6.95A1.331,1.331,0,0,0-490.53-3269.837Z"/>
        </g>
        <g id="组_2803" data-name="组 2803">
          <path id="路径_3967" data-name="路径 3967" class="cls-4" d="M-496.607-3251.171v-17.438l-13.3,2.687a1.327,1.327,0,0,0-1,1.337v15.123a1.27,1.27,0,0,0,1.424,1.341l12.065-2.234Z"/>
        </g>
        <g id="组_2804" data-name="组 2804">
          <path id="路径_3968" data-name="路径 3968" class="cls-22" d="M-564.368-3268.476l3.717-4.13a1.212,1.212,0,0,1,2.088.96v19.325a1.469,1.469,0,0,1-.205.754l-2.044,3.4a1.2,1.2,0,0,1-2.234-.618l-1.674-18.6A1.445,1.445,0,0,1-564.368-3268.476Z"/>
          <path id="路径_3969" data-name="路径 3969" class="cls-21" d="M-564.368-3268.476l3.717-4.13a1.212,1.212,0,0,1,2.088.96v19.325a1.469,1.469,0,0,1-.205.754l-2.044,3.4a1.2,1.2,0,0,1-2.234-.618l-1.674-18.6A1.445,1.445,0,0,1-564.368-3268.476Z"/>
        </g>
        <g id="组_2805" data-name="组 2805">
          <path id="路径_3970" data-name="路径 3970" class="cls-22" d="M-509.06-3249.092l7.913-5.275a1.4,1.4,0,0,0,.593-1.165v-13.133a1.266,1.266,0,0,0-1.462-1.333l-7.913,1.758a1.331,1.331,0,0,0-.983,1.333v16.649A1.227,1.227,0,0,0-509.06-3249.092Z"/>
          <path id="路径_3971" data-name="路径 3971" class="cls-21" d="M-509.06-3249.092l7.913-5.275a1.4,1.4,0,0,0,.593-1.165v-13.133a1.266,1.266,0,0,0-1.462-1.333l-7.913,1.758a1.331,1.331,0,0,0-.983,1.333v16.649A1.227,1.227,0,0,0-509.06-3249.092Z"/>
        </g>
        <g id="组_2806" data-name="组 2806">
          <path id="路径_3972" data-name="路径 3972" class="cls-20" d="M-563.47-3268.068l61.654-2.209a1.29,1.29,0,0,1,1.262,1.358v13a1.327,1.327,0,0,1-1.022,1.341l-59.842,9.33a1.254,1.254,0,0,1-1.418-1.205l-1.812-20.127A1.318,1.318,0,0,1-563.47-3268.068Z"/>
          <path id="路径_3973" data-name="路径 3973" class="cls-21" d="M-563.47-3268.068l61.654-2.209a1.29,1.29,0,0,1,1.262,1.358v13a1.327,1.327,0,0,1-1.022,1.341l-59.842,9.33a1.254,1.254,0,0,1-1.418-1.205l-1.812-20.127A1.318,1.318,0,0,1-563.47-3268.068Z"/>
        </g>
        <g id="组_2807" data-name="组 2807">
          <path id="路径_3974" data-name="路径 3974" class="cls-4" d="M-501.816-3270.277l-.391.014v11.2a1.328,1.328,0,0,1-1.022,1.341l-59.783,9.321.176,1.954a1.254,1.254,0,0,0,1.418,1.205l59.842-9.33a1.327,1.327,0,0,0,1.022-1.341v-13A1.29,1.29,0,0,0-501.816-3270.277Z"/>
        </g>
        <g id="组_2808" data-name="组 2808">
          <path id="路径_3975" data-name="路径 3975" class="cls-20" d="M-560.554-3263.491l-.151-1.68h0"/>
          <path id="路径_3976" data-name="路径 3976" class="cls-23" d="M-560.554-3263.491l-.151-1.68h0"/>
        </g>
        <g id="组_2809" data-name="组 2809">
          <line id="直线_2171" data-name="直线 2171" class="cls-20" x1="0.302" y1="3.36" transform="translate(-560.252 -3260.131)"/>
          <line id="直线_2172" data-name="直线 2172" class="cls-23" x1="0.302" y1="3.36" transform="translate(-560.252 -3260.131)"/>
        </g>
      </g>
    </g>
    <g id="组_2815" data-name="组 2815" transform="translate(807.792 3606.24)">
      <g id="组_2812" data-name="组 2812">
        <path id="路径_3977" data-name="路径 3977" class="cls-24" d="M-529.2-3304.371v2.977l-2.772-.9-.021-.047,1.5-.874Z"/>
        <path id="路径_3978" data-name="路径 3978" class="cls-25" d="M-526.407-3302.342l-.021.047-2.772.9v-2.977l1.295,1.155Z"/>
        <path id="路径_3979" data-name="路径 3979" class="cls-26" d="M-526.427-3302.3l-.678,1.541-.369,1.7-.031,0h0l-1.694-2.332Z"/>
        <path id="路径_3980" data-name="路径 3980" class="cls-25" d="M-527.505-3299.062l-1.694-.17-1.694.17,1.694-2.332Z"/>
        <path id="路径_3981" data-name="路径 3981" class="cls-24" d="M-529.2-3301.394l-1.694,2.332h0l-.031,0-.369-1.7-.678-1.541Z"/>
      </g>
      <g id="组_2813" data-name="组 2813">
        <path id="路径_3982" data-name="路径 3982" class="cls-24" d="M-538.948-3301.672l1.018,2.8-2.913.1-.035-.037,1.109-1.334Z"/>
        <path id="路径_3983" data-name="路径 3983" class="cls-25" d="M-535.63-3300.72l0,.051-2.3,1.794-1.018-2.8,1.612.642Z"/>
        <path id="路径_3984" data-name="路径 3984" class="cls-26" d="M-535.634-3300.669l-.11,1.68.233,1.719-.03.008h0l-2.39-1.612Z"/>
        <path id="路径_3985" data-name="路径 3985" class="cls-25" d="M-535.541-3297.263l-1.65.42-1.534.739.795-2.771Z"/>
        <path id="路径_3986" data-name="路径 3986" class="cls-24" d="M-537.93-3298.875l-.795,2.771h0l-.028.014-.926-1.467-1.164-1.216Z"/>
      </g>
      <g id="组_2814" data-name="组 2814">
        <path id="路径_3987" data-name="路径 3987" class="cls-24" d="M-519.45-3301.672l-1.018,2.8-2.3-1.794,0-.051,1.707-.309Z"/>
        <path id="路径_3988" data-name="路径 3988" class="cls-25" d="M-517.52-3298.81l-.035.037-2.913-.1,1.018-2.8.822,1.528Z"/>
        <path id="路径_3989" data-name="路径 3989" class="cls-26" d="M-517.555-3298.773l-1.164,1.216-.926,1.467-.028-.014h0l-.795-2.771Z"/>
        <path id="路径_3990" data-name="路径 3990" class="cls-25" d="M-519.674-3296.1l-1.534-.739-1.65-.42,2.39-1.612Z"/>
        <path id="路径_3991" data-name="路径 3991" class="cls-24" d="M-520.468-3298.875l-2.39,1.612h0l-.03-.008.233-1.719-.11-1.68Z"/>
      </g>
    </g>
  </g>
</svg>
