<svg xmlns="http://www.w3.org/2000/svg" xmlns:xlink="http://www.w3.org/1999/xlink" width="81.219" height="70.327" viewBox="0 0 81.219 70.327">
  <defs>
    <style>
      .cls-1, .cls-16, .cls-26, .cls-28, .cls-5, .cls-8 {
        fill: none;
      }

      .cls-2 {
        clip-path: url(#clip-path);
      }

      .cls-14, .cls-3 {
        opacity: 0.1;
      }

      .cls-15, .cls-4 {
        opacity: 0.2;
      }

      .cls-20, .cls-21, .cls-22, .cls-23, .cls-24, .cls-5, .cls-6, .cls-7, .cls-8 {
        stroke: #000;
      }

      .cls-16, .cls-22, .cls-23, .cls-26, .cls-28, .cls-5, .cls-7, .cls-8 {
        stroke-linecap: round;
        stroke-linejoin: round;
      }

      .cls-16, .cls-26, .cls-28, .cls-5, .cls-8 {
        stroke-width: 1.4px;
      }

      .cls-16, .cls-22, .cls-23, .cls-5, .cls-7 {
        stroke-dasharray: 35 3.5 3.5 3.5;
      }

      .cls-20, .cls-21, .cls-24, .cls-6 {
        stroke-miterlimit: 10;
      }

      .cls-20, .cls-21, .cls-22, .cls-23, .cls-24, .cls-6, .cls-7 {
        stroke-width: 0.7px;
      }

      .cls-9 {
        font-size: 12.6px;
        font-family: AlibabaPuHuiTi-Bold, Alibaba PuHuiTi;
        font-weight: 700;
      }

      .cls-10 {
        fill: #f1aed7;
      }

      .cls-11 {
        clip-path: url(#clip-path-4);
      }

      .cls-12 {
        fill: #b84a7c;
      }

      .cls-13 {
        fill: #f690c1;
      }

      .cls-14, .cls-15 {
        fill: #fff;
      }

      .cls-16, .cls-26 {
        stroke: #191919;
      }

      .cls-17 {
        fill: #fce47b;
      }

      .cls-18 {
        fill: #ecc05d;
      }

      .cls-19 {
        fill: #eaa654;
      }

      .cls-20 {
        fill: #f0e0ff;
      }

      .cls-21, .cls-22 {
        fill: #ac4cff;
      }

      .cls-23 {
        fill: #a224b2;
      }

      .cls-24 {
        fill: #883ecc;
      }

      .cls-25 {
        fill: #ffda34;
      }

      .cls-27 {
        fill: #ff9f36;
      }

      .cls-28 {
        stroke: #fff;
      }
    </style>
    <clipPath id="clip-path">
      <path id="路径_3595" data-name="路径 3595" class="cls-1" d="M-594.01-3199.936l-6.547-4.2a34.866,34.866,0,0,0-37.651,0l-6.547,4.2a7.867,7.867,0,0,0-3.62,6.622v28.593a7.867,7.867,0,0,0,3.62,6.622l21.125,13.55a7.867,7.867,0,0,0,8.495,0l21.125-13.55a7.867,7.867,0,0,0,3.62-6.622v-28.593A7.867,7.867,0,0,0-594.01-3199.936Z"/>
    </clipPath>
    <clipPath id="clip-path-4">
      <path id="路径_4068" data-name="路径 4068" class="cls-1" d="M-596.46-3202.386l-6.547-4.2a34.865,34.865,0,0,0-37.651,0l-6.547,4.2a7.866,7.866,0,0,0-3.62,6.622v28.593a7.868,7.868,0,0,0,3.62,6.622L-626.08-3147a7.868,7.868,0,0,0,8.495,0l21.125-13.55a7.867,7.867,0,0,0,3.62-6.622v-28.593A7.866,7.866,0,0,0-596.46-3202.386Z"/>
    </clipPath>
  </defs>
  <g id="网络达人" transform="translate(-149.964 -393.436)">
    <path id="路径_3594" data-name="路径 3594" d="M-594.01-3199.936l-6.547-4.2a34.866,34.866,0,0,0-37.651,0l-6.547,4.2a7.867,7.867,0,0,0-3.62,6.622v28.593a7.867,7.867,0,0,0,3.62,6.622l21.125,13.55a7.867,7.867,0,0,0,8.495,0l21.125-13.55a7.867,7.867,0,0,0,3.62-6.622v-28.593A7.867,7.867,0,0,0-594.01-3199.936Z" transform="translate(807.792 3606.24)"/>
    <g id="组_2685" data-name="组 2685" transform="translate(807.792 3606.24)">
      <g id="组_2684" data-name="组 2684" class="cls-2">
        <rect id="矩形_47495" data-name="矩形 47495" width="32.05" height="112" transform="translate(-635.408 -3229.121)"/>
      </g>
    </g>
    <g id="组_2687" data-name="组 2687" transform="translate(807.792 3606.24)">
      <g id="组_2686" data-name="组 2686" class="cls-2">
        <rect id="矩形_47496" data-name="矩形 47496" width="26.45" height="112" transform="translate(-632.608 -3229.121)"/>
      </g>
    </g>
    <path id="路径_3597" data-name="路径 3597" class="cls-3" d="M-594.01-3199.936l-6.547-4.2a34.85,34.85,0,0,0-20.05-5.5,34.836,34.836,0,0,1,17.6,5.5l6.547,4.2a7.867,7.867,0,0,1,3.62,6.622v28.593a7.867,7.867,0,0,1-3.62,6.622l-21.125,13.55a7.858,7.858,0,0,1-3.022,1.146,7.864,7.864,0,0,0,5.472-1.146l21.125-13.55a7.867,7.867,0,0,0,3.62-6.622v-28.593A7.867,7.867,0,0,0-594.01-3199.936Z" transform="translate(807.792 3606.24)"/>
    <path id="路径_3598" data-name="路径 3598" class="cls-4" d="M-644.205-3199.936l6.547-4.2a34.851,34.851,0,0,1,20.051-5.5,34.837,34.837,0,0,0-17.6,5.5l-6.547,4.2a7.867,7.867,0,0,0-3.62,6.622v28.593a7.867,7.867,0,0,0,3.62,6.622l21.125,13.55a7.856,7.856,0,0,0,3.023,1.146,7.866,7.866,0,0,1-5.473-1.146l-21.125-13.55a7.867,7.867,0,0,1-3.62-6.622v-28.593A7.867,7.867,0,0,1-644.205-3199.936Z" transform="translate(807.792 3606.24)"/>
    <path id="路径_3599" data-name="路径 3599" class="cls-5" d="M-594.01-3199.936l-6.547-4.2a34.866,34.866,0,0,0-37.651,0l-6.547,4.2a7.867,7.867,0,0,0-3.62,6.622v28.593a7.867,7.867,0,0,0,3.62,6.622l21.125,13.55a7.867,7.867,0,0,0,8.495,0l21.125-13.55a7.867,7.867,0,0,0,3.62-6.622v-28.593A7.867,7.867,0,0,0-594.01-3199.936Z" transform="translate(807.792 3606.24)"/>
    <g id="组_2689" data-name="组 2689" transform="translate(807.792 3606.24)">
      <g id="组_2688" data-name="组 2688" class="cls-2">
        <path id="路径_3600" data-name="路径 3600" class="cls-4" d="M-652.624-3167.968l61.654-2.209a1.291,1.291,0,0,1,1.263,1.358v13.005a1.328,1.328,0,0,1-1.022,1.341l-59.843,9.33a1.254,1.254,0,0,1-1.418-1.2l-1.812-20.127A1.317,1.317,0,0,1-652.624-3167.968Z"/>
      </g>
    </g>
    <path id="路径_3602" data-name="路径 3602" d="M-619.49-3206.721v2.977l-2.772-.9-.021-.047,1.5-.874Z" transform="translate(807.792 3606.24)"/>
    <path id="路径_3603" data-name="路径 3603" d="M-616.7-3204.692l-.021.047-2.772.9v-2.977l1.295,1.155Z" transform="translate(807.792 3606.24)"/>
    <path id="路径_3604" data-name="路径 3604" d="M-616.718-3204.645l-.678,1.541-.369,1.7-.031,0h0l-1.694-2.332Z" transform="translate(807.792 3606.24)"/>
    <path id="路径_3605" data-name="路径 3605" d="M-617.8-3201.412l-1.694-.17-1.694.17,1.694-2.332Z" transform="translate(807.792 3606.24)"/>
    <path id="路径_3606" data-name="路径 3606" d="M-619.49-3203.744l-1.694,2.332h0l-.031,0-.369-1.7-.678-1.541Z" transform="translate(807.792 3606.24)"/>
    <path id="路径_3607" data-name="路径 3607" d="M-629.239-3204.022l1.018,2.8-2.913.1-.035-.037,1.109-1.334Z" transform="translate(807.792 3606.24)"/>
    <path id="路径_3608" data-name="路径 3608" d="M-625.921-3203.07l0,.051-2.3,1.795-1.018-2.8,1.612.642Z" transform="translate(807.792 3606.24)"/>
    <path id="路径_3609" data-name="路径 3609" d="M-625.924-3203.019l-.11,1.68.233,1.719-.03.008h0l-2.39-1.612Z" transform="translate(807.792 3606.24)"/>
    <path id="路径_3610" data-name="路径 3610" d="M-625.831-3199.613l-1.65.42-1.534.739.795-2.771Z" transform="translate(807.792 3606.24)"/>
    <path id="路径_3611" data-name="路径 3611" d="M-628.221-3201.224l-.795,2.771h0l-.028.014-.926-1.467-1.164-1.216Z" transform="translate(807.792 3606.24)"/>
    <path id="路径_3612" data-name="路径 3612" d="M-609.741-3204.022l-1.018,2.8-2.3-1.795,0-.051,1.707-.309Z" transform="translate(807.792 3606.24)"/>
    <path id="路径_3613" data-name="路径 3613" d="M-607.811-3201.16l-.035.037-2.913-.1,1.018-2.8.822,1.528Z" transform="translate(807.792 3606.24)"/>
    <path id="路径_3614" data-name="路径 3614" d="M-607.846-3201.123l-1.164,1.216-.926,1.467-.028-.014h0l-.795-2.771Z" transform="translate(807.792 3606.24)"/>
    <path id="路径_3615" data-name="路径 3615" d="M-609.964-3198.454l-1.534-.739-1.65-.42,2.39-1.612Z" transform="translate(807.792 3606.24)"/>
    <path id="路径_3616" data-name="路径 3616" d="M-610.759-3201.224l-2.39,1.612h0l-.03-.008.233-1.719-.11-1.68Z" transform="translate(807.792 3606.24)"/>
    <path id="路径_3617" data-name="路径 3617" class="cls-6" d="M-634.559-3182.647l.472-4.306a.649.649,0,0,1,.647-.647.65.65,0,0,1,.648.647l.471,4.306" transform="translate(807.792 3606.24)"/>
    <path id="路径_3618" data-name="路径 3618" class="cls-6" d="M-632.322-3182.347a.3.3,0,0,1-.3-.288l-.471-4.3a.351.351,0,0,0-.348-.36.347.347,0,0,0-.347.348l-.472,4.318a.314.314,0,0,1-.311.287.3.3,0,0,1-.287-.312l.471-4.305a.945.945,0,0,1,.946-.935.948.948,0,0,1,.948.947l.47,4.294a.3.3,0,0,1-.079.215.3.3,0,0,1-.208.1Zm0,0" transform="translate(807.792 3606.24)"/>
    <path id="路径_3619" data-name="路径 3619" class="cls-7" d="M-601.829-3168.611h-35.107a3.247,3.247,0,0,1-3.237-3.237v-5.9a3.246,3.246,0,0,1,3.237-3.237h35.107a3.246,3.246,0,0,1,3.237,3.237v5.9a3.247,3.247,0,0,1-3.237,3.237" transform="translate(807.792 3606.24)"/>
    <rect id="矩形_47497" data-name="矩形 47497" class="cls-7" width="37.37" height="8.597" rx="1.71" transform="translate(169.55 427.013)"/>
    <path id="路径_3620" data-name="路径 3620" class="cls-6" d="M-604.646-3175.011a1.25,1.25,0,0,1-1.25,1.25,1.25,1.25,0,0,1-1.249-1.25,1.25,1.25,0,0,1,1.249-1.25,1.25,1.25,0,0,1,1.25,1.25" transform="translate(807.792 3606.24)"/>
    <path id="路径_3621" data-name="路径 3621" class="cls-6" d="M-605.9-3173.462a1.551,1.551,0,0,1-1.55-1.549,1.551,1.551,0,0,1,1.55-1.549,1.551,1.551,0,0,1,1.549,1.549,1.551,1.551,0,0,1-1.549,1.549m0-2.5a.952.952,0,0,0-.951.951.952.952,0,0,0,.951.951.952.952,0,0,0,.95-.951.952.952,0,0,0-.95-.951" transform="translate(807.792 3606.24)"/>
    <path id="路径_3622" data-name="路径 3622" class="cls-6" d="M-609.031-3175.011a.614.614,0,0,1-.614.614.616.616,0,0,1-.543-.3.618.618,0,0,1,0-.622.616.616,0,0,1,.543-.3.614.614,0,0,1,.614.614" transform="translate(807.792 3606.24)"/>
    <path id="路径_3623" data-name="路径 3623" class="cls-6" d="M-609.646-3174.1a.915.915,0,0,1-.914-.913.916.916,0,0,1,.914-.914.915.915,0,0,1,.914.914.915.915,0,0,1-.914.913m0-1.228h0" transform="translate(807.792 3606.24)"/>
    <path id="路径_3624" data-name="路径 3624" class="cls-6" d="M-611.532-3175.011a.614.614,0,0,1-.614.614.616.616,0,0,1-.542-.3.613.613,0,0,1,0-.622.616.616,0,0,1,.542-.3.614.614,0,0,1,.614.614" transform="translate(807.792 3606.24)"/>
    <path id="路径_3625" data-name="路径 3625" class="cls-6" d="M-612.146-3174.1a.915.915,0,0,1-.914-.913.916.916,0,0,1,.914-.914.915.915,0,0,1,.914.914.915.915,0,0,1-.914.913m0-1.228h0" transform="translate(807.792 3606.24)"/>
    <path id="路径_3626" data-name="路径 3626" class="cls-6" d="M-614.032-3175.011a.614.614,0,0,1-.614.614.616.616,0,0,1-.542-.3.613.613,0,0,1,0-.622.616.616,0,0,1,.542-.3.613.613,0,0,1,.614.614" transform="translate(807.792 3606.24)"/>
    <path id="路径_3627" data-name="路径 3627" class="cls-6" d="M-614.646-3174.1a.914.914,0,0,1-.913-.913.914.914,0,0,1,.913-.914.916.916,0,0,1,.914.914.915.915,0,0,1-.914.913m0-1.228a.314.314,0,0,0-.314.315.314.314,0,0,0,.314.314.315.315,0,0,0,.315-.314.315.315,0,0,0-.315-.315m-11.825.172h-5.422a.3.3,0,0,1-.3-.3.3.3,0,0,1,.3-.3h5.422a.3.3,0,0,1,.3.3.3.3,0,0,1-.3.3m-7.749,0h-2.268a.3.3,0,0,1-.3-.3.3.3,0,0,1,.3-.3h2.268a.3.3,0,0,1,.3.3.3.3,0,0,1-.3.3" transform="translate(807.792 3606.24)"/>
    <path id="路径_3628" data-name="路径 3628" class="cls-6" d="M-634.909-3181.441a1.535,1.535,0,0,1,1.535-1.535,1.536,1.536,0,0,1,1.535,1.535" transform="translate(807.792 3606.24)"/>
    <path id="路径_3629" data-name="路径 3629" class="cls-6" d="M-631.839-3181.141a.3.3,0,0,1-.212-.088.3.3,0,0,1-.087-.212,1.237,1.237,0,0,0-1.236-1.235,1.237,1.237,0,0,0-1.236,1.235.3.3,0,0,1-.3.3.3.3,0,0,1-.3-.3,1.836,1.836,0,0,1,1.835-1.834,1.836,1.836,0,0,1,1.834,1.834.3.3,0,0,1-.087.212.3.3,0,0,1-.212.088" transform="translate(807.792 3606.24)"/>
    <path id="路径_3630" data-name="路径 3630" class="cls-6" d="M-628.173-3191.5c0,.082-.088.154-.215.177a.358.358,0,0,1-.372-.125,4.365,4.365,0,0,0-3.89-2.3,4.669,4.669,0,0,0-4.032,1.817.392.392,0,0,1-.393.1c-.152-.041-.223-.148-.158-.242a5.343,5.343,0,0,1,4.618-2.04,4.958,4.958,0,0,1,4.431,2.561.133.133,0,0,1,.011.051" transform="translate(807.792 3606.24)"/>
    <path id="路径_3631" data-name="路径 3631" class="cls-6" d="M-630.518-3190a.3.3,0,0,1-.205.284.3.3,0,0,1-.334-.1,2.4,2.4,0,0,0-1.783-1.04,2.382,2.382,0,0,0-1.868.855.3.3,0,0,1-.207.1.3.3,0,0,1-.216-.078.3.3,0,0,1-.02-.423,2.973,2.973,0,0,1,2.34-1.051,2.982,2.982,0,0,1,2.234,1.28.3.3,0,0,1,.059.18" transform="translate(807.792 3606.24)"/>
    <path id="路径_3632" data-name="路径 3632" class="cls-6" d="M-626.458-3193.316c0,.078-.091.147-.222.167a.36.36,0,0,1-.367-.122c-.886-1.91-3.081-3.1-5.726-3.1-2.713,0-5.059,1.243-5.978,3.176a.361.361,0,0,1-.368.122.34.34,0,0,1-.182-.082.113.113,0,0,1-.028-.132c.993-2.088,3.567-3.435,6.557-3.43,2.929,0,5.344,1.293,6.3,3.36a.108.108,0,0,1,.01.045" transform="translate(807.792 3606.24)"/>
    <path id="路径_3633" data-name="路径 3633" d="M-580.48-3172.187l-19.378,3.915a1.327,1.327,0,0,0-1,1.337v15.123a1.27,1.27,0,0,0,1.424,1.341l21.092-3.906a1.4,1.4,0,0,0,.664-2.3l-3.911-5.046a1.471,1.471,0,0,1-.229-1.568l2.655-6.95A1.331,1.331,0,0,0-580.48-3172.187Z" transform="translate(807.792 3606.24)"/>
    <path id="路径_3634" data-name="路径 3634" class="cls-8" d="M-580.48-3172.187l-19.378,3.915a1.327,1.327,0,0,0-1,1.337v15.123a1.27,1.27,0,0,0,1.424,1.341l21.092-3.906a1.4,1.4,0,0,0,.664-2.3l-3.911-5.046a1.471,1.471,0,0,1-.229-1.568l2.655-6.95A1.331,1.331,0,0,0-580.48-3172.187Z" transform="translate(807.792 3606.24)"/>
    <path id="路径_3635" data-name="路径 3635" class="cls-4" d="M-586.557-3153.521v-17.438l-13.3,2.687a1.327,1.327,0,0,0-1,1.337v15.123a1.27,1.27,0,0,0,1.424,1.341l12.065-2.234Z" transform="translate(807.792 3606.24)"/>
    <path id="路径_3636" data-name="路径 3636" d="M-654.318-3170.826l3.717-4.13a1.212,1.212,0,0,1,2.088.96v19.325a1.468,1.468,0,0,1-.205.754l-2.044,3.405a1.2,1.2,0,0,1-2.234-.618l-1.674-18.6A1.444,1.444,0,0,1-654.318-3170.826Z" transform="translate(807.792 3606.24)"/>
    <path id="路径_3637" data-name="路径 3637" class="cls-8" d="M-654.318-3170.826l3.717-4.13a1.212,1.212,0,0,1,2.088.96v19.325a1.468,1.468,0,0,1-.205.754l-2.044,3.405a1.2,1.2,0,0,1-2.234-.618l-1.674-18.6A1.444,1.444,0,0,1-654.318-3170.826Z" transform="translate(807.792 3606.24)"/>
    <path id="路径_3638" data-name="路径 3638" d="M-599.01-3151.442l7.913-5.275a1.4,1.4,0,0,0,.593-1.165v-13.133a1.265,1.265,0,0,0-1.462-1.333l-7.913,1.758a1.331,1.331,0,0,0-.983,1.333v16.649A1.227,1.227,0,0,0-599.01-3151.442Z" transform="translate(807.792 3606.24)"/>
    <path id="路径_3639" data-name="路径 3639" class="cls-8" d="M-599.01-3151.442l7.913-5.275a1.4,1.4,0,0,0,.593-1.165v-13.133a1.265,1.265,0,0,0-1.462-1.333l-7.913,1.758a1.331,1.331,0,0,0-.983,1.333v16.649A1.227,1.227,0,0,0-599.01-3151.442Z" transform="translate(807.792 3606.24)"/>
    <path id="路径_3640" data-name="路径 3640" d="M-653.42-3170.418l61.654-2.209a1.29,1.29,0,0,1,1.262,1.358v13.005a1.327,1.327,0,0,1-1.022,1.341l-59.842,9.33a1.254,1.254,0,0,1-1.418-1.205l-1.812-20.127A1.317,1.317,0,0,1-653.42-3170.418Z" transform="translate(807.792 3606.24)"/>
    <path id="路径_3641" data-name="路径 3641" class="cls-8" d="M-653.42-3170.418l61.654-2.209a1.29,1.29,0,0,1,1.262,1.358v13.005a1.327,1.327,0,0,1-1.022,1.341l-59.842,9.33a1.254,1.254,0,0,1-1.418-1.205l-1.812-20.127A1.317,1.317,0,0,1-653.42-3170.418Z" transform="translate(807.792 3606.24)"/>
    <path id="路径_3642" data-name="路径 3642" class="cls-4" d="M-591.766-3172.627l-.391.014v11.2a1.328,1.328,0,0,1-1.022,1.341l-59.783,9.321.176,1.954a1.254,1.254,0,0,0,1.418,1.205l59.842-9.33a1.327,1.327,0,0,0,1.022-1.341v-13.005A1.29,1.29,0,0,0-591.766-3172.627Z" transform="translate(807.792 3606.24)"/>
    <path id="路径_3643" data-name="路径 3643" d="M-650.5-3165.841l-.151-1.68h0" transform="translate(807.792 3606.24)"/>
    <path id="路径_3644" data-name="路径 3644" class="cls-8" d="M-650.5-3165.841l-.151-1.68h0" transform="translate(807.792 3606.24)"/>
    <line id="直线_2152" data-name="直线 2152" x1="0.302" y1="3.36" transform="translate(157.59 443.759)"/>
    <line id="直线_2153" data-name="直线 2153" class="cls-8" x1="0.302" y1="3.36" transform="translate(157.59 443.759)"/>
    <text id="网络达人-2" data-name="网络达人" class="cls-9" transform="matrix(0.998, -0.07, 0.07, 0.998, 185.093, 448.406)"><tspan x="-24.797" y="0">网络达人</tspan></text>
    <g id="组_2870" data-name="组 2870" transform="translate(807.792 3606.24)">
      <path id="路径_4067" data-name="路径 4067" class="cls-10" d="M-596.46-3202.386l-6.547-4.2a34.865,34.865,0,0,0-37.651,0l-6.547,4.2a7.866,7.866,0,0,0-3.62,6.622v28.593a7.868,7.868,0,0,0,3.62,6.622L-626.08-3147a7.868,7.868,0,0,0,8.495,0l21.125-13.55a7.867,7.867,0,0,0,3.62-6.622v-28.593A7.866,7.866,0,0,0-596.46-3202.386Z"/>
      <g id="组_2847" data-name="组 2847">
        <g id="组_2846" data-name="组 2846" class="cls-11">
          <rect id="矩形_47524" data-name="矩形 47524" class="cls-12" width="32.05" height="112" transform="translate(-637.858 -3231.571)"/>
        </g>
      </g>
      <g id="组_2849" data-name="组 2849">
        <g id="组_2848" data-name="组 2848" class="cls-11">
          <rect id="矩形_47525" data-name="矩形 47525" class="cls-13" width="26.45" height="112" transform="translate(-635.058 -3231.571)"/>
        </g>
      </g>
      <g id="组_2850" data-name="组 2850">
        <path id="路径_4070" data-name="路径 4070" class="cls-14" d="M-596.46-3202.386l-6.547-4.2a34.849,34.849,0,0,0-20.05-5.5,34.837,34.837,0,0,1,17.6,5.5l6.547,4.2a7.866,7.866,0,0,1,3.62,6.622v28.593a7.868,7.868,0,0,1-3.62,6.622L-620.035-3147a7.858,7.858,0,0,1-3.022,1.146,7.865,7.865,0,0,0,5.472-1.146l21.125-13.55a7.867,7.867,0,0,0,3.62-6.622v-28.593A7.866,7.866,0,0,0-596.46-3202.386Z"/>
      </g>
      <g id="组_2851" data-name="组 2851">
        <path id="路径_4071" data-name="路径 4071" class="cls-15" d="M-646.655-3202.386l6.547-4.2a34.85,34.85,0,0,1,20.051-5.5,34.837,34.837,0,0,0-17.6,5.5l-6.547,4.2a7.866,7.866,0,0,0-3.62,6.622v28.593a7.868,7.868,0,0,0,3.62,6.622L-623.08-3147a7.856,7.856,0,0,0,3.023,1.146A7.868,7.868,0,0,1-625.53-3147l-21.125-13.55a7.868,7.868,0,0,1-3.62-6.622v-28.593A7.866,7.866,0,0,1-646.655-3202.386Z"/>
      </g>
      <path id="路径_4072" data-name="路径 4072" class="cls-16" d="M-596.46-3202.386l-6.547-4.2a34.865,34.865,0,0,0-37.651,0l-6.547,4.2a7.866,7.866,0,0,0-3.62,6.622v28.593a7.868,7.868,0,0,0,3.62,6.622L-626.08-3147a7.868,7.868,0,0,0,8.495,0l21.125-13.55a7.867,7.867,0,0,0,3.62-6.622v-28.593A7.866,7.866,0,0,0-596.46-3202.386Z"/>
      <g id="组_2854" data-name="组 2854">
        <g id="组_2853" data-name="组 2853" class="cls-11">
          <g id="组_2852" data-name="组 2852">
            <path id="路径_4073" data-name="路径 4073" class="cls-4" d="M-655.074-3170.418l61.654-2.209a1.29,1.29,0,0,1,1.263,1.358v13.005a1.328,1.328,0,0,1-1.022,1.341l-59.843,9.33a1.254,1.254,0,0,1-1.418-1.205l-1.812-20.127A1.317,1.317,0,0,1-655.074-3170.418Z"/>
          </g>
        </g>
      </g>
      <g id="组_2858" data-name="组 2858">
        <g id="组_2855" data-name="组 2855">
          <path id="路径_4075" data-name="路径 4075" class="cls-17" d="M-621.94-3209.171v2.977l-2.772-.9-.021-.047,1.5-.874Z"/>
          <path id="路径_4076" data-name="路径 4076" class="cls-18" d="M-619.147-3207.142l-.021.047-2.772.9v-2.977l1.295,1.155Z"/>
          <path id="路径_4077" data-name="路径 4077" class="cls-19" d="M-619.168-3207.095l-.678,1.541-.369,1.7-.031,0h0l-1.694-2.332Z"/>
          <path id="路径_4078" data-name="路径 4078" class="cls-18" d="M-620.246-3203.862l-1.694-.17-1.694.17,1.694-2.332Z"/>
          <path id="路径_4079" data-name="路径 4079" class="cls-17" d="M-621.94-3206.194l-1.694,2.332h0l-.031,0-.369-1.7-.678-1.541Z"/>
        </g>
        <g id="组_2856" data-name="组 2856">
          <path id="路径_4080" data-name="路径 4080" class="cls-17" d="M-631.689-3206.472l1.018,2.8-2.913.1-.035-.037,1.109-1.334Z"/>
          <path id="路径_4081" data-name="路径 4081" class="cls-18" d="M-628.371-3205.52l0,.051-2.3,1.794-1.018-2.8,1.612.642Z"/>
          <path id="路径_4082" data-name="路径 4082" class="cls-19" d="M-628.374-3205.469l-.11,1.68.233,1.719-.03.008h0l-2.39-1.612Z"/>
          <path id="路径_4083" data-name="路径 4083" class="cls-18" d="M-628.281-3202.063l-1.65.42-1.534.739.795-2.771Z"/>
          <path id="路径_4084" data-name="路径 4084" class="cls-17" d="M-630.671-3203.675l-.795,2.771h0l-.028.014-.926-1.467-1.164-1.216Z"/>
        </g>
        <g id="组_2857" data-name="组 2857">
          <path id="路径_4085" data-name="路径 4085" class="cls-17" d="M-612.191-3206.472l-1.018,2.8-2.3-1.794,0-.051,1.707-.309Z"/>
          <path id="路径_4086" data-name="路径 4086" class="cls-18" d="M-610.261-3203.61l-.035.037-2.913-.1,1.018-2.8.822,1.528Z"/>
          <path id="路径_4087" data-name="路径 4087" class="cls-19" d="M-610.3-3203.573l-1.164,1.216-.926,1.467-.028-.014h0l-.795-2.771Z"/>
          <path id="路径_4088" data-name="路径 4088" class="cls-18" d="M-612.414-3200.9l-1.534-.739-1.65-.42,2.39-1.612Z"/>
          <path id="路径_4089" data-name="路径 4089" class="cls-17" d="M-613.209-3203.675l-2.39,1.612h0l-.03-.008.233-1.719-.11-1.68Z"/>
        </g>
      </g>
      <g id="组_2860" data-name="组 2860">
        <path id="路径_4090" data-name="路径 4090" class="cls-20" d="M-637.009-3185.1l.472-4.306a.649.649,0,0,1,.647-.647.65.65,0,0,1,.648.647l.471,4.306"/>
        <path id="路径_4091" data-name="路径 4091" class="cls-21" d="M-634.772-3184.8a.3.3,0,0,1-.3-.288l-.471-4.3a.351.351,0,0,0-.348-.36.347.347,0,0,0-.347.348l-.472,4.318a.314.314,0,0,1-.311.287.3.3,0,0,1-.287-.312l.471-4.305a.945.945,0,0,1,.946-.935.949.949,0,0,1,.948.947l.47,4.294a.3.3,0,0,1-.079.215.3.3,0,0,1-.208.1Zm0,0"/>
        <path id="路径_4092" data-name="路径 4092" class="cls-22" d="M-604.279-3171.061h-35.107a3.247,3.247,0,0,1-3.237-3.237v-5.9a3.246,3.246,0,0,1,3.237-3.237h35.107a3.246,3.246,0,0,1,3.237,3.237v5.9a3.247,3.247,0,0,1-3.237,3.237"/>
        <rect id="矩形_47526" data-name="矩形 47526" class="cls-23" width="37.37" height="8.597" rx="1.71" transform="translate(-640.692 -3181.677)"/>
        <path id="路径_4093" data-name="路径 4093" class="cls-21" d="M-607.1-3177.461a1.25,1.25,0,0,1-1.25,1.25,1.25,1.25,0,0,1-1.249-1.25,1.25,1.25,0,0,1,1.249-1.25,1.25,1.25,0,0,1,1.25,1.25"/>
        <path id="路径_4094" data-name="路径 4094" class="cls-21" d="M-608.345-3175.912a1.551,1.551,0,0,1-1.55-1.549,1.551,1.551,0,0,1,1.55-1.549,1.551,1.551,0,0,1,1.549,1.549,1.551,1.551,0,0,1-1.549,1.549m0-2.5a.952.952,0,0,0-.951.951.952.952,0,0,0,.951.951.952.952,0,0,0,.95-.951.952.952,0,0,0-.95-.951"/>
        <path id="路径_4095" data-name="路径 4095" class="cls-21" d="M-611.481-3177.461a.614.614,0,0,1-.614.614.616.616,0,0,1-.543-.3.618.618,0,0,1,0-.622.615.615,0,0,1,.543-.3.614.614,0,0,1,.614.614"/>
        <path id="路径_4096" data-name="路径 4096" class="cls-21" d="M-612.1-3176.548a.915.915,0,0,1-.914-.913.916.916,0,0,1,.914-.914.915.915,0,0,1,.914.914.915.915,0,0,1-.914.913m0-1.228h0"/>
        <path id="路径_4097" data-name="路径 4097" class="cls-21" d="M-613.982-3177.461a.614.614,0,0,1-.614.614.616.616,0,0,1-.542-.3.613.613,0,0,1,0-.622.614.614,0,0,1,.542-.3.614.614,0,0,1,.614.614"/>
        <path id="路径_4098" data-name="路径 4098" class="cls-21" d="M-614.6-3176.548a.915.915,0,0,1-.914-.913.916.916,0,0,1,.914-.914.915.915,0,0,1,.914.914.915.915,0,0,1-.914.913m0-1.228h0"/>
        <path id="路径_4099" data-name="路径 4099" class="cls-21" d="M-616.482-3177.461a.614.614,0,0,1-.614.614.616.616,0,0,1-.542-.3.613.613,0,0,1,0-.622.614.614,0,0,1,.542-.3.613.613,0,0,1,.614.614"/>
        <path id="路径_4100" data-name="路径 4100" class="cls-21" d="M-617.1-3176.548a.914.914,0,0,1-.913-.913.914.914,0,0,1,.913-.914.916.916,0,0,1,.914.914.915.915,0,0,1-.914.913m0-1.228a.314.314,0,0,0-.314.315.315.315,0,0,0,.314.314.315.315,0,0,0,.315-.314.315.315,0,0,0-.315-.315m-11.825.172h-5.422a.3.3,0,0,1-.3-.3.3.3,0,0,1,.3-.3h5.422a.3.3,0,0,1,.3.3.3.3,0,0,1-.3.3m-7.749,0h-2.268a.3.3,0,0,1-.3-.3.3.3,0,0,1,.3-.3h2.268a.3.3,0,0,1,.3.3.3.3,0,0,1-.3.3"/>
        <path id="路径_4101" data-name="路径 4101" class="cls-24" d="M-637.359-3183.891a1.535,1.535,0,0,1,1.535-1.535,1.536,1.536,0,0,1,1.535,1.535"/>
        <path id="路径_4102" data-name="路径 4102" class="cls-21" d="M-634.289-3183.591a.3.3,0,0,1-.212-.088.3.3,0,0,1-.087-.212,1.237,1.237,0,0,0-1.236-1.235,1.237,1.237,0,0,0-1.236,1.235.3.3,0,0,1-.3.3.3.3,0,0,1-.3-.3,1.836,1.836,0,0,1,1.835-1.834,1.836,1.836,0,0,1,1.834,1.834.3.3,0,0,1-.087.212.3.3,0,0,1-.212.088"/>
        <g id="组_2859" data-name="组 2859">
          <path id="路径_4103" data-name="路径 4103" class="cls-21" d="M-630.623-3193.955c0,.082-.088.154-.215.177a.357.357,0,0,1-.372-.125,4.364,4.364,0,0,0-3.89-2.3,4.669,4.669,0,0,0-4.032,1.817.392.392,0,0,1-.393.1c-.152-.041-.223-.148-.158-.242a5.344,5.344,0,0,1,4.618-2.04,4.959,4.959,0,0,1,4.431,2.561.136.136,0,0,1,.011.051"/>
          <path id="路径_4104" data-name="路径 4104" class="cls-21" d="M-632.968-3192.449a.3.3,0,0,1-.2.284.3.3,0,0,1-.334-.1,2.4,2.4,0,0,0-1.783-1.04,2.382,2.382,0,0,0-1.868.855.3.3,0,0,1-.207.1.3.3,0,0,1-.216-.078.3.3,0,0,1-.02-.423,2.973,2.973,0,0,1,2.34-1.051,2.982,2.982,0,0,1,2.234,1.28.3.3,0,0,1,.059.18"/>
          <path id="路径_4105" data-name="路径 4105" class="cls-21" d="M-628.908-3195.766c0,.078-.091.147-.222.167a.359.359,0,0,1-.367-.122c-.886-1.91-3.081-3.1-5.726-3.1-2.713,0-5.059,1.243-5.978,3.176a.36.36,0,0,1-.368.122.34.34,0,0,1-.182-.082.113.113,0,0,1-.028-.132c.993-2.088,3.567-3.435,6.557-3.43,2.929,0,5.344,1.293,6.3,3.36a.108.108,0,0,1,.01.045"/>
        </g>
      </g>
      <g id="组_2869" data-name="组 2869">
        <g id="组_2861" data-name="组 2861">
          <path id="路径_4106" data-name="路径 4106" class="cls-25" d="M-582.93-3174.637l-19.378,3.915a1.327,1.327,0,0,0-1,1.337v15.123a1.27,1.27,0,0,0,1.424,1.341l21.092-3.906a1.4,1.4,0,0,0,.664-2.3l-3.911-5.046a1.471,1.471,0,0,1-.229-1.568l2.655-6.95A1.331,1.331,0,0,0-582.93-3174.637Z"/>
          <path id="路径_4107" data-name="路径 4107" class="cls-26" d="M-582.93-3174.637l-19.378,3.915a1.327,1.327,0,0,0-1,1.337v15.123a1.27,1.27,0,0,0,1.424,1.341l21.092-3.906a1.4,1.4,0,0,0,.664-2.3l-3.911-5.046a1.471,1.471,0,0,1-.229-1.568l2.655-6.95A1.331,1.331,0,0,0-582.93-3174.637Z"/>
        </g>
        <g id="组_2862" data-name="组 2862">
          <path id="路径_4108" data-name="路径 4108" class="cls-4" d="M-589.007-3155.971v-17.438l-13.3,2.687a1.327,1.327,0,0,0-1,1.337v15.123a1.27,1.27,0,0,0,1.424,1.341l12.065-2.234Z"/>
        </g>
        <g id="组_2863" data-name="组 2863">
          <path id="路径_4109" data-name="路径 4109" class="cls-27" d="M-656.768-3173.276l3.717-4.13a1.212,1.212,0,0,1,2.088.96v19.325a1.469,1.469,0,0,1-.205.754l-2.044,3.405a1.2,1.2,0,0,1-2.234-.618l-1.674-18.6A1.444,1.444,0,0,1-656.768-3173.276Z"/>
          <path id="路径_4110" data-name="路径 4110" class="cls-26" d="M-656.768-3173.276l3.717-4.13a1.212,1.212,0,0,1,2.088.96v19.325a1.469,1.469,0,0,1-.205.754l-2.044,3.405a1.2,1.2,0,0,1-2.234-.618l-1.674-18.6A1.444,1.444,0,0,1-656.768-3173.276Z"/>
        </g>
        <g id="组_2864" data-name="组 2864">
          <path id="路径_4111" data-name="路径 4111" class="cls-27" d="M-601.46-3153.892l7.913-5.275a1.4,1.4,0,0,0,.593-1.165v-13.133a1.265,1.265,0,0,0-1.462-1.333l-7.913,1.758a1.331,1.331,0,0,0-.983,1.333v16.649A1.227,1.227,0,0,0-601.46-3153.892Z"/>
          <path id="路径_4112" data-name="路径 4112" class="cls-26" d="M-601.46-3153.892l7.913-5.275a1.4,1.4,0,0,0,.593-1.165v-13.133a1.265,1.265,0,0,0-1.462-1.333l-7.913,1.758a1.331,1.331,0,0,0-.983,1.333v16.649A1.227,1.227,0,0,0-601.46-3153.892Z"/>
        </g>
        <g id="组_2865" data-name="组 2865">
          <path id="路径_4113" data-name="路径 4113" class="cls-25" d="M-655.87-3172.868l61.654-2.209a1.29,1.29,0,0,1,1.262,1.358v13a1.327,1.327,0,0,1-1.022,1.341l-59.842,9.33a1.254,1.254,0,0,1-1.418-1.205l-1.812-20.127A1.317,1.317,0,0,1-655.87-3172.868Z"/>
          <path id="路径_4114" data-name="路径 4114" class="cls-26" d="M-655.87-3172.868l61.654-2.209a1.29,1.29,0,0,1,1.262,1.358v13a1.327,1.327,0,0,1-1.022,1.341l-59.842,9.33a1.254,1.254,0,0,1-1.418-1.205l-1.812-20.127A1.317,1.317,0,0,1-655.87-3172.868Z"/>
        </g>
        <g id="组_2866" data-name="组 2866">
          <path id="路径_4115" data-name="路径 4115" class="cls-4" d="M-594.216-3175.077l-.391.014v11.2a1.328,1.328,0,0,1-1.022,1.341l-59.783,9.321.176,1.954a1.254,1.254,0,0,0,1.418,1.205l59.842-9.33a1.327,1.327,0,0,0,1.022-1.341v-13A1.29,1.29,0,0,0-594.216-3175.077Z"/>
        </g>
        <g id="组_2867" data-name="组 2867">
          <path id="路径_4116" data-name="路径 4116" class="cls-25" d="M-652.954-3168.291l-.151-1.68h0"/>
          <path id="路径_4117" data-name="路径 4117" class="cls-28" d="M-652.954-3168.291l-.151-1.68h0"/>
        </g>
        <g id="组_2868" data-name="组 2868">
          <line id="直线_2175" data-name="直线 2175" class="cls-25" x1="0.302" y1="3.36" transform="translate(-652.652 -3164.931)"/>
          <line id="直线_2176" data-name="直线 2176" class="cls-28" x1="0.302" y1="3.36" transform="translate(-652.652 -3164.931)"/>
        </g>
      </g>
    </g>
  </g>
</svg>
