<svg xmlns="http://www.w3.org/2000/svg" xmlns:xlink="http://www.w3.org/1999/xlink" width="81.219" height="70.327" viewBox="0 0 81.219 70.327">
  <defs>
    <style>
      .cls-1, .cls-15, .cls-23, .cls-25, .cls-5, .cls-7 {
        fill: none;
      }

      .cls-2 {
        clip-path: url(#clip-path);
      }

      .cls-13, .cls-3 {
        opacity: 0.1;
      }

      .cls-14, .cls-4 {
        opacity: 0.2;
      }

      .cls-19, .cls-20, .cls-5, .cls-6, .cls-7 {
        stroke: #000;
      }

      .cls-15, .cls-19, .cls-20, .cls-23, .cls-25, .cls-5, .cls-6, .cls-7 {
        stroke-linecap: round;
        stroke-linejoin: round;
      }

      .cls-15, .cls-23, .cls-25, .cls-5, .cls-7 {
        stroke-width: 1.4px;
      }

      .cls-15, .cls-5 {
        stroke-dasharray: 35 3.5 3.5 3.5;
      }

      .cls-19, .cls-20, .cls-6 {
        stroke-width: 0.7px;
        stroke-dasharray: 42 3.5 3.5 3.5;
      }

      .cls-8 {
        font-size: 12.6px;
        font-family: AlibabaPuHuiTi-Bold, Alibaba PuHuiTi;
        font-weight: 700;
      }

      .cls-9 {
        fill: #f17e78;
      }

      .cls-10 {
        clip-path: url(#clip-path-4);
      }

      .cls-11 {
        fill: #b83423;
      }

      .cls-12 {
        fill: #f66b5b;
      }

      .cls-13, .cls-14 {
        fill: #fff;
      }

      .cls-15, .cls-23 {
        stroke: #191919;
      }

      .cls-16 {
        fill: #fce47b;
      }

      .cls-17 {
        fill: #ecc05d;
      }

      .cls-18 {
        fill: #eaa654;
      }

      .cls-19 {
        fill: #fff0e6;
      }

      .cls-20 {
        fill: #f7924d;
      }

      .cls-21 {
        opacity: 0.4;
        mix-blend-mode: soft-light;
        isolation: isolate;
      }

      .cls-22 {
        fill: #ffda34;
      }

      .cls-24 {
        fill: #ff9f36;
      }

      .cls-25 {
        stroke: #fff;
      }
    </style>
    <clipPath id="clip-path">
      <path id="路径_3646" data-name="路径 3646" class="cls-1" d="M-501.61-3199.936l-6.547-4.2a34.866,34.866,0,0,0-37.651,0l-6.547,4.2a7.867,7.867,0,0,0-3.62,6.622v28.593a7.867,7.867,0,0,0,3.62,6.622l21.125,13.55a7.867,7.867,0,0,0,8.495,0l21.125-13.55a7.867,7.867,0,0,0,3.62-6.622v-28.593A7.867,7.867,0,0,0-501.61-3199.936Z"/>
    </clipPath>
    <clipPath id="clip-path-4">
      <path id="路径_4119" data-name="路径 4119" class="cls-1" d="M-504.06-3202.386l-6.547-4.2a34.865,34.865,0,0,0-37.651,0l-6.547,4.2a7.866,7.866,0,0,0-3.62,6.622v28.593a7.868,7.868,0,0,0,3.62,6.622L-533.68-3147a7.868,7.868,0,0,0,8.495,0l21.125-13.55a7.868,7.868,0,0,0,3.62-6.622v-28.593A7.866,7.866,0,0,0-504.06-3202.386Z"/>
    </clipPath>
  </defs>
  <g id="宅无止境" transform="translate(-242.364 -393.436)">
    <path id="路径_3645" data-name="路径 3645" d="M-501.61-3199.936l-6.547-4.2a34.866,34.866,0,0,0-37.651,0l-6.547,4.2a7.867,7.867,0,0,0-3.62,6.622v28.593a7.867,7.867,0,0,0,3.62,6.622l21.125,13.55a7.867,7.867,0,0,0,8.495,0l21.125-13.55a7.867,7.867,0,0,0,3.62-6.622v-28.593A7.867,7.867,0,0,0-501.61-3199.936Z" transform="translate(807.792 3606.24)"/>
    <g id="组_2691" data-name="组 2691" transform="translate(807.792 3606.24)">
      <g id="组_2690" data-name="组 2690" class="cls-2">
        <rect id="矩形_47498" data-name="矩形 47498" width="32.05" height="112" transform="translate(-543.008 -3229.121)"/>
      </g>
    </g>
    <g id="组_2693" data-name="组 2693" transform="translate(807.792 3606.24)">
      <g id="组_2692" data-name="组 2692" class="cls-2">
        <rect id="矩形_47499" data-name="矩形 47499" width="26.45" height="112" transform="translate(-540.208 -3229.121)"/>
      </g>
    </g>
    <path id="路径_3648" data-name="路径 3648" class="cls-3" d="M-501.61-3199.936l-6.547-4.2a34.849,34.849,0,0,0-20.05-5.5,34.836,34.836,0,0,1,17.6,5.5l6.547,4.2a7.867,7.867,0,0,1,3.62,6.622v28.593a7.867,7.867,0,0,1-3.62,6.622l-21.125,13.55a7.858,7.858,0,0,1-3.022,1.146,7.864,7.864,0,0,0,5.472-1.146l21.125-13.55a7.867,7.867,0,0,0,3.62-6.622v-28.593A7.867,7.867,0,0,0-501.61-3199.936Z" transform="translate(807.792 3606.24)"/>
    <path id="路径_3649" data-name="路径 3649" class="cls-4" d="M-551.8-3199.936l6.547-4.2a34.851,34.851,0,0,1,20.051-5.5,34.837,34.837,0,0,0-17.6,5.5l-6.547,4.2a7.867,7.867,0,0,0-3.62,6.622v28.593a7.867,7.867,0,0,0,3.62,6.622l21.125,13.55a7.856,7.856,0,0,0,3.023,1.146,7.866,7.866,0,0,1-5.473-1.146L-551.8-3158.1a7.867,7.867,0,0,1-3.62-6.622v-28.593A7.867,7.867,0,0,1-551.8-3199.936Z" transform="translate(807.792 3606.24)"/>
    <path id="路径_3650" data-name="路径 3650" class="cls-5" d="M-501.61-3199.936l-6.547-4.2a34.866,34.866,0,0,0-37.651,0l-6.547,4.2a7.867,7.867,0,0,0-3.62,6.622v28.593a7.867,7.867,0,0,0,3.62,6.622l21.125,13.55a7.867,7.867,0,0,0,8.495,0l21.125-13.55a7.867,7.867,0,0,0,3.62-6.622v-28.593A7.867,7.867,0,0,0-501.61-3199.936Z" transform="translate(807.792 3606.24)"/>
    <g id="组_2695" data-name="组 2695" transform="translate(807.792 3606.24)">
      <g id="组_2694" data-name="组 2694" class="cls-2">
        <path id="路径_3651" data-name="路径 3651" class="cls-4" d="M-560.224-3167.968l61.654-2.209a1.291,1.291,0,0,1,1.263,1.358v13.005a1.328,1.328,0,0,1-1.022,1.341l-59.843,9.33a1.254,1.254,0,0,1-1.418-1.2l-1.812-20.127A1.317,1.317,0,0,1-560.224-3167.968Z"/>
      </g>
    </g>
    <path id="路径_3653" data-name="路径 3653" d="M-527.09-3206.721v2.977l-2.772-.9-.021-.047,1.5-.874Z" transform="translate(807.792 3606.24)"/>
    <path id="路径_3654" data-name="路径 3654" d="M-524.3-3204.692l-.021.047-2.772.9v-2.977l1.295,1.155Z" transform="translate(807.792 3606.24)"/>
    <path id="路径_3655" data-name="路径 3655" d="M-524.318-3204.645-525-3203.1l-.369,1.7-.031,0h0l-1.694-2.332Z" transform="translate(807.792 3606.24)"/>
    <path id="路径_3656" data-name="路径 3656" d="M-525.4-3201.412l-1.694-.17-1.694.17,1.694-2.332Z" transform="translate(807.792 3606.24)"/>
    <path id="路径_3657" data-name="路径 3657" d="M-527.09-3203.744l-1.694,2.332h0l-.031,0-.369-1.7-.678-1.541Z" transform="translate(807.792 3606.24)"/>
    <path id="路径_3658" data-name="路径 3658" d="M-536.839-3204.022l1.018,2.8-2.913.1-.035-.037,1.109-1.334Z" transform="translate(807.792 3606.24)"/>
    <path id="路径_3659" data-name="路径 3659" d="M-533.521-3203.07l0,.051-2.3,1.795-1.018-2.8,1.612.642Z" transform="translate(807.792 3606.24)"/>
    <path id="路径_3660" data-name="路径 3660" d="M-533.524-3203.019l-.11,1.68.233,1.719-.03.008h0l-2.39-1.612Z" transform="translate(807.792 3606.24)"/>
    <path id="路径_3661" data-name="路径 3661" d="M-533.431-3199.613l-1.65.42-1.534.739.795-2.771Z" transform="translate(807.792 3606.24)"/>
    <path id="路径_3662" data-name="路径 3662" d="M-535.821-3201.224l-.795,2.771h0l-.028.014-.926-1.467-1.164-1.216Z" transform="translate(807.792 3606.24)"/>
    <path id="路径_3663" data-name="路径 3663" d="M-517.341-3204.022l-1.018,2.8-2.3-1.795,0-.051,1.707-.309Z" transform="translate(807.792 3606.24)"/>
    <path id="路径_3664" data-name="路径 3664" d="M-515.411-3201.16l-.035.037-2.913-.1,1.018-2.8.822,1.528Z" transform="translate(807.792 3606.24)"/>
    <path id="路径_3665" data-name="路径 3665" d="M-515.446-3201.123l-1.164,1.216-.926,1.467-.028-.014h0l-.795-2.771Z" transform="translate(807.792 3606.24)"/>
    <path id="路径_3666" data-name="路径 3666" d="M-517.564-3198.454l-1.534-.739-1.65-.42,2.39-1.612Z" transform="translate(807.792 3606.24)"/>
    <path id="路径_3667" data-name="路径 3667" d="M-518.359-3201.224l-2.39,1.612h0l-.03-.008.233-1.719-.11-1.68Z" transform="translate(807.792 3606.24)"/>
    <path id="路径_3668" data-name="路径 3668" class="cls-4" d="M-507.457-3170.369h-32.32c-.413,0-.752-.48-.752-1.066v-16.28c0-.88-.507-1.6-1.127-1.6h-1.52a.907.907,0,0,0-.629.274,1.48,1.48,0,0,0-.3.433,2.023,2.023,0,0,0-.1.271,2.187,2.187,0,0,0-.089.622v26.994h0c0,.88.507,1.6,1.127,1.6h1.52a.8.8,0,0,0,.2-.029l.057-.017a.945.945,0,0,0,.14-.063.8.8,0,0,0,.073-.043,1.073,1.073,0,0,0,.121-.093c.032-.028.061-.059.091-.091l.039-.046a1.615,1.615,0,0,0,.262-.453h0a2.109,2.109,0,0,0,.144-.765v-6.932h29.3v6.932h0c0,.88.508,1.6,1.127,1.6h1.52a.8.8,0,0,0,.2-.029l.057-.017a.942.942,0,0,0,.14-.063.678.678,0,0,0,.073-.043.992.992,0,0,0,.121-.093c.032-.028.061-.059.091-.091l.039-.046a1.591,1.591,0,0,0,.262-.453h0a2.13,2.13,0,0,0,.144-.765Z" transform="translate(807.792 3606.24)"/>
    <path id="路径_3669" data-name="路径 3669" class="cls-4" d="M-539.593-3171.245a.447.447,0,0,0,.233.066h30.209a.425.425,0,0,0,.146-.025.8.8,0,0,0,.449-.678,1.182,1.182,0,0,0,.007-.2,1.107,1.107,0,0,0-.031-.2c-.455-1.837-1.694-3.161-3.145-3.161H-539.36a.459.459,0,0,0-.233.066.655.655,0,0,0-.19.182.981.981,0,0,0-.073.126,1.116,1.116,0,0,0-.1.474h0v2.569A.907.907,0,0,0-539.593-3171.245Z" transform="translate(807.792 3606.24)"/>
    <path id="路径_3670" data-name="路径 3670" class="cls-4" d="M-538.575-3178.212c-.005.016-.008.032-.013.048-.013.047-.027.094-.037.143-.007.031-.01.063-.015.094s-.013.069-.016.1a1.992,1.992,0,0,0-.011.205,1.964,1.964,0,0,0,.251.961,2.01,2.01,0,0,0,.224.323,2.082,2.082,0,0,0,.282.274,2.1,2.1,0,0,0,1.318.463h4.16c.066,0,.131,0,.2-.01l.075-.011c.042-.005.084-.011.126-.019s.056-.013.084-.02.073-.017.109-.027.06-.021.09-.031l.095-.034c.032-.013.062-.027.093-.041l.084-.04c.032-.016.062-.034.093-.052s.049-.028.073-.043.063-.042.093-.065.042-.029.062-.045.062-.05.092-.076l.052-.045c.031-.029.06-.059.09-.089l.041-.045c.03-.033.058-.067.086-.1l.032-.041c.028-.038.055-.076.08-.116l.024-.037c.026-.043.05-.086.073-.13l.016-.032c.023-.047.044-.094.064-.143l.01-.026c.02-.051.037-.1.053-.156l.005-.02c.016-.056.029-.112.04-.169v-.011a1.967,1.967,0,0,0,.033-.345,2.054,2.054,0,0,0-2.075-2.021h-4.149a2.082,2.082,0,0,0-1.914,1.244l-.01.024C-538.537-3178.319-538.558-3178.266-538.575-3178.212Z" transform="translate(807.792 3606.24)"/>
    <path id="路径_3671" data-name="路径 3671" class="cls-6" d="M-541.714-3174.519h30.208c.4,0,.706-.563.572-1.1-.455-1.837-1.7-3.162-3.146-3.162h-27.634c-.331,0-.6.38-.6.849v2.569C-542.312-3174.9-542.045-3174.519-541.714-3174.519Zm-.6,0" transform="translate(807.792 3606.24)"/>
    <path id="路径_3672" data-name="路径 3672" class="cls-6" d="M-542.131-3173.709c-.414,0-.752-.48-.752-1.067v-16.28c0-.88-.507-1.6-1.127-1.6h-1.52c-.62,0-1.127.719-1.127,1.6v26.994c0,.88.507,1.6,1.127,1.6h1.52c.62,0,1.127-.72,1.127-1.6v-6.931h29.3v6.931c0,.88.507,1.6,1.127,1.6h1.52c.62,0,1.127-.72,1.127-1.6v-9.647Zm0,0" transform="translate(807.792 3606.24)"/>
    <path id="路径_3673" data-name="路径 3673" class="cls-4" d="M-511.035-3175.98h-29.649c-.331,0-.6-.38-.6-.849v-1.956h-.432c-.331,0-.6.38-.6.849v2.568c0,.469.267.849.6.849h30.208c.4,0,.706-.563.572-1.1C-510.964-3175.745-511-3175.864-511.035-3175.98Z" transform="translate(807.792 3606.24)"/>
    <path id="路径_3674" data-name="路径 3674" d="M-543.764-3163.3c-.62,0-1.128-.72-1.128-1.6v-26.994a2.12,2.12,0,0,1,.144-.764h-.782c-.62,0-1.127.719-1.127,1.6v26.994c0,.88.507,1.6,1.127,1.6h1.52a1.144,1.144,0,0,0,.983-.835Z" transform="translate(807.792 3606.24)"/>
    <path id="路径_3675" data-name="路径 3675" d="M-510.693-3163.3c-.62,0-1.127-.72-1.127-1.6v-6.931h-29.3v.835h27.531v6.931c0,.88.507,1.6,1.127,1.6h1.52a1.144,1.144,0,0,0,.983-.835Z" transform="translate(807.792 3606.24)"/>
    <path id="路径_3676" data-name="路径 3676" class="cls-6" d="M-538.947-3178.937h4.15a2.055,2.055,0,0,0,2.075-2.022,2.055,2.055,0,0,0-2.075-2.021h-4.15a2.054,2.054,0,0,0-2.074,2.021,2.054,2.054,0,0,0,2.074,2.022Zm0,0" transform="translate(807.792 3606.24)"/>
    <path id="路径_3677" data-name="路径 3677" class="cls-4" d="M-534.209-3180.19h-4.149a2.055,2.055,0,0,1-2.075-2.021c0-.055,0-.108.009-.162a1.987,1.987,0,0,0-.6,1.414,2.054,2.054,0,0,0,2.074,2.022h4.15a2.059,2.059,0,0,0,2.066-1.86A2.093,2.093,0,0,1-534.209-3180.19Z" transform="translate(807.792 3606.24)"/>
    <path id="路径_3678" data-name="路径 3678" d="M-488.08-3172.187l-19.378,3.915a1.327,1.327,0,0,0-1,1.337v15.123a1.27,1.27,0,0,0,1.424,1.341l21.092-3.906a1.4,1.4,0,0,0,.664-2.3l-3.911-5.046a1.471,1.471,0,0,1-.229-1.568l2.655-6.95A1.331,1.331,0,0,0-488.08-3172.187Z" transform="translate(807.792 3606.24)"/>
    <path id="路径_3679" data-name="路径 3679" class="cls-7" d="M-488.08-3172.187l-19.378,3.915a1.327,1.327,0,0,0-1,1.337v15.123a1.27,1.27,0,0,0,1.424,1.341l21.092-3.906a1.4,1.4,0,0,0,.664-2.3l-3.911-5.046a1.471,1.471,0,0,1-.229-1.568l2.655-6.95A1.331,1.331,0,0,0-488.08-3172.187Z" transform="translate(807.792 3606.24)"/>
    <path id="路径_3680" data-name="路径 3680" class="cls-4" d="M-494.157-3153.521v-17.438l-13.3,2.687a1.327,1.327,0,0,0-1,1.337v15.123a1.27,1.27,0,0,0,1.424,1.341l12.065-2.234Z" transform="translate(807.792 3606.24)"/>
    <path id="路径_3682" data-name="路径 3682" class="cls-7" d="M-561.918-3170.826l3.717-4.13a1.212,1.212,0,0,1,2.088.96v19.325a1.469,1.469,0,0,1-.205.754l-2.044,3.405a1.2,1.2,0,0,1-2.234-.618l-1.674-18.6A1.445,1.445,0,0,1-561.918-3170.826Z" transform="translate(807.792 3606.24)"/>
    <path id="路径_3683" data-name="路径 3683" d="M-506.61-3151.442l7.913-5.275a1.4,1.4,0,0,0,.593-1.165v-13.133a1.265,1.265,0,0,0-1.462-1.333l-7.913,1.758a1.331,1.331,0,0,0-.983,1.333v16.649A1.227,1.227,0,0,0-506.61-3151.442Z" transform="translate(807.792 3606.24)"/>
    <path id="路径_3684" data-name="路径 3684" class="cls-7" d="M-506.61-3151.442l7.913-5.275a1.4,1.4,0,0,0,.593-1.165v-13.133a1.265,1.265,0,0,0-1.462-1.333l-7.913,1.758a1.331,1.331,0,0,0-.983,1.333v16.649A1.227,1.227,0,0,0-506.61-3151.442Z" transform="translate(807.792 3606.24)"/>
    <path id="路径_3685" data-name="路径 3685" d="M-561.02-3170.418l61.654-2.209a1.29,1.29,0,0,1,1.262,1.358v13.005a1.327,1.327,0,0,1-1.022,1.341l-59.842,9.33a1.254,1.254,0,0,1-1.418-1.205l-1.812-20.127A1.317,1.317,0,0,1-561.02-3170.418Z" transform="translate(807.792 3606.24)"/>
    <path id="路径_3686" data-name="路径 3686" class="cls-7" d="M-561.02-3170.418l61.654-2.209a1.29,1.29,0,0,1,1.262,1.358v13.005a1.327,1.327,0,0,1-1.022,1.341l-59.842,9.33a1.254,1.254,0,0,1-1.418-1.205l-1.812-20.127A1.317,1.317,0,0,1-561.02-3170.418Z" transform="translate(807.792 3606.24)"/>
    <path id="路径_3687" data-name="路径 3687" class="cls-4" d="M-499.366-3172.627l-.391.014v11.2a1.328,1.328,0,0,1-1.022,1.341l-59.783,9.321.176,1.954a1.254,1.254,0,0,0,1.418,1.205l59.842-9.33a1.327,1.327,0,0,0,1.022-1.341v-13.005A1.29,1.29,0,0,0-499.366-3172.627Z" transform="translate(807.792 3606.24)"/>
    <text id="宅无止境-2" data-name="宅无止境" class="cls-8" transform="matrix(0.998, -0.07, 0.07, 0.998, 277.493, 448.406)"><tspan x="-24.797" y="0">宅无止境</tspan></text>
    <g id="组_2904" data-name="组 2904" transform="translate(807.792 3606.24)">
      <path id="路径_4118" data-name="路径 4118" class="cls-9" d="M-504.06-3202.386l-6.547-4.2a34.865,34.865,0,0,0-37.651,0l-6.547,4.2a7.866,7.866,0,0,0-3.62,6.622v28.593a7.868,7.868,0,0,0,3.62,6.622L-533.68-3147a7.868,7.868,0,0,0,8.495,0l21.125-13.55a7.868,7.868,0,0,0,3.62-6.622v-28.593A7.866,7.866,0,0,0-504.06-3202.386Z"/>
      <g id="组_2873" data-name="组 2873">
        <g id="组_2872" data-name="组 2872" class="cls-10">
          <rect id="矩形_47527" data-name="矩形 47527" class="cls-11" width="32.05" height="112" transform="translate(-545.458 -3231.571)"/>
        </g>
      </g>
      <g id="组_2875" data-name="组 2875">
        <g id="组_2874" data-name="组 2874" class="cls-10">
          <rect id="矩形_47528" data-name="矩形 47528" class="cls-12" width="26.45" height="112" transform="translate(-542.658 -3231.571)"/>
        </g>
      </g>
      <g id="组_2876" data-name="组 2876">
        <path id="路径_4121" data-name="路径 4121" class="cls-13" d="M-504.06-3202.386l-6.547-4.2a34.85,34.85,0,0,0-20.05-5.5,34.836,34.836,0,0,1,17.6,5.5l6.547,4.2a7.866,7.866,0,0,1,3.62,6.622v28.593a7.868,7.868,0,0,1-3.62,6.622L-527.635-3147a7.858,7.858,0,0,1-3.022,1.146,7.865,7.865,0,0,0,5.472-1.146l21.125-13.55a7.868,7.868,0,0,0,3.62-6.622v-28.593A7.866,7.866,0,0,0-504.06-3202.386Z"/>
      </g>
      <g id="组_2877" data-name="组 2877">
        <path id="路径_4122" data-name="路径 4122" class="cls-14" d="M-554.255-3202.386l6.547-4.2a34.851,34.851,0,0,1,20.051-5.5,34.837,34.837,0,0,0-17.6,5.5l-6.547,4.2a7.866,7.866,0,0,0-3.62,6.622v28.593a7.868,7.868,0,0,0,3.62,6.622L-530.68-3147a7.856,7.856,0,0,0,3.023,1.146A7.867,7.867,0,0,1-533.13-3147l-21.125-13.55a7.868,7.868,0,0,1-3.62-6.622v-28.593A7.866,7.866,0,0,1-554.255-3202.386Z"/>
      </g>
      <path id="路径_4123" data-name="路径 4123" class="cls-15" d="M-504.06-3202.386l-6.547-4.2a34.865,34.865,0,0,0-37.651,0l-6.547,4.2a7.866,7.866,0,0,0-3.62,6.622v28.593a7.868,7.868,0,0,0,3.62,6.622L-533.68-3147a7.868,7.868,0,0,0,8.495,0l21.125-13.55a7.868,7.868,0,0,0,3.62-6.622v-28.593A7.866,7.866,0,0,0-504.06-3202.386Z"/>
      <g id="组_2880" data-name="组 2880">
        <g id="组_2879" data-name="组 2879" class="cls-10">
          <g id="组_2878" data-name="组 2878">
            <path id="路径_4124" data-name="路径 4124" class="cls-4" d="M-562.674-3170.418l61.654-2.209a1.29,1.29,0,0,1,1.263,1.358v13.005a1.328,1.328,0,0,1-1.022,1.341l-59.843,9.33a1.254,1.254,0,0,1-1.418-1.205l-1.812-20.127A1.317,1.317,0,0,1-562.674-3170.418Z"/>
          </g>
        </g>
      </g>
      <g id="组_2884" data-name="组 2884">
        <g id="组_2881" data-name="组 2881">
          <path id="路径_4126" data-name="路径 4126" class="cls-16" d="M-529.54-3209.171v2.977l-2.772-.9-.021-.047,1.5-.874Z"/>
          <path id="路径_4127" data-name="路径 4127" class="cls-17" d="M-526.747-3207.142l-.021.047-2.772.9v-2.977l1.295,1.155Z"/>
          <path id="路径_4128" data-name="路径 4128" class="cls-18" d="M-526.768-3207.095l-.678,1.541-.369,1.7-.031,0h0l-1.694-2.332Z"/>
          <path id="路径_4129" data-name="路径 4129" class="cls-17" d="M-527.846-3203.862l-1.694-.17-1.694.17,1.694-2.332Z"/>
          <path id="路径_4130" data-name="路径 4130" class="cls-16" d="M-529.54-3206.194l-1.694,2.332h0l-.031,0-.369-1.7-.678-1.541Z"/>
        </g>
        <g id="组_2882" data-name="组 2882">
          <path id="路径_4131" data-name="路径 4131" class="cls-16" d="M-539.289-3206.472l1.018,2.8-2.913.1-.035-.037,1.109-1.334Z"/>
          <path id="路径_4132" data-name="路径 4132" class="cls-17" d="M-535.971-3205.52l0,.051-2.3,1.794-1.018-2.8,1.612.642Z"/>
          <path id="路径_4133" data-name="路径 4133" class="cls-18" d="M-535.974-3205.469l-.11,1.68.233,1.719-.03.008h0l-2.39-1.612Z"/>
          <path id="路径_4134" data-name="路径 4134" class="cls-17" d="M-535.881-3202.063l-1.65.42-1.534.739.795-2.771Z"/>
          <path id="路径_4135" data-name="路径 4135" class="cls-16" d="M-538.271-3203.675l-.795,2.771h0l-.028.014-.926-1.467-1.164-1.216Z"/>
        </g>
        <g id="组_2883" data-name="组 2883">
          <path id="路径_4136" data-name="路径 4136" class="cls-16" d="M-519.791-3206.472l-1.018,2.8-2.3-1.794,0-.051,1.707-.309Z"/>
          <path id="路径_4137" data-name="路径 4137" class="cls-17" d="M-517.861-3203.61l-.035.037-2.913-.1,1.018-2.8.822,1.528Z"/>
          <path id="路径_4138" data-name="路径 4138" class="cls-18" d="M-517.9-3203.573l-1.164,1.216-.926,1.467-.028-.014h0l-.795-2.771Z"/>
          <path id="路径_4139" data-name="路径 4139" class="cls-17" d="M-520.014-3200.9l-1.534-.739-1.65-.42,2.39-1.612Z"/>
          <path id="路径_4140" data-name="路径 4140" class="cls-16" d="M-520.809-3203.675l-2.39,1.612h0l-.03-.008.233-1.719-.11-1.68Z"/>
        </g>
      </g>
      <g id="组_2888" data-name="组 2888">
        <g id="组_2885" data-name="组 2885">
          <path id="路径_4141" data-name="路径 4141" class="cls-4" d="M-509.907-3172.819h-32.32c-.413,0-.752-.48-.752-1.066v-16.28c0-.88-.507-1.6-1.127-1.6h-1.52a.908.908,0,0,0-.629.274,1.482,1.482,0,0,0-.3.433,2.044,2.044,0,0,0-.1.271,2.19,2.19,0,0,0-.089.622v26.994h0c0,.88.507,1.6,1.127,1.6h1.52a.788.788,0,0,0,.2-.029l.057-.017a.945.945,0,0,0,.14-.063c.025-.013.049-.027.073-.043a1.073,1.073,0,0,0,.121-.093c.032-.028.061-.059.091-.091l.039-.046a1.619,1.619,0,0,0,.262-.453h0a2.109,2.109,0,0,0,.144-.765v-6.932h29.3v6.932h0c0,.88.508,1.6,1.127,1.6h1.52a.788.788,0,0,0,.2-.029l.057-.017a.942.942,0,0,0,.14-.063.721.721,0,0,0,.073-.043.99.99,0,0,0,.121-.093c.032-.028.061-.059.091-.091l.039-.046a1.6,1.6,0,0,0,.262-.453h0a2.131,2.131,0,0,0,.144-.765Z"/>
        </g>
        <g id="组_2886" data-name="组 2886">
          <path id="路径_4142" data-name="路径 4142" class="cls-4" d="M-542.043-3173.7a.449.449,0,0,0,.233.066H-511.6a.425.425,0,0,0,.146-.025.8.8,0,0,0,.449-.678,1.182,1.182,0,0,0,.007-.2,1.107,1.107,0,0,0-.031-.2c-.455-1.837-1.694-3.161-3.145-3.161H-541.81a.456.456,0,0,0-.233.066.654.654,0,0,0-.19.182.974.974,0,0,0-.073.126,1.116,1.116,0,0,0-.1.474h0v2.569A.907.907,0,0,0-542.043-3173.7Z"/>
        </g>
        <g id="组_2887" data-name="组 2887">
          <path id="路径_4143" data-name="路径 4143" class="cls-4" d="M-541.025-3180.662c-.005.016-.008.032-.013.048-.013.047-.027.094-.037.143-.007.031-.01.063-.015.094s-.013.069-.016.1a2,2,0,0,0-.011.2,1.964,1.964,0,0,0,.251.961,2.01,2.01,0,0,0,.224.323,2.1,2.1,0,0,0,.282.274,2.1,2.1,0,0,0,1.318.463h4.16c.066,0,.131,0,.2-.01l.075-.011c.042,0,.084-.011.126-.019s.056-.013.084-.02.073-.017.109-.027.06-.021.09-.031l.1-.034c.032-.013.062-.027.093-.041l.084-.04c.032-.016.062-.034.093-.052l.073-.043c.032-.021.063-.042.093-.065s.042-.029.062-.045.062-.05.092-.076l.052-.045c.031-.029.06-.059.09-.089l.041-.045c.03-.033.058-.067.086-.1l.032-.041c.028-.038.055-.076.08-.116l.024-.037c.026-.043.05-.086.073-.13l.016-.032c.023-.047.044-.094.064-.143l.01-.026c.02-.051.037-.1.053-.156l0-.02c.016-.056.029-.112.04-.169v-.011a1.967,1.967,0,0,0,.033-.345,2.055,2.055,0,0,0-2.075-2.021h-4.149a2.082,2.082,0,0,0-1.914,1.244l-.01.024C-540.987-3180.769-541.008-3180.716-541.025-3180.662Z"/>
        </g>
      </g>
      <g id="组_2894" data-name="组 2894">
        <g id="组_2892" data-name="组 2892">
          <path id="路径_4144" data-name="路径 4144" class="cls-19" d="M-544.164-3176.969h30.208c.4,0,.706-.563.572-1.1-.455-1.837-1.7-3.162-3.146-3.162h-27.634c-.331,0-.6.38-.6.849v2.569C-544.762-3177.349-544.495-3176.969-544.164-3176.969Zm-.6,0"/>
          <path id="路径_4145" data-name="路径 4145" class="cls-20" d="M-544.581-3176.159c-.414,0-.752-.48-.752-1.067v-16.28c0-.88-.507-1.6-1.127-1.6h-1.52c-.62,0-1.127.719-1.127,1.6v26.994c0,.88.507,1.6,1.127,1.6h1.52c.62,0,1.127-.72,1.127-1.6v-6.931h29.3v6.931c0,.88.507,1.6,1.127,1.6h1.52c.62,0,1.127-.72,1.127-1.6v-9.647Zm0,0"/>
          <g id="组_2889" data-name="组 2889">
            <path id="路径_4146" data-name="路径 4146" class="cls-4" d="M-513.485-3178.43h-29.649c-.331,0-.6-.38-.6-.849v-1.956h-.432c-.331,0-.6.38-.6.849v2.568c0,.469.267.849.6.849h30.208c.4,0,.706-.563.572-1.1C-513.414-3178.2-513.448-3178.314-513.485-3178.43Z"/>
          </g>
          <g id="组_2891" data-name="组 2891" class="cls-21">
            <g id="组_2890" data-name="组 2890">
              <path id="路径_4147" data-name="路径 4147" d="M-546.214-3165.747c-.62,0-1.128-.72-1.128-1.6v-26.994a2.12,2.12,0,0,1,.144-.764h-.782c-.62,0-1.127.719-1.127,1.6v26.994c0,.88.507,1.6,1.127,1.6h1.52a1.144,1.144,0,0,0,.983-.835Z"/>
              <path id="路径_4148" data-name="路径 4148" d="M-513.143-3165.747c-.62,0-1.127-.72-1.127-1.6v-6.931h-29.3v.835h27.531v6.931c0,.88.507,1.6,1.127,1.6h1.52a1.144,1.144,0,0,0,.983-.835Z"/>
            </g>
          </g>
        </g>
        <path id="路径_4149" data-name="路径 4149" class="cls-19" d="M-541.4-3181.387h4.15a2.055,2.055,0,0,0,2.075-2.022,2.055,2.055,0,0,0-2.075-2.021h-4.15a2.054,2.054,0,0,0-2.074,2.021,2.054,2.054,0,0,0,2.074,2.022Zm0,0"/>
        <g id="组_2893" data-name="组 2893">
          <path id="路径_4150" data-name="路径 4150" class="cls-4" d="M-536.659-3182.64h-4.149a2.055,2.055,0,0,1-2.075-2.021c0-.055,0-.108.009-.162a1.987,1.987,0,0,0-.6,1.414,2.054,2.054,0,0,0,2.074,2.022h4.15a2.059,2.059,0,0,0,2.066-1.86A2.093,2.093,0,0,1-536.659-3182.64Z"/>
        </g>
      </g>
      <g id="组_2903" data-name="组 2903">
        <g id="组_2895" data-name="组 2895">
          <path id="路径_4151" data-name="路径 4151" class="cls-22" d="M-490.53-3174.637l-19.378,3.915a1.327,1.327,0,0,0-1,1.337v15.123a1.27,1.27,0,0,0,1.424,1.341l21.092-3.906a1.4,1.4,0,0,0,.664-2.3l-3.911-5.046a1.471,1.471,0,0,1-.229-1.568l2.655-6.95A1.331,1.331,0,0,0-490.53-3174.637Z"/>
          <path id="路径_4152" data-name="路径 4152" class="cls-23" d="M-490.53-3174.637l-19.378,3.915a1.327,1.327,0,0,0-1,1.337v15.123a1.27,1.27,0,0,0,1.424,1.341l21.092-3.906a1.4,1.4,0,0,0,.664-2.3l-3.911-5.046a1.471,1.471,0,0,1-.229-1.568l2.655-6.95A1.331,1.331,0,0,0-490.53-3174.637Z"/>
        </g>
        <g id="组_2896" data-name="组 2896">
          <path id="路径_4153" data-name="路径 4153" class="cls-4" d="M-496.607-3155.971v-17.438l-13.3,2.687a1.327,1.327,0,0,0-1,1.337v15.123a1.27,1.27,0,0,0,1.424,1.341l12.065-2.234Z"/>
        </g>
        <g id="组_2897" data-name="组 2897">
          <path id="路径_4154" data-name="路径 4154" class="cls-24" d="M-564.368-3173.276l3.717-4.13a1.212,1.212,0,0,1,2.088.96v19.325a1.469,1.469,0,0,1-.205.754l-2.044,3.405a1.2,1.2,0,0,1-2.234-.618l-1.674-18.6A1.444,1.444,0,0,1-564.368-3173.276Z"/>
          <path id="路径_4155" data-name="路径 4155" class="cls-23" d="M-564.368-3173.276l3.717-4.13a1.212,1.212,0,0,1,2.088.96v19.325a1.469,1.469,0,0,1-.205.754l-2.044,3.405a1.2,1.2,0,0,1-2.234-.618l-1.674-18.6A1.444,1.444,0,0,1-564.368-3173.276Z"/>
        </g>
        <g id="组_2898" data-name="组 2898">
          <path id="路径_4156" data-name="路径 4156" class="cls-24" d="M-509.06-3153.892l7.913-5.275a1.4,1.4,0,0,0,.593-1.165v-13.133a1.266,1.266,0,0,0-1.462-1.333l-7.913,1.758a1.331,1.331,0,0,0-.983,1.333v16.649A1.227,1.227,0,0,0-509.06-3153.892Z"/>
          <path id="路径_4157" data-name="路径 4157" class="cls-23" d="M-509.06-3153.892l7.913-5.275a1.4,1.4,0,0,0,.593-1.165v-13.133a1.266,1.266,0,0,0-1.462-1.333l-7.913,1.758a1.331,1.331,0,0,0-.983,1.333v16.649A1.227,1.227,0,0,0-509.06-3153.892Z"/>
        </g>
        <g id="组_2899" data-name="组 2899">
          <path id="路径_4158" data-name="路径 4158" class="cls-22" d="M-563.47-3172.868l61.654-2.209a1.29,1.29,0,0,1,1.262,1.358v13a1.327,1.327,0,0,1-1.022,1.341l-59.842,9.33a1.254,1.254,0,0,1-1.418-1.205l-1.812-20.127A1.317,1.317,0,0,1-563.47-3172.868Z"/>
          <path id="路径_4159" data-name="路径 4159" class="cls-23" d="M-563.47-3172.868l61.654-2.209a1.29,1.29,0,0,1,1.262,1.358v13a1.327,1.327,0,0,1-1.022,1.341l-59.842,9.33a1.254,1.254,0,0,1-1.418-1.205l-1.812-20.127A1.317,1.317,0,0,1-563.47-3172.868Z"/>
        </g>
        <g id="组_2900" data-name="组 2900">
          <path id="路径_4160" data-name="路径 4160" class="cls-4" d="M-501.816-3175.077l-.391.014v11.2a1.328,1.328,0,0,1-1.022,1.341l-59.783,9.321.176,1.954a1.254,1.254,0,0,0,1.418,1.205l59.842-9.33a1.327,1.327,0,0,0,1.022-1.341v-13A1.29,1.29,0,0,0-501.816-3175.077Z"/>
        </g>
        <g id="组_2901" data-name="组 2901">
          <path id="路径_4161" data-name="路径 4161" class="cls-22" d="M-560.554-3168.291l-.151-1.68h0"/>
          <path id="路径_4162" data-name="路径 4162" class="cls-25" d="M-560.554-3168.291l-.151-1.68h0"/>
        </g>
        <g id="组_2902" data-name="组 2902">
          <line id="直线_2177" data-name="直线 2177" class="cls-22" x1="0.302" y1="3.36" transform="translate(-560.252 -3164.931)"/>
          <line id="直线_2178" data-name="直线 2178" class="cls-25" x1="0.302" y1="3.36" transform="translate(-560.252 -3164.931)"/>
        </g>
      </g>
    </g>
  </g>
</svg>
