<svg xmlns="http://www.w3.org/2000/svg" xmlns:xlink="http://www.w3.org/1999/xlink" width="81.219" height="70.328" viewBox="0 0 81.219 70.328">
  <defs>
    <style>
      .cls-1, .cls-16, .cls-30, .cls-32, .cls-5, .cls-8 {
        fill: none;
      }

      .cls-2 {
        clip-path: url(#clip-path);
      }

      .cls-14, .cls-3 {
        opacity: 0.1;
      }

      .cls-15, .cls-4 {
        opacity: 0.2;
      }

      .cls-17, .cls-21, .cls-5, .cls-6, .cls-7, .cls-8 {
        stroke: #000;
      }

      .cls-16, .cls-17, .cls-21, .cls-30, .cls-32, .cls-5, .cls-6, .cls-7, .cls-8 {
        stroke-linecap: round;
        stroke-linejoin: round;
      }

      .cls-16, .cls-30, .cls-32, .cls-5, .cls-8 {
        stroke-width: 1.4px;
      }

      .cls-16, .cls-5 {
        stroke-dasharray: 35 3.5 3.5 3.5;
      }

      .cls-17, .cls-21, .cls-6, .cls-7 {
        stroke-width: 0.7px;
      }

      .cls-17, .cls-6 {
        stroke-dasharray: 31.5 1.75 1.75 1.75;
      }

      .cls-21, .cls-7 {
        stroke-dasharray: 35 1.75 1.75 1.75;
      }

      .cls-9 {
        font-size: 12.6px;
        font-family: AlibabaPuHuiTi-Bold, Alibaba PuHuiTi;
        font-weight: 700;
      }

      .cls-10 {
        fill: #e8e7a8;
      }

      .cls-11 {
        clip-path: url(#clip-path-4);
      }

      .cls-12 {
        fill: #a9b147;
      }

      .cls-13 {
        fill: #e7ed8b;
      }

      .cls-14, .cls-15, .cls-27 {
        fill: #fff;
      }

      .cls-16, .cls-30 {
        stroke: #191919;
      }

      .cls-17, .cls-21 {
        fill: #43b530;
      }

      .cls-18 {
        fill: #107510;
      }

      .cls-19 {
        fill: #1a8e1c;
      }

      .cls-20 {
        fill: #33363a;
      }

      .cls-22 {
        fill: #80edac;
      }

      .cls-23 {
        fill: #6adb9a;
      }

      .cls-24 {
        fill: #47c67b;
      }

      .cls-25 {
        fill: #ba503a;
      }

      .cls-26 {
        fill: #ad2707;
      }

      .cls-28 {
        fill: #9cffc4;
      }

      .cls-29 {
        fill: #ffda34;
      }

      .cls-31 {
        fill: #ff9f36;
      }

      .cls-32 {
        stroke: #fff;
      }

      .cls-33 {
        fill: #fce47b;
      }

      .cls-34 {
        fill: #ecc05d;
      }

      .cls-35 {
        fill: #eaa654;
      }
    </style>
    <clipPath id="clip-path">
      <path id="路径_3691" data-name="路径 3691" class="cls-1" d="M-685.71-3101.936l-6.547-4.2a34.866,34.866,0,0,0-37.651,0l-6.547,4.2a7.867,7.867,0,0,0-3.62,6.622v28.593a7.867,7.867,0,0,0,3.62,6.622l21.125,13.55a7.867,7.867,0,0,0,8.495,0l21.125-13.55a7.867,7.867,0,0,0,3.62-6.622v-28.593A7.867,7.867,0,0,0-685.71-3101.936Z"/>
    </clipPath>
    <clipPath id="clip-path-4">
      <path id="路径_4164" data-name="路径 4164" class="cls-1" d="M-688.16-3104.386l-6.547-4.2a34.865,34.865,0,0,0-37.651,0l-6.547,4.2a7.866,7.866,0,0,0-3.62,6.622v28.593a7.868,7.868,0,0,0,3.62,6.622L-717.78-3049a7.868,7.868,0,0,0,8.5,0l21.125-13.55a7.868,7.868,0,0,0,3.62-6.622v-28.593A7.866,7.866,0,0,0-688.16-3104.386Z"/>
    </clipPath>
  </defs>
  <g id="种子选手" transform="translate(-58.264 -491.436)">
    <path id="路径_3690" data-name="路径 3690" d="M-685.71-3101.936l-6.547-4.2a34.866,34.866,0,0,0-37.651,0l-6.547,4.2a7.867,7.867,0,0,0-3.62,6.622v28.593a7.867,7.867,0,0,0,3.62,6.622l21.125,13.55a7.867,7.867,0,0,0,8.495,0l21.125-13.55a7.867,7.867,0,0,0,3.62-6.622v-28.593A7.867,7.867,0,0,0-685.71-3101.936Z" transform="translate(807.792 3606.24)"/>
    <g id="组_2697" data-name="组 2697" transform="translate(807.792 3606.24)">
      <g id="组_2696" data-name="组 2696" class="cls-2">
        <rect id="矩形_47500" data-name="矩形 47500" width="32.05" height="112" transform="translate(-727.108 -3131.121)"/>
      </g>
    </g>
    <g id="组_2699" data-name="组 2699" transform="translate(807.792 3606.24)">
      <g id="组_2698" data-name="组 2698" class="cls-2">
        <rect id="矩形_47501" data-name="矩形 47501" width="26.45" height="112" transform="translate(-724.308 -3131.121)"/>
      </g>
    </g>
    <path id="路径_3693" data-name="路径 3693" class="cls-3" d="M-685.71-3101.936l-6.547-4.2a34.849,34.849,0,0,0-20.05-5.5,34.837,34.837,0,0,1,17.6,5.5l6.547,4.2a7.867,7.867,0,0,1,3.62,6.622v28.593a7.867,7.867,0,0,1-3.62,6.622l-21.125,13.55a7.858,7.858,0,0,1-3.022,1.146,7.863,7.863,0,0,0,5.472-1.146l21.125-13.55a7.867,7.867,0,0,0,3.62-6.622v-28.593A7.867,7.867,0,0,0-685.71-3101.936Z" transform="translate(807.792 3606.24)"/>
    <path id="路径_3694" data-name="路径 3694" class="cls-4" d="M-735.905-3101.936l6.547-4.2a34.85,34.85,0,0,1,20.051-5.5,34.837,34.837,0,0,0-17.6,5.5l-6.547,4.2a7.867,7.867,0,0,0-3.62,6.622v28.593a7.867,7.867,0,0,0,3.62,6.622l21.125,13.55a7.856,7.856,0,0,0,3.023,1.146,7.866,7.866,0,0,1-5.473-1.146l-21.125-13.55a7.867,7.867,0,0,1-3.62-6.622v-28.593A7.867,7.867,0,0,1-735.905-3101.936Z" transform="translate(807.792 3606.24)"/>
    <path id="路径_3695" data-name="路径 3695" class="cls-5" d="M-685.71-3101.936l-6.547-4.2a34.866,34.866,0,0,0-37.651,0l-6.547,4.2a7.867,7.867,0,0,0-3.62,6.622v28.593a7.867,7.867,0,0,0,3.62,6.622l21.125,13.55a7.867,7.867,0,0,0,8.495,0l21.125-13.55a7.867,7.867,0,0,0,3.62-6.622v-28.593A7.867,7.867,0,0,0-685.71-3101.936Z" transform="translate(807.792 3606.24)"/>
    <g id="组_2701" data-name="组 2701" transform="translate(807.792 3606.24)">
      <g id="组_2700" data-name="组 2700" class="cls-2">
        <path id="路径_3696" data-name="路径 3696" class="cls-4" d="M-744.324-3069.968l61.654-2.209a1.291,1.291,0,0,1,1.263,1.358v13.005a1.328,1.328,0,0,1-1.022,1.341l-59.843,9.33a1.254,1.254,0,0,1-1.418-1.2l-1.812-20.127A1.317,1.317,0,0,1-744.324-3069.968Z"/>
      </g>
    </g>
    <path id="路径_3698" data-name="路径 3698" class="cls-6" d="M-699.063-3090.044c4.779,4.778,4.779,9.279,0,14.057s-20.592,4.779-25.37,0-4.779-9.278,0-14.057c12.633-12.633,12.737-12.633,25.369,0Zm0,0" transform="translate(807.792 3606.24)"/>
    <path id="路径_3699" data-name="路径 3699" d="M-727.961-3082.153c.259,2.033,1.436,4.073,3.529,6.166,4.778,4.779,20.591,4.78,25.37,0,2.093-2.093,3.269-4.133,3.528-6.166-.259-2.033-1.435-4.073-3.528-6.167-12.633-12.633-12.737-12.633-25.37,0h0c-2.093,2.093-3.27,4.133-3.529,6.167" transform="translate(807.792 3606.24)"/>
    <path id="路径_3700" data-name="路径 3700" d="M-724.432-3088.32" transform="translate(807.792 3606.24)"/>
    <path id="路径_3701" data-name="路径 3701" d="M-727.273-3084.464a13.842,13.842,0,0,0,2.841,3.856c4.778,4.779,20.591,4.78,25.37,0a13.842,13.842,0,0,0,2.841-3.856,13.83,13.83,0,0,0-2.842-3.856c-12.632-12.633-12.736-12.633-25.369,0h0a13.825,13.825,0,0,0-2.841,3.856" transform="translate(807.792 3606.24)"/>
    <path id="路径_3702" data-name="路径 3702" d="M-724.432-3088.32" transform="translate(807.792 3606.24)"/>
    <path id="路径_3703" data-name="路径 3703" d="M-711.747-3099.128" transform="translate(807.792 3606.24)"/>
    <path id="路径_3704" data-name="路径 3704" class="cls-7" d="M-705.808-3090.044a15.561,15.561,0,0,1,0,14.057c-2.238,4.78-9.641,4.779-11.878,0a15.554,15.554,0,0,1,0-14.057c5.914-12.633,5.963-12.633,11.878,0Zm0,0" transform="translate(807.792 3606.24)"/>
    <path id="路径_3705" data-name="路径 3705" d="M-717.036-3088.32c-.98,2.093-2.181,4.133-2.3,6.166a16.819,16.819,0,0,0,1.653,6.167c2.237,4.779,9.641,4.779,11.878,0a16.817,16.817,0,0,0,1.652-6.166c-.121-2.034-1.323-4.074-2.3-6.167-5.914-12.633-4.662-12.633-10.577,0Zm0,0" transform="translate(807.792 3606.24)"/>
    <path id="路径_3706" data-name="路径 3706" d="M-698.943-3077.026c0,5.38-5.733,9.743-12.8,9.743s-12.8-4.363-12.8-9.743,5.733-11.829,12.8-11.829,12.8,6.448,12.8,11.829Zm0,0" transform="translate(807.792 3606.24)"/>
    <path id="路径_3707" data-name="路径 3707" d="M-698.943-3077.026c0,5.38-5.733,9.743-12.8,9.743s-12.8-4.363-12.8-9.743,5.733-9.089,12.8-9.089,12.8,3.708,12.8,9.089Zm0,0" transform="translate(807.792 3606.24)"/>
    <path id="路径_3708" data-name="路径 3708" d="M-709.032-3076.226c0,.362-1.22.427-2.726.427s-2.727-.065-2.727-.427,1.221-1.311,2.727-1.311,2.726.948,2.726,1.311Zm0,0" transform="translate(807.792 3606.24)"/>
    <path id="路径_3709" data-name="路径 3709" d="M-698.943-3077.026c0,5.38-5.733,9.743-12.8,9.743s-12.8-4.363-12.8-9.743,1.629,4.772,12.8,4.772,12.8-10.154,12.8-4.772Zm0,0" transform="translate(807.792 3606.24)"/>
    <path id="路径_3710" data-name="路径 3710" d="M-708.213-3073.237c0,1.013-1.583,1.834-3.534,1.834s-3.535-.821-3.535-1.834" transform="translate(807.792 3606.24)"/>
    <path id="路径_3711" data-name="路径 3711" d="M-711.747-3066.893c-7.276,0-13.2-4.546-13.2-10.133,0-5.535,5.885-12.219,13.2-12.219s13.2,6.684,13.2,12.219c0,5.587-5.92,10.133-13.2,10.133Zm0-21.572c-6.877,0-12.415,6.258-12.415,11.439,0,5.157,5.569,9.352,12.415,9.352s12.414-4.195,12.414-9.352c0-5.181-5.537-11.439-12.414-11.439Zm0,0" transform="translate(807.792 3606.24)"/>
    <path id="路径_3712" data-name="路径 3712" d="M-715.953-3078.026a2.1,2.1,0,0,1-.614,1.481,2.092,2.092,0,0,1-1.481.614,2.1,2.1,0,0,1-1.482-.614,2.1,2.1,0,0,1-.613-1.481,2.1,2.1,0,0,1,2.1-2.072,2.1,2.1,0,0,1,2.095,2.072Zm0,0" transform="translate(807.792 3606.24)"/>
    <path id="路径_3713" data-name="路径 3713" d="M-719.944-3078.707a.854.854,0,0,0,.854.854.855.855,0,0,0,.854-.854.854.854,0,0,0-.854-.854.854.854,0,0,0-.854.854Zm0,0" transform="translate(807.792 3606.24)"/>
    <path id="路径_3714" data-name="路径 3714" d="M-718.048-3080.511a2.484,2.484,0,0,0-2.035,1.062c-.03.042-.058.085-.084.13a2.47,2.47,0,0,0-.366,1.293,2.488,2.488,0,0,0,2.485,2.485,2.488,2.488,0,0,0,2.485-2.485,2.487,2.487,0,0,0-2.485-2.485Zm0,4.189a1.7,1.7,0,0,1-1.573-1.049,4.011,4.011,0,0,0,.642-.1,1.193,1.193,0,0,0,.252-.05,3.856,3.856,0,0,1,.679-.069c.628,0,1.19.211,1.574.222a1.707,1.707,0,0,1-1.574,1.049Zm0,0" transform="translate(807.792 3606.24)"/>
    <path id="路径_3715" data-name="路径 3715" d="M-719.553-3078.707a.463.463,0,0,0,.463.463.463.463,0,0,0,.463-.463.463.463,0,0,0-.463-.463.463.463,0,0,0-.463.463Zm0,0" transform="translate(807.792 3606.24)"/>
    <path id="路径_3716" data-name="路径 3716" d="M-703.352-3078.026a2.09,2.09,0,0,1-.613,1.481,2.1,2.1,0,0,1-1.482.614,2.1,2.1,0,0,1-1.481-.614,2.1,2.1,0,0,1-.614-1.481,2.1,2.1,0,0,1,.614-1.482,2.1,2.1,0,0,1,1.481-.613,2.1,2.1,0,0,1,1.482.613,2.1,2.1,0,0,1,.613,1.482Zm0,0" transform="translate(807.792 3606.24)"/>
    <path id="路径_3717" data-name="路径 3717" d="M-707.342-3078.707a.852.852,0,0,0,.426.739.851.851,0,0,0,.854,0,.853.853,0,0,0,.427-.739.856.856,0,0,0-.427-.74.856.856,0,0,0-.854,0,.855.855,0,0,0-.426.74Zm0,0" transform="translate(807.792 3606.24)"/>
    <path id="路径_3718" data-name="路径 3718" d="M-705.447-3080.511a2.483,2.483,0,0,0-2.038,1.066,1.392,1.392,0,0,0-.078.121,2.467,2.467,0,0,0-.369,1.3,2.488,2.488,0,0,0,2.485,2.486,2.489,2.489,0,0,0,2.486-2.486,2.487,2.487,0,0,0-2.486-2.484Zm0,4.189a1.7,1.7,0,0,1-1.573-1.049,4.011,4.011,0,0,0,.642-.1,1.165,1.165,0,0,0,.253-.05,3.845,3.845,0,0,1,.678-.069c.628,0,1.19.211,1.574.222a1.705,1.705,0,0,1-1.574,1.049Zm0,0" transform="translate(807.792 3606.24)"/>
    <path id="路径_3719" data-name="路径 3719" d="M-706.488-3079.17a.464.464,0,0,0-.464.463.464.464,0,0,0,.464.463.463.463,0,0,0,.463-.463.463.463,0,0,0-.463-.463Zm0,0" transform="translate(807.792 3606.24)"/>
    <path id="路径_3720" data-name="路径 3720" d="M-712.389-3074.5a.39.39,0,0,1-.284-.122l-.391-.413a.392.392,0,0,1,.016-.552.39.39,0,0,1,.552.016l.39.413a.389.389,0,0,1,.075.422.389.389,0,0,1-.358.236Zm1.284,0a.388.388,0,0,1-.359-.235.388.388,0,0,1,.075-.423l.39-.413a.39.39,0,0,1,.552-.016.39.39,0,0,1,.016.552l-.391.413a.388.388,0,0,1-.283.122Zm0,0" transform="translate(807.792 3606.24)"/>
    <path id="路径_3721" data-name="路径 3721" d="M-719.676-3085.164a6.237,6.237,0,0,1,2.1-.969,2.323,2.323,0,0,0-.34-1.755c-.755-1.073-2.427-1.251-4.058-.548-1.213,1.3-1.611,2.933-.856,4.005a2.324,2.324,0,0,0,1.538.913,6.251,6.251,0,0,1,1.619-1.646Zm0,0" transform="translate(807.792 3606.24)"/>
    <path id="路径_3722" data-name="路径 3722" d="M-718.852-3087.194c-.675-.959-2.086-1.2-3.543-.737a3.04,3.04,0,0,0-.438,3.5,2.225,2.225,0,0,0,1.221.836c.293-.314.692-.05,1.069-.316.111-.078.158-.705.271-.775a6.549,6.549,0,0,1,.6-.479,6.427,6.427,0,0,1,1.2-.664,2.192,2.192,0,0,0-.377-1.366Zm0,0" transform="translate(807.792 3606.24)"/>
    <path id="路径_3723" data-name="路径 3723" d="M-721.294-3083.128a.407.407,0,0,1-.07-.006,2.7,2.7,0,0,1-1.788-1.071c-.851-1.21-.493-3.017.89-4.5a.382.382,0,0,1,.13-.091c1.86-.8,3.681-.529,4.532.681a2.693,2.693,0,0,1,.4,2.044.391.391,0,0,1-.449.32.389.389,0,0,1-.254-.159.386.386,0,0,1-.066-.291,1.938,1.938,0,0,0-.274-1.465c-.613-.871-2.047-1.05-3.509-.446-1.063,1.173-1.379,2.584-.766,3.454a1.935,1.935,0,0,0,1.287.752.391.391,0,0,1,.322.419.39.39,0,0,1-.39.356Zm0,0" transform="translate(807.792 3606.24)"/>
    <path id="路径_3724" data-name="路径 3724" d="M-703.819-3085.164a6.233,6.233,0,0,0-2.1-.969,2.318,2.318,0,0,1,.339-1.755c.755-1.073,2.428-1.251,4.059-.548,1.212,1.3,1.61,2.933.855,4.005a2.322,2.322,0,0,1-1.538.913,6.251,6.251,0,0,0-1.619-1.646Zm0,0" transform="translate(807.792 3606.24)"/>
    <path id="路径_3725" data-name="路径 3725" d="M-704.643-3087.194c.676-.959,2.086-1.2,3.543-.737a3.039,3.039,0,0,1,.438,3.5,2.225,2.225,0,0,1-1.221.836c-.294-.314-.691-.05-1.069-.316-.111-.078-.158-.705-.271-.775a6.673,6.673,0,0,0-.595-.479,6.433,6.433,0,0,0-1.2-.664,2.192,2.192,0,0,1,.377-1.366Zm0,0" transform="translate(807.792 3606.24)"/>
    <path id="路径_3726" data-name="路径 3726" d="M-702.2-3083.128a.389.389,0,0,1-.387-.356.389.389,0,0,1,.319-.418,1.94,1.94,0,0,0,1.288-.753c.612-.87.3-2.281-.767-3.453-1.462-.6-2.9-.425-3.509.445a1.939,1.939,0,0,0-.274,1.465.386.386,0,0,1-.066.291.387.387,0,0,1-.253.159.392.392,0,0,1-.45-.32,2.7,2.7,0,0,1,.4-2.045c.851-1.209,2.672-1.482,4.532-.68a.4.4,0,0,1,.131.091c1.383,1.481,1.74,3.288.889,4.5a2.7,2.7,0,0,1-1.788,1.071.391.391,0,0,1-.07.006Zm0,0" transform="translate(807.792 3606.24)"/>
    <path id="路径_3727" data-name="路径 3727" d="M-713.429-3082.1a1.972,1.972,0,0,1-1.973-1.972c0-1.09,1.373-1.483,2.463-1.483s1.482.394,1.482,1.483a1.972,1.972,0,0,1-1.972,1.972Zm0,0" transform="translate(807.792 3606.24)"/>
    <path id="路径_3728" data-name="路径 3728" d="M-710.222-3082.792a.693.693,0,0,0,.347.6.694.694,0,0,0,.694,0,.7.7,0,0,0,.346-.6.7.7,0,0,0-.346-.6.694.694,0,0,0-.694,0,.693.693,0,0,0-.347.6Zm0,0" transform="translate(807.792 3606.24)"/>
    <path id="路径_3729" data-name="路径 3729" d="M-707.342-3083.308a.515.515,0,0,0,.258.447.514.514,0,0,0,.517,0,.515.515,0,0,0,.258-.447.516.516,0,0,0-.258-.448.52.52,0,0,0-.517,0,.516.516,0,0,0-.258.448Zm0,0" transform="translate(807.792 3606.24)"/>
    <path id="路径_3730" data-name="路径 3730" d="M-710.715-3079.082a.339.339,0,0,0,.17.294.34.34,0,0,0,.341,0,.339.339,0,0,0,.17-.294.341.341,0,0,0-.17-.295.34.34,0,0,0-.341,0,.341.341,0,0,0-.17.295Zm0,0" transform="translate(807.792 3606.24)"/>
    <path id="路径_3731" data-name="路径 3731" d="M-716.988-3082.658a.65.65,0,0,0,.651.651.651.651,0,0,0,.651-.651.652.652,0,0,0-.651-.651.651.651,0,0,0-.651.651Zm0,0" transform="translate(807.792 3606.24)"/>
    <path id="路径_3732" data-name="路径 3732" d="M-717.533-3073.646l-1.315.774-.093-1.523" transform="translate(807.792 3606.24)"/>
    <path id="路径_3733" data-name="路径 3733" d="M-705.961-3073.646l1.315.774.093-1.523" transform="translate(807.792 3606.24)"/>
    <path id="路径_3734" data-name="路径 3734" d="M-703.709-3075.894a.387.387,0,0,0-.3-.019.394.394,0,0,0-.224.2c-.009.018-.926,1.822-4.015,1.764-2.093-.037-3.057.393-3.5.8-.444-.411-1.408-.839-3.5-.8-3.06.058-3.977-1.687-4.017-1.766a.39.39,0,0,0-.522-.176.391.391,0,0,0-.178.521,3.311,3.311,0,0,0,.661.834.39.39,0,0,0-.027.167l.093,1.523a.389.389,0,0,0,.206.321.394.394,0,0,0,.381-.008l1.315-.775a.373.373,0,0,0,.111-.1,6.753,6.753,0,0,0,1.558.228c.052,1.22,1.753,2.167,3.919,2.167s3.869-.948,3.92-2.168a6.8,6.8,0,0,0,1.557-.228.382.382,0,0,0,.112.1l1.315.775a.394.394,0,0,0,.381.008.389.389,0,0,0,.206-.321l.093-1.523a.4.4,0,0,0-.027-.167,3.281,3.281,0,0,0,.661-.834.39.39,0,0,0,.019-.3.39.39,0,0,0-.2-.224Zm-14.789,2.363-.026-.42c.12.072.25.14.388.207Zm6.751,1.738c-1.793,0-3.057-.712-3.137-1.377,2.077.023,2.685.574,2.741.8a.13.13,0,0,1,0-.027l.4-.036.4.036a.128.128,0,0,1,0,.027c.056-.222.668-.779,2.74-.8-.079.665-1.343,1.378-3.136,1.378Zm6.75-1.738-.363-.214c.139-.066.269-.135.389-.207Zm0,0" transform="translate(807.792 3606.24)"/>
    <path id="路径_3735" data-name="路径 3735" d="M-672.18-3074.187l-19.378,3.915a1.327,1.327,0,0,0-1,1.337v15.123a1.27,1.27,0,0,0,1.424,1.341l21.092-3.906a1.4,1.4,0,0,0,.664-2.3l-3.911-5.046a1.471,1.471,0,0,1-.229-1.568l2.655-6.95A1.331,1.331,0,0,0-672.18-3074.187Z" transform="translate(807.792 3606.24)"/>
    <path id="路径_3736" data-name="路径 3736" class="cls-8" d="M-672.18-3074.187l-19.378,3.915a1.327,1.327,0,0,0-1,1.337v15.123a1.27,1.27,0,0,0,1.424,1.341l21.092-3.906a1.4,1.4,0,0,0,.664-2.3l-3.911-5.046a1.471,1.471,0,0,1-.229-1.568l2.655-6.95A1.331,1.331,0,0,0-672.18-3074.187Z" transform="translate(807.792 3606.24)"/>
    <path id="路径_3737" data-name="路径 3737" class="cls-4" d="M-678.257-3055.521v-17.438l-13.3,2.687a1.327,1.327,0,0,0-1,1.337v15.123a1.27,1.27,0,0,0,1.424,1.341l12.065-2.234Z" transform="translate(807.792 3606.24)"/>
    <path id="路径_3738" data-name="路径 3738" d="M-746.018-3072.826l3.717-4.13a1.212,1.212,0,0,1,2.088.96v19.325a1.468,1.468,0,0,1-.205.754l-2.044,3.405a1.2,1.2,0,0,1-2.234-.618l-1.674-18.6A1.444,1.444,0,0,1-746.018-3072.826Z" transform="translate(807.792 3606.24)"/>
    <path id="路径_3739" data-name="路径 3739" class="cls-8" d="M-746.018-3072.826l3.717-4.13a1.212,1.212,0,0,1,2.088.96v19.325a1.468,1.468,0,0,1-.205.754l-2.044,3.405a1.2,1.2,0,0,1-2.234-.618l-1.674-18.6A1.444,1.444,0,0,1-746.018-3072.826Z" transform="translate(807.792 3606.24)"/>
    <path id="路径_3740" data-name="路径 3740" d="M-690.71-3053.442l7.913-5.275a1.4,1.4,0,0,0,.593-1.165v-13.133a1.265,1.265,0,0,0-1.462-1.333l-7.913,1.758a1.331,1.331,0,0,0-.983,1.333v16.649A1.227,1.227,0,0,0-690.71-3053.442Z" transform="translate(807.792 3606.24)"/>
    <path id="路径_3741" data-name="路径 3741" class="cls-8" d="M-690.71-3053.442l7.913-5.275a1.4,1.4,0,0,0,.593-1.165v-13.133a1.265,1.265,0,0,0-1.462-1.333l-7.913,1.758a1.331,1.331,0,0,0-.983,1.333v16.649A1.227,1.227,0,0,0-690.71-3053.442Z" transform="translate(807.792 3606.24)"/>
    <path id="路径_3742" data-name="路径 3742" d="M-745.12-3072.418l61.654-2.209a1.29,1.29,0,0,1,1.262,1.358v13.005a1.327,1.327,0,0,1-1.022,1.341l-59.842,9.33a1.254,1.254,0,0,1-1.418-1.205l-1.812-20.127A1.317,1.317,0,0,1-745.12-3072.418Z" transform="translate(807.792 3606.24)"/>
    <path id="路径_3743" data-name="路径 3743" class="cls-8" d="M-745.12-3072.418l61.654-2.209a1.29,1.29,0,0,1,1.262,1.358v13.005a1.327,1.327,0,0,1-1.022,1.341l-59.842,9.33a1.254,1.254,0,0,1-1.418-1.205l-1.812-20.127A1.317,1.317,0,0,1-745.12-3072.418Z" transform="translate(807.792 3606.24)"/>
    <path id="路径_3744" data-name="路径 3744" class="cls-4" d="M-683.466-3074.627l-.391.014v11.2a1.328,1.328,0,0,1-1.022,1.341l-59.783,9.321.176,1.954a1.254,1.254,0,0,0,1.418,1.205l59.842-9.33a1.327,1.327,0,0,0,1.022-1.341v-13.005A1.29,1.29,0,0,0-683.466-3074.627Z" transform="translate(807.792 3606.24)"/>
    <path id="路径_3745" data-name="路径 3745" d="M-742.2-3067.841l-.151-1.68h0" transform="translate(807.792 3606.24)"/>
    <path id="路径_3746" data-name="路径 3746" class="cls-8" d="M-742.2-3067.841l-.151-1.68h0" transform="translate(807.792 3606.24)"/>
    <line id="直线_2156" data-name="直线 2156" x1="0.302" y1="3.36" transform="translate(65.89 541.759)"/>
    <line id="直线_2157" data-name="直线 2157" class="cls-8" x1="0.302" y1="3.36" transform="translate(65.89 541.759)"/>
    <path id="路径_3747" data-name="路径 3747" d="M-711.19-3108.721v2.977l-2.772-.9-.021-.047,1.5-.874Z" transform="translate(807.792 3606.24)"/>
    <path id="路径_3748" data-name="路径 3748" d="M-708.4-3106.692l-.021.047-2.772.9v-2.977l1.295,1.155Z" transform="translate(807.792 3606.24)"/>
    <path id="路径_3749" data-name="路径 3749" d="M-708.418-3106.645l-.678,1.541-.369,1.7-.031,0h0l-1.694-2.332Z" transform="translate(807.792 3606.24)"/>
    <path id="路径_3750" data-name="路径 3750" d="M-709.5-3103.412l-1.694-.17-1.694.17,1.694-2.332Z" transform="translate(807.792 3606.24)"/>
    <path id="路径_3751" data-name="路径 3751" d="M-711.19-3105.744l-1.694,2.332h0l-.031,0-.369-1.7-.678-1.541Z" transform="translate(807.792 3606.24)"/>
    <path id="路径_3752" data-name="路径 3752" d="M-720.939-3106.022l1.018,2.8-2.913.1-.035-.037,1.109-1.334Z" transform="translate(807.792 3606.24)"/>
    <path id="路径_3753" data-name="路径 3753" d="M-717.621-3105.07l0,.051-2.3,1.795-1.018-2.8,1.612.642Z" transform="translate(807.792 3606.24)"/>
    <path id="路径_3754" data-name="路径 3754" d="M-717.624-3105.019l-.11,1.68.233,1.719-.03.008h0l-2.39-1.612Z" transform="translate(807.792 3606.24)"/>
    <path id="路径_3755" data-name="路径 3755" d="M-717.531-3101.613l-1.65.42-1.534.739.795-2.771Z" transform="translate(807.792 3606.24)"/>
    <path id="路径_3756" data-name="路径 3756" d="M-719.921-3103.224l-.795,2.771h0l-.028.014-.926-1.467-1.164-1.216Z" transform="translate(807.792 3606.24)"/>
    <path id="路径_3757" data-name="路径 3757" d="M-701.441-3106.022l-1.018,2.8-2.3-1.795,0-.051,1.707-.309Z" transform="translate(807.792 3606.24)"/>
    <path id="路径_3758" data-name="路径 3758" d="M-699.511-3103.16l-.035.037-2.913-.1,1.018-2.8.822,1.528Z" transform="translate(807.792 3606.24)"/>
    <path id="路径_3759" data-name="路径 3759" d="M-699.546-3103.123l-1.164,1.216-.926,1.467-.028-.014h0l-.795-2.771Z" transform="translate(807.792 3606.24)"/>
    <path id="路径_3760" data-name="路径 3760" d="M-701.664-3100.454l-1.534-.739-1.65-.42,2.39-1.612Z" transform="translate(807.792 3606.24)"/>
    <path id="路径_3761" data-name="路径 3761" d="M-702.459-3103.224l-2.39,1.612h0l-.03-.008.233-1.719-.11-1.68Z" transform="translate(807.792 3606.24)"/>
    <text id="种子选手-2" data-name="种子选手" class="cls-9" transform="matrix(0.998, -0.07, 0.07, 0.998, 93.393, 546.406)"><tspan x="-24.797" y="0">种子选手</tspan></text>
    <g id="组_2925" data-name="组 2925" transform="translate(807.792 3606.24)">
      <path id="路径_4163" data-name="路径 4163" class="cls-10" d="M-688.16-3104.386l-6.547-4.2a34.865,34.865,0,0,0-37.651,0l-6.547,4.2a7.866,7.866,0,0,0-3.62,6.622v28.593a7.868,7.868,0,0,0,3.62,6.622L-717.78-3049a7.868,7.868,0,0,0,8.5,0l21.125-13.55a7.868,7.868,0,0,0,3.62-6.622v-28.593A7.866,7.866,0,0,0-688.16-3104.386Z"/>
      <g id="组_2907" data-name="组 2907">
        <g id="组_2906" data-name="组 2906" class="cls-11">
          <rect id="矩形_47529" data-name="矩形 47529" class="cls-12" width="32.05" height="112" transform="translate(-729.558 -3133.571)"/>
        </g>
      </g>
      <g id="组_2909" data-name="组 2909">
        <g id="组_2908" data-name="组 2908" class="cls-11">
          <rect id="矩形_47530" data-name="矩形 47530" class="cls-13" width="26.45" height="112" transform="translate(-726.758 -3133.571)"/>
        </g>
      </g>
      <g id="组_2910" data-name="组 2910">
        <path id="路径_4166" data-name="路径 4166" class="cls-14" d="M-688.16-3104.386l-6.547-4.2a34.85,34.85,0,0,0-20.05-5.5,34.837,34.837,0,0,1,17.6,5.5l6.547,4.2a7.866,7.866,0,0,1,3.62,6.622v28.593a7.868,7.868,0,0,1-3.62,6.622L-711.735-3049a7.858,7.858,0,0,1-3.022,1.146,7.865,7.865,0,0,0,5.472-1.146l21.125-13.55a7.868,7.868,0,0,0,3.62-6.622v-28.593A7.866,7.866,0,0,0-688.16-3104.386Z"/>
      </g>
      <g id="组_2911" data-name="组 2911">
        <path id="路径_4167" data-name="路径 4167" class="cls-15" d="M-738.355-3104.386l6.547-4.2a34.851,34.851,0,0,1,20.051-5.5,34.837,34.837,0,0,0-17.6,5.5l-6.547,4.2a7.866,7.866,0,0,0-3.62,6.622v28.593a7.868,7.868,0,0,0,3.62,6.622L-714.78-3049a7.856,7.856,0,0,0,3.023,1.146A7.867,7.867,0,0,1-717.23-3049l-21.125-13.55a7.867,7.867,0,0,1-3.62-6.622v-28.593A7.866,7.866,0,0,1-738.355-3104.386Z"/>
      </g>
      <path id="路径_4168" data-name="路径 4168" class="cls-16" d="M-688.16-3104.386l-6.547-4.2a34.865,34.865,0,0,0-37.651,0l-6.547,4.2a7.866,7.866,0,0,0-3.62,6.622v28.593a7.868,7.868,0,0,0,3.62,6.622L-717.78-3049a7.868,7.868,0,0,0,8.5,0l21.125-13.55a7.868,7.868,0,0,0,3.62-6.622v-28.593A7.866,7.866,0,0,0-688.16-3104.386Z"/>
      <g id="组_2914" data-name="组 2914">
        <g id="组_2913" data-name="组 2913" class="cls-11">
          <g id="组_2912" data-name="组 2912">
            <path id="路径_4169" data-name="路径 4169" class="cls-4" d="M-746.774-3072.418l61.654-2.209a1.29,1.29,0,0,1,1.263,1.358v13.005a1.328,1.328,0,0,1-1.022,1.341l-59.843,9.33a1.254,1.254,0,0,1-1.418-1.205l-1.812-20.127A1.317,1.317,0,0,1-746.774-3072.418Z"/>
          </g>
        </g>
      </g>
      <g id="组_2915" data-name="组 2915">
        <path id="路径_4171" data-name="路径 4171" class="cls-17" d="M-701.513-3092.494c4.779,4.778,4.779,9.279,0,14.057s-20.592,4.779-25.37,0-4.779-9.278,0-14.057c12.633-12.633,12.737-12.633,25.369,0Zm0,0"/>
        <path id="路径_4172" data-name="路径 4172" class="cls-18" d="M-730.411-3084.6c.259,2.033,1.436,4.073,3.529,6.166,4.778,4.779,20.591,4.78,25.37,0,2.093-2.093,3.269-4.133,3.528-6.166-.259-2.033-1.435-4.073-3.528-6.167-12.633-12.633-12.737-12.633-25.37,0h0c-2.093,2.093-3.27,4.133-3.529,6.167"/>
        <path id="路径_4173" data-name="路径 4173" class="cls-18" d="M-726.882-3090.77"/>
        <path id="路径_4174" data-name="路径 4174" class="cls-19" d="M-729.723-3086.914a13.846,13.846,0,0,0,2.841,3.856c4.778,4.779,20.591,4.78,25.37,0a13.845,13.845,0,0,0,2.841-3.856,13.83,13.83,0,0,0-2.842-3.856c-12.632-12.633-12.736-12.633-25.369,0h0a13.827,13.827,0,0,0-2.841,3.856"/>
        <path id="路径_4175" data-name="路径 4175" class="cls-19" d="M-726.882-3090.77"/>
        <path id="路径_4176" data-name="路径 4176" class="cls-20" d="M-714.2-3101.578"/>
        <path id="路径_4177" data-name="路径 4177" class="cls-21" d="M-708.258-3092.494a15.561,15.561,0,0,1,0,14.057c-2.238,4.78-9.641,4.779-11.878,0a15.554,15.554,0,0,1,0-14.057c5.914-12.633,5.963-12.633,11.878,0Zm0,0"/>
        <path id="路径_4178" data-name="路径 4178" class="cls-19" d="M-719.486-3090.77c-.98,2.093-2.181,4.133-2.3,6.166a16.819,16.819,0,0,0,1.653,6.167c2.237,4.779,9.641,4.779,11.878,0a16.817,16.817,0,0,0,1.652-6.166c-.121-2.034-1.323-4.074-2.3-6.167-5.914-12.633-4.662-12.633-10.577,0Zm0,0"/>
        <path id="路径_4179" data-name="路径 4179" class="cls-22" d="M-701.393-3079.476c0,5.38-5.733,9.743-12.8,9.743s-12.8-4.363-12.8-9.743,5.733-11.829,12.8-11.829,12.8,6.448,12.8,11.829Zm0,0"/>
        <path id="路径_4180" data-name="路径 4180" class="cls-23" d="M-701.393-3079.476c0,5.38-5.733,9.743-12.8,9.743s-12.8-4.363-12.8-9.743,5.733-9.089,12.8-9.089,12.8,3.708,12.8,9.089Zm0,0"/>
        <path id="路径_4181" data-name="路径 4181" class="cls-22" d="M-711.482-3078.676c0,.362-1.22.427-2.726.427s-2.727-.065-2.727-.427,1.221-1.311,2.727-1.311,2.726.948,2.726,1.311Zm0,0"/>
        <path id="路径_4182" data-name="路径 4182" class="cls-24" d="M-701.393-3079.476c0,5.38-5.733,9.743-12.8,9.743s-12.8-4.363-12.8-9.743,1.629,4.772,12.8,4.772,12.8-10.154,12.8-4.772Zm0,0"/>
        <path id="路径_4183" data-name="路径 4183" class="cls-25" d="M-710.663-3075.687c0,1.013-1.583,1.834-3.534,1.834s-3.535-.821-3.535-1.834"/>
        <path id="路径_4184" data-name="路径 4184" d="M-714.2-3069.343c-7.276,0-13.2-4.546-13.2-10.133,0-5.535,5.885-12.219,13.2-12.219s13.2,6.684,13.2,12.219c0,5.587-5.92,10.133-13.2,10.133Zm0-21.572c-6.877,0-12.415,6.258-12.415,11.439,0,5.157,5.569,9.352,12.415,9.352s12.414-4.2,12.414-9.352c0-5.181-5.537-11.439-12.414-11.439Zm0,0"/>
        <path id="路径_4185" data-name="路径 4185" class="cls-26" d="M-718.4-3080.476a2.1,2.1,0,0,1-.614,1.481,2.091,2.091,0,0,1-1.481.614,2.1,2.1,0,0,1-1.482-.614,2.094,2.094,0,0,1-.613-1.481,2.1,2.1,0,0,1,2.1-2.072,2.1,2.1,0,0,1,2.095,2.072Zm0,0"/>
        <path id="路径_4186" data-name="路径 4186" class="cls-27" d="M-722.394-3081.157a.854.854,0,0,0,.854.854.855.855,0,0,0,.854-.854.854.854,0,0,0-.854-.854.854.854,0,0,0-.854.854Zm0,0"/>
        <path id="路径_4187" data-name="路径 4187" d="M-720.5-3082.961a2.484,2.484,0,0,0-2.035,1.062c-.03.042-.058.085-.084.13a2.469,2.469,0,0,0-.366,1.293,2.488,2.488,0,0,0,2.485,2.485,2.488,2.488,0,0,0,2.485-2.485,2.487,2.487,0,0,0-2.485-2.485Zm0,4.189a1.7,1.7,0,0,1-1.573-1.049,4.011,4.011,0,0,0,.642-.1,1.177,1.177,0,0,0,.252-.05,3.88,3.88,0,0,1,.679-.069c.628,0,1.19.211,1.574.222a1.707,1.707,0,0,1-1.574,1.049Zm0,0"/>
        <path id="路径_4188" data-name="路径 4188" class="cls-27" d="M-722-3081.157a.462.462,0,0,0,.463.463.462.462,0,0,0,.463-.463.463.463,0,0,0-.463-.463.463.463,0,0,0-.463.463Zm0,0"/>
        <path id="路径_4189" data-name="路径 4189" class="cls-26" d="M-705.8-3080.476a2.089,2.089,0,0,1-.613,1.481,2.1,2.1,0,0,1-1.482.614,2.1,2.1,0,0,1-1.481-.614,2.1,2.1,0,0,1-.614-1.481,2.1,2.1,0,0,1,.614-1.482,2.094,2.094,0,0,1,1.481-.613,2.1,2.1,0,0,1,1.482.613,2.1,2.1,0,0,1,.613,1.482Zm0,0"/>
        <path id="路径_4190" data-name="路径 4190" class="cls-27" d="M-709.792-3081.157a.852.852,0,0,0,.426.739.851.851,0,0,0,.854,0,.853.853,0,0,0,.427-.739.856.856,0,0,0-.427-.74.856.856,0,0,0-.854,0,.855.855,0,0,0-.426.74Zm0,0"/>
        <path id="路径_4191" data-name="路径 4191" d="M-707.9-3082.961a2.483,2.483,0,0,0-2.038,1.066,1.392,1.392,0,0,0-.078.121,2.467,2.467,0,0,0-.369,1.3,2.488,2.488,0,0,0,2.485,2.486,2.489,2.489,0,0,0,2.486-2.486,2.487,2.487,0,0,0-2.486-2.484Zm0,4.189a1.7,1.7,0,0,1-1.573-1.049,4.011,4.011,0,0,0,.642-.1,1.151,1.151,0,0,0,.253-.05,3.869,3.869,0,0,1,.678-.069c.628,0,1.19.211,1.574.222a1.705,1.705,0,0,1-1.574,1.049Zm0,0"/>
        <path id="路径_4192" data-name="路径 4192" class="cls-27" d="M-708.938-3081.62a.464.464,0,0,0-.464.463.464.464,0,0,0,.464.463.463.463,0,0,0,.463-.463.463.463,0,0,0-.463-.463Zm0,0"/>
        <path id="路径_4193" data-name="路径 4193" d="M-714.839-3076.953a.39.39,0,0,1-.284-.122l-.391-.413a.392.392,0,0,1,.016-.552.39.39,0,0,1,.552.016l.39.413a.389.389,0,0,1,.075.422.389.389,0,0,1-.358.236Zm1.284,0a.388.388,0,0,1-.359-.235.388.388,0,0,1,.075-.423l.39-.413a.39.39,0,0,1,.552-.016.39.39,0,0,1,.016.552l-.391.413a.388.388,0,0,1-.283.122Zm0,0"/>
        <path id="路径_4194" data-name="路径 4194" class="cls-28" d="M-722.126-3087.614a6.232,6.232,0,0,1,2.1-.969,2.323,2.323,0,0,0-.34-1.755c-.755-1.073-2.427-1.251-4.058-.548-1.213,1.3-1.611,2.933-.856,4a2.323,2.323,0,0,0,1.538.913,6.246,6.246,0,0,1,1.619-1.646Zm0,0"/>
        <path id="路径_4195" data-name="路径 4195" class="cls-22" d="M-721.3-3089.644c-.675-.959-2.086-1.2-3.543-.737a3.041,3.041,0,0,0-.438,3.5,2.226,2.226,0,0,0,1.221.836c.293-.314.692-.05,1.069-.316.111-.078.158-.7.271-.775a6.542,6.542,0,0,1,.6-.479,6.426,6.426,0,0,1,1.2-.664,2.191,2.191,0,0,0-.377-1.366Zm0,0"/>
        <path id="路径_4196" data-name="路径 4196" d="M-723.744-3085.578a.434.434,0,0,1-.07-.006,2.7,2.7,0,0,1-1.788-1.071c-.851-1.21-.493-3.017.89-4.5a.384.384,0,0,1,.13-.091c1.86-.8,3.681-.529,4.532.681a2.693,2.693,0,0,1,.4,2.044.391.391,0,0,1-.449.32.39.39,0,0,1-.254-.159.386.386,0,0,1-.066-.291,1.937,1.937,0,0,0-.274-1.465c-.613-.871-2.047-1.05-3.509-.446-1.063,1.173-1.379,2.584-.766,3.454a1.937,1.937,0,0,0,1.287.752.39.39,0,0,1,.322.419.39.39,0,0,1-.39.356Zm0,0"/>
        <path id="路径_4197" data-name="路径 4197" class="cls-28" d="M-706.269-3087.614a6.228,6.228,0,0,0-2.1-.969,2.318,2.318,0,0,1,.339-1.755c.755-1.073,2.428-1.251,4.059-.548,1.212,1.3,1.61,2.933.855,4a2.321,2.321,0,0,1-1.538.913,6.247,6.247,0,0,0-1.619-1.646Zm0,0"/>
        <path id="路径_4198" data-name="路径 4198" class="cls-22" d="M-707.093-3089.644c.676-.959,2.086-1.2,3.543-.737a3.039,3.039,0,0,1,.438,3.5,2.226,2.226,0,0,1-1.221.836c-.294-.314-.691-.05-1.069-.316-.111-.078-.158-.7-.271-.775a6.674,6.674,0,0,0-.6-.479,6.436,6.436,0,0,0-1.2-.664,2.192,2.192,0,0,1,.377-1.366Zm0,0"/>
        <path id="路径_4199" data-name="路径 4199" d="M-704.651-3085.578a.389.389,0,0,1-.387-.356.389.389,0,0,1,.319-.418,1.942,1.942,0,0,0,1.288-.753c.612-.87.3-2.281-.767-3.453-1.462-.6-2.9-.425-3.509.445a1.938,1.938,0,0,0-.274,1.465.386.386,0,0,1-.066.291.388.388,0,0,1-.253.159.392.392,0,0,1-.45-.32,2.7,2.7,0,0,1,.405-2.045c.851-1.209,2.672-1.482,4.532-.68a.4.4,0,0,1,.131.091c1.383,1.481,1.74,3.288.889,4.5a2.7,2.7,0,0,1-1.788,1.071.415.415,0,0,1-.07.006Zm0,0"/>
        <path id="路径_4200" data-name="路径 4200" class="cls-24" d="M-715.879-3084.548a1.972,1.972,0,0,1-1.973-1.972c0-1.09,1.373-1.483,2.463-1.483s1.482.394,1.482,1.483a1.972,1.972,0,0,1-1.972,1.972Zm0,0"/>
        <path id="路径_4201" data-name="路径 4201" class="cls-24" d="M-712.672-3085.242a.693.693,0,0,0,.347.6.694.694,0,0,0,.694,0,.694.694,0,0,0,.346-.6.7.7,0,0,0-.346-.6.694.694,0,0,0-.694,0,.694.694,0,0,0-.347.6Zm0,0"/>
        <path id="路径_4202" data-name="路径 4202" class="cls-24" d="M-709.792-3085.758a.516.516,0,0,0,.258.447.514.514,0,0,0,.517,0,.516.516,0,0,0,.258-.447.516.516,0,0,0-.258-.448.518.518,0,0,0-.517,0,.516.516,0,0,0-.258.448Zm0,0"/>
        <path id="路径_4203" data-name="路径 4203" class="cls-24" d="M-713.165-3081.532a.339.339,0,0,0,.17.294.34.34,0,0,0,.341,0,.339.339,0,0,0,.17-.294.341.341,0,0,0-.17-.295.34.34,0,0,0-.341,0,.341.341,0,0,0-.17.295Zm0,0"/>
        <path id="路径_4204" data-name="路径 4204" class="cls-24" d="M-719.438-3085.108a.65.65,0,0,0,.651.651.651.651,0,0,0,.651-.651.652.652,0,0,0-.651-.651.651.651,0,0,0-.651.651Zm0,0"/>
        <path id="路径_4205" data-name="路径 4205" class="cls-27" d="M-719.983-3076.1l-1.315.774-.093-1.523"/>
        <path id="路径_4206" data-name="路径 4206" class="cls-27" d="M-708.411-3076.1l1.315.774.093-1.523"/>
        <path id="路径_4207" data-name="路径 4207" d="M-706.159-3078.344a.387.387,0,0,0-.3-.019.393.393,0,0,0-.224.2c-.009.018-.926,1.822-4.015,1.764-2.093-.037-3.057.393-3.5.8-.444-.411-1.408-.839-3.5-.8-3.06.058-3.977-1.687-4.017-1.766a.39.39,0,0,0-.522-.176.391.391,0,0,0-.178.521,3.31,3.31,0,0,0,.661.834.391.391,0,0,0-.027.167l.093,1.523a.389.389,0,0,0,.206.321.394.394,0,0,0,.381-.008l1.315-.775a.376.376,0,0,0,.111-.1,6.753,6.753,0,0,0,1.558.228c.052,1.22,1.753,2.167,3.919,2.167s3.869-.948,3.92-2.168a6.812,6.812,0,0,0,1.557-.228.383.383,0,0,0,.112.1l1.315.775a.394.394,0,0,0,.381.008.389.389,0,0,0,.206-.321l.093-1.523a.4.4,0,0,0-.027-.167,3.282,3.282,0,0,0,.661-.834.391.391,0,0,0,.019-.3.39.39,0,0,0-.2-.224Zm-14.789,2.363-.026-.42c.12.072.25.14.388.207Zm6.751,1.738c-1.793,0-3.057-.712-3.137-1.377,2.077.023,2.685.574,2.741.8a.133.133,0,0,1,0-.027l.4-.036.4.036a.131.131,0,0,1,0,.027c.056-.222.668-.779,2.74-.8-.079.665-1.343,1.378-3.136,1.378Zm6.75-1.738-.363-.214c.139-.066.269-.135.389-.207Zm0,0"/>
      </g>
      <g id="组_2924" data-name="组 2924">
        <g id="组_2916" data-name="组 2916">
          <path id="路径_4208" data-name="路径 4208" class="cls-29" d="M-674.63-3076.637l-19.378,3.915a1.327,1.327,0,0,0-1,1.337v15.123a1.27,1.27,0,0,0,1.424,1.341l21.092-3.906a1.4,1.4,0,0,0,.664-2.3l-3.911-5.046a1.471,1.471,0,0,1-.229-1.568l2.655-6.95A1.331,1.331,0,0,0-674.63-3076.637Z"/>
          <path id="路径_4209" data-name="路径 4209" class="cls-30" d="M-674.63-3076.637l-19.378,3.915a1.327,1.327,0,0,0-1,1.337v15.123a1.27,1.27,0,0,0,1.424,1.341l21.092-3.906a1.4,1.4,0,0,0,.664-2.3l-3.911-5.046a1.471,1.471,0,0,1-.229-1.568l2.655-6.95A1.331,1.331,0,0,0-674.63-3076.637Z"/>
        </g>
        <g id="组_2917" data-name="组 2917">
          <path id="路径_4210" data-name="路径 4210" class="cls-4" d="M-680.707-3057.971v-17.438l-13.3,2.687a1.327,1.327,0,0,0-1,1.337v15.123a1.27,1.27,0,0,0,1.424,1.341l12.065-2.234Z"/>
        </g>
        <g id="组_2918" data-name="组 2918">
          <path id="路径_4211" data-name="路径 4211" class="cls-31" d="M-748.468-3075.276l3.717-4.13a1.212,1.212,0,0,1,2.088.96v19.325a1.47,1.47,0,0,1-.2.754l-2.044,3.405a1.2,1.2,0,0,1-2.234-.618l-1.674-18.6A1.444,1.444,0,0,1-748.468-3075.276Z"/>
          <path id="路径_4212" data-name="路径 4212" class="cls-30" d="M-748.468-3075.276l3.717-4.13a1.212,1.212,0,0,1,2.088.96v19.325a1.47,1.47,0,0,1-.2.754l-2.044,3.405a1.2,1.2,0,0,1-2.234-.618l-1.674-18.6A1.444,1.444,0,0,1-748.468-3075.276Z"/>
        </g>
        <g id="组_2919" data-name="组 2919">
          <path id="路径_4213" data-name="路径 4213" class="cls-31" d="M-693.16-3055.892l7.913-5.275a1.4,1.4,0,0,0,.593-1.165v-13.133a1.265,1.265,0,0,0-1.462-1.333l-7.913,1.758a1.331,1.331,0,0,0-.983,1.333v16.649A1.227,1.227,0,0,0-693.16-3055.892Z"/>
          <path id="路径_4214" data-name="路径 4214" class="cls-30" d="M-693.16-3055.892l7.913-5.275a1.4,1.4,0,0,0,.593-1.165v-13.133a1.265,1.265,0,0,0-1.462-1.333l-7.913,1.758a1.331,1.331,0,0,0-.983,1.333v16.649A1.227,1.227,0,0,0-693.16-3055.892Z"/>
        </g>
        <g id="组_2920" data-name="组 2920">
          <path id="路径_4215" data-name="路径 4215" class="cls-29" d="M-747.57-3074.868l61.654-2.209a1.29,1.29,0,0,1,1.262,1.358v13a1.327,1.327,0,0,1-1.022,1.341l-59.842,9.33a1.254,1.254,0,0,1-1.418-1.205l-1.812-20.127A1.317,1.317,0,0,1-747.57-3074.868Z"/>
          <path id="路径_4216" data-name="路径 4216" class="cls-30" d="M-747.57-3074.868l61.654-2.209a1.29,1.29,0,0,1,1.262,1.358v13a1.327,1.327,0,0,1-1.022,1.341l-59.842,9.33a1.254,1.254,0,0,1-1.418-1.205l-1.812-20.127A1.317,1.317,0,0,1-747.57-3074.868Z"/>
        </g>
        <g id="组_2921" data-name="组 2921">
          <path id="路径_4217" data-name="路径 4217" class="cls-4" d="M-685.916-3077.077l-.391.014v11.2a1.328,1.328,0,0,1-1.022,1.341l-59.783,9.321.176,1.954a1.254,1.254,0,0,0,1.418,1.205l59.842-9.33a1.327,1.327,0,0,0,1.022-1.341v-13A1.29,1.29,0,0,0-685.916-3077.077Z"/>
        </g>
        <g id="组_2922" data-name="组 2922">
          <path id="路径_4218" data-name="路径 4218" class="cls-29" d="M-744.654-3070.291l-.151-1.68h0"/>
          <path id="路径_4219" data-name="路径 4219" class="cls-32" d="M-744.654-3070.291l-.151-1.68h0"/>
        </g>
        <g id="组_2923" data-name="组 2923">
          <line id="直线_2179" data-name="直线 2179" class="cls-29" x1="0.302" y1="3.36" transform="translate(-744.352 -3066.931)"/>
          <line id="直线_2180" data-name="直线 2180" class="cls-32" x1="0.302" y1="3.36" transform="translate(-744.352 -3066.931)"/>
        </g>
      </g>
    </g>
    <g id="组_2929" data-name="组 2929" transform="translate(807.792 3606.24)">
      <g id="组_2926" data-name="组 2926">
        <path id="路径_4220" data-name="路径 4220" class="cls-33" d="M-713.64-3111.171v2.977l-2.772-.9-.021-.047,1.5-.874Z"/>
        <path id="路径_4221" data-name="路径 4221" class="cls-34" d="M-710.847-3109.142l-.021.047-2.772.9v-2.977l1.295,1.155Z"/>
        <path id="路径_4222" data-name="路径 4222" class="cls-35" d="M-710.868-3109.095l-.678,1.541-.369,1.7-.031,0h0l-1.694-2.332Z"/>
        <path id="路径_4223" data-name="路径 4223" class="cls-34" d="M-711.946-3105.862l-1.694-.17-1.694.17,1.694-2.332Z"/>
        <path id="路径_4224" data-name="路径 4224" class="cls-33" d="M-713.64-3108.194l-1.694,2.332h0l-.031,0-.369-1.7-.678-1.541Z"/>
      </g>
      <g id="组_2927" data-name="组 2927">
        <path id="路径_4225" data-name="路径 4225" class="cls-33" d="M-723.389-3108.472l1.018,2.8-2.913.1-.035-.037,1.109-1.334Z"/>
        <path id="路径_4226" data-name="路径 4226" class="cls-34" d="M-720.071-3107.52l0,.051-2.3,1.794-1.018-2.8,1.612.642Z"/>
        <path id="路径_4227" data-name="路径 4227" class="cls-35" d="M-720.074-3107.469l-.11,1.68.233,1.719-.03.008h0l-2.39-1.612Z"/>
        <path id="路径_4228" data-name="路径 4228" class="cls-34" d="M-719.981-3104.063l-1.65.42-1.534.739.795-2.771Z"/>
        <path id="路径_4229" data-name="路径 4229" class="cls-33" d="M-722.371-3105.675l-.795,2.771h0l-.028.014-.926-1.467-1.164-1.216Z"/>
      </g>
      <g id="组_2928" data-name="组 2928">
        <path id="路径_4230" data-name="路径 4230" class="cls-33" d="M-703.891-3108.472l-1.018,2.8-2.3-1.794,0-.051,1.707-.309Z"/>
        <path id="路径_4231" data-name="路径 4231" class="cls-34" d="M-701.961-3105.61l-.035.037-2.913-.1,1.018-2.8.822,1.528Z"/>
        <path id="路径_4232" data-name="路径 4232" class="cls-35" d="M-702-3105.573l-1.164,1.216-.926,1.467-.028-.014h0l-.795-2.771Z"/>
        <path id="路径_4233" data-name="路径 4233" class="cls-34" d="M-704.114-3102.9l-1.534-.739-1.65-.42,2.39-1.612Z"/>
        <path id="路径_4234" data-name="路径 4234" class="cls-33" d="M-704.909-3105.675l-2.39,1.612h0l-.03-.008.233-1.719-.11-1.68Z"/>
      </g>
    </g>
  </g>
</svg>
