<svg xmlns="http://www.w3.org/2000/svg" xmlns:xlink="http://www.w3.org/1999/xlink" width="81.219" height="70.328" viewBox="0 0 81.219 70.328">
  <defs>
    <style>
      .cls-1, .cls-15, .cls-25, .cls-27, .cls-5, .cls-7 {
        fill: none;
      }

      .cls-2 {
        clip-path: url(#clip-path);
      }

      .cls-13, .cls-3 {
        opacity: 0.1;
      }

      .cls-14, .cls-19, .cls-4 {
        opacity: 0.2;
      }

      .cls-20, .cls-21, .cls-22, .cls-5, .cls-6, .cls-7 {
        stroke: #000;
      }

      .cls-15, .cls-20, .cls-21, .cls-22, .cls-25, .cls-27, .cls-5, .cls-6, .cls-7 {
        stroke-linecap: round;
        stroke-linejoin: round;
      }

      .cls-15, .cls-25, .cls-27, .cls-5, .cls-7 {
        stroke-width: 1.4px;
      }

      .cls-15, .cls-5 {
        stroke-dasharray: 35 3.5 3.5 3.5;
      }

      .cls-20, .cls-21, .cls-22, .cls-6 {
        stroke-width: 0.7px;
        stroke-dasharray: 35 1.75 1.75 1.75;
      }

      .cls-8 {
        font-size: 12.6px;
        font-family: AlibabaPuHuiTi-Bold, Alibaba PuHuiTi;
        font-weight: 700;
      }

      .cls-9 {
        fill: #a8e8e6;
      }

      .cls-10 {
        clip-path: url(#clip-path-4);
      }

      .cls-11 {
        fill: #47a1b1;
      }

      .cls-12 {
        fill: #8be2ed;
      }

      .cls-13, .cls-14 {
        fill: #fff;
      }

      .cls-15, .cls-25 {
        stroke: #191919;
      }

      .cls-16 {
        fill: #fce47b;
      }

      .cls-17 {
        fill: #ecc05d;
      }

      .cls-18, .cls-20 {
        fill: #eaa654;
      }

      .cls-21 {
        fill: #2e68c6;
      }

      .cls-22 {
        fill: #43b530;
      }

      .cls-23 {
        opacity: 0.4;
        mix-blend-mode: soft-light;
        isolation: isolate;
      }

      .cls-24 {
        fill: #ffda34;
      }

      .cls-26 {
        fill: #ff9f36;
      }

      .cls-27 {
        stroke: #fff;
      }
    </style>
    <clipPath id="clip-path">
      <path id="路径_3763" data-name="路径 3763" class="cls-1" d="M-594.01-3101.936l-6.547-4.2a34.866,34.866,0,0,0-37.651,0l-6.547,4.2a7.867,7.867,0,0,0-3.62,6.622v28.593a7.867,7.867,0,0,0,3.62,6.622l21.125,13.55a7.867,7.867,0,0,0,8.495,0l21.125-13.55a7.867,7.867,0,0,0,3.62-6.622v-28.593A7.867,7.867,0,0,0-594.01-3101.936Z"/>
    </clipPath>
    <clipPath id="clip-path-4">
      <path id="路径_4236" data-name="路径 4236" class="cls-1" d="M-596.46-3104.386l-6.547-4.2a34.865,34.865,0,0,0-37.651,0l-6.547,4.2a7.866,7.866,0,0,0-3.62,6.622v28.593a7.868,7.868,0,0,0,3.62,6.622L-626.08-3049a7.868,7.868,0,0,0,8.495,0l21.125-13.55a7.867,7.867,0,0,0,3.62-6.622v-28.593A7.866,7.866,0,0,0-596.46-3104.386Z"/>
    </clipPath>
  </defs>
  <g id="爱干净" transform="translate(-149.964 -491.436)">
    <path id="路径_3762" data-name="路径 3762" d="M-594.01-3101.936l-6.547-4.2a34.866,34.866,0,0,0-37.651,0l-6.547,4.2a7.867,7.867,0,0,0-3.62,6.622v28.593a7.867,7.867,0,0,0,3.62,6.622l21.125,13.55a7.867,7.867,0,0,0,8.495,0l21.125-13.55a7.867,7.867,0,0,0,3.62-6.622v-28.593A7.867,7.867,0,0,0-594.01-3101.936Z" transform="translate(807.792 3606.24)"/>
    <g id="组_2703" data-name="组 2703" transform="translate(807.792 3606.24)">
      <g id="组_2702" data-name="组 2702" class="cls-2">
        <rect id="矩形_47502" data-name="矩形 47502" width="32.05" height="112" transform="translate(-635.408 -3131.121)"/>
      </g>
    </g>
    <g id="组_2705" data-name="组 2705" transform="translate(807.792 3606.24)">
      <g id="组_2704" data-name="组 2704" class="cls-2">
        <rect id="矩形_47503" data-name="矩形 47503" width="26.45" height="112" transform="translate(-632.608 -3131.121)"/>
      </g>
    </g>
    <path id="路径_3765" data-name="路径 3765" class="cls-3" d="M-594.01-3101.936l-6.547-4.2a34.85,34.85,0,0,0-20.05-5.5,34.836,34.836,0,0,1,17.6,5.5l6.547,4.2a7.867,7.867,0,0,1,3.62,6.622v28.593a7.867,7.867,0,0,1-3.62,6.622l-21.125,13.55a7.858,7.858,0,0,1-3.022,1.146,7.864,7.864,0,0,0,5.472-1.146l21.125-13.55a7.867,7.867,0,0,0,3.62-6.622v-28.593A7.867,7.867,0,0,0-594.01-3101.936Z" transform="translate(807.792 3606.24)"/>
    <path id="路径_3766" data-name="路径 3766" class="cls-4" d="M-644.205-3101.936l6.547-4.2a34.851,34.851,0,0,1,20.051-5.5,34.837,34.837,0,0,0-17.6,5.5l-6.547,4.2a7.867,7.867,0,0,0-3.62,6.622v28.593a7.867,7.867,0,0,0,3.62,6.622l21.125,13.55a7.856,7.856,0,0,0,3.023,1.146,7.866,7.866,0,0,1-5.473-1.146l-21.125-13.55a7.867,7.867,0,0,1-3.62-6.622v-28.593A7.867,7.867,0,0,1-644.205-3101.936Z" transform="translate(807.792 3606.24)"/>
    <path id="路径_3767" data-name="路径 3767" class="cls-5" d="M-594.01-3101.936l-6.547-4.2a34.866,34.866,0,0,0-37.651,0l-6.547,4.2a7.867,7.867,0,0,0-3.62,6.622v28.593a7.867,7.867,0,0,0,3.62,6.622l21.125,13.55a7.867,7.867,0,0,0,8.495,0l21.125-13.55a7.867,7.867,0,0,0,3.62-6.622v-28.593A7.867,7.867,0,0,0-594.01-3101.936Z" transform="translate(807.792 3606.24)"/>
    <g id="组_2707" data-name="组 2707" transform="translate(807.792 3606.24)">
      <g id="组_2706" data-name="组 2706" class="cls-2">
        <path id="路径_3768" data-name="路径 3768" class="cls-4" d="M-652.624-3069.968l61.654-2.209a1.291,1.291,0,0,1,1.263,1.358v13.005a1.328,1.328,0,0,1-1.022,1.341l-59.843,9.33a1.254,1.254,0,0,1-1.418-1.2l-1.812-20.127A1.317,1.317,0,0,1-652.624-3069.968Z"/>
      </g>
    </g>
    <path id="路径_3770" data-name="路径 3770" d="M-619.49-3108.721v2.977l-2.772-.9-.021-.047,1.5-.874Z" transform="translate(807.792 3606.24)"/>
    <path id="路径_3771" data-name="路径 3771" d="M-616.7-3106.692l-.021.047-2.772.9v-2.977l1.295,1.155Z" transform="translate(807.792 3606.24)"/>
    <path id="路径_3772" data-name="路径 3772" d="M-616.718-3106.645l-.678,1.541-.369,1.7-.031,0h0l-1.694-2.332Z" transform="translate(807.792 3606.24)"/>
    <path id="路径_3773" data-name="路径 3773" d="M-617.8-3103.412l-1.694-.17-1.694.17,1.694-2.332Z" transform="translate(807.792 3606.24)"/>
    <path id="路径_3774" data-name="路径 3774" d="M-619.49-3105.744l-1.694,2.332h0l-.031,0-.369-1.7-.678-1.541Z" transform="translate(807.792 3606.24)"/>
    <path id="路径_3775" data-name="路径 3775" d="M-629.239-3106.022l1.018,2.8-2.913.1-.035-.037,1.109-1.334Z" transform="translate(807.792 3606.24)"/>
    <path id="路径_3776" data-name="路径 3776" d="M-625.921-3105.07l0,.051-2.3,1.795-1.018-2.8,1.612.642Z" transform="translate(807.792 3606.24)"/>
    <path id="路径_3777" data-name="路径 3777" d="M-625.924-3105.019l-.11,1.68.233,1.719-.03.008h0l-2.39-1.612Z" transform="translate(807.792 3606.24)"/>
    <path id="路径_3778" data-name="路径 3778" d="M-625.831-3101.613l-1.65.42-1.534.739.795-2.771Z" transform="translate(807.792 3606.24)"/>
    <path id="路径_3779" data-name="路径 3779" d="M-628.221-3103.224l-.795,2.771h0l-.028.014-.926-1.467-1.164-1.216Z" transform="translate(807.792 3606.24)"/>
    <path id="路径_3780" data-name="路径 3780" d="M-609.741-3106.022l-1.018,2.8-2.3-1.795,0-.051,1.707-.309Z" transform="translate(807.792 3606.24)"/>
    <path id="路径_3781" data-name="路径 3781" d="M-607.811-3103.16l-.035.037-2.913-.1,1.018-2.8.822,1.528Z" transform="translate(807.792 3606.24)"/>
    <path id="路径_3782" data-name="路径 3782" d="M-607.846-3103.123l-1.164,1.216-.926,1.467-.028-.014h0l-.795-2.771Z" transform="translate(807.792 3606.24)"/>
    <path id="路径_3783" data-name="路径 3783" d="M-609.964-3100.454l-1.534-.739-1.65-.42,2.39-1.612Z" transform="translate(807.792 3606.24)"/>
    <path id="路径_3784" data-name="路径 3784" d="M-610.759-3103.224l-2.39,1.612h0l-.03-.008.233-1.719-.11-1.68Z" transform="translate(807.792 3606.24)"/>
    <path id="路径_3785" data-name="路径 3785" d="M-605.666-3094.631h-15.056a27,27,0,0,0,1.095,3.559,12.885,12.885,0,0,1-2.464-3.559h-4.516a25.177,25.177,0,0,0,1.642,7.118c-3.558-3.833-3.558-7.118-3.558-7.118h-1.643a9.425,9.425,0,0,0-.274,1.78,12.255,12.255,0,0,0,6.159,10.676h12.592a12.421,12.421,0,0,0,6.16-10.676A7.8,7.8,0,0,0-605.666-3094.631Z" transform="translate(807.792 3606.24)"/>
    <path id="路径_3786" data-name="路径 3786" d="M-614.426-3080.4h-7.117a1.812,1.812,0,0,0-1.78,1.779v1.78a1.812,1.812,0,0,0,1.78,1.779h1.779v7.117a1.811,1.811,0,0,0,1.779,1.779,1.811,1.811,0,0,0,1.78-1.779v-7.117h1.779a1.811,1.811,0,0,0,1.779-1.779v-1.78A1.811,1.811,0,0,0-614.426-3080.4Z" transform="translate(807.792 3606.24)"/>
    <path id="路径_3787" data-name="路径 3787" class="cls-6" d="M-631.566-3095.331h1.643s0,3.285,3.558,7.118a25.176,25.176,0,0,1-1.642-7.118h4.516a12.89,12.89,0,0,0,2.464,3.559,27.015,27.015,0,0,1-1.1-3.559h15.056a7.805,7.805,0,0,1,.137,1.78,12.421,12.421,0,0,1-6.16,10.676h-12.592a12.255,12.255,0,0,1-6.159-10.676,9.417,9.417,0,0,1,.274-1.78Z" transform="translate(807.792 3606.24)"/>
    <path id="路径_3788" data-name="路径 3788" class="cls-6" d="M-622.943-3081.1h7.117a1.811,1.811,0,0,1,1.779,1.779v1.78a1.811,1.811,0,0,1-1.779,1.779H-617.6v7.117a1.812,1.812,0,0,1-1.78,1.779,1.811,1.811,0,0,1-1.779-1.779v-7.117h-1.779a1.812,1.812,0,0,1-1.78-1.779v-1.78a1.812,1.812,0,0,1,1.78-1.779Z" transform="translate(807.792 3606.24)"/>
    <path id="路径_3789" data-name="路径 3789" class="cls-6" d="M-622.943-3081.1" transform="translate(807.792 3606.24)"/>
    <path id="路径_3790" data-name="路径 3790" d="M-628.115-3090.313c-.048-.117-.094-.236-.14-.355a9.776,9.776,0,0,1-1.668-4.663h-1.313A14.116,14.116,0,0,0-628.115-3090.313Z" transform="translate(807.792 3606.24)"/>
    <path id="路径_3791" data-name="路径 3791" d="M-624.009-3095.331a11.426,11.426,0,0,0,1.232,1.459c-.047-.125-.093-.258-.14-.387-.212-.368-.4-.727-.574-1.072Z" transform="translate(807.792 3606.24)"/>
    <path id="路径_3792" data-name="路径 3792" d="M-607.066-3095.331h-1.624a12.427,12.427,0,0,1-6.149,10.356h-12.592a13.136,13.136,0,0,1-2.406-1.832,12.751,12.751,0,0,0,4.156,3.932h12.592a12.421,12.421,0,0,0,6.16-10.676A7.805,7.805,0,0,0-607.066-3095.331Z" transform="translate(807.792 3606.24)"/>
    <path id="路径_3793" data-name="路径 3793" d="M-616.657-3094.721c2.8,5.6,2.8,8.4,2.8,8.4Z" transform="translate(807.792 3606.24)"/>
    <path id="路径_3794" data-name="路径 3794" d="M-619.457-3091.921s2.8,2.8,2.8,5.6Z" transform="translate(807.792 3606.24)"/>
    <path id="路径_3795" data-name="路径 3795" d="M-615.8-3081.093v1.456a1.811,1.811,0,0,1-1.779,1.779h-1.779v7.117a1.812,1.812,0,0,1-1.78,1.779c-.01,0-.019,0-.029,0v.324a1.811,1.811,0,0,0,1.779,1.779,1.812,1.812,0,0,0,1.78-1.779v-7.117h1.779a1.811,1.811,0,0,0,1.779-1.779v-1.78A1.811,1.811,0,0,0-615.8-3081.093Z" transform="translate(807.792 3606.24)"/>
    <path id="路径_3796" data-name="路径 3796" d="M-580.48-3074.187l-19.378,3.915a1.327,1.327,0,0,0-1,1.337v15.123a1.27,1.27,0,0,0,1.424,1.341l21.092-3.906a1.4,1.4,0,0,0,.664-2.3l-3.911-5.046a1.471,1.471,0,0,1-.229-1.568l2.655-6.95A1.331,1.331,0,0,0-580.48-3074.187Z" transform="translate(807.792 3606.24)"/>
    <path id="路径_3797" data-name="路径 3797" class="cls-7" d="M-580.48-3074.187l-19.378,3.915a1.327,1.327,0,0,0-1,1.337v15.123a1.27,1.27,0,0,0,1.424,1.341l21.092-3.906a1.4,1.4,0,0,0,.664-2.3l-3.911-5.046a1.471,1.471,0,0,1-.229-1.568l2.655-6.95A1.331,1.331,0,0,0-580.48-3074.187Z" transform="translate(807.792 3606.24)"/>
    <path id="路径_3798" data-name="路径 3798" class="cls-4" d="M-586.557-3055.521v-17.438l-13.3,2.687a1.327,1.327,0,0,0-1,1.337v15.123a1.27,1.27,0,0,0,1.424,1.341l12.065-2.234Z" transform="translate(807.792 3606.24)"/>
    <path id="路径_3799" data-name="路径 3799" d="M-654.318-3072.826l3.717-4.13a1.212,1.212,0,0,1,2.088.96v19.325a1.468,1.468,0,0,1-.205.754l-2.044,3.405a1.2,1.2,0,0,1-2.234-.618l-1.674-18.6A1.444,1.444,0,0,1-654.318-3072.826Z" transform="translate(807.792 3606.24)"/>
    <path id="路径_3800" data-name="路径 3800" class="cls-7" d="M-654.318-3072.826l3.717-4.13a1.212,1.212,0,0,1,2.088.96v19.325a1.468,1.468,0,0,1-.205.754l-2.044,3.405a1.2,1.2,0,0,1-2.234-.618l-1.674-18.6A1.444,1.444,0,0,1-654.318-3072.826Z" transform="translate(807.792 3606.24)"/>
    <path id="路径_3801" data-name="路径 3801" d="M-599.01-3053.442l7.913-5.275a1.4,1.4,0,0,0,.593-1.165v-13.133a1.265,1.265,0,0,0-1.462-1.333l-7.913,1.758a1.331,1.331,0,0,0-.983,1.333v16.649A1.227,1.227,0,0,0-599.01-3053.442Z" transform="translate(807.792 3606.24)"/>
    <path id="路径_3802" data-name="路径 3802" class="cls-7" d="M-599.01-3053.442l7.913-5.275a1.4,1.4,0,0,0,.593-1.165v-13.133a1.265,1.265,0,0,0-1.462-1.333l-7.913,1.758a1.331,1.331,0,0,0-.983,1.333v16.649A1.227,1.227,0,0,0-599.01-3053.442Z" transform="translate(807.792 3606.24)"/>
    <path id="路径_3803" data-name="路径 3803" d="M-653.42-3072.418l61.654-2.209a1.29,1.29,0,0,1,1.262,1.358v13.005a1.327,1.327,0,0,1-1.022,1.341l-59.842,9.33a1.254,1.254,0,0,1-1.418-1.205l-1.812-20.127A1.317,1.317,0,0,1-653.42-3072.418Z" transform="translate(807.792 3606.24)"/>
    <path id="路径_3804" data-name="路径 3804" class="cls-7" d="M-653.42-3072.418l61.654-2.209a1.29,1.29,0,0,1,1.262,1.358v13.005a1.327,1.327,0,0,1-1.022,1.341l-59.842,9.33a1.254,1.254,0,0,1-1.418-1.205l-1.812-20.127A1.317,1.317,0,0,1-653.42-3072.418Z" transform="translate(807.792 3606.24)"/>
    <path id="路径_3805" data-name="路径 3805" class="cls-4" d="M-591.766-3074.627l-.391.014v11.2a1.328,1.328,0,0,1-1.022,1.341l-59.783,9.321.176,1.954a1.254,1.254,0,0,0,1.418,1.205l59.842-9.33a1.327,1.327,0,0,0,1.022-1.341v-13.005A1.29,1.29,0,0,0-591.766-3074.627Z" transform="translate(807.792 3606.24)"/>
    <path id="路径_3806" data-name="路径 3806" d="M-650.5-3067.841l-.151-1.68h0" transform="translate(807.792 3606.24)"/>
    <path id="路径_3807" data-name="路径 3807" class="cls-7" d="M-650.5-3067.841l-.151-1.68h0" transform="translate(807.792 3606.24)"/>
    <line id="直线_2158" data-name="直线 2158" x1="0.302" y1="3.36" transform="translate(157.59 541.759)"/>
    <line id="直线_2159" data-name="直线 2159" class="cls-7" x1="0.302" y1="3.36" transform="translate(157.59 541.759)"/>
    <text id="爱干净-2" data-name="爱干净" class="cls-8" transform="matrix(0.998, -0.07, 0.07, 0.998, 185.093, 546.406)"><tspan x="-18.598" y="0">爱干净</tspan></text>
    <g id="组_2959" data-name="组 2959" transform="translate(807.792 3606.24)">
      <path id="路径_4235" data-name="路径 4235" class="cls-9" d="M-596.46-3104.386l-6.547-4.2a34.865,34.865,0,0,0-37.651,0l-6.547,4.2a7.866,7.866,0,0,0-3.62,6.622v28.593a7.868,7.868,0,0,0,3.62,6.622L-626.08-3049a7.868,7.868,0,0,0,8.495,0l21.125-13.55a7.867,7.867,0,0,0,3.62-6.622v-28.593A7.866,7.866,0,0,0-596.46-3104.386Z"/>
      <g id="组_2931" data-name="组 2931">
        <g id="组_2930" data-name="组 2930" class="cls-10">
          <rect id="矩形_47531" data-name="矩形 47531" class="cls-11" width="32.05" height="112" transform="translate(-637.858 -3133.571)"/>
        </g>
      </g>
      <g id="组_2933" data-name="组 2933">
        <g id="组_2932" data-name="组 2932" class="cls-10">
          <rect id="矩形_47532" data-name="矩形 47532" class="cls-12" width="26.45" height="112" transform="translate(-635.058 -3133.571)"/>
        </g>
      </g>
      <g id="组_2934" data-name="组 2934">
        <path id="路径_4238" data-name="路径 4238" class="cls-13" d="M-596.46-3104.386l-6.547-4.2a34.849,34.849,0,0,0-20.05-5.5,34.837,34.837,0,0,1,17.6,5.5l6.547,4.2a7.866,7.866,0,0,1,3.62,6.622v28.593a7.868,7.868,0,0,1-3.62,6.622L-620.035-3049a7.858,7.858,0,0,1-3.022,1.146,7.865,7.865,0,0,0,5.472-1.146l21.125-13.55a7.867,7.867,0,0,0,3.62-6.622v-28.593A7.866,7.866,0,0,0-596.46-3104.386Z"/>
      </g>
      <g id="组_2935" data-name="组 2935">
        <path id="路径_4239" data-name="路径 4239" class="cls-14" d="M-646.655-3104.386l6.547-4.2a34.85,34.85,0,0,1,20.051-5.5,34.837,34.837,0,0,0-17.6,5.5l-6.547,4.2a7.866,7.866,0,0,0-3.62,6.622v28.593a7.868,7.868,0,0,0,3.62,6.622L-623.08-3049a7.856,7.856,0,0,0,3.023,1.146A7.868,7.868,0,0,1-625.53-3049l-21.125-13.55a7.868,7.868,0,0,1-3.62-6.622v-28.593A7.866,7.866,0,0,1-646.655-3104.386Z"/>
      </g>
      <path id="路径_4240" data-name="路径 4240" class="cls-15" d="M-596.46-3104.386l-6.547-4.2a34.865,34.865,0,0,0-37.651,0l-6.547,4.2a7.866,7.866,0,0,0-3.62,6.622v28.593a7.868,7.868,0,0,0,3.62,6.622L-626.08-3049a7.868,7.868,0,0,0,8.495,0l21.125-13.55a7.867,7.867,0,0,0,3.62-6.622v-28.593A7.866,7.866,0,0,0-596.46-3104.386Z"/>
      <g id="组_2938" data-name="组 2938">
        <g id="组_2937" data-name="组 2937" class="cls-10">
          <g id="组_2936" data-name="组 2936">
            <path id="路径_4241" data-name="路径 4241" class="cls-4" d="M-655.074-3072.418l61.654-2.209a1.29,1.29,0,0,1,1.263,1.358v13.005a1.328,1.328,0,0,1-1.022,1.341l-59.843,9.33a1.254,1.254,0,0,1-1.418-1.205l-1.812-20.127A1.317,1.317,0,0,1-655.074-3072.418Z"/>
          </g>
        </g>
      </g>
      <g id="组_2942" data-name="组 2942">
        <g id="组_2939" data-name="组 2939">
          <path id="路径_4243" data-name="路径 4243" class="cls-16" d="M-621.94-3111.171v2.977l-2.772-.9-.021-.047,1.5-.874Z"/>
          <path id="路径_4244" data-name="路径 4244" class="cls-17" d="M-619.147-3109.142l-.021.047-2.772.9v-2.977l1.295,1.155Z"/>
          <path id="路径_4245" data-name="路径 4245" class="cls-18" d="M-619.168-3109.095l-.678,1.541-.369,1.7-.031,0h0l-1.694-2.332Z"/>
          <path id="路径_4246" data-name="路径 4246" class="cls-17" d="M-620.246-3105.862l-1.694-.17-1.694.17,1.694-2.332Z"/>
          <path id="路径_4247" data-name="路径 4247" class="cls-16" d="M-621.94-3108.194l-1.694,2.332h0l-.031,0-.369-1.7-.678-1.541Z"/>
        </g>
        <g id="组_2940" data-name="组 2940">
          <path id="路径_4248" data-name="路径 4248" class="cls-16" d="M-631.689-3108.472l1.018,2.8-2.913.1-.035-.037,1.109-1.334Z"/>
          <path id="路径_4249" data-name="路径 4249" class="cls-17" d="M-628.371-3107.52l0,.051-2.3,1.794-1.018-2.8,1.612.642Z"/>
          <path id="路径_4250" data-name="路径 4250" class="cls-18" d="M-628.374-3107.469l-.11,1.68.233,1.719-.03.008h0l-2.39-1.612Z"/>
          <path id="路径_4251" data-name="路径 4251" class="cls-17" d="M-628.281-3104.063l-1.65.42-1.534.739.795-2.771Z"/>
          <path id="路径_4252" data-name="路径 4252" class="cls-16" d="M-630.671-3105.675l-.795,2.771h0l-.028.014-.926-1.467-1.164-1.216Z"/>
        </g>
        <g id="组_2941" data-name="组 2941">
          <path id="路径_4253" data-name="路径 4253" class="cls-16" d="M-612.191-3108.472l-1.018,2.8-2.3-1.794,0-.051,1.707-.309Z"/>
          <path id="路径_4254" data-name="路径 4254" class="cls-17" d="M-610.261-3105.61l-.035.037-2.913-.1,1.018-2.8.822,1.528Z"/>
          <path id="路径_4255" data-name="路径 4255" class="cls-18" d="M-610.3-3105.573l-1.164,1.216-.926,1.467-.028-.014h0l-.795-2.771Z"/>
          <path id="路径_4256" data-name="路径 4256" class="cls-17" d="M-612.414-3102.9l-1.534-.739-1.65-.42,2.39-1.612Z"/>
          <path id="路径_4257" data-name="路径 4257" class="cls-16" d="M-613.209-3105.675l-2.39,1.612h0l-.03-.008.233-1.719-.11-1.68Z"/>
        </g>
      </g>
      <g id="组_2949" data-name="组 2949">
        <g id="组_2945" data-name="组 2945">
          <g id="组_2944" data-name="组 2944" class="cls-19">
            <g id="组_2943" data-name="组 2943">
              <path id="路径_4258" data-name="路径 4258" d="M-608.116-3097.081h-15.056a27.024,27.024,0,0,0,1.095,3.559,12.89,12.89,0,0,1-2.464-3.559h-4.516a25.176,25.176,0,0,0,1.642,7.118c-3.558-3.833-3.558-7.118-3.558-7.118h-1.643a9.422,9.422,0,0,0-.274,1.78,12.255,12.255,0,0,0,6.159,10.676h12.592a12.421,12.421,0,0,0,6.16-10.676A7.8,7.8,0,0,0-608.116-3097.081Z"/>
              <path id="路径_4259" data-name="路径 4259" d="M-616.876-3082.846h-7.117a1.812,1.812,0,0,0-1.78,1.779v1.78a1.812,1.812,0,0,0,1.78,1.779h1.779v7.117a1.811,1.811,0,0,0,1.779,1.779,1.812,1.812,0,0,0,1.78-1.779v-7.117h1.779a1.811,1.811,0,0,0,1.779-1.779v-1.78A1.811,1.811,0,0,0-616.876-3082.846Z"/>
            </g>
          </g>
          <path id="路径_4260" data-name="路径 4260" class="cls-20" d="M-634.016-3097.781h1.643s0,3.285,3.558,7.118a25.17,25.17,0,0,1-1.642-7.118h4.516a12.892,12.892,0,0,0,2.464,3.559,27.024,27.024,0,0,1-1.1-3.559h15.056a7.805,7.805,0,0,1,.137,1.78,12.421,12.421,0,0,1-6.16,10.676h-12.592A12.255,12.255,0,0,1-634.29-3096a9.417,9.417,0,0,1,.274-1.78Z"/>
          <path id="路径_4261" data-name="路径 4261" class="cls-21" d="M-625.393-3083.546h7.117a1.811,1.811,0,0,1,1.779,1.779v1.78a1.811,1.811,0,0,1-1.779,1.779h-1.779v7.117a1.812,1.812,0,0,1-1.78,1.779,1.811,1.811,0,0,1-1.779-1.779v-7.117h-1.779a1.812,1.812,0,0,1-1.78-1.779v-1.78a1.812,1.812,0,0,1,1.78-1.779Z"/>
        </g>
        <path id="路径_4262" data-name="路径 4262" class="cls-22" d="M-625.393-3083.546"/>
        <g id="组_2947" data-name="组 2947" class="cls-23">
          <g id="组_2946" data-name="组 2946">
            <path id="路径_4263" data-name="路径 4263" d="M-630.565-3092.763c-.048-.117-.094-.236-.14-.355a9.777,9.777,0,0,1-1.668-4.663h-1.313A14.116,14.116,0,0,0-630.565-3092.763Z"/>
            <path id="路径_4264" data-name="路径 4264" d="M-626.459-3097.781a11.426,11.426,0,0,0,1.232,1.459c-.047-.125-.093-.258-.14-.387-.212-.368-.4-.727-.574-1.072Z"/>
            <path id="路径_4265" data-name="路径 4265" d="M-609.516-3097.781h-1.624a12.427,12.427,0,0,1-6.149,10.356h-12.592a13.126,13.126,0,0,1-2.406-1.832,12.749,12.749,0,0,0,4.156,3.932h12.592a12.421,12.421,0,0,0,6.16-10.676A7.805,7.805,0,0,0-609.516-3097.781Z"/>
            <path id="路径_4266" data-name="路径 4266" d="M-619.107-3097.171c2.8,5.6,2.8,8.4,2.8,8.4Z"/>
            <path id="路径_4267" data-name="路径 4267" d="M-621.907-3094.371s2.8,2.8,2.8,5.6Z"/>
          </g>
        </g>
        <g id="组_2948" data-name="组 2948" class="cls-23">
          <path id="路径_4268" data-name="路径 4268" d="M-618.247-3083.543v1.456a1.811,1.811,0,0,1-1.779,1.779H-621.8v7.117a1.811,1.811,0,0,1-1.78,1.779c-.01,0-.019,0-.029,0v.324a1.811,1.811,0,0,0,1.779,1.779,1.812,1.812,0,0,0,1.78-1.779v-7.117h1.779a1.811,1.811,0,0,0,1.779-1.779v-1.78A1.811,1.811,0,0,0-618.247-3083.543Z"/>
        </g>
      </g>
      <g id="组_2958" data-name="组 2958">
        <g id="组_2950" data-name="组 2950">
          <path id="路径_4269" data-name="路径 4269" class="cls-24" d="M-582.93-3076.637l-19.378,3.915a1.327,1.327,0,0,0-1,1.337v15.123a1.27,1.27,0,0,0,1.424,1.341l21.092-3.906a1.4,1.4,0,0,0,.664-2.3l-3.911-5.046a1.471,1.471,0,0,1-.229-1.568l2.655-6.95A1.331,1.331,0,0,0-582.93-3076.637Z"/>
          <path id="路径_4270" data-name="路径 4270" class="cls-25" d="M-582.93-3076.637l-19.378,3.915a1.327,1.327,0,0,0-1,1.337v15.123a1.27,1.27,0,0,0,1.424,1.341l21.092-3.906a1.4,1.4,0,0,0,.664-2.3l-3.911-5.046a1.471,1.471,0,0,1-.229-1.568l2.655-6.95A1.331,1.331,0,0,0-582.93-3076.637Z"/>
        </g>
        <g id="组_2951" data-name="组 2951">
          <path id="路径_4271" data-name="路径 4271" class="cls-4" d="M-589.007-3057.971v-17.438l-13.3,2.687a1.327,1.327,0,0,0-1,1.337v15.123a1.27,1.27,0,0,0,1.424,1.341l12.065-2.234Z"/>
        </g>
        <g id="组_2952" data-name="组 2952">
          <path id="路径_4272" data-name="路径 4272" class="cls-26" d="M-656.768-3075.276l3.717-4.13a1.212,1.212,0,0,1,2.088.96v19.325a1.469,1.469,0,0,1-.205.754l-2.044,3.405a1.2,1.2,0,0,1-2.234-.618l-1.674-18.6A1.444,1.444,0,0,1-656.768-3075.276Z"/>
          <path id="路径_4273" data-name="路径 4273" class="cls-25" d="M-656.768-3075.276l3.717-4.13a1.212,1.212,0,0,1,2.088.96v19.325a1.469,1.469,0,0,1-.205.754l-2.044,3.405a1.2,1.2,0,0,1-2.234-.618l-1.674-18.6A1.444,1.444,0,0,1-656.768-3075.276Z"/>
        </g>
        <g id="组_2953" data-name="组 2953">
          <path id="路径_4274" data-name="路径 4274" class="cls-26" d="M-601.46-3055.892l7.913-5.275a1.4,1.4,0,0,0,.593-1.165v-13.133a1.265,1.265,0,0,0-1.462-1.333l-7.913,1.758a1.331,1.331,0,0,0-.983,1.333v16.649A1.227,1.227,0,0,0-601.46-3055.892Z"/>
          <path id="路径_4275" data-name="路径 4275" class="cls-25" d="M-601.46-3055.892l7.913-5.275a1.4,1.4,0,0,0,.593-1.165v-13.133a1.265,1.265,0,0,0-1.462-1.333l-7.913,1.758a1.331,1.331,0,0,0-.983,1.333v16.649A1.227,1.227,0,0,0-601.46-3055.892Z"/>
        </g>
        <g id="组_2954" data-name="组 2954">
          <path id="路径_4276" data-name="路径 4276" class="cls-24" d="M-655.87-3074.868l61.654-2.209a1.29,1.29,0,0,1,1.262,1.358v13a1.327,1.327,0,0,1-1.022,1.341l-59.842,9.33a1.254,1.254,0,0,1-1.418-1.205l-1.812-20.127A1.317,1.317,0,0,1-655.87-3074.868Z"/>
          <path id="路径_4277" data-name="路径 4277" class="cls-25" d="M-655.87-3074.868l61.654-2.209a1.29,1.29,0,0,1,1.262,1.358v13a1.327,1.327,0,0,1-1.022,1.341l-59.842,9.33a1.254,1.254,0,0,1-1.418-1.205l-1.812-20.127A1.317,1.317,0,0,1-655.87-3074.868Z"/>
        </g>
        <g id="组_2955" data-name="组 2955">
          <path id="路径_4278" data-name="路径 4278" class="cls-4" d="M-594.216-3077.077l-.391.014v11.2a1.328,1.328,0,0,1-1.022,1.341l-59.783,9.321.176,1.954a1.254,1.254,0,0,0,1.418,1.205l59.842-9.33a1.327,1.327,0,0,0,1.022-1.341v-13A1.29,1.29,0,0,0-594.216-3077.077Z"/>
        </g>
        <g id="组_2956" data-name="组 2956">
          <path id="路径_4279" data-name="路径 4279" class="cls-24" d="M-652.954-3070.291l-.151-1.68h0"/>
          <path id="路径_4280" data-name="路径 4280" class="cls-27" d="M-652.954-3070.291l-.151-1.68h0"/>
        </g>
        <g id="组_2957" data-name="组 2957">
          <line id="直线_2181" data-name="直线 2181" class="cls-24" x1="0.302" y1="3.36" transform="translate(-652.652 -3066.931)"/>
          <line id="直线_2182" data-name="直线 2182" class="cls-27" x1="0.302" y1="3.36" transform="translate(-652.652 -3066.931)"/>
        </g>
      </g>
    </g>
  </g>
</svg>
