<svg xmlns="http://www.w3.org/2000/svg" xmlns:xlink="http://www.w3.org/1999/xlink" width="81.219" height="70.328" viewBox="0 0 81.219 70.328">
  <defs>
    <style>
      .cls-1, .cls-16, .cls-25, .cls-27, .cls-5, .cls-8 {
        fill: none;
      }

      .cls-2 {
        clip-path: url(#clip-path);
      }

      .cls-14, .cls-3 {
        opacity: 0.1;
      }

      .cls-15, .cls-4 {
        opacity: 0.2;
      }

      .cls-20, .cls-21, .cls-5, .cls-6, .cls-7, .cls-8 {
        stroke: #000;
      }

      .cls-16, .cls-20, .cls-21, .cls-25, .cls-27, .cls-5, .cls-6, .cls-7, .cls-8 {
        stroke-linecap: round;
        stroke-linejoin: round;
      }

      .cls-16, .cls-25, .cls-27, .cls-5, .cls-8 {
        stroke-width: 1.4px;
      }

      .cls-16, .cls-5 {
        stroke-dasharray: 35 3.5 3.5 3.5;
      }

      .cls-20, .cls-21, .cls-6, .cls-7 {
        stroke-width: 0.7px;
      }

      .cls-20, .cls-6 {
        stroke-dasharray: 28 1.75 1.75 1.75;
      }

      .cls-21, .cls-7 {
        stroke-dasharray: 7 1.75 1.75 1.75;
      }

      .cls-9 {
        font-size: 12.6px;
        font-family: AlibabaPuHuiTi-Bold, Alibaba PuHuiTi;
        font-weight: 700;
      }

      .cls-10 {
        fill: #7491e8;
      }

      .cls-11 {
        clip-path: url(#clip-path-4);
      }

      .cls-12 {
        fill: #2238b1;
      }

      .cls-13 {
        fill: #5872ed;
      }

      .cls-14, .cls-15 {
        fill: #fff;
      }

      .cls-16, .cls-25 {
        stroke: #191919;
      }

      .cls-17 {
        fill: #fce47b;
      }

      .cls-18 {
        fill: #ecc05d;
      }

      .cls-19 {
        fill: #eaa654;
      }

      .cls-20 {
        fill: #2ec665;
      }

      .cls-21 {
        fill: #94ffb8;
      }

      .cls-22 {
        opacity: 0.4;
        mix-blend-mode: soft-light;
        isolation: isolate;
      }

      .cls-23 {
        fill: #fcfcfc;
      }

      .cls-24 {
        fill: #ffda34;
      }

      .cls-26 {
        fill: #ff9f36;
      }

      .cls-27 {
        stroke: #fff;
      }
    </style>
    <clipPath id="clip-path">
      <path id="路径_3809" data-name="路径 3809" class="cls-1" d="M-501.61-3101.936l-6.547-4.2a34.866,34.866,0,0,0-37.651,0l-6.547,4.2a7.867,7.867,0,0,0-3.62,6.622v28.593a7.867,7.867,0,0,0,3.62,6.622l21.125,13.55a7.867,7.867,0,0,0,8.495,0l21.125-13.55a7.867,7.867,0,0,0,3.62-6.622v-28.593A7.867,7.867,0,0,0-501.61-3101.936Z"/>
    </clipPath>
    <clipPath id="clip-path-4">
      <path id="路径_4282" data-name="路径 4282" class="cls-1" d="M-504.06-3104.386l-6.547-4.2a34.865,34.865,0,0,0-37.651,0l-6.547,4.2a7.866,7.866,0,0,0-3.62,6.622v28.593a7.868,7.868,0,0,0,3.62,6.622L-533.68-3049a7.868,7.868,0,0,0,8.495,0l21.125-13.55a7.868,7.868,0,0,0,3.62-6.622v-28.593A7.866,7.866,0,0,0-504.06-3104.386Z"/>
    </clipPath>
  </defs>
  <g id="节能标兵" transform="translate(-242.364 -491.436)">
    <path id="路径_3808" data-name="路径 3808" d="M-501.61-3101.936l-6.547-4.2a34.866,34.866,0,0,0-37.651,0l-6.547,4.2a7.867,7.867,0,0,0-3.62,6.622v28.593a7.867,7.867,0,0,0,3.62,6.622l21.125,13.55a7.867,7.867,0,0,0,8.495,0l21.125-13.55a7.867,7.867,0,0,0,3.62-6.622v-28.593A7.867,7.867,0,0,0-501.61-3101.936Z" transform="translate(807.792 3606.24)"/>
    <g id="组_2709" data-name="组 2709" transform="translate(807.792 3606.24)">
      <g id="组_2708" data-name="组 2708" class="cls-2">
        <rect id="矩形_47504" data-name="矩形 47504" width="32.05" height="112" transform="translate(-543.008 -3131.121)"/>
      </g>
    </g>
    <g id="组_2711" data-name="组 2711" transform="translate(807.792 3606.24)">
      <g id="组_2710" data-name="组 2710" class="cls-2">
        <rect id="矩形_47505" data-name="矩形 47505" width="26.45" height="112" transform="translate(-540.208 -3131.121)"/>
      </g>
    </g>
    <path id="路径_3811" data-name="路径 3811" class="cls-3" d="M-501.61-3101.936l-6.547-4.2a34.849,34.849,0,0,0-20.05-5.5,34.836,34.836,0,0,1,17.6,5.5l6.547,4.2a7.867,7.867,0,0,1,3.62,6.622v28.593a7.867,7.867,0,0,1-3.62,6.622l-21.125,13.55a7.858,7.858,0,0,1-3.022,1.146,7.864,7.864,0,0,0,5.472-1.146l21.125-13.55a7.867,7.867,0,0,0,3.62-6.622v-28.593A7.867,7.867,0,0,0-501.61-3101.936Z" transform="translate(807.792 3606.24)"/>
    <path id="路径_3812" data-name="路径 3812" class="cls-4" d="M-551.8-3101.936l6.547-4.2a34.851,34.851,0,0,1,20.051-5.5,34.837,34.837,0,0,0-17.6,5.5l-6.547,4.2a7.867,7.867,0,0,0-3.62,6.622v28.593a7.867,7.867,0,0,0,3.62,6.622l21.125,13.55a7.856,7.856,0,0,0,3.023,1.146,7.866,7.866,0,0,1-5.473-1.146L-551.8-3060.1a7.867,7.867,0,0,1-3.62-6.622v-28.593A7.867,7.867,0,0,1-551.8-3101.936Z" transform="translate(807.792 3606.24)"/>
    <path id="路径_3813" data-name="路径 3813" class="cls-5" d="M-501.61-3101.936l-6.547-4.2a34.866,34.866,0,0,0-37.651,0l-6.547,4.2a7.867,7.867,0,0,0-3.62,6.622v28.593a7.867,7.867,0,0,0,3.62,6.622l21.125,13.55a7.867,7.867,0,0,0,8.495,0l21.125-13.55a7.867,7.867,0,0,0,3.62-6.622v-28.593A7.867,7.867,0,0,0-501.61-3101.936Z" transform="translate(807.792 3606.24)"/>
    <g id="组_2713" data-name="组 2713" transform="translate(807.792 3606.24)">
      <g id="组_2712" data-name="组 2712" class="cls-2">
        <path id="路径_3814" data-name="路径 3814" class="cls-4" d="M-560.224-3069.968l61.654-2.209a1.291,1.291,0,0,1,1.263,1.358v13.005a1.328,1.328,0,0,1-1.022,1.341l-59.843,9.33a1.254,1.254,0,0,1-1.418-1.2l-1.812-20.127A1.317,1.317,0,0,1-560.224-3069.968Z"/>
      </g>
    </g>
    <path id="路径_3816" data-name="路径 3816" d="M-527.09-3108.721v2.977l-2.772-.9-.021-.047,1.5-.874Z" transform="translate(807.792 3606.24)"/>
    <path id="路径_3817" data-name="路径 3817" d="M-524.3-3106.692l-.021.047-2.772.9v-2.977l1.295,1.155Z" transform="translate(807.792 3606.24)"/>
    <path id="路径_3818" data-name="路径 3818" d="M-524.318-3106.645-525-3105.1l-.369,1.7-.031,0h0l-1.694-2.332Z" transform="translate(807.792 3606.24)"/>
    <path id="路径_3819" data-name="路径 3819" d="M-525.4-3103.412l-1.694-.17-1.694.17,1.694-2.332Z" transform="translate(807.792 3606.24)"/>
    <path id="路径_3820" data-name="路径 3820" d="M-527.09-3105.744l-1.694,2.332h0l-.031,0-.369-1.7-.678-1.541Z" transform="translate(807.792 3606.24)"/>
    <path id="路径_3821" data-name="路径 3821" d="M-536.839-3106.022l1.018,2.8-2.913.1-.035-.037,1.109-1.334Z" transform="translate(807.792 3606.24)"/>
    <path id="路径_3822" data-name="路径 3822" d="M-533.521-3105.07l0,.051-2.3,1.795-1.018-2.8,1.612.642Z" transform="translate(807.792 3606.24)"/>
    <path id="路径_3823" data-name="路径 3823" d="M-533.524-3105.019l-.11,1.68.233,1.719-.03.008h0l-2.39-1.612Z" transform="translate(807.792 3606.24)"/>
    <path id="路径_3824" data-name="路径 3824" d="M-533.431-3101.613l-1.65.42-1.534.739.795-2.771Z" transform="translate(807.792 3606.24)"/>
    <path id="路径_3825" data-name="路径 3825" d="M-535.821-3103.224l-.795,2.771h0l-.028.014-.926-1.467-1.164-1.216Z" transform="translate(807.792 3606.24)"/>
    <path id="路径_3826" data-name="路径 3826" d="M-517.341-3106.022l-1.018,2.8-2.3-1.795,0-.051,1.707-.309Z" transform="translate(807.792 3606.24)"/>
    <path id="路径_3827" data-name="路径 3827" d="M-515.411-3103.16l-.035.037-2.913-.1,1.018-2.8.822,1.528Z" transform="translate(807.792 3606.24)"/>
    <path id="路径_3828" data-name="路径 3828" d="M-515.446-3103.123l-1.164,1.216-.926,1.467-.028-.014h0l-.795-2.771Z" transform="translate(807.792 3606.24)"/>
    <path id="路径_3829" data-name="路径 3829" d="M-517.564-3100.454l-1.534-.739-1.65-.42,2.39-1.612Z" transform="translate(807.792 3606.24)"/>
    <path id="路径_3830" data-name="路径 3830" d="M-518.359-3103.224l-2.39,1.612h0l-.03-.008.233-1.719-.11-1.68Z" transform="translate(807.792 3606.24)"/>
    <path id="路径_3831" data-name="路径 3831" class="cls-4" d="M-513.161-3086.15c0-.031-.009-.062-.013-.094-.008-.06-.016-.121-.028-.18-.008-.038-.018-.074-.027-.111-.013-.052-.025-.1-.04-.153s-.027-.079-.041-.118-.032-.091-.05-.135-.036-.081-.055-.121-.038-.081-.059-.12-.045-.082-.069-.123-.042-.069-.064-.1-.056-.083-.085-.124l-.067-.087c-.034-.042-.067-.084-.1-.124-.021-.024-.043-.047-.065-.07-.04-.042-.081-.084-.123-.124-.018-.017-.038-.033-.056-.05-.049-.043-.1-.086-.149-.126l-.035-.025a2.945,2.945,0,0,0-1.416-.573h0a2.954,2.954,0,0,0-.368-.025h-3.977a.721.721,0,0,1-.729-.713v-.2a2.23,2.23,0,0,0-.6-1.521l-.013-.014a2.423,2.423,0,0,0-.264-.242l-.013-.009a2.153,2.153,0,0,0-.3-.2l0,0a2.349,2.349,0,0,0-.317-.141l-.054-.019a2.382,2.382,0,0,0-.329-.084l-.058-.009a2.409,2.409,0,0,0-.361-.03h-5.683a2.293,2.293,0,0,0-2.316,2.269v.2a.721.721,0,0,1-.729.713H-535.8a2.9,2.9,0,0,0-2.929,2.869v21.779a2.81,2.81,0,0,0,.546,1.664l.052.068c.058.075.119.146.184.215.016.017.031.034.048.051a2.968,2.968,0,0,0,.257.232l.046.033c.077.059.158.114.24.165l.083.049a2.851,2.851,0,0,0,.265.134l.049.024a3.164,3.164,0,0,0,.332.116l.086.022c.089.022.18.041.272.056.034.005.067.011.1.015a2.971,2.971,0,0,0,.367.025h19.727a2.955,2.955,0,0,0,1.863-.655c.072-.059.142-.121.208-.186a2.849,2.849,0,0,0,.358-.424c.052-.076.1-.155.146-.237a2.732,2.732,0,0,0,.222-.514,2.51,2.51,0,0,0,.072-.275,2.825,2.825,0,0,0,.06-.578h0v-21.779h0A2.638,2.638,0,0,0-513.161-3086.15Z" transform="translate(807.792 3606.24)"/>
    <path id="路径_3832" data-name="路径 3832" class="cls-6" d="M-522.881-3092.249v-.2a2.293,2.293,0,0,0-2.316-2.269h-5.683a2.293,2.293,0,0,0-2.316,2.269v.2a.721.721,0,0,1-.729.713H-537.9a2.9,2.9,0,0,0-2.929,2.869v21.779a2.9,2.9,0,0,0,2.929,2.869h19.727a2.9,2.9,0,0,0,2.929-2.869v-21.779a2.9,2.9,0,0,0-2.929-2.869h-3.977a.721.721,0,0,1-.729-.713Zm0,0" transform="translate(807.792 3606.24)"/>
    <path id="路径_3833" data-name="路径 3833" class="cls-7" d="M-521.642-3084.818h-12.793a1.919,1.919,0,0,0-1.919,1.919v12.792a1.919,1.919,0,0,0,1.919,1.919h12.793a1.919,1.919,0,0,0,1.918-1.919V-3082.9a1.919,1.919,0,0,0-1.918-1.919Zm-1.41,7.926-6.408,6.021a.437.437,0,0,1-.728-.439l1.4-3.531a.42.42,0,0,0-.415-.562h-2.872a.414.414,0,0,1-.321-.7l6.1-6.022a.439.439,0,0,1,.738.427l-1.352,3.542a.42.42,0,0,0,.416.557h3.121a.413.413,0,0,1,.313.71Zm0,0" transform="translate(807.792 3606.24)"/>
    <path id="路径_3834" data-name="路径 3834" d="M-525.084-3093.92v.2a.722.722,0,0,0,.729.714h1.4a2.306,2.306,0,0,0-2.244-1.717h-.038A2.219,2.219,0,0,1-525.084-3093.92Z" transform="translate(807.792 3606.24)"/>
    <path id="路径_3835" data-name="路径 3835" d="M-517.807-3091.511a2.81,2.81,0,0,1,.358,1.375v21.78a2.9,2.9,0,0,1-2.928,2.868H-540.1a3,3,0,0,1-.368-.025,2.938,2.938,0,0,0,2.571,1.494h19.727a2.9,2.9,0,0,0,2.929-2.869v-21.779A2.889,2.889,0,0,0-517.807-3091.511Z" transform="translate(807.792 3606.24)"/>
    <path id="路径_3836" data-name="路径 3836" d="M-537.73-3086.835a.631.631,0,0,1,.631.631v4.35a.631.631,0,0,1-.631.631.632.632,0,0,1-.631-.631v-4.35a.632.632,0,0,1,.631-.631Zm0-2.439a.63.63,0,0,1,.631.631v.369a.63.63,0,0,1-.631.631.631.631,0,0,1-.631-.631v-.369a.631.631,0,0,1,.631-.631Zm0,0" transform="translate(807.792 3606.24)"/>
    <path id="路径_3837" data-name="路径 3837" d="M-488.08-3074.187l-19.378,3.915a1.327,1.327,0,0,0-1,1.337v15.123a1.27,1.27,0,0,0,1.424,1.341l21.092-3.906a1.4,1.4,0,0,0,.664-2.3l-3.911-5.046a1.471,1.471,0,0,1-.229-1.568l2.655-6.95A1.331,1.331,0,0,0-488.08-3074.187Z" transform="translate(807.792 3606.24)"/>
    <path id="路径_3838" data-name="路径 3838" class="cls-8" d="M-488.08-3074.187l-19.378,3.915a1.327,1.327,0,0,0-1,1.337v15.123a1.27,1.27,0,0,0,1.424,1.341l21.092-3.906a1.4,1.4,0,0,0,.664-2.3l-3.911-5.046a1.471,1.471,0,0,1-.229-1.568l2.655-6.95A1.331,1.331,0,0,0-488.08-3074.187Z" transform="translate(807.792 3606.24)"/>
    <path id="路径_3839" data-name="路径 3839" class="cls-4" d="M-494.157-3055.521v-17.438l-13.3,2.687a1.327,1.327,0,0,0-1,1.337v15.123a1.27,1.27,0,0,0,1.424,1.341l12.065-2.234Z" transform="translate(807.792 3606.24)"/>
    <path id="路径_3840" data-name="路径 3840" d="M-561.918-3072.826l3.717-4.13a1.212,1.212,0,0,1,2.088.96v19.325a1.469,1.469,0,0,1-.205.754l-2.044,3.405a1.2,1.2,0,0,1-2.234-.618l-1.674-18.6A1.445,1.445,0,0,1-561.918-3072.826Z" transform="translate(807.792 3606.24)"/>
    <path id="路径_3841" data-name="路径 3841" class="cls-8" d="M-561.918-3072.826l3.717-4.13a1.212,1.212,0,0,1,2.088.96v19.325a1.469,1.469,0,0,1-.205.754l-2.044,3.405a1.2,1.2,0,0,1-2.234-.618l-1.674-18.6A1.445,1.445,0,0,1-561.918-3072.826Z" transform="translate(807.792 3606.24)"/>
    <path id="路径_3842" data-name="路径 3842" d="M-506.61-3053.442l7.913-5.275a1.4,1.4,0,0,0,.593-1.165v-13.133a1.265,1.265,0,0,0-1.462-1.333l-7.913,1.758a1.331,1.331,0,0,0-.983,1.333v16.649A1.227,1.227,0,0,0-506.61-3053.442Z" transform="translate(807.792 3606.24)"/>
    <path id="路径_3843" data-name="路径 3843" class="cls-8" d="M-506.61-3053.442l7.913-5.275a1.4,1.4,0,0,0,.593-1.165v-13.133a1.265,1.265,0,0,0-1.462-1.333l-7.913,1.758a1.331,1.331,0,0,0-.983,1.333v16.649A1.227,1.227,0,0,0-506.61-3053.442Z" transform="translate(807.792 3606.24)"/>
    <path id="路径_3844" data-name="路径 3844" d="M-561.02-3072.418l61.654-2.209a1.29,1.29,0,0,1,1.262,1.358v13.005a1.327,1.327,0,0,1-1.022,1.341l-59.842,9.33a1.254,1.254,0,0,1-1.418-1.205l-1.812-20.127A1.317,1.317,0,0,1-561.02-3072.418Z" transform="translate(807.792 3606.24)"/>
    <path id="路径_3845" data-name="路径 3845" class="cls-8" d="M-561.02-3072.418l61.654-2.209a1.29,1.29,0,0,1,1.262,1.358v13.005a1.327,1.327,0,0,1-1.022,1.341l-59.842,9.33a1.254,1.254,0,0,1-1.418-1.205l-1.812-20.127A1.317,1.317,0,0,1-561.02-3072.418Z" transform="translate(807.792 3606.24)"/>
    <path id="路径_3846" data-name="路径 3846" class="cls-4" d="M-499.366-3074.627l-.391.014v11.2a1.328,1.328,0,0,1-1.022,1.341l-59.783,9.321.176,1.954a1.254,1.254,0,0,0,1.418,1.205l59.842-9.33a1.327,1.327,0,0,0,1.022-1.341v-13.005A1.29,1.29,0,0,0-499.366-3074.627Z" transform="translate(807.792 3606.24)"/>
    <path id="路径_3847" data-name="路径 3847" d="M-558.1-3067.841l-.151-1.68h0" transform="translate(807.792 3606.24)"/>
    <path id="路径_3848" data-name="路径 3848" class="cls-8" d="M-558.1-3067.841l-.151-1.68h0" transform="translate(807.792 3606.24)"/>
    <line id="直线_2160" data-name="直线 2160" x1="0.302" y1="3.36" transform="translate(249.99 541.759)"/>
    <line id="直线_2161" data-name="直线 2161" class="cls-8" x1="0.302" y1="3.36" transform="translate(249.99 541.759)"/>
    <text id="节能标兵-2" data-name="节能标兵" class="cls-9" transform="matrix(0.998, -0.07, 0.07, 0.998, 277.493, 546.406)"><tspan x="-24.797" y="0">节能标兵</tspan></text>
    <g id="组_2987" data-name="组 2987" transform="translate(807.792 3606.24)">
      <path id="路径_4281" data-name="路径 4281" class="cls-10" d="M-504.06-3104.386l-6.547-4.2a34.865,34.865,0,0,0-37.651,0l-6.547,4.2a7.866,7.866,0,0,0-3.62,6.622v28.593a7.868,7.868,0,0,0,3.62,6.622L-533.68-3049a7.868,7.868,0,0,0,8.495,0l21.125-13.55a7.868,7.868,0,0,0,3.62-6.622v-28.593A7.866,7.866,0,0,0-504.06-3104.386Z"/>
      <g id="组_2962" data-name="组 2962">
        <g id="组_2961" data-name="组 2961" class="cls-11">
          <rect id="矩形_47533" data-name="矩形 47533" class="cls-12" width="32.05" height="112" transform="translate(-545.458 -3133.571)"/>
        </g>
      </g>
      <g id="组_2964" data-name="组 2964">
        <g id="组_2963" data-name="组 2963" class="cls-11">
          <rect id="矩形_47534" data-name="矩形 47534" class="cls-13" width="26.45" height="112" transform="translate(-542.658 -3133.571)"/>
        </g>
      </g>
      <g id="组_2965" data-name="组 2965">
        <path id="路径_4284" data-name="路径 4284" class="cls-14" d="M-504.06-3104.386l-6.547-4.2a34.85,34.85,0,0,0-20.05-5.5,34.836,34.836,0,0,1,17.6,5.5l6.547,4.2a7.866,7.866,0,0,1,3.62,6.622v28.593a7.868,7.868,0,0,1-3.62,6.622L-527.635-3049a7.858,7.858,0,0,1-3.022,1.146,7.865,7.865,0,0,0,5.472-1.146l21.125-13.55a7.868,7.868,0,0,0,3.62-6.622v-28.593A7.866,7.866,0,0,0-504.06-3104.386Z"/>
      </g>
      <g id="组_2966" data-name="组 2966">
        <path id="路径_4285" data-name="路径 4285" class="cls-15" d="M-554.255-3104.386l6.547-4.2a34.851,34.851,0,0,1,20.051-5.5,34.837,34.837,0,0,0-17.6,5.5l-6.547,4.2a7.866,7.866,0,0,0-3.62,6.622v28.593a7.868,7.868,0,0,0,3.62,6.622L-530.68-3049a7.856,7.856,0,0,0,3.023,1.146A7.867,7.867,0,0,1-533.13-3049l-21.125-13.55a7.868,7.868,0,0,1-3.62-6.622v-28.593A7.866,7.866,0,0,1-554.255-3104.386Z"/>
      </g>
      <path id="路径_4286" data-name="路径 4286" class="cls-16" d="M-504.06-3104.386l-6.547-4.2a34.865,34.865,0,0,0-37.651,0l-6.547,4.2a7.866,7.866,0,0,0-3.62,6.622v28.593a7.868,7.868,0,0,0,3.62,6.622L-533.68-3049a7.868,7.868,0,0,0,8.495,0l21.125-13.55a7.868,7.868,0,0,0,3.62-6.622v-28.593A7.866,7.866,0,0,0-504.06-3104.386Z"/>
      <g id="组_2969" data-name="组 2969">
        <g id="组_2968" data-name="组 2968" class="cls-11">
          <g id="组_2967" data-name="组 2967">
            <path id="路径_4287" data-name="路径 4287" class="cls-4" d="M-562.674-3072.418l61.654-2.209a1.29,1.29,0,0,1,1.263,1.358v13.005a1.328,1.328,0,0,1-1.022,1.341l-59.843,9.33a1.254,1.254,0,0,1-1.418-1.205l-1.812-20.127A1.317,1.317,0,0,1-562.674-3072.418Z"/>
          </g>
        </g>
      </g>
      <g id="组_2973" data-name="组 2973">
        <g id="组_2970" data-name="组 2970">
          <path id="路径_4289" data-name="路径 4289" class="cls-17" d="M-529.54-3111.171v2.977l-2.772-.9-.021-.047,1.5-.874Z"/>
          <path id="路径_4290" data-name="路径 4290" class="cls-18" d="M-526.747-3109.142l-.021.047-2.772.9v-2.977l1.295,1.155Z"/>
          <path id="路径_4291" data-name="路径 4291" class="cls-19" d="M-526.768-3109.095l-.678,1.541-.369,1.7-.031,0h0l-1.694-2.332Z"/>
          <path id="路径_4292" data-name="路径 4292" class="cls-18" d="M-527.846-3105.862l-1.694-.17-1.694.17,1.694-2.332Z"/>
          <path id="路径_4293" data-name="路径 4293" class="cls-17" d="M-529.54-3108.194l-1.694,2.332h0l-.031,0-.369-1.7-.678-1.541Z"/>
        </g>
        <g id="组_2971" data-name="组 2971">
          <path id="路径_4294" data-name="路径 4294" class="cls-17" d="M-539.289-3108.472l1.018,2.8-2.913.1-.035-.037,1.109-1.334Z"/>
          <path id="路径_4295" data-name="路径 4295" class="cls-18" d="M-535.971-3107.52l0,.051-2.3,1.794-1.018-2.8,1.612.642Z"/>
          <path id="路径_4296" data-name="路径 4296" class="cls-19" d="M-535.974-3107.469l-.11,1.68.233,1.719-.03.008h0l-2.39-1.612Z"/>
          <path id="路径_4297" data-name="路径 4297" class="cls-18" d="M-535.881-3104.063l-1.65.42-1.534.739.795-2.771Z"/>
          <path id="路径_4298" data-name="路径 4298" class="cls-17" d="M-538.271-3105.675l-.795,2.771h0l-.028.014-.926-1.467-1.164-1.216Z"/>
        </g>
        <g id="组_2972" data-name="组 2972">
          <path id="路径_4299" data-name="路径 4299" class="cls-17" d="M-519.791-3108.472l-1.018,2.8-2.3-1.794,0-.051,1.707-.309Z"/>
          <path id="路径_4300" data-name="路径 4300" class="cls-18" d="M-517.861-3105.61l-.035.037-2.913-.1,1.018-2.8.822,1.528Z"/>
          <path id="路径_4301" data-name="路径 4301" class="cls-19" d="M-517.9-3105.573l-1.164,1.216-.926,1.467-.028-.014h0l-.795-2.771Z"/>
          <path id="路径_4302" data-name="路径 4302" class="cls-18" d="M-520.014-3102.9l-1.534-.739-1.65-.42,2.39-1.612Z"/>
          <path id="路径_4303" data-name="路径 4303" class="cls-17" d="M-520.809-3105.675l-2.39,1.612h0l-.03-.008.233-1.719-.11-1.68Z"/>
        </g>
      </g>
      <g id="组_2974" data-name="组 2974">
        <path id="路径_4304" data-name="路径 4304" class="cls-4" d="M-515.611-3088.6c0-.031-.009-.062-.013-.094-.008-.06-.016-.121-.028-.18-.008-.038-.018-.074-.027-.111s-.025-.1-.04-.153-.027-.079-.041-.118-.032-.091-.05-.135-.036-.081-.055-.121-.038-.081-.059-.12-.045-.082-.069-.123-.042-.069-.064-.1-.056-.083-.085-.124l-.067-.087c-.034-.042-.067-.084-.1-.124-.021-.024-.043-.047-.065-.07-.04-.042-.081-.084-.123-.124-.018-.017-.038-.033-.056-.05-.049-.043-.1-.086-.149-.126l-.035-.025a2.942,2.942,0,0,0-1.416-.573h0a2.954,2.954,0,0,0-.368-.025H-522.5a.721.721,0,0,1-.729-.713v-.2a2.23,2.23,0,0,0-.6-1.521l-.013-.014a2.4,2.4,0,0,0-.264-.242l-.013-.009a2.153,2.153,0,0,0-.3-.2l0,0a2.353,2.353,0,0,0-.317-.141l-.054-.019a2.382,2.382,0,0,0-.329-.084l-.058-.009a2.411,2.411,0,0,0-.361-.03h-5.683a2.293,2.293,0,0,0-2.316,2.269v.2a.721.721,0,0,1-.729.713h-3.977a2.9,2.9,0,0,0-2.929,2.869v21.779a2.81,2.81,0,0,0,.546,1.664l.052.068c.058.075.119.146.184.215.016.017.031.034.048.051a2.926,2.926,0,0,0,.257.232l.046.033c.077.059.158.114.24.165l.083.049a2.85,2.85,0,0,0,.265.134l.049.024a3.057,3.057,0,0,0,.332.116l.086.022c.089.022.18.041.272.056.034,0,.067.011.1.015a2.924,2.924,0,0,0,.367.025h19.727a2.955,2.955,0,0,0,1.863-.655c.072-.059.142-.121.208-.186a2.842,2.842,0,0,0,.358-.424c.052-.076.1-.155.146-.237a2.728,2.728,0,0,0,.222-.514,2.5,2.5,0,0,0,.072-.275,2.828,2.828,0,0,0,.06-.578h0v-21.779h0A2.64,2.64,0,0,0-515.611-3088.6Z"/>
      </g>
      <g id="组_2977" data-name="组 2977">
        <path id="路径_4305" data-name="路径 4305" class="cls-20" d="M-525.331-3094.7v-.2a2.293,2.293,0,0,0-2.316-2.269h-5.683a2.293,2.293,0,0,0-2.316,2.269v.2a.721.721,0,0,1-.729.713h-3.977a2.9,2.9,0,0,0-2.929,2.869v21.779a2.9,2.9,0,0,0,2.929,2.869h19.727a2.9,2.9,0,0,0,2.929-2.869v-21.779a2.9,2.9,0,0,0-2.929-2.869H-524.6a.721.721,0,0,1-.729-.713Zm0,0"/>
        <path id="路径_4306" data-name="路径 4306" class="cls-21" d="M-524.092-3087.268h-12.793a1.919,1.919,0,0,0-1.919,1.919v12.792a1.919,1.919,0,0,0,1.919,1.919h12.793a1.919,1.919,0,0,0,1.918-1.919v-12.792a1.919,1.919,0,0,0-1.918-1.919Zm-1.41,7.926-6.408,6.021a.437.437,0,0,1-.728-.439l1.4-3.531a.42.42,0,0,0-.415-.562h-2.872a.414.414,0,0,1-.321-.7l6.1-6.022a.438.438,0,0,1,.738.427l-1.352,3.542a.42.42,0,0,0,.416.557h3.121a.413.413,0,0,1,.313.71Zm0,0"/>
        <g id="组_2976" data-name="组 2976" class="cls-22">
          <g id="组_2975" data-name="组 2975">
            <path id="路径_4307" data-name="路径 4307" d="M-527.534-3096.37v.2a.722.722,0,0,0,.729.714h1.4a2.306,2.306,0,0,0-2.244-1.717h-.038A2.217,2.217,0,0,1-527.534-3096.37Z"/>
            <path id="路径_4308" data-name="路径 4308" d="M-520.257-3093.961a2.81,2.81,0,0,1,.358,1.375v21.78a2.9,2.9,0,0,1-2.928,2.868h-19.728a3,3,0,0,1-.368-.025,2.938,2.938,0,0,0,2.571,1.494h19.727a2.9,2.9,0,0,0,2.929-2.869v-21.779A2.889,2.889,0,0,0-520.257-3093.961Z"/>
          </g>
        </g>
        <path id="路径_4309" data-name="路径 4309" class="cls-23" d="M-540.18-3089.285a.631.631,0,0,1,.631.631v4.35a.631.631,0,0,1-.631.631.632.632,0,0,1-.631-.631v-4.35a.632.632,0,0,1,.631-.631Zm0-2.439a.631.631,0,0,1,.631.631v.369a.63.63,0,0,1-.631.631.631.631,0,0,1-.631-.631v-.369a.631.631,0,0,1,.631-.631Zm0,0"/>
      </g>
      <g id="组_2986" data-name="组 2986">
        <g id="组_2978" data-name="组 2978">
          <path id="路径_4310" data-name="路径 4310" class="cls-24" d="M-490.53-3076.637l-19.378,3.915a1.327,1.327,0,0,0-1,1.337v15.123a1.27,1.27,0,0,0,1.424,1.341l21.092-3.906a1.4,1.4,0,0,0,.664-2.3l-3.911-5.046a1.471,1.471,0,0,1-.229-1.568l2.655-6.95A1.331,1.331,0,0,0-490.53-3076.637Z"/>
          <path id="路径_4311" data-name="路径 4311" class="cls-25" d="M-490.53-3076.637l-19.378,3.915a1.327,1.327,0,0,0-1,1.337v15.123a1.27,1.27,0,0,0,1.424,1.341l21.092-3.906a1.4,1.4,0,0,0,.664-2.3l-3.911-5.046a1.471,1.471,0,0,1-.229-1.568l2.655-6.95A1.331,1.331,0,0,0-490.53-3076.637Z"/>
        </g>
        <g id="组_2979" data-name="组 2979">
          <path id="路径_4312" data-name="路径 4312" class="cls-4" d="M-496.607-3057.971v-17.438l-13.3,2.687a1.327,1.327,0,0,0-1,1.337v15.123a1.27,1.27,0,0,0,1.424,1.341l12.065-2.234Z"/>
        </g>
        <g id="组_2980" data-name="组 2980">
          <path id="路径_4313" data-name="路径 4313" class="cls-26" d="M-564.368-3075.276l3.717-4.13a1.212,1.212,0,0,1,2.088.96v19.325a1.469,1.469,0,0,1-.205.754l-2.044,3.405a1.2,1.2,0,0,1-2.234-.618l-1.674-18.6A1.444,1.444,0,0,1-564.368-3075.276Z"/>
          <path id="路径_4314" data-name="路径 4314" class="cls-25" d="M-564.368-3075.276l3.717-4.13a1.212,1.212,0,0,1,2.088.96v19.325a1.469,1.469,0,0,1-.205.754l-2.044,3.405a1.2,1.2,0,0,1-2.234-.618l-1.674-18.6A1.444,1.444,0,0,1-564.368-3075.276Z"/>
        </g>
        <g id="组_2981" data-name="组 2981">
          <path id="路径_4315" data-name="路径 4315" class="cls-26" d="M-509.06-3055.892l7.913-5.275a1.4,1.4,0,0,0,.593-1.165v-13.133a1.266,1.266,0,0,0-1.462-1.333l-7.913,1.758a1.331,1.331,0,0,0-.983,1.333v16.649A1.227,1.227,0,0,0-509.06-3055.892Z"/>
          <path id="路径_4316" data-name="路径 4316" class="cls-25" d="M-509.06-3055.892l7.913-5.275a1.4,1.4,0,0,0,.593-1.165v-13.133a1.266,1.266,0,0,0-1.462-1.333l-7.913,1.758a1.331,1.331,0,0,0-.983,1.333v16.649A1.227,1.227,0,0,0-509.06-3055.892Z"/>
        </g>
        <g id="组_2982" data-name="组 2982">
          <path id="路径_4317" data-name="路径 4317" class="cls-24" d="M-563.47-3074.868l61.654-2.209a1.29,1.29,0,0,1,1.262,1.358v13a1.327,1.327,0,0,1-1.022,1.341l-59.842,9.33a1.254,1.254,0,0,1-1.418-1.205l-1.812-20.127A1.317,1.317,0,0,1-563.47-3074.868Z"/>
          <path id="路径_4318" data-name="路径 4318" class="cls-25" d="M-563.47-3074.868l61.654-2.209a1.29,1.29,0,0,1,1.262,1.358v13a1.327,1.327,0,0,1-1.022,1.341l-59.842,9.33a1.254,1.254,0,0,1-1.418-1.205l-1.812-20.127A1.317,1.317,0,0,1-563.47-3074.868Z"/>
        </g>
        <g id="组_2983" data-name="组 2983">
          <path id="路径_4319" data-name="路径 4319" class="cls-4" d="M-501.816-3077.077l-.391.014v11.2a1.328,1.328,0,0,1-1.022,1.341l-59.783,9.321.176,1.954a1.254,1.254,0,0,0,1.418,1.205l59.842-9.33a1.327,1.327,0,0,0,1.022-1.341v-13A1.29,1.29,0,0,0-501.816-3077.077Z"/>
        </g>
        <g id="组_2984" data-name="组 2984">
          <path id="路径_4320" data-name="路径 4320" class="cls-24" d="M-560.554-3070.291l-.151-1.68h0"/>
          <path id="路径_4321" data-name="路径 4321" class="cls-27" d="M-560.554-3070.291l-.151-1.68h0"/>
        </g>
        <g id="组_2985" data-name="组 2985">
          <line id="直线_2183" data-name="直线 2183" class="cls-24" x1="0.302" y1="3.36" transform="translate(-560.252 -3066.931)"/>
          <line id="直线_2184" data-name="直线 2184" class="cls-27" x1="0.302" y1="3.36" transform="translate(-560.252 -3066.931)"/>
        </g>
      </g>
    </g>
  </g>
</svg>
