<svg xmlns="http://www.w3.org/2000/svg" xmlns:xlink="http://www.w3.org/1999/xlink" width="81.219" height="70.327" viewBox="0 0 81.219 70.327">
  <defs>
    <style>
      .cls-1, .cls-13, .cls-14, .cls-16, .cls-24, .cls-36, .cls-38, .cls-7 {
        fill: none;
      }

      .cls-2, .cls-29 {
        fill: #5f67fd;
      }

      .cls-3, .cls-30 {
        fill: #131313;
      }

      .cls-4 {
        clip-path: url(#clip-path);
      }

      .cls-22, .cls-5 {
        opacity: 0.1;
      }

      .cls-23, .cls-25, .cls-6 {
        opacity: 0.2;
      }

      .cls-10, .cls-13, .cls-14, .cls-15, .cls-16, .cls-29, .cls-7 {
        stroke: #000;
      }

      .cls-14, .cls-15, .cls-16, .cls-24, .cls-36, .cls-38, .cls-39, .cls-7 {
        stroke-linecap: round;
        stroke-linejoin: round;
      }

      .cls-14, .cls-24, .cls-36, .cls-38, .cls-7 {
        stroke-width: 1.4px;
      }

      .cls-24, .cls-7 {
        stroke-dasharray: 35 3.5 3.5 3.5;
      }

      .cls-8 {
        clip-path: url(#clip-path-4);
      }

      .cls-9 {
        clip-path: url(#clip-path-5);
      }

      .cls-10, .cls-13, .cls-29 {
        stroke-miterlimit: 10;
      }

      .cls-10, .cls-13, .cls-16, .cls-29 {
        stroke-width: 0.7px;
      }

      .cls-11, .cls-30, .cls-31, .cls-32, .cls-33 {
        mix-blend-mode: soft-light;
      }

      .cls-11, .cls-26, .cls-30, .cls-31, .cls-32, .cls-33 {
        isolation: isolate;
      }

      .cls-12 {
        clip-path: url(#clip-path-6);
      }

      .cls-15, .cls-39 {
        stroke-width: 0.35px;
      }

      .cls-17 {
        font-size: 12.6px;
        font-family: AlibabaPuHuiTi-Bold, Alibaba PuHuiTi;
        font-weight: 700;
      }

      .cls-18 {
        fill: #bbaef1;
      }

      .cls-19 {
        clip-path: url(#clip-path-7);
      }

      .cls-20 {
        fill: #6a4ab8;
      }

      .cls-21 {
        fill: #ac90f6;
      }

      .cls-22, .cls-23, .cls-32 {
        fill: #fff;
      }

      .cls-24, .cls-36 {
        stroke: #191919;
      }

      .cls-27 {
        clip-path: url(#clip-path-10);
      }

      .cls-28 {
        clip-path: url(#clip-path-11);
      }

      .cls-31 {
        fill: #212121;
      }

      .cls-34 {
        clip-path: url(#clip-path-12);
      }

      .cls-35 {
        fill: #ffda34;
      }

      .cls-37 {
        fill: #ff9f36;
      }

      .cls-38 {
        stroke: #fff;
      }

      .cls-39 {
        fill: #ffc166;
        stroke: #f5b13d;
      }

      .cls-40 {
        fill: #fce47b;
      }

      .cls-41 {
        fill: #ecc05d;
      }

      .cls-42 {
        fill: #eaa654;
      }
    </style>
    <clipPath id="clip-path">
      <path id="路径_3520" data-name="路径 3520" class="cls-1" d="M-685.71-3295.136l-6.547-4.2a34.865,34.865,0,0,0-37.651,0l-6.547,4.2a7.866,7.866,0,0,0-3.62,6.622v28.593a7.868,7.868,0,0,0,3.62,6.622l21.125,13.55a7.868,7.868,0,0,0,8.495,0l21.125-13.55a7.867,7.867,0,0,0,3.62-6.622v-28.593A7.866,7.866,0,0,0-685.71-3295.136Z"/>
    </clipPath>
    <clipPath id="clip-path-4">
      <path id="路径_3543" data-name="路径 3543" d="M-688.066-3282.518l-.012,1.254c0,.111-.19.221-.569.3l.012-1.254C-688.256-3282.3-688.067-3282.407-688.066-3282.518Z"/>
    </clipPath>
    <clipPath id="clip-path-5">
      <path id="路径_3548" data-name="路径 3548" d="M-737.068-3281.5l.012-1.254c0,.119.212.24.636.332l-.013,1.254C-736.857-3281.265-737.069-3281.386-737.068-3281.5Z"/>
    </clipPath>
    <clipPath id="clip-path-6">
      <path id="路径_3573" data-name="路径 3573" d="M-710.559-3277.406l-.013,1.254a8.07,8.07,0,0,1-2.907-.013l.012-1.254A8.076,8.076,0,0,0-710.559-3277.406Z"/>
    </clipPath>
    <clipPath id="clip-path-7">
      <path id="路径_3993" data-name="路径 3993" class="cls-1" d="M-688.16-3297.586l-6.547-4.2a34.865,34.865,0,0,0-37.651,0l-6.547,4.2a7.866,7.866,0,0,0-3.62,6.622v28.593a7.868,7.868,0,0,0,3.62,6.622l21.125,13.55a7.868,7.868,0,0,0,8.5,0l21.125-13.55a7.868,7.868,0,0,0,3.62-6.622v-28.593A7.866,7.866,0,0,0-688.16-3297.586Z"/>
    </clipPath>
    <clipPath id="clip-path-10">
      <path id="路径_4016" data-name="路径 4016" class="cls-2" d="M-690.516-3284.968l-.012,1.254c0,.111-.19.221-.569.3l.012-1.254C-690.706-3284.747-690.517-3284.857-690.516-3284.968Z"/>
    </clipPath>
    <clipPath id="clip-path-11">
      <path id="路径_4021" data-name="路径 4021" class="cls-2" d="M-739.518-3283.955l.012-1.254c0,.119.212.24.636.332l-.013,1.254C-739.307-3283.715-739.519-3283.836-739.518-3283.955Z"/>
    </clipPath>
    <clipPath id="clip-path-12">
      <path id="路径_4046" data-name="路径 4046" class="cls-3" d="M-713.009-3279.856l-.013,1.254a8.071,8.071,0,0,1-2.907-.013l.012-1.254A8.082,8.082,0,0,0-713.009-3279.856Z"/>
    </clipPath>
  </defs>
  <g id="学霸" transform="translate(-58.264 -298.236)">
    <path id="路径_3519" data-name="路径 3519" d="M-685.71-3295.136l-6.547-4.2a34.865,34.865,0,0,0-37.651,0l-6.547,4.2a7.866,7.866,0,0,0-3.62,6.622v28.593a7.868,7.868,0,0,0,3.62,6.622l21.125,13.55a7.868,7.868,0,0,0,8.495,0l21.125-13.55a7.867,7.867,0,0,0,3.62-6.622v-28.593A7.866,7.866,0,0,0-685.71-3295.136Z" transform="translate(807.792 3606.24)"/>
    <g id="组_2673" data-name="组 2673" transform="translate(807.792 3606.24)">
      <g id="组_2672" data-name="组 2672" class="cls-4">
        <rect id="矩形_47488" data-name="矩形 47488" width="32.05" height="112" transform="translate(-727.108 -3324.321)"/>
      </g>
    </g>
    <g id="组_2675" data-name="组 2675" transform="translate(807.792 3606.24)">
      <g id="组_2674" data-name="组 2674" class="cls-4">
        <rect id="矩形_47489" data-name="矩形 47489" width="26.45" height="112" transform="translate(-724.308 -3324.321)"/>
      </g>
    </g>
    <path id="路径_3522" data-name="路径 3522" class="cls-5" d="M-685.71-3295.136l-6.547-4.2a34.849,34.849,0,0,0-20.05-5.5,34.837,34.837,0,0,1,17.6,5.5l6.547,4.2a7.866,7.866,0,0,1,3.62,6.622v28.593a7.868,7.868,0,0,1-3.62,6.622l-21.125,13.55a7.858,7.858,0,0,1-3.022,1.146,7.865,7.865,0,0,0,5.472-1.146l21.125-13.55a7.867,7.867,0,0,0,3.62-6.622v-28.593A7.866,7.866,0,0,0-685.71-3295.136Z" transform="translate(807.792 3606.24)"/>
    <path id="路径_3523" data-name="路径 3523" class="cls-6" d="M-735.905-3295.136l6.547-4.2a34.85,34.85,0,0,1,20.051-5.5,34.837,34.837,0,0,0-17.6,5.5l-6.547,4.2a7.866,7.866,0,0,0-3.62,6.622v28.593a7.868,7.868,0,0,0,3.62,6.622l21.125,13.55a7.856,7.856,0,0,0,3.023,1.146,7.868,7.868,0,0,1-5.473-1.146l-21.125-13.55a7.868,7.868,0,0,1-3.62-6.622v-28.593A7.866,7.866,0,0,1-735.905-3295.136Z" transform="translate(807.792 3606.24)"/>
    <path id="路径_3524" data-name="路径 3524" class="cls-7" d="M-685.71-3295.136l-6.547-4.2a34.865,34.865,0,0,0-37.651,0l-6.547,4.2a7.866,7.866,0,0,0-3.62,6.622v28.593a7.868,7.868,0,0,0,3.62,6.622l21.125,13.55a7.868,7.868,0,0,0,8.495,0l21.125-13.55a7.867,7.867,0,0,0,3.62-6.622v-28.593A7.866,7.866,0,0,0-685.71-3295.136Z" transform="translate(807.792 3606.24)"/>
    <g id="组_2677" data-name="组 2677" transform="translate(807.792 3606.24)">
      <g id="组_2676" data-name="组 2676" class="cls-4">
        <path id="路径_3525" data-name="路径 3525" class="cls-6" d="M-744.324-3263.168l61.654-2.209a1.29,1.29,0,0,1,1.263,1.358v13.005a1.328,1.328,0,0,1-1.022,1.341l-59.843,9.33a1.254,1.254,0,0,1-1.418-1.205l-1.812-20.127A1.317,1.317,0,0,1-744.324-3263.168Z"/>
      </g>
    </g>
    <path id="路径_3527" data-name="路径 3527" d="M-686.328-3280.231l.012-1.237c0,.014-.012.028-.018.042.059-.132-.143-.271-.618-.374l-14.316-3.124,0-.276-1.229.007-7.406-1.616a8.1,8.1,0,0,0-2.907-.012l-21.924,4.808c-.386.085-.573.2-.567.31l0-.006-.012,1.254a.121.121,0,0,0,.027.071l.007.011.019.02a1.076,1.076,0,0,0,.6.261l9.352,2.041.058,8.937a5.113,5.113,0,0,0,5.145,5.079l.724-.005,0,.329,7.454-.048,0-.329,6.682-.043,0,.328,2.348-.015.993-.006h0l.771-.005,0-.337a5.108,5.108,0,0,0,4.926-5.136l-.055-8.518,9.386-2.059C-686.442-3279.974-686.267-3280.1-686.328-3280.231Zm-48.688-1.245-.025-.009c-.019-.008-.031-.016-.048-.023.033.015.069.029.109.044Zm-.157-.073-.02-.012a.223.223,0,0,1-.032-.028.368.368,0,0,0,.069.048Zm48.716.242-.005,0a1.042,1.042,0,0,1-.112.046.828.828,0,0,0,.119-.051Zm.107-.083v0l0,0a.416.416,0,0,1-.058.044A.354.354,0,0,0-686.35-3281.39Zm-.285.158-.007,0q-.1.034-.243.066A2.375,2.375,0,0,0-686.635-3281.232Zm-48.035-.145c-.03-.006-.057-.013-.084-.02l-.067-.016,0,0c-.023-.006-.039-.013-.06-.019C-734.819-3281.414-734.752-3281.4-734.67-3281.377Zm-.594-.244-.008-.006-.007-.011a.13.13,0,0,1-.013-.036A.141.141,0,0,0-735.264-3281.621Z" transform="translate(807.792 3606.24)"/>
    <g id="组_2679" data-name="组 2679" transform="translate(807.792 3606.24)">
      <path id="路径_3528" data-name="路径 3528" d="M-688.066-3282.518l-.012,1.254c0,.111-.19.221-.569.3l.012-1.254C-688.256-3282.3-688.067-3282.407-688.066-3282.518Z"/>
      <g id="组_2678" data-name="组 2678" class="cls-8">
        <path id="路径_3529" data-name="路径 3529" d="M-688.066-3282.518l-.012,1.254v.007l.012-1.254v-.007"/>
        <path id="路径_3530" data-name="路径 3530" d="M-688.066-3282.511l-.012,1.254a.1.1,0,0,1-.007.028l.013-1.254a.14.14,0,0,0,.006-.028"/>
        <path id="路径_3531" data-name="路径 3531" d="M-688.072-3282.483l-.013,1.254a.117.117,0,0,1-.014.027l.013-1.254a.183.183,0,0,0,.014-.027"/>
        <path id="路径_3532" data-name="路径 3532" d="M-688.086-3282.456l-.013,1.254a.122.122,0,0,1-.02.025l.013-1.254a.158.158,0,0,0,.02-.025"/>
        <path id="路径_3533" data-name="路径 3533" d="M-688.106-3282.431l-.013,1.254a.176.176,0,0,1-.025.024l.012-1.254a.351.351,0,0,0,.026-.024"/>
        <path id="路径_3534" data-name="路径 3534" d="M-688.132-3282.407l-.012,1.254c-.01.008-.02.016-.032.024l.013-1.254c.011-.008.022-.016.031-.024"/>
        <path id="路径_3535" data-name="路径 3535" d="M-688.163-3282.383l-.013,1.254-.037.023.013-1.254.037-.023"/>
        <path id="路径_3536" data-name="路径 3536" d="M-688.2-3282.36l-.013,1.254c-.013.007-.027.015-.043.022l.013-1.254.043-.022"/>
        <path id="路径_3537" data-name="路径 3537" d="M-688.243-3282.338l-.013,1.254-.05.023.012-1.255.051-.022"/>
        <path id="路径_3538" data-name="路径 3538" d="M-688.294-3282.316l-.012,1.255-.058.022.012-1.254c.021-.007.04-.015.058-.023"/>
        <path id="路径_3539" data-name="路径 3539" d="M-688.352-3282.293l-.012,1.254-.068.023.012-1.254.068-.023"/>
        <path id="路径_3540" data-name="路径 3540" d="M-688.42-3282.27l-.012,1.254-.083.024.012-1.254.083-.024"/>
        <path id="路径_3541" data-name="路径 3541" d="M-688.5-3282.246l-.012,1.254-.1.025.012-1.254.1-.025"/>
        <path id="路径_3542" data-name="路径 3542" d="M-688.6-3282.221l-.012,1.254-.03.007.012-1.254.03-.007"/>
      </g>
    </g>
    <g id="组_2681" data-name="组 2681" transform="translate(807.792 3606.24)">
      <path id="路径_3544" data-name="路径 3544" d="M-737.068-3281.5l.012-1.254c0,.119.212.24.636.332l-.013,1.254C-736.857-3281.265-737.069-3281.386-737.068-3281.5Z"/>
      <g id="组_2680" data-name="组 2680" class="cls-9">
        <path id="路径_3545" data-name="路径 3545" d="M-736.42-3282.427l-.012,1.254h0l.012-1.254h0"/>
        <path id="路径_3546" data-name="路径 3546" d="M-736.425-3282.428l-.013,1.254q-.078-.016-.147-.036l.013-1.254c.045.013.1.024.147.036"/>
        <path id="路径_3547" data-name="路径 3547" d="M-736.572-3282.464l-.013,1.254c-.322-.086-.484-.191-.483-.295l.012-1.254c0,.1.161.209.484.295"/>
      </g>
    </g>
    <rect id="矩形_47490" data-name="矩形 47490" class="cls-10" width="29.045" height="19.271" rx="5.112" transform="translate(80.698 321.917) rotate(-0.37)"/>
    <rect id="矩形_47491" data-name="矩形 47491" class="cls-11" width="7.454" height="21.372" transform="translate(86.523 320.108) rotate(-0.37)"/>
    <rect id="矩形_47492" data-name="矩形 47492" class="cls-11" width="4.112" height="21.372" transform="translate(100.659 320.016) rotate(-0.37)"/>
    <rect id="矩形_47493" data-name="矩形 47493" class="cls-11" width="1.542" height="21.372" transform="translate(102.458 320.004) rotate(-0.37)"/>
    <path id="路径_3549" data-name="路径 3549" d="M-713.467-3277.419l-.012,1.254-22.954-5.008.012-1.254Z" transform="translate(807.792 3606.24)"/>
    <path id="路径_3550" data-name="路径 3550" d="M-688.635-3282.214l-.012,1.254-21.924,4.809.012-1.254Z" transform="translate(807.792 3606.24)"/>
    <g id="组_2683" data-name="组 2683" transform="translate(807.792 3606.24)">
      <path id="路径_3551" data-name="路径 3551" d="M-710.559-3277.406l-.013,1.254a8.07,8.07,0,0,1-2.907-.013l.012-1.254A8.076,8.076,0,0,0-710.559-3277.406Z"/>
      <g id="组_2682" data-name="组 2682" class="cls-12">
        <path id="路径_3552" data-name="路径 3552" d="M-710.559-3277.406l-.013,1.254-.1.021.012-1.254.1-.021"/>
        <path id="路径_3553" data-name="路径 3553" d="M-710.659-3277.385l-.012,1.254-.165.028.012-1.254.165-.028"/>
        <path id="路径_3554" data-name="路径 3554" d="M-710.824-3277.357l-.012,1.254c-.065.01-.133.019-.2.027l.012-1.254c.07-.008.137-.017.2-.027"/>
        <path id="路径_3555" data-name="路径 3555" d="M-711.026-3277.33l-.012,1.254c-.2.023-.412.038-.631.045l.012-1.254c.22-.007.433-.022.631-.045"/>
        <path id="路径_3556" data-name="路径 3556" d="M-711.657-3277.285l-.012,1.254-.129,0,.013-1.254.128,0"/>
        <path id="路径_3557" data-name="路径 3557" d="M-711.785-3277.282l-.013,1.254h-.109l.013-1.254h.109"/>
        <path id="路径_3558" data-name="路径 3558" d="M-711.894-3277.281l-.013,1.254h-.1l.012-1.254h.1"/>
        <path id="路径_3559" data-name="路径 3559" d="M-711.995-3277.28l-.012,1.254h-.1l.012-1.254h.1"/>
        <path id="路径_3560" data-name="路径 3560" d="M-712.092-3277.281l-.012,1.254-.1,0,.012-1.254.1,0"/>
        <path id="路径_3561" data-name="路径 3561" d="M-712.19-3277.283l-.012,1.254-.1,0,.013-1.254.1,0"/>
        <path id="路径_3562" data-name="路径 3562" d="M-712.289-3277.286l-.013,1.254-.1,0,.013-1.254.1,0"/>
        <path id="路径_3563" data-name="路径 3563" d="M-712.392-3277.29l-.013,1.254-.1-.006.012-1.254.1.006"/>
        <path id="路径_3564" data-name="路径 3564" d="M-712.5-3277.3l-.012,1.254-.1-.007.012-1.254.105.007"/>
        <path id="路径_3565" data-name="路径 3565" d="M-712.6-3277.3l-.012,1.254-.105-.008.012-1.254.1.008"/>
        <path id="路径_3566" data-name="路径 3566" d="M-712.706-3277.311l-.012,1.254-.1-.009.013-1.254.1.009"/>
        <path id="路径_3567" data-name="路径 3567" d="M-712.81-3277.32l-.013,1.254-.1-.011.012-1.254.1.011"/>
        <path id="路径_3568" data-name="路径 3568" d="M-712.914-3277.331l-.012,1.254-.1-.012.012-1.254.1.012"/>
        <path id="路径_3569" data-name="路径 3569" d="M-713.019-3277.343l-.012,1.254-.106-.015.012-1.254.106.015"/>
        <path id="路径_3570" data-name="路径 3570" d="M-713.125-3277.358l-.012,1.254-.109-.016.013-1.254.108.016"/>
        <path id="路径_3571" data-name="路径 3571" d="M-713.233-3277.374l-.013,1.254-.113-.02.012-1.254.114.02"/>
        <path id="路径_3572" data-name="路径 3572" d="M-713.347-3277.394l-.012,1.254-.12-.025.012-1.254.12.025"/>
      </g>
    </g>
    <rect id="矩形_47494" data-name="矩形 47494" width="1.542" height="1.542" rx="0.771" transform="translate(94.506 322.369) rotate(-0.37)"/>
    <path id="路径_3574" data-name="路径 3574" class="cls-13" d="M-714.554-3286.586a8.093,8.093,0,0,1,2.907.013l22.954,5.008c.821.179.851.464.066.636l-21.924,4.808a8.076,8.076,0,0,1-2.908-.013l-22.953-5.008c-.821-.179-.85-.464-.066-.636Z" transform="translate(807.792 3606.24)"/>
    <path id="路径_3575" data-name="路径 3575" class="cls-10" d="M-714.562-3287.871a8.092,8.092,0,0,1,2.907.012l22.953,5.009c.822.179.851.464.067.636l-21.924,4.808a8.076,8.076,0,0,1-2.908-.013l-22.953-5.008c-.821-.179-.851-.464-.066-.636Z" transform="translate(807.792 3606.24)"/>
    <path id="路径_3576" data-name="路径 3576" d="M-672.18-3267.387l-19.378,3.915a1.327,1.327,0,0,0-1,1.337v15.123a1.27,1.27,0,0,0,1.424,1.341l21.092-3.906a1.4,1.4,0,0,0,.664-2.3l-3.911-5.046a1.471,1.471,0,0,1-.229-1.568l2.655-6.95A1.331,1.331,0,0,0-672.18-3267.387Z" transform="translate(807.792 3606.24)"/>
    <path id="路径_3577" data-name="路径 3577" class="cls-14" d="M-672.18-3267.387l-19.378,3.915a1.327,1.327,0,0,0-1,1.337v15.123a1.27,1.27,0,0,0,1.424,1.341l21.092-3.906a1.4,1.4,0,0,0,.664-2.3l-3.911-5.046a1.471,1.471,0,0,1-.229-1.568l2.655-6.95A1.331,1.331,0,0,0-672.18-3267.387Z" transform="translate(807.792 3606.24)"/>
    <path id="路径_3578" data-name="路径 3578" class="cls-6" d="M-678.257-3248.721v-17.438l-13.3,2.687a1.327,1.327,0,0,0-1,1.337v15.123a1.27,1.27,0,0,0,1.424,1.341l12.065-2.234Z" transform="translate(807.792 3606.24)"/>
    <path id="路径_3579" data-name="路径 3579" d="M-746.018-3266.026l3.717-4.13a1.212,1.212,0,0,1,2.088.96v19.325a1.469,1.469,0,0,1-.205.754l-2.044,3.405a1.2,1.2,0,0,1-2.234-.618l-1.674-18.6A1.444,1.444,0,0,1-746.018-3266.026Z" transform="translate(807.792 3606.24)"/>
    <path id="路径_3580" data-name="路径 3580" class="cls-14" d="M-746.018-3266.026l3.717-4.13a1.212,1.212,0,0,1,2.088.96v19.325a1.469,1.469,0,0,1-.205.754l-2.044,3.405a1.2,1.2,0,0,1-2.234-.618l-1.674-18.6A1.444,1.444,0,0,1-746.018-3266.026Z" transform="translate(807.792 3606.24)"/>
    <path id="路径_3581" data-name="路径 3581" d="M-690.71-3246.642l7.913-5.275a1.4,1.4,0,0,0,.593-1.165v-13.133a1.265,1.265,0,0,0-1.462-1.333l-7.913,1.758a1.331,1.331,0,0,0-.983,1.333v16.649A1.227,1.227,0,0,0-690.71-3246.642Z" transform="translate(807.792 3606.24)"/>
    <path id="路径_3582" data-name="路径 3582" class="cls-14" d="M-690.71-3246.642l7.913-5.275a1.4,1.4,0,0,0,.593-1.165v-13.133a1.265,1.265,0,0,0-1.462-1.333l-7.913,1.758a1.331,1.331,0,0,0-.983,1.333v16.649A1.227,1.227,0,0,0-690.71-3246.642Z" transform="translate(807.792 3606.24)"/>
    <path id="路径_3583" data-name="路径 3583" d="M-745.12-3265.618l61.654-2.209a1.29,1.29,0,0,1,1.262,1.358v13a1.327,1.327,0,0,1-1.022,1.341l-59.842,9.33a1.254,1.254,0,0,1-1.418-1.205l-1.812-20.127A1.317,1.317,0,0,1-745.12-3265.618Z" transform="translate(807.792 3606.24)"/>
    <path id="路径_3584" data-name="路径 3584" class="cls-14" d="M-745.12-3265.618l61.654-2.209a1.29,1.29,0,0,1,1.262,1.358v13a1.327,1.327,0,0,1-1.022,1.341l-59.842,9.33a1.254,1.254,0,0,1-1.418-1.205l-1.812-20.127A1.317,1.317,0,0,1-745.12-3265.618Z" transform="translate(807.792 3606.24)"/>
    <path id="路径_3585" data-name="路径 3585" class="cls-6" d="M-683.466-3267.827l-.391.014v11.2a1.328,1.328,0,0,1-1.022,1.341l-59.783,9.321.176,1.954a1.254,1.254,0,0,0,1.418,1.205l59.842-9.33a1.327,1.327,0,0,0,1.022-1.341v-13A1.29,1.29,0,0,0-683.466-3267.827Z" transform="translate(807.792 3606.24)"/>
    <path id="路径_3586" data-name="路径 3586" d="M-742.2-3261.041l-.151-1.68h0" transform="translate(807.792 3606.24)"/>
    <path id="路径_3587" data-name="路径 3587" class="cls-14" d="M-742.2-3261.041l-.151-1.68h0" transform="translate(807.792 3606.24)"/>
    <line id="直线_2150" data-name="直线 2150" x1="0.302" y1="3.36" transform="translate(65.89 348.559)"/>
    <line id="直线_2151" data-name="直线 2151" class="cls-14" x1="0.302" y1="3.36" transform="translate(65.89 348.559)"/>
    <path id="路径_3588" data-name="路径 3588" class="cls-6" d="M-692.755-3268.419a1,1,0,0,0-.194-.028.984.984,0,0,0-.2.013,1.734,1.734,0,0,0-1.6,1.653l-.281,7.192a.193.193,0,0,0,.185.2l.578.023h0l1.927.075h0l.577.022a.193.193,0,0,0,.2-.185l.28-7.191A1.734,1.734,0,0,0-692.755-3268.419Z" transform="translate(807.792 3606.24)"/>
    <path id="路径_3589" data-name="路径 3589" class="cls-15" d="M-693.446-3260.439a.193.193,0,0,1-.185-.2l.281-7.192a1.741,1.741,0,0,1,1.8-1.666h0a1.741,1.741,0,0,1,1.666,1.8l-.28,7.191a.193.193,0,0,1-.2.185" transform="translate(807.792 3606.24)"/>
    <path id="路径_3590" data-name="路径 3590" class="cls-15" d="M-693.446-3260.439a.193.193,0,0,1-.185-.2l.281-7.192a1.741,1.741,0,0,1,1.8-1.666h0a1.741,1.741,0,0,1,1.666,1.8l-.28,7.191a.193.193,0,0,1-.2.185" transform="translate(807.792 3606.24)"/>
    <path id="路径_3591" data-name="路径 3591" class="cls-15" d="M-692.868-3260.416l.318-8.155a.965.965,0,0,1,1-.926h0a.965.965,0,0,1,.926,1l-.318,8.155" transform="translate(807.792 3606.24)"/>
    <path id="路径_3592" data-name="路径 3592" class="cls-15" d="M-692.226-3260.391l.344-8.8a.322.322,0,0,1,.333-.309h0a.322.322,0,0,1,.309.334l-.344,8.8" transform="translate(807.792 3606.24)"/>
    <path id="路径_3593" data-name="路径 3593" class="cls-16" d="M-712.51-3282.055l20.958,1.407-.02,11.336" transform="translate(807.792 3606.24)"/>
    <text id="学霸-2" data-name="学霸" class="cls-17" transform="matrix(0.998, -0.07, 0.07, 0.998, 93.394, 352.857)"><tspan x="-12.398" y="0">学霸</tspan></text>
    <path id="路径_3849" data-name="路径 3849" d="M-711.19-3301.921v2.977l-2.772-.9-.021-.047,1.5-.874Z" transform="translate(807.792 3606.24)"/>
    <path id="路径_3850" data-name="路径 3850" d="M-708.4-3299.892l-.021.047-2.772.9v-2.977l1.295,1.155Z" transform="translate(807.792 3606.24)"/>
    <path id="路径_3851" data-name="路径 3851" d="M-708.418-3299.845l-.678,1.541-.369,1.7-.031,0h0l-1.694-2.332Z" transform="translate(807.792 3606.24)"/>
    <path id="路径_3852" data-name="路径 3852" d="M-709.5-3296.612l-1.694-.17-1.694.17,1.694-2.332Z" transform="translate(807.792 3606.24)"/>
    <path id="路径_3853" data-name="路径 3853" d="M-711.19-3298.944l-1.694,2.332h0l-.031,0-.369-1.7-.678-1.541Z" transform="translate(807.792 3606.24)"/>
    <path id="路径_3854" data-name="路径 3854" d="M-720.939-3299.222l1.018,2.8-2.913.1-.035-.037,1.109-1.334Z" transform="translate(807.792 3606.24)"/>
    <path id="路径_3855" data-name="路径 3855" d="M-717.621-3298.27l0,.051-2.3,1.794-1.018-2.8,1.612.642Z" transform="translate(807.792 3606.24)"/>
    <path id="路径_3856" data-name="路径 3856" d="M-717.624-3298.219l-.11,1.68.233,1.719-.03.008h0l-2.39-1.612Z" transform="translate(807.792 3606.24)"/>
    <path id="路径_3857" data-name="路径 3857" d="M-717.531-3294.813l-1.65.42-1.534.739.795-2.771Z" transform="translate(807.792 3606.24)"/>
    <path id="路径_3858" data-name="路径 3858" d="M-719.921-3296.425l-.795,2.771h0l-.028.014-.926-1.467-1.164-1.216Z" transform="translate(807.792 3606.24)"/>
    <path id="路径_3859" data-name="路径 3859" d="M-701.441-3299.222l-1.018,2.8-2.3-1.794,0-.051,1.707-.309Z" transform="translate(807.792 3606.24)"/>
    <path id="路径_3860" data-name="路径 3860" d="M-699.511-3296.36l-.035.037-2.913-.1,1.018-2.8.822,1.528Z" transform="translate(807.792 3606.24)"/>
    <path id="路径_3861" data-name="路径 3861" d="M-699.546-3296.323l-1.164,1.216-.926,1.467-.028-.014h0l-.795-2.771Z" transform="translate(807.792 3606.24)"/>
    <path id="路径_3862" data-name="路径 3862" d="M-701.664-3293.654l-1.534-.739-1.65-.42,2.39-1.612Z" transform="translate(807.792 3606.24)"/>
    <path id="路径_3863" data-name="路径 3863" d="M-702.459-3296.425l-2.39,1.612h0l-.03-.008.233-1.719-.11-1.68Z" transform="translate(807.792 3606.24)"/>
    <g id="组_2845" data-name="组 2845" transform="translate(807.792 3606.24)">
      <path id="路径_3992" data-name="路径 3992" class="cls-18" d="M-688.16-3297.586l-6.547-4.2a34.865,34.865,0,0,0-37.651,0l-6.547,4.2a7.866,7.866,0,0,0-3.62,6.622v28.593a7.868,7.868,0,0,0,3.62,6.622l21.125,13.55a7.868,7.868,0,0,0,8.5,0l21.125-13.55a7.868,7.868,0,0,0,3.62-6.622v-28.593A7.866,7.866,0,0,0-688.16-3297.586Z"/>
      <g id="组_2817" data-name="组 2817">
        <g id="组_2816" data-name="组 2816" class="cls-19">
          <rect id="矩形_47517" data-name="矩形 47517" class="cls-20" width="32.05" height="112" transform="translate(-729.558 -3326.771)"/>
        </g>
      </g>
      <g id="组_2819" data-name="组 2819">
        <g id="组_2818" data-name="组 2818" class="cls-19">
          <rect id="矩形_47518" data-name="矩形 47518" class="cls-21" width="26.45" height="112" transform="translate(-726.758 -3326.771)"/>
        </g>
      </g>
      <g id="组_2820" data-name="组 2820">
        <path id="路径_3995" data-name="路径 3995" class="cls-22" d="M-688.16-3297.586l-6.547-4.2a34.848,34.848,0,0,0-20.05-5.5,34.834,34.834,0,0,1,17.6,5.5l6.547,4.2a7.866,7.866,0,0,1,3.62,6.622v28.593a7.868,7.868,0,0,1-3.62,6.622l-21.125,13.55a7.862,7.862,0,0,1-3.022,1.146,7.865,7.865,0,0,0,5.472-1.146l21.125-13.55a7.868,7.868,0,0,0,3.62-6.622v-28.593A7.866,7.866,0,0,0-688.16-3297.586Z"/>
      </g>
      <g id="组_2821" data-name="组 2821">
        <path id="路径_3996" data-name="路径 3996" class="cls-23" d="M-738.355-3297.586l6.547-4.2a34.849,34.849,0,0,1,20.051-5.5,34.835,34.835,0,0,0-17.6,5.5l-6.547,4.2a7.866,7.866,0,0,0-3.62,6.622v28.593a7.868,7.868,0,0,0,3.62,6.622l21.125,13.55a7.86,7.86,0,0,0,3.023,1.146,7.867,7.867,0,0,1-5.473-1.146l-21.125-13.55a7.868,7.868,0,0,1-3.62-6.622v-28.593A7.866,7.866,0,0,1-738.355-3297.586Z"/>
      </g>
      <path id="路径_3997" data-name="路径 3997" class="cls-24" d="M-688.16-3297.586l-6.547-4.2a34.865,34.865,0,0,0-37.651,0l-6.547,4.2a7.866,7.866,0,0,0-3.62,6.622v28.593a7.868,7.868,0,0,0,3.62,6.622l21.125,13.55a7.868,7.868,0,0,0,8.5,0l21.125-13.55a7.868,7.868,0,0,0,3.62-6.622v-28.593A7.866,7.866,0,0,0-688.16-3297.586Z"/>
      <g id="组_2824" data-name="组 2824">
        <g id="组_2823" data-name="组 2823" class="cls-19">
          <g id="组_2822" data-name="组 2822">
            <path id="路径_3998" data-name="路径 3998" class="cls-6" d="M-746.774-3265.618l61.654-2.209a1.29,1.29,0,0,1,1.263,1.358v13a1.328,1.328,0,0,1-1.022,1.341l-59.843,9.33A1.254,1.254,0,0,1-746.14-3244l-1.812-20.127A1.317,1.317,0,0,1-746.774-3265.618Z"/>
          </g>
        </g>
      </g>
      <g id="组_2826" data-name="组 2826">
        <g id="组_2825" data-name="组 2825" class="cls-25">
          <path id="路径_4000" data-name="路径 4000" d="M-688.778-3282.681l.012-1.237c0,.014-.012.028-.018.042.059-.132-.143-.271-.618-.374l-14.316-3.124,0-.276-1.229.007-7.406-1.616a8.093,8.093,0,0,0-2.907-.012l-21.924,4.808c-.386.085-.573.2-.567.31l0-.006-.012,1.254a.122.122,0,0,0,.027.071l.007.011.019.02a1.076,1.076,0,0,0,.6.261l9.352,2.041.058,8.937a5.112,5.112,0,0,0,5.145,5.079l.724,0,0,.329,7.454-.048,0-.329,6.682-.043,0,.328,2.348-.015.993-.006h0l.771-.005,0-.337a5.108,5.108,0,0,0,4.926-5.136l-.055-8.518,9.386-2.059C-688.892-3282.424-688.717-3282.554-688.778-3282.681Zm-48.688-1.245-.025-.009c-.019-.008-.031-.016-.048-.023.033.015.069.029.109.044Zm-.157-.073-.02-.012a.223.223,0,0,1-.032-.028.382.382,0,0,0,.069.048Zm48.716.242-.005,0a1.042,1.042,0,0,1-.112.046.853.853,0,0,0,.119-.051Zm.107-.083v0l0,0a.416.416,0,0,1-.058.044A.343.343,0,0,0-688.8-3283.84Zm-.285.158-.007,0q-.105.034-.243.066A2.375,2.375,0,0,0-689.085-3283.682Zm-48.035-.145c-.03-.006-.057-.013-.084-.02l-.067-.016,0,0c-.023-.006-.039-.013-.06-.019C-737.269-3283.864-737.2-3283.845-737.12-3283.827Zm-.594-.244-.008-.006-.007-.011a.135.135,0,0,1-.013-.036A.141.141,0,0,0-737.714-3284.071Z"/>
        </g>
      </g>
      <g id="组_2833" data-name="组 2833">
        <g id="组_2828" data-name="组 2828" class="cls-26">
          <path id="路径_4001" data-name="路径 4001" class="cls-2" d="M-690.516-3284.968l-.012,1.254c0,.111-.19.221-.569.3l.012-1.254C-690.706-3284.747-690.517-3284.857-690.516-3284.968Z"/>
          <g id="组_2827" data-name="组 2827" class="cls-27">
            <path id="路径_4002" data-name="路径 4002" class="cls-2" d="M-690.516-3284.968l-.012,1.254v.007l.012-1.254v-.007"/>
            <path id="路径_4003" data-name="路径 4003" class="cls-2" d="M-690.516-3284.961l-.012,1.254a.1.1,0,0,1-.007.028l.013-1.254a.138.138,0,0,0,.006-.028"/>
            <path id="路径_4004" data-name="路径 4004" class="cls-2" d="M-690.522-3284.933l-.013,1.254a.113.113,0,0,1-.014.027l.013-1.254a.179.179,0,0,0,.014-.027"/>
            <path id="路径_4005" data-name="路径 4005" class="cls-2" d="M-690.536-3284.906l-.013,1.254a.117.117,0,0,1-.02.025l.013-1.254a.143.143,0,0,0,.02-.025"/>
            <path id="路径_4006" data-name="路径 4006" class="cls-2" d="M-690.556-3284.881l-.013,1.254a.2.2,0,0,1-.025.024l.012-1.254a.315.315,0,0,0,.026-.024"/>
            <path id="路径_4007" data-name="路径 4007" class="cls-2" d="M-690.582-3284.857l-.012,1.254a.389.389,0,0,1-.032.024l.013-1.254.031-.024"/>
            <path id="路径_4008" data-name="路径 4008" class="cls-2" d="M-690.613-3284.833l-.013,1.254a.4.4,0,0,1-.037.023l.013-1.254.037-.023"/>
            <path id="路径_4009" data-name="路径 4009" class="cls-2" d="M-690.65-3284.81l-.013,1.254c-.013.007-.027.015-.043.022l.013-1.254.043-.022"/>
            <path id="路径_4010" data-name="路径 4010" class="cls-2" d="M-690.693-3284.788l-.013,1.254-.05.023.012-1.255a.537.537,0,0,0,.051-.022"/>
            <path id="路径_4011" data-name="路径 4011" class="cls-2" d="M-690.744-3284.766l-.012,1.255-.058.022.012-1.254c.021-.007.04-.015.058-.023"/>
            <path id="路径_4012" data-name="路径 4012" class="cls-2" d="M-690.8-3284.743l-.012,1.254-.068.023.012-1.254.068-.023"/>
            <path id="路径_4013" data-name="路径 4013" class="cls-2" d="M-690.87-3284.72l-.012,1.254-.083.024.012-1.254.083-.024"/>
            <path id="路径_4014" data-name="路径 4014" class="cls-2" d="M-690.953-3284.7l-.012,1.254-.1.025.012-1.254.1-.025"/>
            <path id="路径_4015" data-name="路径 4015" class="cls-2" d="M-691.055-3284.671l-.012,1.254-.03.007.012-1.254.03-.007"/>
          </g>
        </g>
        <g id="组_2830" data-name="组 2830" class="cls-26">
          <path id="路径_4017" data-name="路径 4017" class="cls-2" d="M-739.518-3283.955l.012-1.254c0,.119.212.24.636.332l-.013,1.254C-739.307-3283.715-739.519-3283.836-739.518-3283.955Z"/>
          <g id="组_2829" data-name="组 2829" class="cls-28">
            <path id="路径_4018" data-name="路径 4018" class="cls-2" d="M-738.87-3284.877l-.012,1.254h0l.012-1.254h0"/>
            <path id="路径_4019" data-name="路径 4019" class="cls-2" d="M-738.875-3284.878l-.013,1.254q-.078-.016-.147-.036l.013-1.254c.045.013.095.024.147.036"/>
            <path id="路径_4020" data-name="路径 4020" class="cls-2" d="M-739.022-3284.914l-.013,1.254c-.322-.086-.484-.191-.483-.3l.012-1.254c0,.1.161.209.484.295"/>
          </g>
        </g>
        <rect id="矩形_47519" data-name="矩形 47519" class="cls-29" width="29.045" height="19.271" rx="5.112" transform="translate(-729.544 -3286.773) rotate(-0.37)"/>
        <rect id="矩形_47520" data-name="矩形 47520" class="cls-30" width="7.454" height="21.372" transform="translate(-723.719 -3288.582) rotate(-0.37)"/>
        <rect id="矩形_47521" data-name="矩形 47521" class="cls-31" width="4.112" height="21.372" transform="translate(-709.583 -3288.674) rotate(-0.37)"/>
        <rect id="矩形_47522" data-name="矩形 47522" class="cls-32" width="1.542" height="21.372" transform="translate(-707.784 -3288.686) rotate(-0.37)"/>
        <path id="路径_4022" data-name="路径 4022" class="cls-2" d="M-715.917-3279.869l-.012,1.254-22.954-5.008.012-1.254Z"/>
        <path id="路径_4023" data-name="路径 4023" class="cls-2" d="M-691.085-3284.664l-.012,1.254-21.924,4.808.012-1.254Z"/>
        <g id="组_2832" data-name="组 2832" class="cls-33">
          <path id="路径_4024" data-name="路径 4024" class="cls-3" d="M-713.009-3279.856l-.013,1.254a8.071,8.071,0,0,1-2.907-.013l.012-1.254A8.082,8.082,0,0,0-713.009-3279.856Z"/>
          <g id="组_2831" data-name="组 2831" class="cls-34">
            <path id="路径_4025" data-name="路径 4025" class="cls-3" d="M-713.009-3279.856l-.013,1.254-.1.021.012-1.254.1-.021"/>
            <path id="路径_4026" data-name="路径 4026" class="cls-3" d="M-713.109-3279.835l-.012,1.254-.165.028.012-1.254.165-.028"/>
            <path id="路径_4027" data-name="路径 4027" class="cls-3" d="M-713.274-3279.807l-.012,1.254c-.065.01-.133.019-.2.027l.012-1.254c.07-.008.137-.017.2-.027"/>
            <path id="路径_4028" data-name="路径 4028" class="cls-3" d="M-713.476-3279.78l-.012,1.254c-.2.023-.412.038-.631.045l.012-1.254c.22-.007.433-.022.631-.045"/>
            <path id="路径_4029" data-name="路径 4029" class="cls-3" d="M-714.107-3279.735l-.012,1.254-.129,0,.013-1.254.128,0"/>
            <path id="路径_4030" data-name="路径 4030" class="cls-3" d="M-714.235-3279.732l-.013,1.254h-.109l.013-1.254h.109"/>
            <path id="路径_4031" data-name="路径 4031" class="cls-3" d="M-714.344-3279.731l-.013,1.254h-.1l.012-1.254h.1"/>
            <path id="路径_4032" data-name="路径 4032" class="cls-3" d="M-714.445-3279.73l-.012,1.254h-.1l.012-1.254h.1"/>
            <path id="路径_4033" data-name="路径 4033" class="cls-3" d="M-714.542-3279.731l-.012,1.254-.1,0,.012-1.254.1,0"/>
            <path id="路径_4034" data-name="路径 4034" class="cls-3" d="M-714.64-3279.733l-.012,1.254-.1,0,.013-1.254.1,0"/>
            <path id="路径_4035" data-name="路径 4035" class="cls-3" d="M-714.739-3279.736l-.013,1.254-.1,0,.013-1.254.1,0"/>
            <path id="路径_4036" data-name="路径 4036" class="cls-3" d="M-714.842-3279.74l-.013,1.254-.1-.006.012-1.254.1.006"/>
            <path id="路径_4037" data-name="路径 4037" class="cls-3" d="M-714.946-3279.746l-.012,1.254-.1-.007.012-1.254.105.007"/>
            <path id="路径_4038" data-name="路径 4038" class="cls-3" d="M-715.051-3279.753l-.012,1.254-.105-.008.012-1.254.1.008"/>
            <path id="路径_4039" data-name="路径 4039" class="cls-3" d="M-715.156-3279.761l-.012,1.254-.1-.009.013-1.254.1.009"/>
            <path id="路径_4040" data-name="路径 4040" class="cls-3" d="M-715.26-3279.77l-.013,1.254-.1-.011.012-1.254.1.011"/>
            <path id="路径_4041" data-name="路径 4041" class="cls-3" d="M-715.364-3279.781l-.012,1.254-.105-.012.012-1.254.1.012"/>
            <path id="路径_4042" data-name="路径 4042" class="cls-3" d="M-715.469-3279.793l-.012,1.254-.106-.015.012-1.254.106.015"/>
            <path id="路径_4043" data-name="路径 4043" class="cls-3" d="M-715.575-3279.808l-.012,1.254-.109-.016.013-1.254.108.016"/>
            <path id="路径_4044" data-name="路径 4044" class="cls-3" d="M-715.683-3279.824l-.013,1.254-.113-.02.012-1.254.114.02"/>
            <path id="路径_4045" data-name="路径 4045" class="cls-3" d="M-715.8-3279.844l-.012,1.254-.12-.025.012-1.254.12.025"/>
          </g>
        </g>
        <rect id="矩形_47523" data-name="矩形 47523" class="cls-2" width="1.542" height="1.542" rx="0.771" transform="translate(-715.736 -3286.321) rotate(-0.37)"/>
        <path id="路径_4047" data-name="路径 4047" class="cls-13" d="M-717-3289.036a8.093,8.093,0,0,1,2.907.013l22.954,5.008c.821.179.851.464.066.636L-713-3278.571a8.076,8.076,0,0,1-2.908-.013l-22.953-5.008c-.821-.179-.85-.464-.066-.636Z"/>
        <path id="路径_4048" data-name="路径 4048" class="cls-29" d="M-717.012-3290.321a8.1,8.1,0,0,1,2.907.012l22.953,5.009c.822.179.851.464.067.636l-21.924,4.808a8.082,8.082,0,0,1-2.908-.013l-22.953-5.008c-.821-.179-.851-.464-.066-.636Z"/>
      </g>
      <g id="组_2842" data-name="组 2842">
        <g id="组_2834" data-name="组 2834">
          <path id="路径_4049" data-name="路径 4049" class="cls-35" d="M-674.63-3269.837l-19.378,3.915a1.327,1.327,0,0,0-1,1.337v15.123a1.27,1.27,0,0,0,1.424,1.341l21.092-3.906a1.4,1.4,0,0,0,.664-2.3l-3.911-5.046a1.471,1.471,0,0,1-.229-1.568l2.655-6.95A1.331,1.331,0,0,0-674.63-3269.837Z"/>
          <path id="路径_4050" data-name="路径 4050" class="cls-36" d="M-674.63-3269.837l-19.378,3.915a1.327,1.327,0,0,0-1,1.337v15.123a1.27,1.27,0,0,0,1.424,1.341l21.092-3.906a1.4,1.4,0,0,0,.664-2.3l-3.911-5.046a1.471,1.471,0,0,1-.229-1.568l2.655-6.95A1.331,1.331,0,0,0-674.63-3269.837Z"/>
        </g>
        <g id="组_2835" data-name="组 2835">
          <path id="路径_4051" data-name="路径 4051" class="cls-6" d="M-680.707-3251.171v-17.438l-13.3,2.687a1.327,1.327,0,0,0-1,1.337v15.123a1.27,1.27,0,0,0,1.424,1.341l12.065-2.234Z"/>
        </g>
        <g id="组_2836" data-name="组 2836">
          <path id="路径_4052" data-name="路径 4052" class="cls-37" d="M-748.468-3268.476l3.717-4.13a1.212,1.212,0,0,1,2.088.96v19.325a1.47,1.47,0,0,1-.2.754l-2.044,3.4a1.2,1.2,0,0,1-2.234-.618l-1.674-18.6A1.445,1.445,0,0,1-748.468-3268.476Z"/>
          <path id="路径_4053" data-name="路径 4053" class="cls-36" d="M-748.468-3268.476l3.717-4.13a1.212,1.212,0,0,1,2.088.96v19.325a1.47,1.47,0,0,1-.2.754l-2.044,3.4a1.2,1.2,0,0,1-2.234-.618l-1.674-18.6A1.445,1.445,0,0,1-748.468-3268.476Z"/>
        </g>
        <g id="组_2837" data-name="组 2837">
          <path id="路径_4054" data-name="路径 4054" class="cls-37" d="M-693.16-3249.092l7.913-5.275a1.4,1.4,0,0,0,.593-1.165v-13.133a1.265,1.265,0,0,0-1.462-1.333l-7.913,1.758a1.331,1.331,0,0,0-.983,1.333v16.649A1.227,1.227,0,0,0-693.16-3249.092Z"/>
          <path id="路径_4055" data-name="路径 4055" class="cls-36" d="M-693.16-3249.092l7.913-5.275a1.4,1.4,0,0,0,.593-1.165v-13.133a1.265,1.265,0,0,0-1.462-1.333l-7.913,1.758a1.331,1.331,0,0,0-.983,1.333v16.649A1.227,1.227,0,0,0-693.16-3249.092Z"/>
        </g>
        <g id="组_2838" data-name="组 2838">
          <path id="路径_4056" data-name="路径 4056" class="cls-35" d="M-747.57-3268.068l61.654-2.209a1.29,1.29,0,0,1,1.262,1.358v13a1.327,1.327,0,0,1-1.022,1.341l-59.842,9.33a1.254,1.254,0,0,1-1.418-1.205l-1.812-20.127A1.318,1.318,0,0,1-747.57-3268.068Z"/>
          <path id="路径_4057" data-name="路径 4057" class="cls-36" d="M-747.57-3268.068l61.654-2.209a1.29,1.29,0,0,1,1.262,1.358v13a1.327,1.327,0,0,1-1.022,1.341l-59.842,9.33a1.254,1.254,0,0,1-1.418-1.205l-1.812-20.127A1.318,1.318,0,0,1-747.57-3268.068Z"/>
        </g>
        <g id="组_2839" data-name="组 2839">
          <path id="路径_4058" data-name="路径 4058" class="cls-6" d="M-685.916-3270.277l-.391.014v11.2a1.328,1.328,0,0,1-1.022,1.341l-59.783,9.321.176,1.954a1.254,1.254,0,0,0,1.418,1.205l59.842-9.33a1.327,1.327,0,0,0,1.022-1.341v-13A1.29,1.29,0,0,0-685.916-3270.277Z"/>
        </g>
        <g id="组_2840" data-name="组 2840">
          <path id="路径_4059" data-name="路径 4059" class="cls-35" d="M-744.654-3263.491l-.151-1.68h0"/>
          <path id="路径_4060" data-name="路径 4060" class="cls-38" d="M-744.654-3263.491l-.151-1.68h0"/>
        </g>
        <g id="组_2841" data-name="组 2841">
          <line id="直线_2173" data-name="直线 2173" class="cls-35" x1="0.302" y1="3.36" transform="translate(-744.352 -3260.131)"/>
          <line id="直线_2174" data-name="直线 2174" class="cls-38" x1="0.302" y1="3.36" transform="translate(-744.352 -3260.131)"/>
        </g>
      </g>
      <g id="组_2843" data-name="组 2843">
        <path id="路径_4061" data-name="路径 4061" class="cls-6" d="M-695.205-3270.869a1,1,0,0,0-.194-.028.983.983,0,0,0-.2.013,1.734,1.734,0,0,0-1.605,1.653l-.281,7.192a.193.193,0,0,0,.185.2l.578.023h0l1.927.075h0l.577.022a.193.193,0,0,0,.2-.185l.28-7.191A1.734,1.734,0,0,0-695.205-3270.869Z"/>
      </g>
      <g id="组_2844" data-name="组 2844">
        <path id="路径_4062" data-name="路径 4062" class="cls-39" d="M-695.9-3262.889a.193.193,0,0,1-.185-.2l.281-7.192a1.741,1.741,0,0,1,1.8-1.666h0a1.741,1.741,0,0,1,1.666,1.8l-.28,7.191a.193.193,0,0,1-.2.185"/>
        <path id="路径_4063" data-name="路径 4063" class="cls-39" d="M-695.9-3262.889a.193.193,0,0,1-.185-.2l.281-7.192a1.741,1.741,0,0,1,1.8-1.666h0a1.741,1.741,0,0,1,1.666,1.8l-.28,7.191a.193.193,0,0,1-.2.185"/>
        <path id="路径_4064" data-name="路径 4064" class="cls-39" d="M-695.318-3262.866l.318-8.155a.965.965,0,0,1,1-.926h0a.965.965,0,0,1,.926,1l-.318,8.155"/>
        <path id="路径_4065" data-name="路径 4065" class="cls-39" d="M-694.676-3262.841l.344-8.8a.322.322,0,0,1,.333-.309h0a.322.322,0,0,1,.309.334l-.344,8.8"/>
        <path id="路径_4066" data-name="路径 4066" class="cls-16" d="M-714.96-3284.5-694-3283.1l-.02,11.336"/>
      </g>
    </g>
    <g id="组_2992" data-name="组 2992" transform="translate(807.792 3606.24)">
      <g id="组_2989" data-name="组 2989">
        <path id="路径_4322" data-name="路径 4322" class="cls-40" d="M-713.64-3304.371v2.977l-2.772-.9-.021-.047,1.5-.874Z"/>
        <path id="路径_4323" data-name="路径 4323" class="cls-41" d="M-710.847-3302.342l-.021.047-2.772.9v-2.977l1.295,1.155Z"/>
        <path id="路径_4324" data-name="路径 4324" class="cls-42" d="M-710.868-3302.3l-.678,1.541-.369,1.7-.031,0h0l-1.694-2.332Z"/>
        <path id="路径_4325" data-name="路径 4325" class="cls-41" d="M-711.946-3299.062l-1.694-.17-1.694.17,1.694-2.332Z"/>
        <path id="路径_4326" data-name="路径 4326" class="cls-40" d="M-713.64-3301.394l-1.694,2.332h0l-.031,0-.369-1.7-.678-1.541Z"/>
      </g>
      <g id="组_2990" data-name="组 2990">
        <path id="路径_4327" data-name="路径 4327" class="cls-40" d="M-723.389-3301.672l1.018,2.8-2.913.1-.035-.037,1.109-1.334Z"/>
        <path id="路径_4328" data-name="路径 4328" class="cls-41" d="M-720.071-3300.72l0,.051-2.3,1.794-1.018-2.8,1.612.642Z"/>
        <path id="路径_4329" data-name="路径 4329" class="cls-42" d="M-720.074-3300.669l-.11,1.68.233,1.719-.03.008h0l-2.39-1.612Z"/>
        <path id="路径_4330" data-name="路径 4330" class="cls-41" d="M-719.981-3297.263l-1.65.42-1.534.739.795-2.771Z"/>
        <path id="路径_4331" data-name="路径 4331" class="cls-40" d="M-722.371-3298.875l-.795,2.771h0l-.028.014-.926-1.467-1.164-1.216Z"/>
      </g>
      <g id="组_2991" data-name="组 2991">
        <path id="路径_4332" data-name="路径 4332" class="cls-40" d="M-703.891-3301.672l-1.018,2.8-2.3-1.794,0-.051,1.707-.309Z"/>
        <path id="路径_4333" data-name="路径 4333" class="cls-41" d="M-701.961-3298.81l-.035.037-2.913-.1,1.018-2.8.822,1.528Z"/>
        <path id="路径_4334" data-name="路径 4334" class="cls-42" d="M-702-3298.773l-1.164,1.216-.926,1.467-.028-.014h0l-.795-2.771Z"/>
        <path id="路径_4335" data-name="路径 4335" class="cls-41" d="M-704.114-3296.1l-1.534-.739-1.65-.42,2.39-1.612Z"/>
        <path id="路径_4336" data-name="路径 4336" class="cls-40" d="M-704.909-3298.875l-2.39,1.612h0l-.03-.008.233-1.719-.11-1.68Z"/>
      </g>
    </g>
  </g>
</svg>
